<?xml version="1.0" encoding="UTF-8"?>
<svg width="24px" height="24px" viewBox="0 0 124 112" version="1.1" xmlns="http://www.w3.org/2000/svg" xmlns:xlink="http://www.w3.org/1999/xlink">
    <!-- Generator: Sketch 52.6 (67491) - http://www.bohemiancoding.com/sketch -->
    <title>menu-button-of-three-horizontal-lines</title>
    <desc>Created with Sketch.</desc>
    <g id="Page-1" stroke="none" stroke-width="1" fill="none" fill-rule="evenodd">
        <g id="menu-button-of-three-horizontal-lines" fill="#FFFFFF">
            <path d="M112,0 L12,0 C5.4,0 0,5.4 0,12 C0,18.6 5.4,24 12,24 L112,24 C118.6,24 124,18.6 124,12 C124,5.4 118.6,0 112,0 Z" id="Path"></path>
            <path d="M112,44 L12,44 C5.4,44 0,49.4 0,56 C0,62.6 5.4,68 12,68 L112,68 C118.6,68 124,62.6 124,56 C124,49.4 118.6,44 112,44 Z" id="Path"></path>
            <path d="M112,88 L12,88 C5.4,88 0,93.4 0,100 C0,106.6 5.4,112 12,112 L112,112 C118.6,112 124,106.6 124,100 C124,93.4 118.6,88 112,88 Z" id="Path"></path>
        </g>
    </g>
</svg>