<svg width="1001" height="372" viewBox="0 0 1001 372" fill="none" xmlns="http://www.w3.org/2000/svg">
<path fill-rule="evenodd" clip-rule="evenodd" d="M439.738 28.1638C471.685 -9.38795 549.037 -9.38795 581.409 28.1638C613.781 65.7157 642.003 154 642.003 154H385.003C385.003 154 407.792 65.7157 439.738 28.1638Z" fill="#B0C3FA"/>
<rect x="393.091" y="143.643" width="242.748" height="185.295" fill="#3E3E3E" stroke="#979797"/>
<path fill-rule="evenodd" clip-rule="evenodd" d="M515.478 325.95C575.888 325.95 624.861 311.58 624.861 293.854C624.861 276.128 575.888 261.758 515.478 261.758C455.067 261.758 406.095 276.128 406.095 293.854C406.095 311.58 455.067 325.95 515.478 325.95Z" fill="#FFDBDF"/>
<path fill-rule="evenodd" clip-rule="evenodd" d="M406.294 352.395C385.498 352.395 370.985 299.219 370.985 232.577C370.985 165.935 387.507 123.157 402.482 123.157C405.415 123.157 418.645 115.178 417.351 128.681C415.41 148.926 399.209 197.369 399.274 232.577C399.34 268.513 417.826 316.335 420.773 339.507C422.639 354.18 409.182 352.395 406.294 352.395Z" fill="#9FB6F9"/>
<path fill-rule="evenodd" clip-rule="evenodd" d="M617.809 352.463C639.016 352.463 654.57 299.448 654.57 232.808C654.57 166.167 641.01 123.39 625.739 123.39C622.319 123.39 615.984 112.738 617.809 129.874C619.973 150.199 630.727 200.964 630.667 232.808C630.583 277.532 615.933 324.762 614.784 344.188C614.425 350.254 616.001 352.463 617.809 352.463Z" fill="#9FB6F9"/>
<path fill-rule="evenodd" clip-rule="evenodd" d="M419.836 348.232C404.508 348.232 383.138 299.303 383.138 232.648C383.138 165.993 404.644 125.053 415.681 125.053C417.843 125.053 420.79 115.09 419.836 128.596C418.405 148.845 400.439 197.433 400.487 232.648C400.535 268.591 420.34 315.157 422.512 338.333C423.887 353.009 421.964 348.232 419.836 348.232Z" fill="#6A7699"/>
<path fill-rule="evenodd" clip-rule="evenodd" d="M609.179 352.017C624.391 352.017 643.766 302.601 643.766 236.05C643.766 169.5 624.256 129.189 613.303 129.189C611.157 129.189 613.156 131.683 613.303 132.726C616.314 154.083 630.932 199.168 630.887 232.69C630.838 268.577 615.458 318.036 613.303 341.175C611.938 355.828 607.067 352.017 609.179 352.017Z" fill="#6A7699"/>
<path fill-rule="evenodd" clip-rule="evenodd" d="M0.00350952 188.976C0.00350952 131.177 52.6736 87.6946 109.426 98.6405L482.581 170.611C494.09 172.83 505.917 172.83 517.426 170.611L890.581 98.6405C947.333 87.6946 1000 131.177 1000 188.976V265.272C1000 320.602 951.515 363.415 896.611 356.564L511.396 308.492C503.83 307.548 496.177 307.548 488.611 308.492L103.396 356.564C48.4916 363.415 0.00350952 320.602 0.00350952 265.272V188.976Z" fill="url(#paint0_linear)"/>
<g filter="url(#filter0_d)">
<path fill-rule="evenodd" clip-rule="evenodd" d="M422.299 291.068C422.299 291.068 412.031 306.625 417 318.331C421.969 330.036 432.397 336.809 440.292 333.457C448.187 330.106 450.559 317.9 445.59 306.195C440.622 294.489 422.299 291.068 422.299 291.068Z" fill="white"/>
</g>
<g filter="url(#filter1_d)">
<path fill-rule="evenodd" clip-rule="evenodd" d="M465.513 335.718C475.208 335.718 483.068 324.472 483.068 310.599C483.068 296.727 475.208 285.481 465.513 285.481C455.817 285.481 447.958 296.727 447.958 310.599C447.958 324.472 455.817 335.718 465.513 335.718Z" fill="white"/>
</g>
<g filter="url(#filter2_d)">
<path fill-rule="evenodd" clip-rule="evenodd" d="M500.286 335.718C509.795 335.718 517.504 324.472 517.504 310.599C517.504 296.727 509.795 285.481 500.286 285.481C490.777 285.481 483.068 296.727 483.068 310.599C483.068 324.472 490.777 335.718 500.286 335.718Z" fill="white"/>
</g>
<g filter="url(#filter3_d)">
<path fill-rule="evenodd" clip-rule="evenodd" d="M535.059 335.718C544.754 335.718 552.614 324.472 552.614 310.599C552.614 296.727 544.754 285.481 535.059 285.481C525.363 285.481 517.927 296.727 517.927 310.599C517.927 324.472 525.363 335.718 535.059 335.718Z" fill="white"/>
</g>
<g filter="url(#filter4_d)">
<path fill-rule="evenodd" clip-rule="evenodd" d="M570.169 335.718C579.865 335.718 587.725 324.472 587.725 310.599C587.725 296.727 579.865 285.481 570.169 285.481C560.474 285.481 552.66 296.727 552.66 310.599C552.66 324.472 560.474 335.718 570.169 335.718Z" fill="white"/>
</g>
<g filter="url(#filter5_d)">
<path fill-rule="evenodd" clip-rule="evenodd" d="M465.513 180.821C475.208 180.821 483.068 169.575 483.068 155.703C483.068 141.83 475.208 130.584 465.513 130.584C455.817 130.584 447.958 141.83 447.958 155.703C447.958 169.575 455.817 180.821 465.513 180.821Z" fill="white"/>
</g>
<g filter="url(#filter6_d)">
<path fill-rule="evenodd" clip-rule="evenodd" d="M499.948 180.821C509.644 180.821 517.504 169.575 517.504 155.703C517.504 141.83 509.644 130.584 499.948 130.584C490.253 130.584 482.393 141.83 482.393 155.703C482.393 169.575 490.253 180.821 499.948 180.821Z" fill="white"/>
</g>
<g filter="url(#filter7_d)">
<path fill-rule="evenodd" clip-rule="evenodd" d="M535.059 180.821C544.754 180.821 552.614 169.575 552.614 155.703C552.614 141.83 544.754 130.584 535.059 130.584C525.363 130.584 517.504 141.83 517.504 155.703C517.504 169.575 525.363 180.821 535.059 180.821Z" fill="white"/>
</g>
<g filter="url(#filter8_d)">
<path fill-rule="evenodd" clip-rule="evenodd" d="M570.169 180.821C579.865 180.821 587.725 169.575 587.725 155.703C587.725 141.83 579.865 130.584 570.169 130.584C560.474 130.584 552.614 141.83 552.614 155.703C552.614 169.575 560.474 180.821 570.169 180.821Z" fill="white"/>
</g>
<g filter="url(#filter9_d)">
<path fill-rule="evenodd" clip-rule="evenodd" d="M614.276 174.804C614.276 174.804 624.544 159.247 619.575 147.542C614.606 135.836 604.178 129.063 596.283 132.415C588.388 135.766 586.016 147.972 590.985 159.677C595.953 171.383 614.276 174.804 614.276 174.804Z" fill="white"/>
</g>
<g filter="url(#filter10_d)">
<path fill-rule="evenodd" clip-rule="evenodd" d="M594.299 333.457C586.404 330.106 584.884 318.386 589.853 306.68C594.822 294.975 612.292 291.068 612.292 291.068C612.292 291.068 622.559 306.625 617.59 318.33C612.622 330.036 602.194 336.809 594.299 333.457Z" fill="white"/>
</g>
<g filter="url(#filter11_d)">
<path fill-rule="evenodd" clip-rule="evenodd" d="M440.292 132.068C448.187 135.419 450.559 147.625 445.59 159.331C440.622 171.036 422.299 174.457 422.299 174.457C422.299 174.457 412.031 158.9 417 147.195C421.969 135.489 432.397 128.717 440.292 132.068Z" fill="white"/>
</g>
<path fill-rule="evenodd" clip-rule="evenodd" d="M512.83 155.703C572.168 155.703 635.664 154.992 635.664 135.921C635.664 116.851 572.168 94.9999 512.83 94.9999C453.493 94.9999 391.241 117.948 391.241 135.921C391.241 153.895 453.493 155.703 512.83 155.703Z" fill="#9FB6F9"/>
<path fill-rule="evenodd" clip-rule="evenodd" d="M510.752 372C576.01 372 628.912 358.411 628.912 341.648C628.912 324.886 576.01 311.297 510.752 311.297C445.493 311.297 392.591 324.886 392.591 341.648C392.591 358.411 445.493 372 510.752 372Z" fill="#9FB6F9"/>
<path fill-rule="evenodd" clip-rule="evenodd" d="M462.137 137.562C469.968 137.562 476.316 132.095 476.316 125.351C476.316 118.608 469.968 113.141 462.137 113.141C454.306 113.141 447.958 118.608 447.958 125.351C447.958 132.095 454.306 137.562 462.137 137.562Z" fill="#6A7699"/>
<path fill-rule="evenodd" clip-rule="evenodd" d="M560.716 137.562C568.547 137.562 574.896 132.095 574.896 125.351C574.896 118.608 568.547 113.141 560.716 113.141C552.885 113.141 546.537 118.608 546.537 125.351C546.537 132.095 552.885 137.562 560.716 137.562Z" fill="#6A7699"/>
<path fill-rule="evenodd" clip-rule="evenodd" d="M472.504 56C472.504 72.2924 488.174 85.5 507.504 85.5C526.833 85.5 542.504 72.2924 542.504 56C542.504 39.7076 526.833 26.5 507.504 26.5C488.174 26.5 472.504 39.7076 472.504 56Z" fill="white"/>
<path fill-rule="evenodd" clip-rule="evenodd" d="M494.379 52.8393C494.379 59.2399 500.255 64.4286 507.504 64.4286C514.752 64.4286 520.629 59.2399 520.629 52.8393C520.629 46.4387 514.752 41.25 507.504 41.25C500.255 41.25 494.379 46.4387 494.379 52.8393Z" fill="#4A4A4A"/>
<defs>
<filter id="filter0_d" x="394.004" y="273" width="74.5836" height="82.5254" filterUnits="userSpaceOnUse" color-interpolation-filters="sRGB">
<feFlood flood-opacity="0" result="BackgroundImageFix"/>
<feColorMatrix in="SourceAlpha" type="matrix" values="0 0 0 0 0 0 0 0 0 0 0 0 0 0 0 0 0 0 127 0"/>
<feOffset dy="2"/>
<feGaussianBlur stdDeviation="7"/>
<feColorMatrix type="matrix" values="0 0 0 0 0 0 0 0 0 0 0 0 0 0 0 0 0 0 0.5 0"/>
<feBlend mode="normal" in2="BackgroundImageFix" result="effect1_dropShadow"/>
<feBlend mode="normal" in="SourceGraphic" in2="effect1_dropShadow" result="shape"/>
</filter>
<filter id="filter1_d" x="433.958" y="273.481" width="63.1105" height="78.2368" filterUnits="userSpaceOnUse" color-interpolation-filters="sRGB">
<feFlood flood-opacity="0" result="BackgroundImageFix"/>
<feColorMatrix in="SourceAlpha" type="matrix" values="0 0 0 0 0 0 0 0 0 0 0 0 0 0 0 0 0 0 127 0"/>
<feOffset dy="2"/>
<feGaussianBlur stdDeviation="7"/>
<feColorMatrix type="matrix" values="0 0 0 0 0 0 0 0 0 0 0 0 0 0 0 0 0 0 0.5 0"/>
<feBlend mode="normal" in2="BackgroundImageFix" result="effect1_dropShadow"/>
<feBlend mode="normal" in="SourceGraphic" in2="effect1_dropShadow" result="shape"/>
</filter>
<filter id="filter2_d" x="469.068" y="273.481" width="62.4353" height="78.2368" filterUnits="userSpaceOnUse" color-interpolation-filters="sRGB">
<feFlood flood-opacity="0" result="BackgroundImageFix"/>
<feColorMatrix in="SourceAlpha" type="matrix" values="0 0 0 0 0 0 0 0 0 0 0 0 0 0 0 0 0 0 127 0"/>
<feOffset dy="2"/>
<feGaussianBlur stdDeviation="7"/>
<feColorMatrix type="matrix" values="0 0 0 0 0 0 0 0 0 0 0 0 0 0 0 0 0 0 0.5 0"/>
<feBlend mode="normal" in2="BackgroundImageFix" result="effect1_dropShadow"/>
<feBlend mode="normal" in="SourceGraphic" in2="effect1_dropShadow" result="shape"/>
</filter>
<filter id="filter3_d" x="503.927" y="273.481" width="62.6873" height="78.2368" filterUnits="userSpaceOnUse" color-interpolation-filters="sRGB">
<feFlood flood-opacity="0" result="BackgroundImageFix"/>
<feColorMatrix in="SourceAlpha" type="matrix" values="0 0 0 0 0 0 0 0 0 0 0 0 0 0 0 0 0 0 127 0"/>
<feOffset dy="2"/>
<feGaussianBlur stdDeviation="7"/>
<feColorMatrix type="matrix" values="0 0 0 0 0 0 0 0 0 0 0 0 0 0 0 0 0 0 0.5 0"/>
<feBlend mode="normal" in2="BackgroundImageFix" result="effect1_dropShadow"/>
<feBlend mode="normal" in="SourceGraphic" in2="effect1_dropShadow" result="shape"/>
</filter>
<filter id="filter4_d" x="538.66" y="273.481" width="63.0648" height="78.2368" filterUnits="userSpaceOnUse" color-interpolation-filters="sRGB">
<feFlood flood-opacity="0" result="BackgroundImageFix"/>
<feColorMatrix in="SourceAlpha" type="matrix" values="0 0 0 0 0 0 0 0 0 0 0 0 0 0 0 0 0 0 127 0"/>
<feOffset dy="2"/>
<feGaussianBlur stdDeviation="7"/>
<feColorMatrix type="matrix" values="0 0 0 0 0 0 0 0 0 0 0 0 0 0 0 0 0 0 0.5 0"/>
<feBlend mode="normal" in2="BackgroundImageFix" result="effect1_dropShadow"/>
<feBlend mode="normal" in="SourceGraphic" in2="effect1_dropShadow" result="shape"/>
</filter>
<filter id="filter5_d" x="433.958" y="118.584" width="63.1105" height="78.2368" filterUnits="userSpaceOnUse" color-interpolation-filters="sRGB">
<feFlood flood-opacity="0" result="BackgroundImageFix"/>
<feColorMatrix in="SourceAlpha" type="matrix" values="0 0 0 0 0 0 0 0 0 0 0 0 0 0 0 0 0 0 127 0"/>
<feOffset dy="2"/>
<feGaussianBlur stdDeviation="7"/>
<feColorMatrix type="matrix" values="0 0 0 0 0 0 0 0 0 0 0 0 0 0 0 0 0 0 0.5 0"/>
<feBlend mode="normal" in2="BackgroundImageFix" result="effect1_dropShadow"/>
<feBlend mode="normal" in="SourceGraphic" in2="effect1_dropShadow" result="shape"/>
</filter>
<filter id="filter6_d" x="468.393" y="118.584" width="63.1105" height="78.2368" filterUnits="userSpaceOnUse" color-interpolation-filters="sRGB">
<feFlood flood-opacity="0" result="BackgroundImageFix"/>
<feColorMatrix in="SourceAlpha" type="matrix" values="0 0 0 0 0 0 0 0 0 0 0 0 0 0 0 0 0 0 127 0"/>
<feOffset dy="2"/>
<feGaussianBlur stdDeviation="7"/>
<feColorMatrix type="matrix" values="0 0 0 0 0 0 0 0 0 0 0 0 0 0 0 0 0 0 0.5 0"/>
<feBlend mode="normal" in2="BackgroundImageFix" result="effect1_dropShadow"/>
<feBlend mode="normal" in="SourceGraphic" in2="effect1_dropShadow" result="shape"/>
</filter>
<filter id="filter7_d" x="503.504" y="118.584" width="63.1105" height="78.2368" filterUnits="userSpaceOnUse" color-interpolation-filters="sRGB">
<feFlood flood-opacity="0" result="BackgroundImageFix"/>
<feColorMatrix in="SourceAlpha" type="matrix" values="0 0 0 0 0 0 0 0 0 0 0 0 0 0 0 0 0 0 127 0"/>
<feOffset dy="2"/>
<feGaussianBlur stdDeviation="7"/>
<feColorMatrix type="matrix" values="0 0 0 0 0 0 0 0 0 0 0 0 0 0 0 0 0 0 0.5 0"/>
<feBlend mode="normal" in2="BackgroundImageFix" result="effect1_dropShadow"/>
<feBlend mode="normal" in="SourceGraphic" in2="effect1_dropShadow" result="shape"/>
</filter>
<filter id="filter8_d" x="538.614" y="118.584" width="63.1105" height="78.2368" filterUnits="userSpaceOnUse" color-interpolation-filters="sRGB">
<feFlood flood-opacity="0" result="BackgroundImageFix"/>
<feColorMatrix in="SourceAlpha" type="matrix" values="0 0 0 0 0 0 0 0 0 0 0 0 0 0 0 0 0 0 127 0"/>
<feOffset dy="2"/>
<feGaussianBlur stdDeviation="7"/>
<feColorMatrix type="matrix" values="0 0 0 0 0 0 0 0 0 0 0 0 0 0 0 0 0 0 0.5 0"/>
<feBlend mode="normal" in2="BackgroundImageFix" result="effect1_dropShadow"/>
<feBlend mode="normal" in="SourceGraphic" in2="effect1_dropShadow" result="shape"/>
</filter>
<filter id="filter9_d" x="567.988" y="114.347" width="74.5836" height="82.5254" filterUnits="userSpaceOnUse" color-interpolation-filters="sRGB">
<feFlood flood-opacity="0" result="BackgroundImageFix"/>
<feColorMatrix in="SourceAlpha" type="matrix" values="0 0 0 0 0 0 0 0 0 0 0 0 0 0 0 0 0 0 127 0"/>
<feOffset dy="2"/>
<feGaussianBlur stdDeviation="7"/>
<feColorMatrix type="matrix" values="0 0 0 0 0 0 0 0 0 0 0 0 0 0 0 0 0 0 0.5 0"/>
<feBlend mode="normal" in2="BackgroundImageFix" result="effect1_dropShadow"/>
<feBlend mode="normal" in="SourceGraphic" in2="effect1_dropShadow" result="shape"/>
</filter>
<filter id="filter10_d" x="566.901" y="273.381" width="73.6863" height="82.1446" filterUnits="userSpaceOnUse" color-interpolation-filters="sRGB">
<feFlood flood-opacity="0" result="BackgroundImageFix"/>
<feColorMatrix in="SourceAlpha" type="matrix" values="0 0 0 0 0 0 0 0 0 0 0 0 0 0 0 0 0 0 127 0"/>
<feOffset dy="2"/>
<feGaussianBlur stdDeviation="7"/>
<feColorMatrix type="matrix" values="0 0 0 0 0 0 0 0 0 0 0 0 0 0 0 0 0 0 0.5 0"/>
<feBlend mode="normal" in2="BackgroundImageFix" result="effect1_dropShadow"/>
<feBlend mode="normal" in="SourceGraphic" in2="effect1_dropShadow" result="shape"/>
</filter>
<filter id="filter11_d" x="394.004" y="114" width="74.5836" height="82.5254" filterUnits="userSpaceOnUse" color-interpolation-filters="sRGB">
<feFlood flood-opacity="0" result="BackgroundImageFix"/>
<feColorMatrix in="SourceAlpha" type="matrix" values="0 0 0 0 0 0 0 0 0 0 0 0 0 0 0 0 0 0 127 0"/>
<feOffset dy="2"/>
<feGaussianBlur stdDeviation="7"/>
<feColorMatrix type="matrix" values="0 0 0 0 0 0 0 0 0 0 0 0 0 0 0 0 0 0 0.5 0"/>
<feBlend mode="normal" in2="BackgroundImageFix" result="effect1_dropShadow"/>
<feBlend mode="normal" in="SourceGraphic" in2="effect1_dropShadow" result="shape"/>
</filter>
<linearGradient id="paint0_linear" x1="1440.06" y1="233.572" x2="1327.55" y2="-208.697" gradientUnits="userSpaceOnUse">
<stop stop-color="#E2958C"/>
<stop offset="1" stop-color="#B998EA"/>
</linearGradient>
</defs>
</svg>
