<svg width="248" height="226" viewBox="0 0 248 226" fill="none" xmlns="http://www.w3.org/2000/svg">
<path fill-rule="evenodd" clip-rule="evenodd" d="M120.704 160.197C112.973 146.812 117.606 129.669 131.052 121.909C144.498 114.148 161.665 118.708 169.396 132.094L184.28 157.866C187.219 162.955 185.458 169.471 180.347 172.421L165.255 181.131L150.163 189.842C145.052 192.792 138.527 191.058 135.588 185.97L120.704 160.197Z" fill="#DBBCE2"/>
<path d="M131.646 179.145C131.428 178.767 131.559 178.284 131.938 178.066L179.258 150.754C179.637 150.535 180.121 150.663 180.338 151.041C185.676 160.283 182.477 172.12 173.193 177.479L158.122 186.177C148.838 191.536 136.984 188.387 131.646 179.145Z" fill="#F4B19D"/>
<rect width="7.44134" height="46.5862" transform="matrix(0.841316 -0.485585 0.483701 0.837538 118.459 133.824)" fill="#F4B19D"/>
<rect width="7.44135" height="49.0821" transform="matrix(0.841315 -0.485588 0.483698 0.83754 141.01 119.877)" fill="#F4B19D"/>
<path fill-rule="evenodd" clip-rule="evenodd" d="M134.783 129.974C157.065 117.114 161.37 82.8659 144.399 53.4799C127.428 24.0939 46.7379 70.6661 63.709 100.052C80.6802 129.438 112.501 142.835 134.783 129.974Z" fill="#F8EDE0"/>
<path fill-rule="evenodd" clip-rule="evenodd" d="M125.643 113.918C128.687 112.161 130.292 109.242 129.227 107.398C128.594 106.302 117.448 112.455 118.203 113.761C119.268 115.605 122.599 115.675 125.643 113.918Z" fill="#EE9393"/>
<path fill-rule="evenodd" clip-rule="evenodd" d="M125.639 113.911C126.843 113.216 127.754 112.54 127.508 112.114C127.262 111.688 125.953 111.675 124.749 112.37C123.546 113.065 122.903 114.204 123.149 114.63C123.394 115.056 124.436 114.606 125.639 113.911Z" fill="#FDA981"/>
<path fill-rule="evenodd" clip-rule="evenodd" d="M126.7 109.543C126.983 109.38 126.729 108.139 126.533 108.079C126.393 108.037 125.488 108.425 125.468 108.602C125.446 108.786 126.417 109.707 126.7 109.543Z" fill="white"/>
<path fill-rule="evenodd" clip-rule="evenodd" d="M104.251 118.9C106.163 117.796 106.982 115.637 106.081 114.077C105.18 112.516 102.9 112.146 100.988 113.25C99.0762 114.353 98.257 116.512 99.158 118.072C100.059 119.633 102.339 120.003 104.251 118.9Z" fill="#FBA5F6" fill-opacity="0.356091"/>
<path fill-rule="evenodd" clip-rule="evenodd" d="M140.655 97.888C142.567 96.7847 143.386 94.6255 142.485 93.0653C141.584 91.5052 139.304 91.1349 137.392 92.2382C135.481 93.3415 134.661 95.5007 135.562 97.0608C136.463 98.621 138.744 98.9913 140.655 97.888Z" fill="#FBA5F6" fill-opacity="0.356091"/>
<path fill-rule="evenodd" clip-rule="evenodd" d="M128.719 90.8968C130.417 89.9169 132.162 91.3157 133.011 89.6298C133.861 87.944 130.654 86.8375 127.444 88.6898C124.235 90.542 123.89 93.6489 125.588 93.9144C127.285 94.18 127.021 91.8768 128.719 90.8968Z" fill="black"/>
<path fill-rule="evenodd" clip-rule="evenodd" d="M103.678 105.35C105.376 104.37 107.12 105.769 107.97 104.083C108.82 102.397 105.612 101.291 102.403 103.143C99.1939 104.995 98.8489 108.102 100.546 108.368C102.244 108.633 101.98 106.33 103.678 105.35Z" fill="black"/>
<path fill-rule="evenodd" clip-rule="evenodd" d="M58.3663 100.745C53.7472 87.1852 59.3999 72.2246 71.8596 65.0331L89.892 54.6253L104.93 80.6644C108.403 86.6777 106.322 94.3787 100.281 97.865L64.433 118.556L58.3663 100.745Z" fill="#F8F3BD"/>
<path fill-rule="evenodd" clip-rule="evenodd" d="M146.756 50.5011C137.402 39.3137 121.313 36.49 108.63 43.8101L90.2277 54.4314L106.717 82.983C109.388 87.6086 115.321 89.1844 119.967 86.5026L158.339 64.3552L146.756 50.5011Z" fill="#4A4A4A"/>
<rect width="6.61432" height="29.9474" rx="3.30716" transform="matrix(0.841316 -0.485586 0.483701 0.837539 149.038 186.775)" fill="#F8EDE0"/>
<rect width="6.61432" height="29.9472" rx="3.30716" transform="matrix(0.841317 -0.485583 0.483704 0.837537 173.383 172.724)" fill="#F8EDE0"/>
<path fill-rule="evenodd" clip-rule="evenodd" d="M137.973 135.083C166.786 118.452 176.632 81.5757 159.965 52.716C143.297 23.8562 106.428 13.942 77.6157 30.572C48.8028 47.2021 38.9569 84.0788 55.6242 112.939C72.2915 141.798 109.16 151.713 137.973 135.083Z" fill="#808CB1" fill-opacity="0.319639"/>
<path fill-rule="evenodd" clip-rule="evenodd" d="M61.6157 54.499C62.2673 53.4128 63.9123 53.0705 65.3977 53.6834C67.213 54.4323 68.0331 56.2706 67.2211 57.5904C65.1881 60.8946 61.7967 67.3367 60.0568 75.8488C57.4708 88.5002 61.1476 98.0212 59.5599 99.4249C57.9721 100.829 56.6713 101.762 54.8134 96.928C52.9556 92.094 51.5706 82.8942 53.53 73.3083C54.9989 66.1223 59.4693 58.077 61.6157 54.499Z" fill="white"/>
<path fill-rule="evenodd" clip-rule="evenodd" d="M118.74 152.508C120.341 152.394 121.502 151.008 121.415 149.405C121.327 147.779 119.985 146.502 118.357 146.477C113.147 146.396 102.223 146.063 96.606 144.696C91.7146 143.506 85.8902 139.356 82.4004 136.585C80.6994 135.235 78.1783 135.483 76.874 137.215C75.7857 138.661 75.9209 140.671 77.324 141.818C80.4227 144.352 86.4706 148.553 94.6844 150.761C103.658 153.175 113.894 152.854 118.74 152.508Z" fill="#F8EDE0"/>
<path fill-rule="evenodd" clip-rule="evenodd" d="M161.921 126.892C161.022 128.22 159.241 128.533 157.896 127.656C156.531 126.766 156.096 124.966 156.888 123.544C159.423 118.993 164.596 109.369 166.221 103.823C167.636 98.9929 166.952 91.8751 166.297 87.4685C165.978 85.3206 167.453 83.2619 169.606 82.9991C171.403 82.7798 173.076 83.9016 173.368 85.6899C174.014 89.6396 174.629 96.9762 172.436 105.192C170.04 114.167 164.644 122.869 161.921 126.892Z" fill="#F8EDE0"/>
</svg>
