<svg width="199" height="311" viewBox="0 0 199 311" fill="none" xmlns="http://www.w3.org/2000/svg">
<path d="M99.3625 311C154.239 311 198.725 266.528 198.725 211.668C198.725 156.808 154.239 112.336 99.3625 112.336C44.4861 112.336 0 156.808 0 211.668C0 266.528 44.4861 311 99.3625 311Z" fill="#D8D8D8"/>
<path opacity="0.1" d="M163.168 135.527C176.51 152.437 184.474 173.785 184.474 196.994C184.474 251.854 139.988 296.327 85.1117 296.327C60.8203 296.327 38.5686 287.608 21.3063 273.135C39.502 296.195 67.7023 311 99.3625 311C154.239 311 198.725 266.527 198.725 211.668C198.725 181.092 184.902 153.748 163.168 135.527Z" fill="black"/>
<path d="M151.382 127.026C150.009 128.77 147.753 132.28 146.583 134.13C146.086 134.916 145.827 135.828 145.827 136.758V152.21C145.827 156.458 150.789 158.771 154.043 156.039L158.746 152.089C159.778 151.223 160.407 149.977 160.61 148.646C161.1 145.431 162.427 139.829 165.591 141.727C172.949 146.141 162.927 167.479 159.791 173.716C159.229 174.833 158.252 175.661 157.073 176.073L135.892 183.484C132.577 184.644 131.46 188.77 133.736 191.444L143.058 202.397C144.653 204.27 147.373 204.705 149.473 203.423L168.721 191.663C170.647 190.486 173.124 190.747 174.764 192.298L188.261 205.068L196.577 221.156C196.577 221.156 197.547 222.028 198.155 222.323C198.529 218.822 198.725 215.268 198.725 211.668C198.725 175.876 179.786 144.509 151.382 127.026Z" fill="#4A4A4A"/>
<path d="M180.536 224.42C178.717 223.241 176.595 222.596 174.428 222.659L135.941 223.788C132.046 223.903 128.571 226.27 127.039 229.853L119.676 247.078C118.092 250.784 118.877 255.074 121.476 258.155C128.535 266.525 141.748 284.165 143.449 300.704C170.331 287.376 190.316 262.245 196.619 232.087C191.982 231.485 184.543 227.018 180.536 224.42Z" fill="#4A4A4A"/>
<path d="M56.7696 255.934C56.2762 255.626 55.8403 255.234 55.4817 254.775L46.0006 242.662C45.8056 242.413 45.6348 242.146 45.4903 241.865L40.3885 231.932C38.5816 228.414 34.1277 227.232 30.8145 229.392C27.0002 231.878 21.8713 229.896 20.7203 225.491L17.1959 212.002C15.5235 205.602 21.9863 200.089 28.0944 202.629L30.3173 203.428C33.3261 204.51 36.6173 203.623 38.2986 200.903C40.832 196.805 44.8644 189.312 50.0383 176.493C57.5829 157.802 49.2163 143.694 40.6804 131.51C16.0179 149.584 0 178.754 0 211.668C0 224.884 2.58847 237.495 7.27559 249.029C15.1609 251.342 25.2214 253.351 25.2214 253.351C25.2214 253.351 32.7927 260.585 18.075 268.799C32.0134 288.582 52.9924 303.047 77.3716 308.554C80.2744 300.71 82.6903 286.919 83.9052 279.152C84.4511 275.662 82.8263 272.214 79.8303 270.342L56.7696 255.934Z" fill="#4A4A4A"/>
<path fill-rule="evenodd" clip-rule="evenodd" d="M99.3625 140.661C121.656 140.661 139.728 134.32 139.728 126.499C139.728 118.677 121.656 112.336 99.3625 112.336C77.0689 112.336 58.9965 118.677 58.9965 126.499C58.9965 134.32 77.0689 140.661 99.3625 140.661Z" fill="#9B9B9B"/>
<path fill-rule="evenodd" clip-rule="evenodd" d="M66.1738 69.287L72.1208 74.1013C72.1208 74.1013 63.6287 78.8673 57.1531 88.9883C50.6775 99.1094 52.3191 106.258 49.3566 109.681C46.3941 113.103 42.8835 112.122 43.4096 104.866C43.9357 97.6111 46.2996 91.8426 51.2061 84.174C56.1126 76.5053 66.1738 69.287 66.1738 69.287Z" fill="#4A4A4A"/>
<path fill-rule="evenodd" clip-rule="evenodd" d="M129.392 81.5456L126.9 74.3124C126.9 74.3124 136.629 74.7694 147.485 69.6168C158.342 64.4642 160.739 57.532 165.066 56.1989C169.392 54.8658 171.849 57.5581 167.557 63.4322C163.265 69.3063 158.202 72.9459 149.976 76.8501C141.751 80.7542 129.392 81.5456 129.392 81.5456Z" fill="#4A4A4A"/>
<path fill-rule="evenodd" clip-rule="evenodd" d="M95.4136 7.79733C97.3487 4.52102 102.089 4.52103 104.024 7.79733L137.975 65.2795C138.901 66.8481 138.901 68.7964 137.975 70.365L104.024 127.847C102.089 131.124 97.3487 131.123 95.4136 127.847L61.4627 70.365C60.5362 68.7964 60.5362 66.8481 61.4627 65.2795L95.4136 7.79733Z" fill="#D8D8D8"/>
<path fill-rule="evenodd" clip-rule="evenodd" d="M100.073 76.8725C109.325 76.8725 116.825 67.0139 116.825 54.8527C116.825 42.6915 109.325 32.8329 100.073 32.8329C90.8206 32.8329 83.3202 42.6915 83.3202 54.8527C83.3202 67.0139 90.8206 76.8725 100.073 76.8725Z" fill="white"/>
<path fill-rule="evenodd" clip-rule="evenodd" d="M95.054 46.0729C97.9677 43.6681 102.178 43.6681 105.091 46.0729C108.338 48.7525 108.907 53.5098 106.384 56.8793C103.23 61.0907 96.9152 61.0907 93.7617 56.8793C91.2386 53.5098 91.8075 48.7525 95.054 46.0729Z" fill="#4A4A4A"/>
<path fill-rule="evenodd" clip-rule="evenodd" d="M99.6613 86.7421L90.9013 92.9973C90.2394 93.47 89.3202 92.9968 89.3202 92.1835V81.3008C89.3202 80.4875 90.2394 80.0143 90.9013 80.4869L99.6613 86.7421Z" fill="#5D6671"/>
<path fill-rule="evenodd" clip-rule="evenodd" d="M99.6613 86.6862L108.421 92.9414C109.083 93.4141 110.002 92.9409 110.002 92.1276V81.2448C110.002 80.4315 109.083 79.9584 108.421 80.431L99.6613 86.6862Z" fill="#5D6671"/>
<rect x="95.2294" y="83.1479" width="8.86377" height="7.38422" rx="3.69211" fill="#3B3A3B"/>
<path d="M182.265 62.6696H155.064C153.896 62.6696 152.949 61.7232 152.949 60.5557V25.9818C152.949 24.8143 153.896 23.8679 155.064 23.8679H182.265C183.433 23.8679 184.379 24.8143 184.379 25.9818V60.5557C184.379 61.7232 183.433 62.6696 182.265 62.6696Z" fill="#D8D8D8"/>
<path opacity="0.15" d="M182.265 62.6696H155.064C153.896 62.6696 152.949 61.7232 152.949 60.5557V25.9818C152.949 24.8143 153.896 23.8679 155.064 23.8679H182.265C183.433 23.8679 184.379 24.8143 184.379 25.9818V60.5557C184.379 61.7232 183.433 62.6696 182.265 62.6696Z" fill="black"/>
<path d="M180.377 59.5793H154.812V26.9599H180.377C180.85 26.9599 181.234 27.3434 181.234 27.8166V58.7227C181.234 59.1958 180.85 59.5793 180.377 59.5793Z" fill="#D8D8D8"/>
<rect opacity="0.1" x="178.653" y="26.9599" width="1.13711" height="32.6199" fill="black"/>
<path d="M175.645 62.6696H148.444C147.276 62.6696 146.33 61.7232 146.33 60.5557V25.9818C146.33 24.8143 147.276 23.8679 148.444 23.8679H175.645C176.813 23.8679 177.76 24.8143 177.76 25.9818V60.5557C177.76 61.7232 176.813 62.6696 175.645 62.6696Z" fill="#D8D8D8"/>
<path d="M158.265 57.0202C159.483 57.0202 160.47 56.234 160.47 55.2642C160.47 54.2945 159.483 53.5083 158.265 53.5083C157.047 53.5083 156.06 54.2945 156.06 55.2642C156.06 56.234 157.047 57.0202 158.265 57.0202Z" fill="white"/>
<path d="M170.218 57.0202C171.436 57.0202 172.424 56.234 172.424 55.2642C172.424 54.2945 171.436 53.5083 170.218 53.5083C169 53.5083 168.013 54.2945 168.013 55.2642C168.013 56.234 169 57.0202 170.218 57.0202Z" fill="white"/>
<path d="M160.6 53.9225C160.286 53.9225 160.031 53.668 160.031 53.354C160.031 53.0886 159.816 52.8729 159.55 52.8729C159.285 52.8729 159.069 53.0887 159.069 53.354C159.069 53.668 158.815 53.9225 158.501 53.9225C158.187 53.9225 157.932 53.668 157.932 53.354C157.932 52.4616 158.658 51.7358 159.55 51.7358C160.443 51.7358 161.168 52.4617 161.168 53.354C161.168 53.668 160.914 53.9225 160.6 53.9225Z" fill="#5D6671"/>
<path d="M169.983 53.9225C169.669 53.9225 169.414 53.668 169.414 53.354C169.414 53.0886 169.198 52.8729 168.933 52.8729C168.668 52.8729 168.452 53.0887 168.452 53.354C168.452 53.668 168.197 53.9225 167.883 53.9225C167.569 53.9225 167.315 53.668 167.315 53.354C167.315 52.4616 168.041 51.7358 168.933 51.7358C169.825 51.7358 170.551 52.4617 170.551 53.354C170.551 53.668 170.297 53.9225 169.983 53.9225Z" fill="#5D6671"/>
<path d="M164.242 55.6564C163.651 55.6564 163.089 55.4005 162.7 54.9541C162.493 54.7174 162.518 54.3583 162.755 54.1519C162.991 53.9456 163.351 53.9702 163.557 54.207C163.73 54.4054 163.979 54.5192 164.242 54.5192C164.504 54.5192 164.754 54.4054 164.926 54.207C165.133 53.9702 165.492 53.9456 165.729 54.1519C165.965 54.3582 165.99 54.7174 165.784 54.9541C165.395 55.4004 164.833 55.6564 164.242 55.6564Z" fill="#5D6671"/>
<path d="M150.724 23.8679H148.444C147.276 23.8679 146.33 24.8143 146.33 25.9818V60.5557C146.33 61.7232 147.276 62.6696 148.444 62.6696H150.724V23.8679Z" fill="#5D6671"/>
<path opacity="0.1" d="M150.715 23.8679C150.407 23.8679 149.838 23.8688 149.234 23.8679C148.629 23.8669 148.163 23.7929 147.615 24.0467C146.686 24.4768 146.33 25.4079 146.33 25.9817V60.5556C146.33 61.0892 146.652 62.0156 147.333 62.3884C148.014 62.7613 150.081 62.6695 150.715 62.6695V23.8679Z" fill="black"/>
<path d="M180.453 44.6013H177.76V38.7963H180.453C181.316 38.7963 182.015 39.4953 182.015 40.3575V43.0402C182.015 43.9024 181.316 44.6013 180.453 44.6013Z" fill="#C3E9F1"/>
<path d="M180.453 44.6013H177.76V38.7963H180.453C181.316 38.7963 182.015 39.4953 182.015 40.3575V43.0402C182.015 43.9024 181.316 44.6013 180.453 44.6013Z" fill="#5D6671"/>
<path opacity="0.15" d="M179.182 38.7963H177.76V44.6013H180.212C178.977 42.8268 179.204 40.2307 179.182 38.7963Z" fill="black"/>
<path d="M180.453 36.2981H177.76V30.4931H180.453C181.316 30.4931 182.015 31.1921 182.015 32.0543V34.737C182.015 35.5992 181.316 36.2981 180.453 36.2981Z" fill="#9B9B9B"/>
<path opacity="0.15" d="M179.182 30.4931H177.76V36.2981H180.212C178.977 34.5236 179.204 31.9275 179.182 30.4931Z" fill="black"/>
<path d="M172.59 29.8718L170.66 28.9768C170.413 28.8624 170.129 28.8624 169.882 28.9768L167.953 29.8718C167.497 30.0831 166.976 29.7506 166.976 29.2486V23.8679H173.566V29.2486C173.566 29.7506 173.045 30.0831 172.59 29.8718Z" fill="#4A4A4A"/>
<rect x="156.806" y="33.5684" width="15.5254" height="15.5207" fill="#4A4A4A"/>
<path d="M171.124 42.8129L170.919 42.7807C170.972 42.9671 171.076 43.134 171.219 43.2807C171.31 43.2471 171.383 43.192 171.409 43.1193C171.458 42.9827 171.33 42.8453 171.124 42.8129Z" fill="#373E49"/>
<path d="M168.192 47.4815C168.336 47.3616 168.376 47.1731 168.266 47.0208L168.237 46.9815C168.21 47.1419 168.192 47.304 168.192 47.4708C168.192 47.4743 168.192 47.4777 168.192 47.4815Z" fill="#373E49"/>
<path fill-rule="evenodd" clip-rule="evenodd" d="M165.24 42.9592L166.242 46.2933C166.124 46.3883 165.987 46.4635 165.833 46.5111L164.805 43.0891C164.743 43.0984 164.681 43.1051 164.617 43.1069C164.26 43.1178 163.928 43.0081 163.656 42.8169L162.76 43.7684L162.438 43.4468L163.325 42.5052C163.118 42.2455 162.988 41.9206 162.978 41.5639C162.976 41.5 162.979 41.4377 162.984 41.3756L159.21 40.4847C159.135 40.8709 159.101 41.2706 159.113 41.6796C159.117 41.8234 159.131 41.9643 159.146 42.1051H158.692C158.689 42.0801 158.686 42.0553 158.683 42.0305L158.683 42.0304C158.678 41.9939 158.673 41.9574 158.671 41.9201L157.983 41.9408C157.858 41.9447 157.753 41.8461 157.749 41.7204C157.745 41.5947 157.844 41.4902 157.97 41.4863L158.657 41.4656C158.66 41.0952 158.698 40.7325 158.767 40.3802L158.098 40.2222C157.975 40.1934 157.9 40.0708 157.929 39.9487C157.957 39.8267 158.079 39.7498 158.202 39.7798L158.87 39.9374C158.968 39.5835 159.1 39.2428 159.259 38.9182L158.653 38.5917C158.542 38.532 158.501 38.3941 158.56 38.2836C158.62 38.1729 158.757 38.1313 158.868 38.191L159.476 38.5177C159.662 38.2035 159.875 37.9075 160.114 37.6336L159.612 37.1605C159.52 37.0746 159.516 36.9307 159.602 36.8392C159.688 36.7479 159.832 36.7435 159.923 36.8296L160.426 37.3027C160.685 37.0479 160.968 36.8169 161.27 36.6128L160.908 36.0264C160.842 35.9196 160.875 35.7794 160.982 35.7134C161.089 35.6472 161.229 35.6806 161.295 35.7874L161.657 36.373C161.972 36.194 162.304 36.0424 162.651 35.9232L162.454 35.2662C162.418 35.1461 162.486 35.0191 162.606 34.9832C162.727 34.9467 162.854 35.0152 162.89 35.1355L163.088 35.7944C163.435 35.7044 163.795 35.6449 164.165 35.6198L164.144 34.9322C164.14 34.8065 164.239 34.702 164.365 34.6981C164.49 34.6942 164.595 34.7928 164.599 34.9185L164.62 35.6061C164.99 35.6092 165.353 35.6467 165.705 35.7157L165.864 35.0473C165.892 34.9252 166.014 34.8497 166.137 34.8784C166.259 34.9071 166.335 35.0297 166.306 35.1518L166.149 35.8195C166.503 35.9178 166.843 36.0492 167.168 36.2088L167.494 35.6024C167.554 35.4917 167.692 35.4501 167.803 35.5098C167.913 35.5693 167.955 35.7072 167.895 35.8176L167.568 36.4248C167.883 36.6105 168.179 36.8239 168.453 37.0629L168.926 36.5606C169.012 36.4693 169.156 36.4649 169.247 36.551C169.339 36.6369 169.343 36.7807 169.257 36.8723L168.784 37.3746C169.039 37.6336 169.27 37.9163 169.474 38.219L170.061 37.8563C170.167 37.7901 170.308 37.8234 170.374 37.9303C170.44 38.0371 170.407 38.1771 170.3 38.2433L169.714 38.6052C169.893 38.9197 170.044 39.2519 170.164 39.5993L170.821 39.4019C170.942 39.3649 171.068 39.434 171.104 39.5543C171.14 39.6746 171.072 39.8015 170.952 39.8375L170.293 40.0351C170.383 40.3828 170.442 40.7426 170.467 41.1123L171.155 41.0916C171.281 41.0877 171.386 41.1862 171.389 41.312C171.393 41.4377 171.294 41.5422 171.169 41.5461L170.481 41.5668C170.48 41.7483 170.469 41.9279 170.452 42.1053H169.993C170.021 41.8588 170.033 41.6081 170.026 41.3531C169.983 39.9309 169.396 38.651 168.472 37.7057L165.813 40.5274C166.021 40.7871 166.15 41.112 166.161 41.4687C166.163 41.5324 166.16 41.595 166.154 41.6568L169.578 42.4651L169.497 42.8891C169.495 42.8969 169.492 42.9039 169.491 42.9116L166.05 42.0996C165.9 42.4781 165.609 42.7869 165.24 42.9592ZM168.14 37.3937C167.141 36.5279 165.828 36.0191 164.406 36.0618C163.996 36.0742 163.6 36.1327 163.218 36.2299L164.334 39.9433C164.395 39.9342 164.458 39.9275 164.521 39.9257C164.878 39.9148 165.211 40.0245 165.482 40.2157L168.14 37.3937ZM163.088 40.9335L159.313 40.0424C159.796 38.3276 161.099 36.944 162.783 36.3599L163.898 40.0737C163.529 40.246 163.238 40.5551 163.088 40.9335ZM163.432 41.55C163.451 42.1767 163.977 42.6715 164.603 42.6526C165.23 42.634 165.725 42.1087 165.706 41.4817C165.687 40.855 165.162 40.3603 164.535 40.3792C163.908 40.3981 163.414 40.9233 163.432 41.55Z" fill="#373E49"/>
<path fill-rule="evenodd" clip-rule="evenodd" d="M172.332 41.5875C172.332 41.7305 172.216 41.8462 172.073 41.8462H171.29C171.274 42.2675 171.219 42.6788 171.129 43.0769L171.884 43.2792C172.023 43.3162 172.104 43.4582 172.067 43.5961C172.037 43.7115 171.932 43.7878 171.818 43.7878C171.796 43.7878 171.773 43.7849 171.751 43.779L170.996 43.577C170.872 43.9761 170.711 44.3589 170.519 44.7227L171.197 45.1143C171.321 45.1857 171.363 45.3437 171.292 45.4677C171.244 45.5507 171.157 45.597 171.068 45.597C171.024 45.597 170.979 45.5858 170.938 45.5623L170.259 45.1699C170.121 45.3877 169.967 45.5941 169.806 45.7943C169.315 45.9449 168.928 46.3319 168.777 46.8226C168.577 46.9837 168.371 47.1374 168.153 47.2753L168.545 47.9546C168.616 48.0782 168.574 48.2365 168.45 48.3079C168.41 48.3315 168.365 48.3426 168.321 48.3426C168.232 48.3426 168.145 48.2963 168.097 48.2133L167.705 47.535C167.341 47.7274 166.958 47.8886 166.559 48.0125L166.761 48.7665C166.762 48.7691 166.762 48.7717 166.763 48.7743L166.764 48.7801C166.764 48.7831 166.765 48.7861 166.765 48.7892C166.765 48.7982 166.765 48.8072 166.765 48.8161L166.765 48.8304H166.242L166.059 48.145C165.661 48.2355 165.249 48.2906 164.828 48.3066V48.8304H164.31V48.3066C163.889 48.2906 163.478 48.2355 163.079 48.145L162.896 48.8304H162.373L162.373 48.8167C162.373 48.8 162.373 48.7834 162.377 48.7665L162.579 48.0125C162.18 47.8886 161.797 47.7274 161.433 47.535L161.041 48.2133C160.994 48.2963 160.907 48.3426 160.817 48.3426C160.773 48.3426 160.729 48.3315 160.688 48.3079C160.564 48.2365 160.522 48.0785 160.593 47.9546L160.986 47.2753C160.767 47.1374 160.561 46.9837 160.361 46.8226C160.21 46.3319 159.823 45.9449 159.332 45.7943C159.171 45.5941 159.017 45.388 158.88 45.1699L158.2 45.5623C158.159 45.5858 158.114 45.597 158.071 45.597C157.981 45.597 157.894 45.5507 157.846 45.4677C157.775 45.3437 157.817 45.1857 157.941 45.1143L158.62 44.7227C158.427 44.3589 158.266 43.9761 158.142 43.577L157.388 43.779C157.365 43.7849 157.343 43.7878 157.321 43.7878C157.206 43.7878 157.102 43.7117 157.071 43.5961C157.034 43.458 157.116 43.3162 157.254 43.2792L158.01 43.0769C157.919 42.6786 157.864 42.2675 157.848 41.8462H157.065C156.922 41.8462 156.806 41.7305 156.806 41.5875C156.806 41.4444 156.922 41.3288 157.065 41.3288H157.848C157.864 40.9074 157.919 40.4964 158.009 40.098L157.254 39.8957C157.115 39.8587 157.034 39.7167 157.071 39.5789C157.108 39.441 157.249 39.3579 157.388 39.396L158.142 39.598C158.266 39.1989 158.427 38.816 158.62 38.4523L157.941 38.0607C157.817 37.9893 157.775 37.8312 157.846 37.7073C157.918 37.5834 158.076 37.5407 158.2 37.6124L158.88 38.0048C159.102 37.6538 159.354 37.3245 159.635 37.0213L159.08 36.4662C158.979 36.365 158.979 36.2015 159.08 36.1004C159.181 35.9993 159.345 35.9993 159.446 36.1004L160.001 36.6555C160.305 36.3744 160.634 36.1216 160.985 35.8997L160.593 35.2204C160.522 35.0967 160.564 34.9384 160.688 34.867C160.811 34.7951 160.97 34.8378 161.041 34.9617L161.433 35.64C161.797 35.4475 162.18 35.2863 162.579 35.1624L162.377 34.4084C162.34 34.2703 162.422 34.1285 162.56 34.0915C162.698 34.054 162.84 34.1365 162.877 34.2744L163.079 35.03C163.478 34.9395 163.889 34.8844 164.31 34.8683V34.0858C164.31 33.9428 164.426 33.8271 164.569 33.8271C164.712 33.8271 164.828 33.9428 164.828 34.0858V34.8683C165.249 34.8844 165.661 34.9397 166.059 35.03L166.261 34.2744C166.298 34.1365 166.44 34.0545 166.578 34.0915C166.717 34.1285 166.798 34.2705 166.761 34.4084L166.559 35.1624C166.958 35.2863 167.341 35.4475 167.705 35.64L168.097 34.9617C168.168 34.8381 168.326 34.7954 168.45 34.867C168.574 34.9384 168.617 35.0965 168.545 35.2204L168.152 35.8997C168.503 36.1216 168.833 36.3746 169.136 36.6555L169.692 36.1004C169.793 35.9993 169.956 35.9993 170.058 36.1004C170.159 36.2015 170.159 36.365 170.058 36.4662L169.502 37.0213C169.784 37.3247 170.036 37.654 170.258 38.005L170.938 37.6126C171.062 37.5407 171.22 37.5834 171.292 37.7073C171.363 37.831 171.321 37.9893 171.197 38.0607L170.518 38.4523C170.711 38.816 170.872 39.1989 170.996 39.598L171.75 39.396C171.889 39.3579 172.03 39.4407 172.067 39.5789C172.104 39.717 172.023 39.8587 171.884 39.8957L171.129 40.098C171.219 40.4964 171.274 40.9074 171.29 41.3288H172.073C172.216 41.3288 172.332 41.4444 172.332 41.5875ZM168.771 37.0215C167.664 36.0031 166.188 35.3796 164.569 35.3796C164.103 35.3796 163.65 35.4329 163.213 35.5305L164.355 39.7909C164.425 39.7826 164.497 39.7772 164.569 39.7772C164.975 39.7772 165.349 39.9132 165.652 40.1398L168.771 37.0215ZM165.863 41.5877C165.863 42.3011 165.283 42.8815 164.569 42.8815C163.856 42.8815 163.275 42.3011 163.275 41.5877C163.275 40.8743 163.856 40.2939 164.569 40.2939C165.283 40.2939 165.863 40.8743 165.863 41.5877ZM163.855 39.9245L162.713 35.6633C160.779 36.2699 159.25 37.7992 158.643 39.7326L162.905 40.8746C163.088 40.4494 163.43 40.1077 163.855 39.9245ZM158.359 41.5874C158.359 41.1218 158.412 40.6686 158.51 40.2319L162.772 41.3737C162.763 41.4438 162.758 41.515 162.758 41.5874C162.758 41.9935 162.894 42.3673 163.121 42.6697L160.001 45.7881C158.983 44.6817 158.359 43.2062 158.359 41.5874ZM160.367 46.1537C161.474 47.1721 162.95 47.7956 164.569 47.7956C165.035 47.7956 165.488 47.7423 165.925 47.6448L164.783 43.3843C164.713 43.3926 164.642 43.398 164.569 43.398C164.163 43.398 163.789 43.262 163.486 43.0356L160.367 46.1537ZM166.425 47.5121L165.283 43.2509C165.709 43.0677 166.05 42.726 166.233 42.3008L170.496 43.4426C169.889 45.3762 168.359 46.9055 166.425 47.5121ZM166.367 41.8007L170.628 42.9425C170.726 42.5059 170.779 42.0527 170.779 41.5871C170.779 39.9683 170.156 38.4928 169.137 37.3867L166.018 40.5048C166.244 40.8072 166.38 41.1809 166.38 41.5871C166.38 41.6595 166.375 41.7306 166.367 41.8007Z" fill="#D8D8D8"/>
<path d="M157.065 48.8304H157.565C157.365 48.6739 157.195 48.4881 157.065 48.2793V48.8304Z" fill="#7383BF"/>
<path d="M163.445 46.547C162.544 46.3736 162.13 45.3213 162.673 44.5818L163.054 44.0621L162.231 43.239L161.57 43.6868C160.827 44.1899 159.811 43.7693 159.642 42.8885L159.491 42.1044H158.327L158.228 42.7413C158.134 43.359 157.622 43.7649 157.065 43.7985V46.2769C157.418 45.64 158.097 45.2086 158.876 45.2086C160.02 45.2086 160.946 46.1351 160.946 47.278C160.946 47.897 160.673 48.4508 160.242 48.83H162.4C162.525 48.3812 162.894 48.0056 163.414 47.9257L164.052 47.8277V46.6636L163.445 46.547Z" fill="#5D6671"/>
<path fill-rule="evenodd" clip-rule="evenodd" d="M157.065 46.2783C157.418 45.6414 158.097 45.21 158.876 45.21C160.02 45.21 160.946 46.1365 160.946 47.2794C160.946 47.8984 160.673 48.4522 160.242 48.8315H157.51C157.332 48.675 157.181 48.4892 157.065 48.2805V46.2783ZM157.841 47.2786C157.841 47.8502 158.305 48.3136 158.876 48.3136C159.448 48.3136 159.911 47.8502 159.911 47.2786C159.911 46.707 159.448 46.2436 158.876 46.2436C158.305 46.2436 157.841 46.707 157.841 47.2786Z" fill="white"/>
<path d="M172.128 48.8304V48.2793C171.998 48.4881 171.828 48.6739 171.628 48.8304H172.128Z" fill="#7383BF"/>
<path d="M170.91 42.7413L170.812 42.1044H169.647L169.496 42.8882C169.327 43.769 168.311 44.1896 167.569 43.6865L166.907 43.2387L166.084 44.0618L166.465 44.5815C167.008 45.3211 166.595 46.3736 165.694 46.5467L165.087 46.6636V47.8277L165.724 47.9257C166.244 48.0056 166.613 48.3812 166.737 48.83H168.896C168.465 48.4508 168.192 47.897 168.192 47.278C168.192 46.1351 169.119 45.2086 170.262 45.2086C171.042 45.2086 171.72 45.64 172.073 46.2769V43.7985C171.516 43.7649 171.005 43.359 170.91 42.7413Z" fill="#5D6671"/>
<path fill-rule="evenodd" clip-rule="evenodd" d="M170.262 45.21C171.042 45.21 171.72 45.6414 172.073 46.2783V48.2805C171.957 48.4892 171.806 48.675 171.628 48.8315H168.896C168.465 48.4522 168.192 47.8984 168.192 47.2794C168.192 46.1365 169.119 45.21 170.262 45.21ZM169.227 47.2786C169.227 47.8502 169.69 48.3136 170.262 48.3136C170.833 48.3136 171.297 47.8502 171.297 47.2786C171.297 46.707 170.833 46.2436 170.262 46.2436C169.69 46.2436 169.227 46.707 169.227 47.2786Z" fill="white"/>
</svg>
