<svg width="1440" height="1366" viewBox="0 0 1440 1366" fill="none" xmlns="http://www.w3.org/2000/svg">
<path fill-rule="evenodd" clip-rule="evenodd" d="M0 89.0492C0 89.0492 125.324 9.99805 267.752 9.99805C410.181 9.99805 422.179 62.9806 654.715 62.9806C748.214 62.9806 844.838 9.99805 922.06 9.99805C999.281 9.99805 1050.9 65.0395 1114.01 62.9806C1200.41 60.1618 1243.3 0 1302.65 0C1362 0 1444 62.9806 1444 62.9806V1366C1444 1366 1356.23 1366 1254 1366C1151.77 1366 1064.47 1366 982.528 1366C900.585 1366 794.295 1366 690 1366C585.705 1366 531.909 1366 432.676 1366C333.444 1366 232.26 1366 166 1366C65.4526 1366 -10 1366 -10 1366L0 89.0492Z" fill="url(#paint0_linear)"/>
<path fill-rule="evenodd" clip-rule="evenodd" d="M1442.65 533.236C1432.81 447.41 1331.21 355.932 1033.03 355.932C836.599 355.932 593.815 431.255 357.878 476.787C305.089 486.975 186.798 422.666 82.3651 457.273C-22.0681 491.88 -26.1025 609.512 39.7916 673.14C58.4852 691.191 81.0468 701.429 105.94 706.007C225.713 728.039 399.455 619.063 455.943 619.063C524.171 619.063 595.556 682.803 745.009 682.803C894.462 682.803 935.307 619.063 1033.03 619.063C1130.75 619.063 1181.38 682.803 1295.29 682.803C1409.2 682.803 1452.48 619.063 1442.65 533.236Z" fill="#52489C" fill-opacity="0.156278"/>
<path fill-rule="evenodd" clip-rule="evenodd" d="M100.5 474.938C101.328 474.938 102 474.266 102 473.437C102 472.609 101.328 471.937 100.5 471.937C99.6716 471.937 99 472.609 99 473.437C99 474.266 99.6716 474.938 100.5 474.938Z" fill="white"/>
<path fill-rule="evenodd" clip-rule="evenodd" d="M87.5 377.933C88.3284 377.933 89 377.261 89 376.433C89 375.604 88.3284 374.933 87.5 374.933C86.6716 374.933 86 375.604 86 376.433C86 377.261 86.6716 377.933 87.5 377.933Z" fill="white"/>
<path fill-rule="evenodd" clip-rule="evenodd" d="M148.5 282.928C149.328 282.928 150 282.257 150 281.428C150 280.6 149.328 279.928 148.5 279.928C147.672 279.928 147 280.6 147 281.428C147 282.257 147.672 282.928 148.5 282.928Z" fill="white"/>
<path fill-rule="evenodd" clip-rule="evenodd" d="M282.5 192.924C283.328 192.924 284 192.253 284 191.424C284 190.596 283.328 189.924 282.5 189.924C281.672 189.924 281 190.596 281 191.424C281 192.253 281.672 192.924 282.5 192.924Z" fill="white"/>
<path fill-rule="evenodd" clip-rule="evenodd" d="M132.5 170.923C133.328 170.923 134 170.252 134 169.423C134 168.595 133.328 167.923 132.5 167.923C131.672 167.923 131 168.595 131 169.423C131 170.252 131.672 170.923 132.5 170.923Z" fill="white"/>
<path fill-rule="evenodd" clip-rule="evenodd" d="M63.5 248.927C64.8807 248.927 66 247.808 66 246.427C66 245.046 64.8807 243.927 63.5 243.927C62.1193 243.927 61 245.046 61 246.427C61 247.808 62.1193 248.927 63.5 248.927Z" fill="white"/>
<path fill-rule="evenodd" clip-rule="evenodd" d="M417.5 226.926C418.328 226.926 419 226.254 419 225.426C419 224.598 418.328 223.926 417.5 223.926C416.672 223.926 416 224.598 416 225.426C416 226.254 416.672 226.926 417.5 226.926Z" fill="white"/>
<path fill-rule="evenodd" clip-rule="evenodd" d="M1052.5 194.925C1053.33 194.925 1054 194.253 1054 193.424C1054 192.596 1053.33 191.924 1052.5 191.924C1051.67 191.924 1051 192.596 1051 193.424C1051 194.253 1051.67 194.925 1052.5 194.925Z" fill="white"/>
<path fill-rule="evenodd" clip-rule="evenodd" d="M1062.5 291.929C1063.33 291.929 1064 291.257 1064 290.429C1064 289.6 1063.33 288.929 1062.5 288.929C1061.67 288.929 1061 289.6 1061 290.429C1061 291.257 1061.67 291.929 1062.5 291.929Z" fill="white"/>
<path fill-rule="evenodd" clip-rule="evenodd" d="M1113.5 226.926C1114.33 226.926 1115 226.254 1115 225.426C1115 224.598 1114.33 223.926 1113.5 223.926C1112.67 223.926 1112 224.598 1112 225.426C1112 226.254 1112.67 226.926 1113.5 226.926Z" fill="white"/>
<path fill-rule="evenodd" clip-rule="evenodd" d="M1197.5 275.928C1198.88 275.928 1200 274.809 1200 273.428C1200 272.047 1198.88 270.928 1197.5 270.928C1196.12 270.928 1195 272.047 1195 273.428C1195 274.809 1196.12 275.928 1197.5 275.928Z" fill="white"/>
<path fill-rule="evenodd" clip-rule="evenodd" d="M1283.5 220.926C1284.33 220.926 1285 220.254 1285 219.426C1285 218.597 1284.33 217.925 1283.5 217.925C1282.67 217.925 1282 218.597 1282 219.426C1282 220.254 1282.67 220.926 1283.5 220.926Z" fill="white"/>
<path fill-rule="evenodd" clip-rule="evenodd" d="M1280.5 393.934C1281.33 393.934 1282 393.262 1282 392.434C1282 391.605 1281.33 390.934 1280.5 390.934C1279.67 390.934 1279 391.605 1279 392.434C1279 393.262 1279.67 393.934 1280.5 393.934Z" fill="white"/>
<path fill-rule="evenodd" clip-rule="evenodd" d="M357 564.942C358.105 564.942 359 564.046 359 562.941C359 561.837 358.105 560.941 357 560.941C355.895 560.941 355 561.837 355 562.941C355 564.046 355.895 564.942 357 564.942Z" fill="white"/>
<path fill-rule="evenodd" clip-rule="evenodd" d="M527.5 255.927C528.328 255.927 529 255.256 529 254.427C529 253.599 528.328 252.927 527.5 252.927C526.672 252.927 526 253.599 526 254.427C526 255.256 526.672 255.927 527.5 255.927Z" fill="white"/>
<path fill-rule="evenodd" clip-rule="evenodd" d="M546.5 169.923C547.328 169.923 548 169.252 548 168.423C548 167.595 547.328 166.923 546.5 166.923C545.672 166.923 545 167.595 545 168.423C545 169.252 545.672 169.923 546.5 169.923Z" fill="white"/>
<path fill-rule="evenodd" clip-rule="evenodd" d="M676.5 223.926C677.328 223.926 678 223.254 678 222.426C678 221.597 677.328 220.926 676.5 220.926C675.672 220.926 675 221.597 675 222.426C675 223.254 675.672 223.926 676.5 223.926Z" fill="white"/>
<path fill-rule="evenodd" clip-rule="evenodd" d="M414.5 112.921C415.328 112.921 416 112.249 416 111.42C416 110.592 415.328 109.92 414.5 109.92C413.672 109.92 413 110.592 413 111.42C413 112.249 413.672 112.921 414.5 112.921Z" fill="white"/>
<path fill-rule="evenodd" clip-rule="evenodd" d="M899.5 258.927C900.328 258.927 901 258.256 901 257.427C901 256.599 900.328 255.927 899.5 255.927C898.672 255.927 898 256.599 898 257.427C898 258.256 898.672 258.927 899.5 258.927Z" fill="white"/>
<path fill-rule="evenodd" clip-rule="evenodd" d="M332 318.93C333.657 318.93 335 317.587 335 315.93C335 314.273 333.657 312.93 332 312.93C330.343 312.93 329 314.273 329 315.93C329 317.587 330.343 318.93 332 318.93Z" fill="white"/>
<defs>
<linearGradient id="paint0_linear" x1="1444" y1="765.91" x2="1443.24" y2="-0.719817" gradientUnits="userSpaceOnUse">
<stop stop-color="#2B3780"/>
<stop offset="0.513767" stop-color="#2D3270"/>
<stop offset="1" stop-color="#20244C"/>
</linearGradient>
</defs>
</svg>
