<svg width="1440" height="1367" viewBox="0 0 1440 1367" fill="none" xmlns="http://www.w3.org/2000/svg">
<path fill-rule="evenodd" clip-rule="evenodd" d="M0 89.1144C0 89.1144 125.324 10.0054 267.752 10.0054C410.181 10.0054 422.179 63.0267 654.715 63.0267C748.214 63.0267 844.838 10.0054 922.06 10.0054C999.281 10.0054 1050.9 65.0871 1114.01 63.0267C1200.41 60.2058 1243.3 0 1302.65 0C1362 0 1444 63.0267 1444 63.0267V1367C1444 1367 1356.23 1367 1254 1367C1151.77 1367 1064.47 1367 982.528 1367C900.585 1367 794.295 1367 690 1367C585.705 1367 531.909 1367 432.676 1367C333.444 1367 232.26 1367 166 1367C65.4526 1367 -10 1367 -10 1367L0 89.1144Z" fill="url(#paint0_linear)"/>
<path fill-rule="evenodd" clip-rule="evenodd" d="M1442.65 533.236C1432.81 447.41 1331.21 355.932 1033.03 355.932C836.599 355.932 593.815 431.255 357.878 476.787C305.089 486.975 186.798 422.666 82.3651 457.273C-22.0681 491.88 -26.1025 609.512 39.7916 673.14C58.4852 691.191 81.0468 701.429 105.94 706.007C225.713 728.039 399.455 619.063 455.943 619.063C524.171 619.063 595.556 682.803 745.009 682.803C894.462 682.803 935.307 619.063 1033.03 619.063C1130.75 619.063 1181.38 682.803 1295.29 682.803C1409.2 682.803 1452.48 619.063 1442.65 533.236Z" fill="#52489C" fill-opacity="0.156278"/>
<path fill-rule="evenodd" clip-rule="evenodd" d="M100.5 474.938C101.328 474.938 102 474.266 102 473.438C102 472.609 101.328 471.938 100.5 471.938C99.6716 471.938 99 472.609 99 473.438C99 474.266 99.6716 474.938 100.5 474.938Z" fill="white"/>
<path fill-rule="evenodd" clip-rule="evenodd" d="M87.5 377.933C88.3284 377.933 89 377.262 89 376.433C89 375.605 88.3284 374.933 87.5 374.933C86.6716 374.933 86 375.605 86 376.433C86 377.262 86.6716 377.933 87.5 377.933Z" fill="white"/>
<path fill-rule="evenodd" clip-rule="evenodd" d="M148.5 282.928C149.328 282.928 150 282.257 150 281.428C150 280.6 149.328 279.928 148.5 279.928C147.672 279.928 147 280.6 147 281.428C147 282.257 147.672 282.928 148.5 282.928Z" fill="white"/>
<path fill-rule="evenodd" clip-rule="evenodd" d="M282.5 192.924C283.328 192.924 284 192.253 284 191.424C284 190.596 283.328 189.924 282.5 189.924C281.672 189.924 281 190.596 281 191.424C281 192.253 281.672 192.924 282.5 192.924Z" fill="white"/>
<path fill-rule="evenodd" clip-rule="evenodd" d="M132.5 170.923C133.328 170.923 134 170.252 134 169.423C134 168.595 133.328 167.923 132.5 167.923C131.672 167.923 131 168.595 131 169.423C131 170.252 131.672 170.923 132.5 170.923Z" fill="white"/>
<path fill-rule="evenodd" clip-rule="evenodd" d="M63.5 248.927C64.8807 248.927 66 247.808 66 246.427C66 245.046 64.8807 243.927 63.5 243.927C62.1193 243.927 61 245.046 61 246.427C61 247.808 62.1193 248.927 63.5 248.927Z" fill="white"/>
<path fill-rule="evenodd" clip-rule="evenodd" d="M417.5 226.926C418.328 226.926 419 226.254 419 225.426C419 224.597 418.328 223.926 417.5 223.926C416.672 223.926 416 224.597 416 225.426C416 226.254 416.672 226.926 417.5 226.926Z" fill="white"/>
<path fill-rule="evenodd" clip-rule="evenodd" d="M1052.5 194.924C1053.33 194.924 1054 194.253 1054 193.424C1054 192.596 1053.33 191.924 1052.5 191.924C1051.67 191.924 1051 192.596 1051 193.424C1051 194.253 1051.67 194.924 1052.5 194.924Z" fill="white"/>
<path fill-rule="evenodd" clip-rule="evenodd" d="M1062.5 291.929C1063.33 291.929 1064 291.257 1064 290.429C1064 289.6 1063.33 288.929 1062.5 288.929C1061.67 288.929 1061 289.6 1061 290.429C1061 291.257 1061.67 291.929 1062.5 291.929Z" fill="white"/>
<path fill-rule="evenodd" clip-rule="evenodd" d="M1113.5 226.926C1114.33 226.926 1115 226.254 1115 225.426C1115 224.597 1114.33 223.926 1113.5 223.926C1112.67 223.926 1112 224.597 1112 225.426C1112 226.254 1112.67 226.926 1113.5 226.926Z" fill="white"/>
<path fill-rule="evenodd" clip-rule="evenodd" d="M1197.5 275.928C1198.88 275.928 1200 274.809 1200 273.428C1200 272.048 1198.88 270.928 1197.5 270.928C1196.12 270.928 1195 272.048 1195 273.428C1195 274.809 1196.12 275.928 1197.5 275.928Z" fill="white"/>
<path fill-rule="evenodd" clip-rule="evenodd" d="M1283.5 220.925C1284.33 220.925 1285 220.254 1285 219.425C1285 218.597 1284.33 217.925 1283.5 217.925C1282.67 217.925 1282 218.597 1282 219.425C1282 220.254 1282.67 220.925 1283.5 220.925Z" fill="white"/>
<path fill-rule="evenodd" clip-rule="evenodd" d="M1280.5 393.934C1281.33 393.934 1282 393.262 1282 392.434C1282 391.605 1281.33 390.934 1280.5 390.934C1279.67 390.934 1279 391.605 1279 392.434C1279 393.262 1279.67 393.934 1280.5 393.934Z" fill="white"/>
<path fill-rule="evenodd" clip-rule="evenodd" d="M357 564.942C358.105 564.942 359 564.046 359 562.941C359 561.837 358.105 560.941 357 560.941C355.895 560.941 355 561.837 355 562.941C355 564.046 355.895 564.942 357 564.942Z" fill="white"/>
<path fill-rule="evenodd" clip-rule="evenodd" d="M527.5 255.927C528.328 255.927 529 255.256 529 254.427C529 253.599 528.328 252.927 527.5 252.927C526.672 252.927 526 253.599 526 254.427C526 255.256 526.672 255.927 527.5 255.927Z" fill="white"/>
<path fill-rule="evenodd" clip-rule="evenodd" d="M546.5 169.923C547.328 169.923 548 169.252 548 168.423C548 167.595 547.328 166.923 546.5 166.923C545.672 166.923 545 167.595 545 168.423C545 169.252 545.672 169.923 546.5 169.923Z" fill="white"/>
<path fill-rule="evenodd" clip-rule="evenodd" d="M676.5 223.926C677.328 223.926 678 223.254 678 222.426C678 221.597 677.328 220.926 676.5 220.926C675.672 220.926 675 221.597 675 222.426C675 223.254 675.672 223.926 676.5 223.926Z" fill="white"/>
<path fill-rule="evenodd" clip-rule="evenodd" d="M414.5 112.921C415.328 112.921 416 112.249 416 111.42C416 110.592 415.328 109.92 414.5 109.92C413.672 109.92 413 110.592 413 111.42C413 112.249 413.672 112.921 414.5 112.921Z" fill="white"/>
<path fill-rule="evenodd" clip-rule="evenodd" d="M899.5 258.927C900.328 258.927 901 258.256 901 257.427C901 256.599 900.328 255.927 899.5 255.927C898.672 255.927 898 256.599 898 257.427C898 258.256 898.672 258.927 899.5 258.927Z" fill="white"/>
<path fill-rule="evenodd" clip-rule="evenodd" d="M332 318.93C333.657 318.93 335 317.587 335 315.93C335 314.273 333.657 312.93 332 312.93C330.343 312.93 329 314.273 329 315.93C329 317.587 330.343 318.93 332 318.93Z" fill="white"/>
<path fill-rule="evenodd" clip-rule="evenodd" d="M661.738 932.164C693.685 894.612 771.037 894.612 803.409 932.164C835.781 969.716 864.003 1058 864.003 1058H607.003C607.003 1058 629.792 969.716 661.738 932.164Z" fill="#B0C3FA"/>
<rect x="615.091" y="1047.64" width="242.748" height="185.295" fill="#3E3E3E" stroke="#979797"/>
<path fill-rule="evenodd" clip-rule="evenodd" d="M737.478 1229.95C797.888 1229.95 846.861 1215.58 846.861 1197.85C846.861 1180.13 797.888 1165.76 737.478 1165.76C677.067 1165.76 628.095 1180.13 628.095 1197.85C628.095 1215.58 677.067 1229.95 737.478 1229.95Z" fill="#FFDBDF"/>
<path fill-rule="evenodd" clip-rule="evenodd" d="M628.294 1256.39C607.498 1256.39 592.985 1203.22 592.985 1136.58C592.985 1069.93 609.507 1027.16 624.482 1027.16C627.415 1027.16 640.645 1019.18 639.351 1032.68C637.41 1052.93 621.209 1101.37 621.274 1136.58C621.34 1172.51 639.826 1220.34 642.773 1243.51C644.639 1258.18 631.182 1256.39 628.294 1256.39Z" fill="#9FB6F9"/>
<path fill-rule="evenodd" clip-rule="evenodd" d="M839.809 1256.46C861.016 1256.46 876.57 1203.45 876.57 1136.81C876.57 1070.17 863.01 1027.39 847.739 1027.39C844.319 1027.39 837.984 1016.74 839.809 1033.87C841.973 1054.2 852.727 1104.96 852.667 1136.81C852.583 1181.53 837.933 1228.76 836.784 1248.19C836.425 1254.25 838.001 1256.46 839.809 1256.46Z" fill="#9FB6F9"/>
<path fill-rule="evenodd" clip-rule="evenodd" d="M641.836 1252.23C626.508 1252.23 605.138 1203.3 605.138 1136.65C605.138 1069.99 626.644 1029.05 637.681 1029.05C639.843 1029.05 642.79 1019.09 641.836 1032.6C640.405 1052.84 622.439 1101.43 622.487 1136.65C622.535 1172.59 642.34 1219.16 644.512 1242.33C645.887 1257.01 643.964 1252.23 641.836 1252.23Z" fill="#6A7699"/>
<path fill-rule="evenodd" clip-rule="evenodd" d="M831.179 1256.02C846.391 1256.02 865.766 1206.6 865.766 1140.05C865.766 1073.5 846.256 1033.19 835.303 1033.19C833.157 1033.19 835.156 1035.68 835.303 1036.73C838.314 1058.08 852.932 1103.17 852.887 1136.69C852.838 1172.58 837.458 1222.04 835.303 1245.18C833.938 1259.83 829.067 1256.02 831.179 1256.02Z" fill="#6A7699"/>
<path fill-rule="evenodd" clip-rule="evenodd" d="M222.004 1092.98C222.004 1035.18 274.674 991.695 331.426 1002.64L704.581 1074.61C716.09 1076.83 727.917 1076.83 739.426 1074.61L1112.58 1002.64C1169.33 991.695 1222 1035.18 1222 1092.98V1169.27C1222 1224.6 1173.52 1267.42 1118.61 1260.56L733.396 1212.49C725.83 1211.55 718.177 1211.55 710.611 1212.49L325.396 1260.56C270.492 1267.42 222.004 1224.6 222.004 1169.27V1092.98Z" fill="url(#paint1_linear)"/>
<g filter="url(#filter0_d)">
<path fill-rule="evenodd" clip-rule="evenodd" d="M644.299 1195.07C644.299 1195.07 634.031 1210.63 639 1222.33C643.969 1234.04 654.397 1240.81 662.292 1237.46C670.187 1234.11 672.559 1221.9 667.59 1210.19C662.622 1198.49 644.299 1195.07 644.299 1195.07Z" fill="white"/>
</g>
<g filter="url(#filter1_d)">
<path fill-rule="evenodd" clip-rule="evenodd" d="M687.513 1239.72C697.208 1239.72 705.068 1228.47 705.068 1214.6C705.068 1200.73 697.208 1189.48 687.513 1189.48C677.817 1189.48 669.958 1200.73 669.958 1214.6C669.958 1228.47 677.817 1239.72 687.513 1239.72Z" fill="white"/>
</g>
<g filter="url(#filter2_d)">
<path fill-rule="evenodd" clip-rule="evenodd" d="M722.286 1239.72C731.795 1239.72 739.504 1228.47 739.504 1214.6C739.504 1200.73 731.795 1189.48 722.286 1189.48C712.777 1189.48 705.068 1200.73 705.068 1214.6C705.068 1228.47 712.777 1239.72 722.286 1239.72Z" fill="white"/>
</g>
<g filter="url(#filter3_d)">
<path fill-rule="evenodd" clip-rule="evenodd" d="M757.059 1239.72C766.754 1239.72 774.614 1228.47 774.614 1214.6C774.614 1200.73 766.754 1189.48 757.059 1189.48C747.363 1189.48 739.927 1200.73 739.927 1214.6C739.927 1228.47 747.363 1239.72 757.059 1239.72Z" fill="white"/>
</g>
<g filter="url(#filter4_d)">
<path fill-rule="evenodd" clip-rule="evenodd" d="M792.169 1239.72C801.865 1239.72 809.725 1228.47 809.725 1214.6C809.725 1200.73 801.865 1189.48 792.169 1189.48C782.474 1189.48 774.66 1200.73 774.66 1214.6C774.66 1228.47 782.474 1239.72 792.169 1239.72Z" fill="white"/>
</g>
<g filter="url(#filter5_d)">
<path fill-rule="evenodd" clip-rule="evenodd" d="M687.513 1084.82C697.208 1084.82 705.068 1073.58 705.068 1059.7C705.068 1045.83 697.208 1034.58 687.513 1034.58C677.817 1034.58 669.958 1045.83 669.958 1059.7C669.958 1073.58 677.817 1084.82 687.513 1084.82Z" fill="white"/>
</g>
<g filter="url(#filter6_d)">
<path fill-rule="evenodd" clip-rule="evenodd" d="M721.948 1084.82C731.644 1084.82 739.504 1073.58 739.504 1059.7C739.504 1045.83 731.644 1034.58 721.948 1034.58C712.253 1034.58 704.393 1045.83 704.393 1059.7C704.393 1073.58 712.253 1084.82 721.948 1084.82Z" fill="white"/>
</g>
<g filter="url(#filter7_d)">
<path fill-rule="evenodd" clip-rule="evenodd" d="M757.059 1084.82C766.754 1084.82 774.614 1073.58 774.614 1059.7C774.614 1045.83 766.754 1034.58 757.059 1034.58C747.363 1034.58 739.504 1045.83 739.504 1059.7C739.504 1073.58 747.363 1084.82 757.059 1084.82Z" fill="white"/>
</g>
<g filter="url(#filter8_d)">
<path fill-rule="evenodd" clip-rule="evenodd" d="M792.169 1084.82C801.865 1084.82 809.725 1073.58 809.725 1059.7C809.725 1045.83 801.865 1034.58 792.169 1034.58C782.474 1034.58 774.614 1045.83 774.614 1059.7C774.614 1073.58 782.474 1084.82 792.169 1084.82Z" fill="white"/>
</g>
<g filter="url(#filter9_d)">
<path fill-rule="evenodd" clip-rule="evenodd" d="M836.276 1078.8C836.276 1078.8 846.544 1063.25 841.575 1051.54C836.606 1039.84 826.178 1033.06 818.283 1036.41C810.388 1039.77 808.016 1051.97 812.985 1063.68C817.953 1075.38 836.276 1078.8 836.276 1078.8Z" fill="white"/>
</g>
<g filter="url(#filter10_d)">
<path fill-rule="evenodd" clip-rule="evenodd" d="M816.299 1237.46C808.404 1234.11 806.884 1222.39 811.853 1210.68C816.822 1198.97 834.292 1195.07 834.292 1195.07C834.292 1195.07 844.559 1210.62 839.59 1222.33C834.622 1234.04 824.194 1240.81 816.299 1237.46Z" fill="white"/>
</g>
<g filter="url(#filter11_d)">
<path fill-rule="evenodd" clip-rule="evenodd" d="M662.292 1036.07C670.187 1039.42 672.559 1051.63 667.59 1063.33C662.622 1075.04 644.299 1078.46 644.299 1078.46C644.299 1078.46 634.031 1062.9 639 1051.19C643.969 1039.49 654.397 1032.72 662.292 1036.07Z" fill="white"/>
</g>
<path fill-rule="evenodd" clip-rule="evenodd" d="M734.83 1059.7C794.168 1059.7 857.664 1058.99 857.664 1039.92C857.664 1020.85 794.168 999 734.83 999C675.493 999 613.241 1021.95 613.241 1039.92C613.241 1057.9 675.493 1059.7 734.83 1059.7Z" fill="#9FB6F9"/>
<path fill-rule="evenodd" clip-rule="evenodd" d="M732.752 1276C798.01 1276 850.912 1262.41 850.912 1245.65C850.912 1228.89 798.01 1215.3 732.752 1215.3C667.493 1215.3 614.591 1228.89 614.591 1245.65C614.591 1262.41 667.493 1276 732.752 1276Z" fill="#9FB6F9"/>
<path fill-rule="evenodd" clip-rule="evenodd" d="M684.137 1041.56C691.968 1041.56 698.316 1036.1 698.316 1029.35C698.316 1022.61 691.968 1017.14 684.137 1017.14C676.306 1017.14 669.958 1022.61 669.958 1029.35C669.958 1036.1 676.306 1041.56 684.137 1041.56Z" fill="#6A7699"/>
<path fill-rule="evenodd" clip-rule="evenodd" d="M782.716 1041.56C790.547 1041.56 796.896 1036.1 796.896 1029.35C796.896 1022.61 790.547 1017.14 782.716 1017.14C774.885 1017.14 768.537 1022.61 768.537 1029.35C768.537 1036.1 774.885 1041.56 782.716 1041.56Z" fill="#6A7699"/>
<path fill-rule="evenodd" clip-rule="evenodd" d="M694.504 960C694.504 976.292 710.174 989.5 729.504 989.5C748.833 989.5 764.504 976.292 764.504 960C764.504 943.708 748.833 930.5 729.504 930.5C710.174 930.5 694.504 943.708 694.504 960Z" fill="white"/>
<path fill-rule="evenodd" clip-rule="evenodd" d="M716.379 956.839C716.379 963.24 722.255 968.429 729.504 968.429C736.752 968.429 742.629 963.24 742.629 956.839C742.629 950.439 736.752 945.25 729.504 945.25C722.255 945.25 716.379 950.439 716.379 956.839Z" fill="#4A4A4A"/>
<path fill-rule="evenodd" clip-rule="evenodd" d="M1312.7 284.197C1304.97 270.812 1309.61 253.669 1323.05 245.909C1336.5 238.148 1353.67 242.708 1361.4 256.093L1376.28 281.866C1379.22 286.954 1377.46 293.471 1372.35 296.421L1357.26 305.131L1342.16 313.842C1337.05 316.792 1330.53 315.058 1327.59 309.97L1312.7 284.197Z" fill="#DBBCE2"/>
<path d="M1323.65 303.144C1323.43 302.767 1323.56 302.284 1323.94 302.065L1371.26 274.754C1371.64 274.535 1372.12 274.663 1372.34 275.041C1377.68 284.283 1374.48 296.12 1365.19 301.479L1350.12 310.177C1340.84 315.536 1328.98 312.387 1323.65 303.144Z" fill="#F4B19D"/>
<rect width="7.44134" height="46.5862" transform="matrix(0.841316 -0.485585 0.483701 0.837538 1310.46 257.823)" fill="#F4B19D"/>
<rect width="7.44135" height="49.0821" transform="matrix(0.841315 -0.485588 0.483698 0.83754 1333.01 243.877)" fill="#F4B19D"/>
<path fill-rule="evenodd" clip-rule="evenodd" d="M1326.78 253.974C1349.06 241.113 1353.37 206.866 1336.4 177.48C1319.43 148.093 1238.74 194.666 1255.71 224.052C1272.68 253.438 1304.5 266.834 1326.78 253.974Z" fill="#F8EDE0"/>
<path fill-rule="evenodd" clip-rule="evenodd" d="M1317.64 237.918C1320.69 236.161 1322.29 233.242 1321.23 231.398C1320.59 230.302 1309.45 236.455 1310.2 237.761C1311.27 239.605 1314.6 239.675 1317.64 237.918Z" fill="#EE9393"/>
<path fill-rule="evenodd" clip-rule="evenodd" d="M1317.64 237.911C1318.84 237.216 1319.75 236.54 1319.51 236.114C1319.26 235.688 1317.95 235.675 1316.75 236.37C1315.55 237.065 1314.9 238.205 1315.15 238.63C1315.39 239.056 1316.44 238.606 1317.64 237.911Z" fill="#FDA981"/>
<path fill-rule="evenodd" clip-rule="evenodd" d="M1318.7 233.543C1318.98 233.38 1318.73 232.139 1318.53 232.079C1318.39 232.037 1317.49 232.425 1317.47 232.602C1317.45 232.786 1318.42 233.707 1318.7 233.543Z" fill="white"/>
<path fill-rule="evenodd" clip-rule="evenodd" d="M1296.25 242.899C1298.16 241.796 1298.98 239.637 1298.08 238.076C1297.18 236.516 1294.9 236.146 1292.99 237.249C1291.08 238.353 1290.26 240.512 1291.16 242.072C1292.06 243.632 1294.34 244.003 1296.25 242.899Z" fill="#FBA5F6" fill-opacity="0.356091"/>
<path fill-rule="evenodd" clip-rule="evenodd" d="M1332.66 221.888C1334.57 220.785 1335.39 218.625 1334.49 217.065C1333.58 215.505 1331.3 215.135 1329.39 216.238C1327.48 217.341 1326.66 219.501 1327.56 221.061C1328.46 222.621 1330.74 222.991 1332.66 221.888Z" fill="#FBA5F6" fill-opacity="0.356091"/>
<path fill-rule="evenodd" clip-rule="evenodd" d="M1320.72 214.897C1322.42 213.917 1324.16 215.315 1325.01 213.63C1325.86 211.944 1322.65 210.837 1319.44 212.689C1316.24 214.542 1315.89 217.649 1317.59 217.914C1319.29 218.18 1319.02 215.877 1320.72 214.897Z" fill="black"/>
<path fill-rule="evenodd" clip-rule="evenodd" d="M1295.68 229.35C1297.38 228.37 1299.12 229.769 1299.97 228.083C1300.82 226.397 1297.61 225.291 1294.4 227.143C1291.19 228.995 1290.85 232.102 1292.55 232.368C1294.24 232.633 1293.98 230.33 1295.68 229.35Z" fill="black"/>
<path fill-rule="evenodd" clip-rule="evenodd" d="M1250.37 224.745C1245.75 211.185 1251.4 196.224 1263.86 189.033L1281.89 178.625L1296.93 204.664C1300.4 210.678 1298.32 218.379 1292.28 221.865L1256.43 242.556L1250.37 224.745Z" fill="#F8F3BD"/>
<path fill-rule="evenodd" clip-rule="evenodd" d="M1338.76 174.501C1329.4 163.314 1313.31 160.49 1300.63 167.81L1282.23 178.431L1298.72 206.983C1301.39 211.609 1307.32 213.184 1311.97 210.503L1350.34 188.355L1338.76 174.501Z" fill="#4A4A4A"/>
<rect width="6.61432" height="29.9474" rx="3.30716" transform="matrix(0.841316 -0.485586 0.483701 0.837539 1341.04 310.775)" fill="#F8EDE0"/>
<rect width="6.61432" height="29.9472" rx="3.30716" transform="matrix(0.841317 -0.485583 0.483704 0.837537 1365.38 296.724)" fill="#F8EDE0"/>
<path fill-rule="evenodd" clip-rule="evenodd" d="M1329.97 259.082C1358.79 242.452 1368.63 205.575 1351.96 176.716C1335.3 147.856 1298.43 137.942 1269.62 154.572C1240.8 171.202 1230.96 208.079 1247.62 236.938C1264.29 265.798 1301.16 275.712 1329.97 259.082Z" fill="#808CB1" fill-opacity="0.319639"/>
<path fill-rule="evenodd" clip-rule="evenodd" d="M1253.62 178.499C1254.27 177.413 1255.91 177.07 1257.4 177.683C1259.21 178.432 1260.03 180.271 1259.22 181.59C1257.19 184.895 1253.8 191.337 1252.06 199.849C1249.47 212.5 1253.15 222.021 1251.56 223.425C1249.97 224.829 1248.67 225.762 1246.81 220.928C1244.96 216.094 1243.57 206.894 1245.53 197.308C1247 190.122 1251.47 182.077 1253.62 178.499Z" fill="white"/>
<path fill-rule="evenodd" clip-rule="evenodd" d="M1310.74 276.508C1312.34 276.394 1313.5 275.008 1313.42 273.405C1313.33 271.778 1311.98 270.502 1310.36 270.477C1305.15 270.396 1294.22 270.063 1288.61 268.696C1283.71 267.506 1277.89 263.355 1274.4 260.585C1272.7 259.235 1270.18 259.483 1268.87 261.215C1267.79 262.661 1267.92 264.67 1269.32 265.818C1272.42 268.352 1278.47 272.553 1286.68 274.761C1295.66 277.174 1305.89 276.854 1310.74 276.508Z" fill="#F8EDE0"/>
<path fill-rule="evenodd" clip-rule="evenodd" d="M1353.92 250.891C1353.02 252.22 1351.24 252.532 1349.9 251.655C1348.53 250.766 1348.1 248.965 1348.89 247.544C1351.42 242.993 1356.6 233.369 1358.22 227.822C1359.64 222.992 1358.95 215.875 1358.3 211.468C1357.98 209.32 1359.45 207.261 1361.61 206.999C1363.4 206.779 1365.08 207.901 1365.37 209.689C1366.01 213.639 1366.63 220.976 1364.44 229.191C1362.04 238.167 1356.64 246.869 1353.92 250.891Z" fill="#F8EDE0"/>
<path d="M119.362 812C174.239 812 218.725 767.528 218.725 712.668C218.725 657.808 174.239 613.336 119.362 613.336C64.4861 613.336 20 657.808 20 712.668C20 767.528 64.4861 812 119.362 812Z" fill="#D8D8D8"/>
<path opacity="0.1" d="M183.168 636.527C196.51 653.437 204.474 674.785 204.474 697.994C204.474 752.854 159.988 797.327 105.112 797.327C80.8203 797.327 58.5686 788.608 41.3063 774.135C59.502 797.195 87.7023 812 119.362 812C174.239 812 218.725 767.527 218.725 712.668C218.725 682.092 204.902 654.748 183.168 636.527Z" fill="black"/>
<path d="M171.382 628.026C170.009 629.77 167.753 633.28 166.583 635.13C166.086 635.916 165.827 636.828 165.827 637.758V653.21C165.827 657.458 170.789 659.771 174.043 657.039L178.746 653.089C179.778 652.223 180.407 650.977 180.61 649.646C181.1 646.431 182.427 640.829 185.591 642.727C192.949 647.141 182.927 668.479 179.791 674.716C179.229 675.833 178.252 676.661 177.073 677.073L155.892 684.484C152.577 685.644 151.46 689.77 153.736 692.444L163.058 703.397C164.653 705.27 167.373 705.705 169.473 704.423L188.721 692.663C190.647 691.486 193.124 691.747 194.764 693.298L208.261 706.068L216.577 722.156C216.577 722.156 217.547 723.028 218.155 723.323C218.529 719.822 218.725 716.268 218.725 712.668C218.725 676.876 199.786 645.509 171.382 628.026Z" fill="#4A4A4A"/>
<path d="M200.536 725.42C198.717 724.241 196.595 723.596 194.428 723.659L155.941 724.788C152.046 724.903 148.571 727.27 147.039 730.853L139.676 748.078C138.092 751.784 138.877 756.074 141.476 759.155C148.535 767.525 161.748 785.165 163.449 801.704C190.331 788.376 210.316 763.245 216.619 733.087C211.982 732.485 204.543 728.018 200.536 725.42Z" fill="#4A4A4A"/>
<path d="M76.7696 756.934C76.2762 756.626 75.8403 756.234 75.4817 755.776L66.0006 743.662C65.8056 743.413 65.6348 743.146 65.4903 742.865L60.3885 732.932C58.5816 729.414 54.1277 728.233 50.8145 730.392C47.0002 732.878 41.8713 730.896 40.7203 726.491L37.1959 713.003C35.5235 706.602 41.9863 701.089 48.0944 703.629L50.3173 704.429C53.3261 705.511 56.6173 704.623 58.2986 701.903C60.832 697.805 64.8644 690.312 70.0383 677.494C77.5829 658.802 69.2163 644.695 60.6804 632.51C36.0179 650.584 20 679.754 20 712.668C20 725.885 22.5885 738.495 27.2756 750.029C35.1609 752.342 45.2214 754.351 45.2214 754.351C45.2214 754.351 52.7927 761.585 38.075 769.8C52.0134 789.582 72.9924 804.048 97.3716 809.554C100.274 801.71 102.69 787.919 103.905 780.152C104.451 776.662 102.826 773.214 99.8303 771.342L76.7696 756.934Z" fill="#4A4A4A"/>
<path fill-rule="evenodd" clip-rule="evenodd" d="M119.362 641.661C141.656 641.661 159.728 635.32 159.728 627.499C159.728 619.677 141.656 613.336 119.362 613.336C97.0689 613.336 78.9965 619.677 78.9965 627.499C78.9965 635.32 97.0689 641.661 119.362 641.661Z" fill="#9B9B9B"/>
<path fill-rule="evenodd" clip-rule="evenodd" d="M86.1738 570.287L92.1208 575.101C92.1208 575.101 83.6287 579.867 77.1531 589.988C70.6775 600.109 72.3191 607.258 69.3566 610.681C66.3941 614.103 62.8835 613.122 63.4096 605.866C63.9357 598.611 66.2996 592.843 71.2061 585.174C76.1126 577.505 86.1738 570.287 86.1738 570.287Z" fill="#4A4A4A"/>
<path fill-rule="evenodd" clip-rule="evenodd" d="M149.392 582.546L146.9 575.312C146.9 575.312 156.629 575.769 167.485 570.617C178.342 565.464 180.739 558.532 185.066 557.199C189.392 555.866 191.849 558.558 187.557 564.432C183.265 570.306 178.202 573.946 169.976 577.85C161.751 581.754 149.392 582.546 149.392 582.546Z" fill="#4A4A4A"/>
<path fill-rule="evenodd" clip-rule="evenodd" d="M115.414 508.797C117.349 505.521 122.089 505.521 124.024 508.797L157.975 566.279C158.901 567.848 158.901 569.796 157.975 571.365L124.024 628.847C122.089 632.124 117.349 632.123 115.414 628.847L81.4627 571.365C80.5362 569.796 80.5362 567.848 81.4627 566.279L115.414 508.797Z" fill="#D8D8D8"/>
<path fill-rule="evenodd" clip-rule="evenodd" d="M120.073 577.873C129.325 577.873 136.825 568.014 136.825 555.853C136.825 543.692 129.325 533.833 120.073 533.833C110.821 533.833 103.32 543.692 103.32 555.853C103.32 568.014 110.821 577.873 120.073 577.873Z" fill="white"/>
<path fill-rule="evenodd" clip-rule="evenodd" d="M115.054 547.073C117.968 544.668 122.178 544.668 125.091 547.073C128.338 549.752 128.907 554.51 126.384 557.879C123.23 562.091 116.915 562.091 113.762 557.879C111.239 554.51 111.808 549.752 115.054 547.073Z" fill="#4A4A4A"/>
<path fill-rule="evenodd" clip-rule="evenodd" d="M119.661 587.742L110.901 593.997C110.239 594.469 109.32 593.996 109.32 593.183V582.3C109.32 581.487 110.239 581.014 110.901 581.486L119.661 587.742Z" fill="#5D6671"/>
<path fill-rule="evenodd" clip-rule="evenodd" d="M119.661 587.686L128.421 593.941C129.083 594.414 130.002 593.941 130.002 593.127V582.245C130.002 581.431 129.083 580.958 128.421 581.431L119.661 587.686Z" fill="#5D6671"/>
<rect x="115.229" y="584.147" width="8.86377" height="7.38422" rx="3.69211" fill="#3B3A3B"/>
<path d="M202.265 563.669H175.064C173.896 563.669 172.949 562.723 172.949 561.555V526.982C172.949 525.814 173.896 524.868 175.064 524.868H202.265C203.433 524.868 204.379 525.814 204.379 526.982V561.555C204.379 562.723 203.433 563.669 202.265 563.669Z" fill="#D8D8D8"/>
<path opacity="0.15" d="M202.265 563.669H175.064C173.896 563.669 172.949 562.723 172.949 561.555V526.982C172.949 525.814 173.896 524.868 175.064 524.868H202.265C203.433 524.868 204.379 525.814 204.379 526.982V561.555C204.379 562.723 203.433 563.669 202.265 563.669Z" fill="black"/>
<path d="M200.377 560.579H174.812V527.96H200.377C200.85 527.96 201.234 528.344 201.234 528.817V559.723C201.234 560.196 200.85 560.579 200.377 560.579Z" fill="#D8D8D8"/>
<rect opacity="0.1" x="198.653" y="527.96" width="1.13711" height="32.6199" fill="black"/>
<path d="M195.645 563.669H168.444C167.276 563.669 166.33 562.723 166.33 561.555V526.982C166.33 525.814 167.276 524.868 168.444 524.868H195.645C196.813 524.868 197.76 525.814 197.76 526.982V561.555C197.76 562.723 196.813 563.669 195.645 563.669Z" fill="#D8D8D8"/>
<path d="M178.265 558.02C179.483 558.02 180.47 557.234 180.47 556.264C180.47 555.294 179.483 554.508 178.265 554.508C177.047 554.508 176.06 555.294 176.06 556.264C176.06 557.234 177.047 558.02 178.265 558.02Z" fill="white"/>
<path d="M190.218 558.02C191.436 558.02 192.424 557.234 192.424 556.264C192.424 555.294 191.436 554.508 190.218 554.508C189 554.508 188.013 555.294 188.013 556.264C188.013 557.234 189 558.02 190.218 558.02Z" fill="white"/>
<path d="M180.6 554.922C180.286 554.922 180.031 554.668 180.031 554.354C180.031 554.088 179.816 553.872 179.55 553.872C179.285 553.872 179.069 554.088 179.069 554.354C179.069 554.668 178.815 554.922 178.501 554.922C178.187 554.922 177.932 554.668 177.932 554.354C177.932 553.461 178.658 552.735 179.55 552.735C180.443 552.735 181.168 553.461 181.168 554.354C181.168 554.668 180.914 554.922 180.6 554.922Z" fill="#5D6671"/>
<path d="M189.983 554.922C189.669 554.922 189.414 554.668 189.414 554.354C189.414 554.088 189.198 553.872 188.933 553.872C188.668 553.872 188.452 554.088 188.452 554.354C188.452 554.668 188.197 554.922 187.883 554.922C187.569 554.922 187.315 554.668 187.315 554.354C187.315 553.461 188.041 552.735 188.933 552.735C189.825 552.735 190.551 553.461 190.551 554.354C190.551 554.668 190.297 554.922 189.983 554.922Z" fill="#5D6671"/>
<path d="M184.242 556.656C183.651 556.656 183.089 556.4 182.7 555.954C182.493 555.717 182.518 555.358 182.755 555.152C182.991 554.945 183.351 554.97 183.557 555.207C183.73 555.405 183.979 555.519 184.242 555.519C184.504 555.519 184.754 555.405 184.926 555.207C185.133 554.97 185.492 554.945 185.729 555.152C185.965 555.358 185.99 555.717 185.784 555.954C185.395 556.4 184.833 556.656 184.242 556.656Z" fill="#5D6671"/>
<path d="M170.724 524.868H168.444C167.276 524.868 166.33 525.814 166.33 526.982V561.555C166.33 562.723 167.276 563.669 168.444 563.669H170.724V524.868Z" fill="#5D6671"/>
<path opacity="0.1" d="M170.715 524.868C170.407 524.868 169.838 524.869 169.234 524.868C168.629 524.867 168.163 524.793 167.615 525.046C166.686 525.477 166.33 526.408 166.33 526.982V561.555C166.33 562.089 166.652 563.015 167.333 563.388C168.014 563.761 170.081 563.669 170.715 563.669V524.868Z" fill="black"/>
<path d="M200.453 545.601H197.76V539.796H200.453C201.316 539.796 202.015 540.495 202.015 541.357V544.04C202.015 544.902 201.316 545.601 200.453 545.601Z" fill="#C3E9F1"/>
<path d="M200.453 545.601H197.76V539.796H200.453C201.316 539.796 202.015 540.495 202.015 541.357V544.04C202.015 544.902 201.316 545.601 200.453 545.601Z" fill="#5D6671"/>
<path opacity="0.15" d="M199.182 539.796H197.76V545.601H200.212C198.977 543.826 199.204 541.23 199.182 539.796Z" fill="black"/>
<path d="M200.453 537.298H197.76V531.493H200.453C201.316 531.493 202.015 532.192 202.015 533.054V535.737C202.015 536.599 201.316 537.298 200.453 537.298Z" fill="#9B9B9B"/>
<path opacity="0.15" d="M199.182 531.493H197.76V537.298H200.212C198.977 535.524 199.204 532.928 199.182 531.493Z" fill="black"/>
<path d="M192.59 530.872L190.66 529.977C190.413 529.862 190.129 529.862 189.882 529.977L187.953 530.872C187.497 531.083 186.976 530.75 186.976 530.248V524.868H193.566V530.248C193.566 530.75 193.045 531.083 192.59 530.872Z" fill="#4A4A4A"/>
<rect x="176.806" y="534.568" width="15.5254" height="15.5207" fill="#4A4A4A"/>
<path d="M191.124 543.813L190.919 543.781C190.972 543.967 191.076 544.134 191.219 544.281C191.31 544.247 191.383 544.192 191.409 544.119C191.458 543.983 191.33 543.845 191.124 543.813Z" fill="#373E49"/>
<path d="M188.192 548.481C188.336 548.362 188.376 548.173 188.266 548.021L188.237 547.981C188.21 548.142 188.192 548.304 188.192 548.471C188.192 548.474 188.192 548.478 188.192 548.481Z" fill="#373E49"/>
<path fill-rule="evenodd" clip-rule="evenodd" d="M185.24 543.959L186.242 547.294C186.124 547.389 185.987 547.464 185.833 547.511L184.805 544.089C184.743 544.099 184.681 544.105 184.617 544.107C184.26 544.118 183.928 544.008 183.656 543.817L182.76 544.769L182.438 544.447L183.325 543.506C183.118 543.246 182.988 542.921 182.978 542.564C182.976 542.5 182.979 542.438 182.984 542.376L179.21 541.485C179.135 541.871 179.101 542.271 179.113 542.68C179.117 542.824 179.131 542.965 179.146 543.105H178.692C178.689 543.08 178.686 543.056 178.683 543.031C178.678 542.994 178.673 542.958 178.671 542.92L177.983 542.941C177.858 542.945 177.753 542.846 177.749 542.721C177.745 542.595 177.844 542.49 177.97 542.487L178.657 542.466C178.66 542.095 178.698 541.733 178.767 541.38L178.098 541.222C177.975 541.194 177.9 541.071 177.929 540.949C177.957 540.827 178.079 540.75 178.202 540.78L178.87 540.938C178.968 540.584 179.1 540.243 179.259 539.918L178.653 539.592C178.542 539.532 178.501 539.394 178.56 539.284C178.62 539.173 178.757 539.132 178.868 539.191L179.476 539.518C179.662 539.204 179.875 538.908 180.114 538.634L179.612 538.161C179.52 538.075 179.516 537.931 179.602 537.839C179.688 537.748 179.832 537.744 179.923 537.83L180.426 538.303C180.685 538.048 180.968 537.817 181.27 537.613L180.908 537.027C180.842 536.92 180.875 536.78 180.982 536.714C181.089 536.647 181.229 536.681 181.295 536.788L181.657 537.373C181.972 537.194 182.304 537.043 182.651 536.923L182.454 536.266C182.418 536.146 182.486 536.019 182.606 535.983C182.727 535.947 182.854 536.015 182.89 536.136L183.088 536.795C183.435 536.705 183.795 536.645 184.165 536.62L184.144 535.932C184.14 535.807 184.239 535.702 184.365 535.698C184.49 535.694 184.595 535.793 184.599 535.919L184.62 536.606C184.99 536.609 185.353 536.647 185.705 536.716L185.864 536.048C185.892 535.925 186.014 535.85 186.137 535.879C186.259 535.907 186.335 536.03 186.306 536.152L186.149 536.82C186.503 536.918 186.843 537.049 187.168 537.209L187.494 536.603C187.554 536.492 187.692 536.45 187.803 536.51C187.913 536.57 187.955 536.707 187.895 536.818L187.568 537.425C187.883 537.611 188.179 537.824 188.453 538.063L188.926 537.561C189.012 537.47 189.156 537.465 189.247 537.551C189.339 537.637 189.343 537.781 189.257 537.873L188.784 538.375C189.039 538.634 189.27 538.917 189.474 539.219L190.061 538.857C190.167 538.79 190.308 538.824 190.374 538.931C190.44 539.037 190.407 539.177 190.3 539.244L189.714 539.605C189.893 539.92 190.044 540.252 190.164 540.6L190.821 540.402C190.942 540.365 191.068 540.434 191.104 540.555C191.14 540.675 191.072 540.802 190.952 540.838L190.293 541.035C190.383 541.383 190.442 541.743 190.467 542.113L191.155 542.092C191.281 542.088 191.386 542.187 191.389 542.312C191.393 542.438 191.294 542.542 191.169 542.546L190.481 542.567C190.48 542.749 190.469 542.928 190.452 543.106H189.993C190.021 542.859 190.033 542.608 190.026 542.353C189.983 540.931 189.396 539.651 188.472 538.706L185.813 541.528C186.021 541.787 186.15 542.112 186.161 542.469C186.163 542.533 186.16 542.595 186.154 542.657L189.578 543.465L189.497 543.889C189.496 543.893 189.495 543.897 189.494 543.901L189.494 543.901C189.493 543.904 189.491 543.908 189.491 543.912L186.05 543.1C185.9 543.478 185.609 543.787 185.24 543.959ZM188.14 538.394C187.141 537.528 185.828 537.019 184.406 537.062C183.996 537.074 183.6 537.133 183.218 537.23L184.334 540.944C184.395 540.934 184.458 540.928 184.521 540.926C184.878 540.915 185.211 541.025 185.482 541.216L188.14 538.394ZM183.088 541.934L179.313 541.043C179.796 539.328 181.099 537.944 182.783 537.36L183.898 541.074C183.529 541.246 183.238 541.555 183.088 541.934ZM183.432 542.55C183.451 543.177 183.977 543.672 184.603 543.653C185.23 543.634 185.725 543.109 185.706 542.482C185.687 541.855 185.162 541.361 184.535 541.379C183.908 541.398 183.414 541.924 183.432 542.55Z" fill="#373E49"/>
<path fill-rule="evenodd" clip-rule="evenodd" d="M192.332 542.587C192.332 542.731 192.216 542.846 192.073 542.846H191.29C191.274 543.268 191.219 543.679 191.129 544.077L191.884 544.279C192.023 544.316 192.104 544.458 192.067 544.596C192.037 544.711 191.932 544.788 191.818 544.788C191.796 544.788 191.773 544.785 191.751 544.779L190.996 544.577C190.872 544.976 190.711 545.359 190.519 545.723L191.197 546.114C191.321 546.186 191.363 546.344 191.292 546.468C191.244 546.551 191.157 546.597 191.068 546.597C191.024 546.597 190.979 546.586 190.938 546.562L190.259 546.17C190.121 546.388 189.967 546.594 189.806 546.794C189.315 546.945 188.928 547.332 188.777 547.823C188.577 547.984 188.371 548.137 188.153 548.275L188.545 548.955C188.616 549.078 188.574 549.237 188.45 549.308C188.41 549.331 188.365 549.343 188.321 549.343C188.232 549.343 188.145 549.296 188.097 549.213L187.705 548.535C187.341 548.727 186.958 548.889 186.559 549.013L186.761 549.767C186.766 549.783 186.765 549.8 186.765 549.816L186.765 549.83H186.242L186.059 549.145C185.661 549.235 185.249 549.291 184.828 549.307V549.83H184.31V549.307C183.889 549.291 183.478 549.235 183.079 549.145L182.896 549.83H182.373L182.373 549.817C182.373 549.8 182.373 549.783 182.377 549.767L182.579 549.013C182.18 548.889 181.797 548.727 181.433 548.535L181.041 549.213C180.994 549.296 180.907 549.343 180.817 549.343C180.773 549.343 180.729 549.331 180.688 549.308C180.564 549.237 180.522 549.078 180.593 548.955L180.986 548.275C180.767 548.137 180.561 547.984 180.361 547.823C180.21 547.332 179.823 546.945 179.332 546.794C179.171 546.594 179.017 546.388 178.88 546.17L178.2 546.562C178.159 546.586 178.114 546.597 178.071 546.597C177.981 546.597 177.894 546.551 177.846 546.468C177.775 546.344 177.817 546.186 177.941 546.114L178.62 545.723C178.427 545.359 178.266 544.976 178.142 544.577L177.388 544.779C177.365 544.785 177.343 544.788 177.321 544.788C177.206 544.788 177.102 544.712 177.071 544.596C177.034 544.458 177.116 544.316 177.254 544.279L178.01 544.077C177.919 543.679 177.864 543.268 177.848 542.846H177.065C176.922 542.846 176.806 542.731 176.806 542.587C176.806 542.444 176.922 542.329 177.065 542.329H177.848C177.864 541.907 177.919 541.496 178.009 541.098L177.254 540.896C177.115 540.859 177.034 540.717 177.071 540.579C177.108 540.441 177.249 540.358 177.388 540.396L178.142 540.598C178.266 540.199 178.427 539.816 178.62 539.452L177.941 539.061C177.817 538.989 177.775 538.831 177.846 538.707C177.918 538.583 178.076 538.541 178.2 538.612L178.88 539.005C179.102 538.654 179.354 538.324 179.635 538.021L179.08 537.466C178.979 537.365 178.979 537.202 179.08 537.1C179.181 536.999 179.345 536.999 179.446 537.1L180.001 537.656C180.305 537.374 180.634 537.122 180.985 536.9L180.593 536.22C180.522 536.097 180.564 535.938 180.688 535.867C180.811 535.795 180.97 535.838 181.041 535.962L181.433 536.64C181.797 536.448 182.18 536.286 182.579 536.162L182.377 535.408C182.34 535.27 182.422 535.129 182.56 535.092C182.698 535.054 182.84 535.137 182.877 535.274L183.079 536.03C183.478 535.939 183.889 535.884 184.31 535.868V535.086C184.31 534.943 184.426 534.827 184.569 534.827C184.712 534.827 184.828 534.943 184.828 535.086V535.868C185.249 535.884 185.661 535.94 186.059 536.03L186.261 535.274C186.298 535.137 186.44 535.055 186.578 535.092C186.717 535.129 186.798 535.271 186.761 535.408L186.559 536.162C186.958 536.286 187.341 536.448 187.705 536.64L188.097 535.962C188.168 535.838 188.326 535.795 188.45 535.867C188.574 535.938 188.617 536.096 188.545 536.22L188.152 536.9C188.503 537.122 188.833 537.375 189.136 537.656L189.692 537.1C189.793 536.999 189.956 536.999 190.058 537.1C190.159 537.202 190.159 537.365 190.058 537.466L189.502 538.021C189.784 538.325 190.036 538.654 190.258 539.005L190.938 538.613C191.062 538.541 191.22 538.583 191.292 538.707C191.363 538.831 191.321 538.989 191.197 539.061L190.518 539.452C190.711 539.816 190.872 540.199 190.996 540.598L191.75 540.396C191.889 540.358 192.03 540.441 192.067 540.579C192.104 540.717 192.023 540.859 191.884 540.896L191.129 541.098C191.219 541.496 191.274 541.907 191.29 542.329H192.073C192.216 542.329 192.332 542.444 192.332 542.587ZM188.771 538.021C187.664 537.003 186.188 536.38 184.569 536.38C184.103 536.38 183.65 536.433 183.213 536.53L184.355 540.791C184.425 540.783 184.497 540.777 184.569 540.777C184.975 540.777 185.349 540.913 185.652 541.14L188.771 538.021ZM185.863 542.588C185.863 543.301 185.283 543.882 184.569 543.882C183.856 543.882 183.275 543.301 183.275 542.588C183.275 541.874 183.856 541.294 184.569 541.294C185.283 541.294 185.863 541.874 185.863 542.588ZM183.855 540.925L182.713 536.663C180.779 537.27 179.25 538.799 178.643 540.733L182.905 541.875C183.088 541.449 183.43 541.108 183.855 540.925ZM178.359 542.587C178.359 542.122 178.412 541.669 178.51 541.232L182.772 542.374C182.763 542.444 182.758 542.515 182.758 542.587C182.758 542.994 182.894 543.367 183.121 543.67L180.001 546.788C178.983 545.682 178.359 544.206 178.359 542.587ZM180.367 547.154C181.474 548.172 182.95 548.796 184.569 548.796C185.035 548.796 185.488 548.742 185.925 548.645L184.783 544.384C184.713 544.393 184.642 544.398 184.569 544.398C184.163 544.398 183.789 544.262 183.486 544.036L180.367 547.154ZM186.425 548.512L185.283 544.251C185.709 544.068 186.05 543.726 186.233 543.301L190.496 544.443C189.889 546.376 188.359 547.906 186.425 548.512ZM186.367 542.801L190.628 543.943C190.726 543.506 190.779 543.053 190.779 542.587C190.779 540.968 190.156 539.493 189.137 538.387L186.018 541.505C186.244 541.807 186.38 542.181 186.38 542.587C186.38 542.659 186.375 542.731 186.367 542.801Z" fill="#D8D8D8"/>
<path d="M177.065 549.83H177.565C177.365 549.674 177.195 549.488 177.065 549.279V549.83Z" fill="#7383BF"/>
<path d="M183.445 547.547C182.544 547.374 182.13 546.321 182.673 545.582L183.054 545.062L182.231 544.239L181.57 544.687C180.827 545.19 179.811 544.769 179.642 543.889L179.491 543.104H178.327L178.228 543.741C178.134 544.359 177.622 544.765 177.065 544.799V547.277C177.418 546.64 178.097 546.209 178.876 546.209C180.02 546.209 180.946 547.135 180.946 548.278C180.946 548.897 180.673 549.451 180.242 549.83H182.4C182.525 549.381 182.894 549.006 183.414 548.926L184.052 548.828V547.664L183.445 547.547Z" fill="#5D6671"/>
<path fill-rule="evenodd" clip-rule="evenodd" d="M177.065 547.278C177.418 546.641 178.097 546.21 178.876 546.21C180.02 546.21 180.946 547.137 180.946 548.279C180.946 548.898 180.673 549.452 180.242 549.831H177.51C177.332 549.675 177.181 549.489 177.065 549.28V547.278ZM177.841 548.279C177.841 548.85 178.305 549.314 178.876 549.314C179.448 549.314 179.911 548.85 179.911 548.279C179.911 547.707 179.448 547.244 178.876 547.244C178.305 547.244 177.841 547.707 177.841 548.279Z" fill="white"/>
<path d="M192.128 549.83V549.279C191.998 549.488 191.828 549.674 191.628 549.83H192.128Z" fill="#7383BF"/>
<path d="M190.91 543.741L190.812 543.104H189.647L189.496 543.888C189.327 544.769 188.311 545.19 187.569 544.687L186.907 544.239L186.084 545.062L186.465 545.582C187.008 546.321 186.595 547.374 185.694 547.547L185.087 547.664V548.828L185.724 548.926C186.244 549.006 186.613 549.381 186.737 549.83H188.896C188.465 549.451 188.192 548.897 188.192 548.278C188.192 547.135 189.119 546.209 190.262 546.209C191.042 546.209 191.72 546.64 192.073 547.277V544.799C191.516 544.765 191.005 544.359 190.91 543.741Z" fill="#5D6671"/>
<path fill-rule="evenodd" clip-rule="evenodd" d="M190.262 546.21C191.042 546.21 191.72 546.641 192.073 547.278V549.28C191.957 549.489 191.806 549.675 191.628 549.831H188.896C188.465 549.452 188.192 548.898 188.192 548.279C188.192 547.137 189.119 546.21 190.262 546.21ZM189.227 548.279C189.227 548.85 189.69 549.314 190.262 549.314C190.833 549.314 191.297 548.85 191.297 548.279C191.297 547.707 190.833 547.244 190.262 547.244C189.69 547.244 189.227 547.707 189.227 548.279Z" fill="white"/>
<defs>
<filter id="filter0_d" x="616.004" y="1177" width="74.5836" height="82.5254" filterUnits="userSpaceOnUse" color-interpolation-filters="sRGB">
<feFlood flood-opacity="0" result="BackgroundImageFix"/>
<feColorMatrix in="SourceAlpha" type="matrix" values="0 0 0 0 0 0 0 0 0 0 0 0 0 0 0 0 0 0 127 0"/>
<feOffset dy="2"/>
<feGaussianBlur stdDeviation="7"/>
<feColorMatrix type="matrix" values="0 0 0 0 0 0 0 0 0 0 0 0 0 0 0 0 0 0 0.5 0"/>
<feBlend mode="normal" in2="BackgroundImageFix" result="effect1_dropShadow"/>
<feBlend mode="normal" in="SourceGraphic" in2="effect1_dropShadow" result="shape"/>
</filter>
<filter id="filter1_d" x="655.958" y="1177.48" width="63.1105" height="78.2368" filterUnits="userSpaceOnUse" color-interpolation-filters="sRGB">
<feFlood flood-opacity="0" result="BackgroundImageFix"/>
<feColorMatrix in="SourceAlpha" type="matrix" values="0 0 0 0 0 0 0 0 0 0 0 0 0 0 0 0 0 0 127 0"/>
<feOffset dy="2"/>
<feGaussianBlur stdDeviation="7"/>
<feColorMatrix type="matrix" values="0 0 0 0 0 0 0 0 0 0 0 0 0 0 0 0 0 0 0.5 0"/>
<feBlend mode="normal" in2="BackgroundImageFix" result="effect1_dropShadow"/>
<feBlend mode="normal" in="SourceGraphic" in2="effect1_dropShadow" result="shape"/>
</filter>
<filter id="filter2_d" x="691.068" y="1177.48" width="62.4353" height="78.2368" filterUnits="userSpaceOnUse" color-interpolation-filters="sRGB">
<feFlood flood-opacity="0" result="BackgroundImageFix"/>
<feColorMatrix in="SourceAlpha" type="matrix" values="0 0 0 0 0 0 0 0 0 0 0 0 0 0 0 0 0 0 127 0"/>
<feOffset dy="2"/>
<feGaussianBlur stdDeviation="7"/>
<feColorMatrix type="matrix" values="0 0 0 0 0 0 0 0 0 0 0 0 0 0 0 0 0 0 0.5 0"/>
<feBlend mode="normal" in2="BackgroundImageFix" result="effect1_dropShadow"/>
<feBlend mode="normal" in="SourceGraphic" in2="effect1_dropShadow" result="shape"/>
</filter>
<filter id="filter3_d" x="725.927" y="1177.48" width="62.6873" height="78.2368" filterUnits="userSpaceOnUse" color-interpolation-filters="sRGB">
<feFlood flood-opacity="0" result="BackgroundImageFix"/>
<feColorMatrix in="SourceAlpha" type="matrix" values="0 0 0 0 0 0 0 0 0 0 0 0 0 0 0 0 0 0 127 0"/>
<feOffset dy="2"/>
<feGaussianBlur stdDeviation="7"/>
<feColorMatrix type="matrix" values="0 0 0 0 0 0 0 0 0 0 0 0 0 0 0 0 0 0 0.5 0"/>
<feBlend mode="normal" in2="BackgroundImageFix" result="effect1_dropShadow"/>
<feBlend mode="normal" in="SourceGraphic" in2="effect1_dropShadow" result="shape"/>
</filter>
<filter id="filter4_d" x="760.66" y="1177.48" width="63.0648" height="78.2368" filterUnits="userSpaceOnUse" color-interpolation-filters="sRGB">
<feFlood flood-opacity="0" result="BackgroundImageFix"/>
<feColorMatrix in="SourceAlpha" type="matrix" values="0 0 0 0 0 0 0 0 0 0 0 0 0 0 0 0 0 0 127 0"/>
<feOffset dy="2"/>
<feGaussianBlur stdDeviation="7"/>
<feColorMatrix type="matrix" values="0 0 0 0 0 0 0 0 0 0 0 0 0 0 0 0 0 0 0.5 0"/>
<feBlend mode="normal" in2="BackgroundImageFix" result="effect1_dropShadow"/>
<feBlend mode="normal" in="SourceGraphic" in2="effect1_dropShadow" result="shape"/>
</filter>
<filter id="filter5_d" x="655.958" y="1022.58" width="63.1105" height="78.2368" filterUnits="userSpaceOnUse" color-interpolation-filters="sRGB">
<feFlood flood-opacity="0" result="BackgroundImageFix"/>
<feColorMatrix in="SourceAlpha" type="matrix" values="0 0 0 0 0 0 0 0 0 0 0 0 0 0 0 0 0 0 127 0"/>
<feOffset dy="2"/>
<feGaussianBlur stdDeviation="7"/>
<feColorMatrix type="matrix" values="0 0 0 0 0 0 0 0 0 0 0 0 0 0 0 0 0 0 0.5 0"/>
<feBlend mode="normal" in2="BackgroundImageFix" result="effect1_dropShadow"/>
<feBlend mode="normal" in="SourceGraphic" in2="effect1_dropShadow" result="shape"/>
</filter>
<filter id="filter6_d" x="690.393" y="1022.58" width="63.1105" height="78.2368" filterUnits="userSpaceOnUse" color-interpolation-filters="sRGB">
<feFlood flood-opacity="0" result="BackgroundImageFix"/>
<feColorMatrix in="SourceAlpha" type="matrix" values="0 0 0 0 0 0 0 0 0 0 0 0 0 0 0 0 0 0 127 0"/>
<feOffset dy="2"/>
<feGaussianBlur stdDeviation="7"/>
<feColorMatrix type="matrix" values="0 0 0 0 0 0 0 0 0 0 0 0 0 0 0 0 0 0 0.5 0"/>
<feBlend mode="normal" in2="BackgroundImageFix" result="effect1_dropShadow"/>
<feBlend mode="normal" in="SourceGraphic" in2="effect1_dropShadow" result="shape"/>
</filter>
<filter id="filter7_d" x="725.504" y="1022.58" width="63.1105" height="78.2368" filterUnits="userSpaceOnUse" color-interpolation-filters="sRGB">
<feFlood flood-opacity="0" result="BackgroundImageFix"/>
<feColorMatrix in="SourceAlpha" type="matrix" values="0 0 0 0 0 0 0 0 0 0 0 0 0 0 0 0 0 0 127 0"/>
<feOffset dy="2"/>
<feGaussianBlur stdDeviation="7"/>
<feColorMatrix type="matrix" values="0 0 0 0 0 0 0 0 0 0 0 0 0 0 0 0 0 0 0.5 0"/>
<feBlend mode="normal" in2="BackgroundImageFix" result="effect1_dropShadow"/>
<feBlend mode="normal" in="SourceGraphic" in2="effect1_dropShadow" result="shape"/>
</filter>
<filter id="filter8_d" x="760.614" y="1022.58" width="63.1105" height="78.2368" filterUnits="userSpaceOnUse" color-interpolation-filters="sRGB">
<feFlood flood-opacity="0" result="BackgroundImageFix"/>
<feColorMatrix in="SourceAlpha" type="matrix" values="0 0 0 0 0 0 0 0 0 0 0 0 0 0 0 0 0 0 127 0"/>
<feOffset dy="2"/>
<feGaussianBlur stdDeviation="7"/>
<feColorMatrix type="matrix" values="0 0 0 0 0 0 0 0 0 0 0 0 0 0 0 0 0 0 0.5 0"/>
<feBlend mode="normal" in2="BackgroundImageFix" result="effect1_dropShadow"/>
<feBlend mode="normal" in="SourceGraphic" in2="effect1_dropShadow" result="shape"/>
</filter>
<filter id="filter9_d" x="789.988" y="1018.35" width="74.5836" height="82.5254" filterUnits="userSpaceOnUse" color-interpolation-filters="sRGB">
<feFlood flood-opacity="0" result="BackgroundImageFix"/>
<feColorMatrix in="SourceAlpha" type="matrix" values="0 0 0 0 0 0 0 0 0 0 0 0 0 0 0 0 0 0 127 0"/>
<feOffset dy="2"/>
<feGaussianBlur stdDeviation="7"/>
<feColorMatrix type="matrix" values="0 0 0 0 0 0 0 0 0 0 0 0 0 0 0 0 0 0 0.5 0"/>
<feBlend mode="normal" in2="BackgroundImageFix" result="effect1_dropShadow"/>
<feBlend mode="normal" in="SourceGraphic" in2="effect1_dropShadow" result="shape"/>
</filter>
<filter id="filter10_d" x="788.901" y="1177.38" width="73.6863" height="82.1446" filterUnits="userSpaceOnUse" color-interpolation-filters="sRGB">
<feFlood flood-opacity="0" result="BackgroundImageFix"/>
<feColorMatrix in="SourceAlpha" type="matrix" values="0 0 0 0 0 0 0 0 0 0 0 0 0 0 0 0 0 0 127 0"/>
<feOffset dy="2"/>
<feGaussianBlur stdDeviation="7"/>
<feColorMatrix type="matrix" values="0 0 0 0 0 0 0 0 0 0 0 0 0 0 0 0 0 0 0.5 0"/>
<feBlend mode="normal" in2="BackgroundImageFix" result="effect1_dropShadow"/>
<feBlend mode="normal" in="SourceGraphic" in2="effect1_dropShadow" result="shape"/>
</filter>
<filter id="filter11_d" x="616.004" y="1018" width="74.5836" height="82.5254" filterUnits="userSpaceOnUse" color-interpolation-filters="sRGB">
<feFlood flood-opacity="0" result="BackgroundImageFix"/>
<feColorMatrix in="SourceAlpha" type="matrix" values="0 0 0 0 0 0 0 0 0 0 0 0 0 0 0 0 0 0 127 0"/>
<feOffset dy="2"/>
<feGaussianBlur stdDeviation="7"/>
<feColorMatrix type="matrix" values="0 0 0 0 0 0 0 0 0 0 0 0 0 0 0 0 0 0 0.5 0"/>
<feBlend mode="normal" in2="BackgroundImageFix" result="effect1_dropShadow"/>
<feBlend mode="normal" in="SourceGraphic" in2="effect1_dropShadow" result="shape"/>
</filter>
<linearGradient id="paint0_linear" x1="1444" y1="766.47" x2="1443.24" y2="-0.720343" gradientUnits="userSpaceOnUse">
<stop stop-color="#2B3780"/>
<stop offset="0.513767" stop-color="#2D3270"/>
<stop offset="1" stop-color="#20244C"/>
</linearGradient>
<linearGradient id="paint1_linear" x1="1662.06" y1="1137.57" x2="1549.55" y2="695.303" gradientUnits="userSpaceOnUse">
<stop stop-color="#E2958C"/>
<stop offset="1" stop-color="#B998EA"/>
</linearGradient>
</defs>
</svg>
