<svg width="248" height="249" viewBox="0 0 248 249" fill="none" xmlns="http://www.w3.org/2000/svg">
<path fill-rule="evenodd" clip-rule="evenodd" d="M130.251 248.193C187.991 248.193 224.469 216.401 224.469 161.807C224.469 107.212 187.991 52.4673 130.251 52.4673C72.5116 52.4673 25.7042 95.451 25.7042 150.045C25.7042 204.64 72.5116 248.193 130.251 248.193Z" fill="#A8DADC"/>
<path d="M112.399 246.821C93.383 228.85 81.5032 203.443 81.5032 175.253C81.5032 163.55 83.5521 152.325 87.3035 141.911C60.7189 154.588 39.6831 168.166 29.4716 178.068C29.9748 179.737 30.4265 180.844 31.0147 182.474C31.0503 182.572 31.0834 182.672 31.119 182.77C31.3182 183.316 31.5253 183.858 31.7339 184.4C31.8002 184.572 31.8635 184.744 31.9302 184.916C32.1353 185.441 32.3479 185.962 32.5624 186.482C32.6371 186.664 32.7102 186.847 32.7863 187.029C33.0043 187.55 33.2283 188.066 33.4546 188.582C33.5318 188.757 33.6074 188.933 33.685 189.108C33.9183 189.632 34.1576 190.152 34.3998 190.671C34.4744 190.831 34.5486 190.99 34.6237 191.15C34.8763 191.683 35.1338 192.214 35.3958 192.742C35.463 192.877 35.5298 193.012 35.5975 193.147C35.8689 193.688 36.1452 194.227 36.4265 194.762C38.4482 198.504 40.8999 201.974 43.2993 205.42C43.6438 205.913 43.8811 206.239 44.1164 206.567C44.3967 206.954 44.6765 207.342 44.9622 207.725C60.8845 228.964 84.9056 243.516 112.399 246.821Z" fill="#457B9D"/>
<path d="M86.8021 143.151C89.4014 137.544 95.0393 126.047 101.076 119.398C121.165 97.2687 155.24 77.489 180.094 77.489C184.14 77.489 188.12 77.7596 192.039 78.231C180.42 67.2503 166.137 59.0449 150.254 54.6969C149.449 54.4775 148.737 54.2921 148.021 54.1142C147.098 53.8879 146.428 53.7296 145.754 53.5792C144.719 53.3529 144.089 53.2198 143.456 53.0941C143.272 53.0576 143.086 53.0236 142.901 52.9881C142.31 52.8742 141.718 52.7633 141.124 52.6602C140.894 52.6203 140.663 52.5843 140.432 52.5458C139.878 52.4537 139.322 52.3624 138.764 52.2796C138.488 52.2387 138.21 52.2027 137.933 52.1638C137.415 52.0913 136.897 52.0183 136.377 51.9537C136.054 51.9138 135.73 51.8798 135.406 51.8428C134.926 51.7881 134.446 51.7319 133.963 51.6835C133.591 51.6466 133.217 51.617 132.844 51.5845C132.405 51.546 131.966 51.5046 131.525 51.4715C131.095 51.4395 130.664 51.4163 130.233 51.3897C129.843 51.3655 129.453 51.3374 129.062 51.3182C128.547 51.2926 128.029 51.2773 127.512 51.2595C127.2 51.2492 126.89 51.2329 126.577 51.225C125.745 51.2043 124.91 51.1935 124.072 51.1935C69.4721 51.1935 25.2099 95.3404 25.2099 149.798C25.2099 150.619 25.2208 151.437 25.241 152.253C25.2475 152.525 25.2608 152.797 25.2697 153.069C25.2875 153.612 25.3053 154.154 25.3315 154.694C25.3473 155.018 25.3696 155.34 25.3883 155.663C25.417 156.149 25.4452 156.634 25.4808 157.118C25.5065 157.464 25.5371 157.808 25.5663 158.153C25.6049 158.611 25.6434 159.068 25.6884 159.524C25.7235 159.882 25.763 160.239 25.8021 160.596C25.8236 160.794 26.2062 165.32 27.242 170.303C27.9672 173.792 29.4559 178.26 29.4723 178.398C39.6594 170.361 47.5847 165.33 57.9801 159.019C65.5315 154.435 74.2311 148.633 86.8021 143.151Z" fill="#457B9D"/>
<path d="M247.021 199.981C243.195 209.347 226.465 212.453 202.392 209.932C177.38 207.312 144.44 198.617 109.795 184.539C106.038 183.012 102.343 181.452 98.7085 179.867C68.8322 166.84 43.3484 152.029 25.7608 138.155C6.78166 123.182 -3.00622 109.302 0.81877 99.9382C4.64327 90.5756 21.3787 87.4794 45.4379 89.9958C45.0899 90.4543 44.8857 90.7304 44.6801 91.0055C44.2535 91.5774 43.9722 91.9635 43.693 92.352C43.4577 92.6793 43.2204 93.0057 42.9891 93.3365C40.4765 96.9445 38.303 100.558 36.3386 104.298C28.7598 104.281 23.9373 105.73 22.6753 108.82C21.4133 111.91 23.8414 116.306 29.2343 121.536C39.4463 131.439 60.2949 144.33 86.8796 157.007C95.9314 161.324 105.645 165.616 115.834 169.755C155.942 186.053 192.464 195.577 211.557 195.625C219.082 195.643 223.639 193.99 225.851 191.007C228.063 188.025 228.446 185.095 223.056 179.867C223.837 174.578 224.521 169.092 224.521 163.253C243.492 178.221 250.845 190.619 247.021 199.981Z" fill="#345E99"/>
<path fill-rule="evenodd" clip-rule="evenodd" d="M124.32 93.6811C151.21 93.6811 173.009 84.143 173.009 72.3772C173.009 60.6113 151.21 51.0732 124.32 51.0732C97.4289 51.0732 75.6298 60.6113 75.6298 72.3772C75.6298 84.143 97.4289 93.6811 124.32 93.6811Z" fill="#1D3755"/>
<path fill-rule="evenodd" clip-rule="evenodd" d="M124.32 71.8818C149.299 71.8818 169.549 68.2743 169.549 48.4366C169.549 28.5989 149.299 0.0429688 124.32 0.0429688C99.34 0.0429688 79.09 28.5989 79.09 48.4366C79.09 68.2743 99.34 71.8818 124.32 71.8818Z" fill="#80E5CD"/>
<path fill-rule="evenodd" clip-rule="evenodd" d="M103.124 13.5633C105.308 13.5633 105.289 11.3533 105.289 8.61746C105.289 5.88162 99.5874 3.51056 99.5874 3.51056C99.5874 3.51056 97.3796 5.88162 97.3796 8.61746C97.3796 11.3533 100.94 13.5633 103.124 13.5633Z" fill="#D0021B"/>
<path fill-rule="evenodd" clip-rule="evenodd" d="M145.021 13.5633C142.837 13.5633 142.856 11.3533 142.856 8.61746C142.856 5.88162 148.558 3.51056 148.558 3.51056C148.558 3.51056 150.765 5.88162 150.765 8.61746C150.765 11.3533 147.205 13.5633 145.021 13.5633Z" fill="#D0021B"/>
<path fill-rule="evenodd" clip-rule="evenodd" d="M124.567 56.0268C138.217 56.0268 149.282 47.1541 149.282 36.2091C149.282 25.2642 138.217 16.3915 124.567 16.3915C110.917 16.3915 99.8512 25.2642 99.8512 36.2091C99.8512 47.1541 110.917 56.0268 124.567 56.0268Z" fill="#FAFAFA"/>
<path fill-rule="evenodd" clip-rule="evenodd" d="M124.814 51.0733C133.686 51.0733 140.879 46.637 140.879 41.1645C140.879 35.692 133.686 31.2557 124.814 31.2557C115.941 31.2557 108.749 35.692 108.749 41.1645C108.749 46.637 115.941 51.0733 124.814 51.0733Z" fill="#4A4A4A"/>
<path fill-rule="evenodd" clip-rule="evenodd" d="M149.53 50.9215C149.912 50.9215 151.26 50.5448 151.26 48.0887C151.26 45.6327 149.53 43.6417 149.53 43.6417C149.53 43.6417 147.799 45.6327 147.799 48.0887C147.799 50.5448 149.147 50.9215 149.53 50.9215Z" fill="#53A0FD"/>
<path fill-rule="evenodd" clip-rule="evenodd" d="M124.51 14.2281C130.804 14.2281 141.198 21.5079 141.198 21.5079C141.198 21.5079 131.465 16.4296 124.51 16.4296C117.554 16.4296 107.936 21.5079 107.936 21.5079C107.936 21.5079 118.216 14.2281 124.51 14.2281Z" fill="#4A4A4A"/>
<path d="M131.653 14.3514C131.994 13.7595 132.75 13.557 133.341 13.8991C133.932 14.2412 134.135 14.9984 133.794 15.5902L132.682 17.5219L130.541 16.2831L131.653 14.3514Z" fill="#4A4A4A"/>
<path d="M116.986 14.3514C116.645 13.7595 115.889 13.557 115.298 13.8991C114.707 14.2412 114.504 14.9984 114.845 15.5902L115.958 17.5219L118.099 16.2831L116.986 14.3514Z" fill="#4A4A4A"/>
<path d="M125.555 11.6818C125.555 10.999 125.002 10.4456 124.319 10.4456C123.636 10.4456 123.083 10.999 123.083 11.6818V15.3992H125.555V11.6818Z" fill="#4A4A4A"/>
<path fill-rule="evenodd" clip-rule="evenodd" d="M123.38 81.4717L124.949 82.3945C125.03 82.4424 125.13 82.4424 125.212 82.3945L126.781 81.4717C126.862 81.4246 126.911 81.3381 126.911 81.2443V79.399C126.911 79.3056 126.862 79.2187 126.781 79.1716L125.212 78.2488C125.13 78.2009 125.03 78.2009 124.949 78.2488L123.38 79.1716C123.299 79.2187 123.25 79.3056 123.25 79.399V81.2443C123.25 81.3381 123.299 81.4246 123.38 81.4717ZM125.065 79.5309C125.498 79.5309 125.849 79.885 125.849 80.3218C125.849 80.7584 125.498 81.1125 125.065 81.1125C124.631 81.1125 124.28 80.7584 124.28 80.3218C124.28 79.885 124.631 79.5309 125.065 79.5309Z" fill="#FECD57"/>
<path fill-rule="evenodd" clip-rule="evenodd" d="M125.065 79.2673C125.642 79.2673 126.111 79.7403 126.111 80.3218C126.111 80.9033 125.642 81.3759 125.065 81.3759C124.488 81.3759 124.018 80.9033 124.018 80.3218C124.018 79.7403 124.488 79.2673 125.065 79.2673ZM125.065 79.7944C124.777 79.7944 124.542 80.0311 124.542 80.3219C124.542 80.6126 124.777 80.8489 125.065 80.8489C125.354 80.8489 125.589 80.6126 125.589 80.3219C125.589 80.0311 125.354 79.7944 125.065 79.7944Z" fill="#F6BB42"/>
<path fill-rule="evenodd" clip-rule="evenodd" d="M129.655 87.2722L131.224 88.1951C131.305 88.2429 131.406 88.2429 131.487 88.1951L133.057 87.2722C133.137 87.2251 133.186 87.1382 133.186 87.0448V85.1995C133.186 85.1057 133.137 85.0192 133.057 84.9717L131.487 84.0493C131.406 84.0014 131.305 84.0014 131.224 84.0493L129.655 84.9717C129.575 85.0192 129.525 85.1057 129.525 85.1995V87.0448C129.525 87.1382 129.575 87.2251 129.655 87.2722ZM131.34 85.3311C131.773 85.3311 132.125 85.6851 132.125 86.1219C132.125 86.559 131.773 86.9126 131.34 86.9126C130.907 86.9126 130.555 86.559 130.555 86.1219C130.555 85.6851 130.907 85.3311 131.34 85.3311Z" fill="#FECD57"/>
<path fill-rule="evenodd" clip-rule="evenodd" d="M131.34 85.0679C131.917 85.0679 132.386 85.5408 132.386 86.122C132.386 86.7035 131.917 87.1765 131.34 87.1765C130.763 87.1765 130.294 86.7035 130.294 86.122C130.294 85.5409 130.763 85.0679 131.34 85.0679ZM131.34 85.595C131.052 85.595 130.817 85.8317 130.817 86.1221C130.817 86.4129 131.052 86.6495 131.34 86.6495C131.629 86.6495 131.864 86.4129 131.864 86.1221C131.864 85.8317 131.629 85.595 131.34 85.595Z" fill="#F6BB42"/>
<path d="M124.664 86.7492C124.597 86.7306 124.54 86.6862 124.506 86.6252L123.728 85.2514C123.657 85.1247 123.701 84.9641 123.826 84.8919L129.278 81.7585C129.404 81.6863 129.563 81.7303 129.635 81.857L130.412 83.2308C130.435 83.2721 130.446 83.3169 130.446 83.3609C130.446 83.4528 130.399 83.5416 130.314 83.5903L124.862 86.7236C124.802 86.7584 124.73 86.7673 124.664 86.7492Z" fill="#CBD0D8"/>
<path d="M123.689 88.2197C123.622 88.2012 123.565 88.1568 123.53 88.0957L121.976 85.3481C121.905 85.2215 121.948 85.0604 122.074 84.9882L123.437 84.2052C123.562 84.133 123.722 84.177 123.794 84.3037L125.348 87.0513C125.371 87.0926 125.382 87.1373 125.382 87.1818C125.382 87.2733 125.335 87.3621 125.25 87.4107L123.887 88.1942C123.827 88.229 123.755 88.2378 123.689 88.2197Z" fill="#E6E9ED"/>
<path d="M122.624 86.4932L123.306 86.1013C123.431 86.0295 123.591 86.0735 123.662 86.1998C123.686 86.2411 123.697 86.2859 123.697 86.3303C123.697 86.4218 123.649 86.511 123.565 86.5596L122.883 86.9511L122.624 86.4932Z" fill="#CCD1D9"/>
<path d="M132.637 83.7567L128.887 78.6838C128.801 78.5672 128.824 78.4019 128.941 78.3151L130.199 77.3699C130.254 77.3282 130.324 77.3104 130.393 77.3204C130.461 77.3305 130.523 77.3679 130.564 77.4239L134.315 82.4963C134.348 82.5423 134.366 82.5975 134.366 82.6539C134.366 82.6666 134.365 82.6794 134.364 82.6921C134.354 82.7612 134.317 82.8238 134.261 82.8655L133.003 83.8103C132.887 83.8972 132.723 83.8733 132.637 83.7567Z" fill="#CBD0D8"/>
<path d="M128.258 79.1565L127.321 77.8881C127.279 77.8322 127.261 77.7619 127.272 77.6928C127.282 77.6233 127.319 77.5611 127.374 77.5194L129.89 75.6294C130.006 75.5425 130.17 75.5664 130.256 75.6834L131.194 76.9514C131.227 76.9974 131.245 77.0526 131.245 77.109C131.245 77.1217 131.245 77.1345 131.243 77.1472C131.233 77.2163 131.196 77.2785 131.14 77.3202L128.624 79.2102C128.508 79.2971 128.344 79.2732 128.258 79.1565Z" fill="#E6E9ED"/>
<path d="M129.311 77.0512C129.346 77.0983 129.363 77.1535 129.363 77.2083C129.363 77.2886 129.326 77.3681 129.257 77.4199C129.141 77.5068 128.977 77.4828 128.891 77.3658L128.422 76.7318L128.842 76.4167L129.311 77.0512Z" fill="#CCD1D9"/>
<path d="M124.994 84.8276C125.017 84.8689 125.029 84.9137 125.029 84.9581C125.029 85.0496 124.981 85.1388 124.897 85.1874C124.771 85.2592 124.611 85.2152 124.54 85.089L124.281 84.6311L124.735 84.3697L124.994 84.8276Z" fill="#AAB2BC"/>
<path d="M125.709 84.5667C125.709 84.6582 125.662 84.747 125.577 84.7957C125.452 84.8678 125.292 84.8239 125.221 84.6972L124.961 84.2393L125.416 83.9783L125.675 84.4362C125.698 84.4775 125.709 84.5223 125.709 84.5667Z" fill="#AAB2BC"/>
<path d="M126.357 84.0446C126.38 84.0855 126.391 84.1303 126.391 84.1747C126.391 84.2662 126.344 84.3554 126.259 84.4041C126.133 84.4763 125.974 84.4319 125.902 84.3056L125.643 83.8477L126.098 83.5867L126.357 84.0446Z" fill="#AAB2BC"/>
<path d="M127.072 83.7833C127.072 83.8748 127.025 83.9636 126.94 84.0123C126.815 84.0845 126.655 84.0405 126.583 83.9142L126.324 83.4558L126.779 83.1948L127.038 83.6528C127.061 83.6941 127.072 83.7389 127.072 83.7833Z" fill="#AAB2BC"/>
<path d="M127.719 83.2611C127.743 83.3024 127.754 83.3472 127.754 83.3912C127.754 83.4831 127.706 83.5719 127.622 83.6206C127.496 83.6928 127.337 83.6488 127.265 83.5221L127.006 83.0642L127.46 82.8032L127.719 83.2611Z" fill="#AAB2BC"/>
<path d="M127.947 83.1304L127.688 82.6725L128.142 82.4111L128.401 82.8691C128.424 82.9104 128.435 82.9552 128.435 82.9995C128.435 83.091 128.388 83.1802 128.303 83.2289C128.178 83.3007 128.018 83.2567 127.947 83.1304Z" fill="#AAB2BC"/>
<path d="M128.628 82.7385L128.369 82.2805L128.823 82.0195L129.082 82.4775C129.105 82.5188 129.117 82.5635 129.117 82.608C129.117 82.6995 129.069 82.7883 128.984 82.8369C128.859 82.9091 128.699 82.8651 128.628 82.7385Z" fill="#AAB2BC"/>
<path d="M125.316 86.463L125.057 86.0051C124.985 85.8784 125.029 85.7174 125.155 85.6456C125.28 85.5734 125.44 85.6174 125.511 85.744L125.77 86.202L125.316 86.463Z" fill="#AAB2BC"/>
<path d="M125.738 85.6132C125.667 85.4869 125.711 85.3259 125.836 85.2537C125.962 85.1819 126.121 85.2259 126.193 85.3521L126.452 85.8101L125.997 86.0715L125.738 85.6132Z" fill="#AAB2BC"/>
<path d="M126.42 85.2216C126.349 85.0953 126.392 84.9343 126.518 84.8621C126.643 84.7899 126.803 84.8339 126.874 84.9606L127.133 85.4185C127.133 85.4185 127.133 85.4185 127.134 85.4185L126.679 85.6795L126.42 85.2216Z" fill="#AAB2BC"/>
<path d="M127.101 84.83C127.03 84.7033 127.074 84.5423 127.199 84.4705C127.325 84.3983 127.485 84.4423 127.556 84.569L127.815 85.0269L127.361 85.2879L127.101 84.83Z" fill="#AAB2BC"/>
<path d="M127.783 84.4385C127.712 84.3119 127.755 84.1508 127.881 84.0787C128.006 84.0068 128.166 84.0509 128.238 84.1771L128.497 84.635L128.042 84.896L127.783 84.4385Z" fill="#AAB2BC"/>
<path d="M128.562 83.6871C128.687 83.6149 128.847 83.6589 128.919 83.7855L129.178 84.2435L128.723 84.5045L128.465 84.0465C128.393 83.9199 128.437 83.7593 128.562 83.6871Z" fill="#AAB2BC"/>
<path d="M129.244 83.2952C129.369 83.2234 129.529 83.2674 129.6 83.3937L129.86 83.8516L129.405 84.113L129.146 83.6551C129.074 83.5284 129.118 83.3674 129.244 83.2952Z" fill="#AAB2BC"/>
<path d="M130.404 78.53C130.318 78.4134 130.342 78.2481 130.458 78.1613L130.877 77.8462L131.19 78.269L130.771 78.5841C130.654 78.6709 130.491 78.647 130.404 78.53Z" fill="#AAB2BC"/>
<path d="M130.873 79.1648C130.787 79.0478 130.811 78.8825 130.927 78.7956L131.346 78.481L131.659 78.9038L131.239 79.2184C131.123 79.3053 130.959 79.2814 130.873 79.1648Z" fill="#AAB2BC"/>
<path d="M131.342 79.7988C131.255 79.6822 131.28 79.517 131.395 79.4301L131.815 79.115L132.128 79.5378L131.708 79.8525C131.592 79.9398 131.428 79.9154 131.342 79.7988Z" fill="#AAB2BC"/>
<path d="M131.81 80.4326C131.724 80.316 131.748 80.1508 131.864 80.0639L132.283 79.7488L132.596 80.1716L132.176 80.4866C132.061 80.5735 131.897 80.5496 131.81 80.4326Z" fill="#AAB2BC"/>
<path d="M132.279 81.0666C132.193 80.95 132.217 80.7847 132.333 80.6979L132.752 80.3828L133.065 80.8056L132.645 81.1207C132.53 81.2075 132.366 81.1836 132.279 81.0666Z" fill="#AAB2BC"/>
<path d="M132.748 81.702C132.662 81.585 132.686 81.4202 132.802 81.3329L133.221 81.0178L133.534 81.4406L133.114 81.7557C132.999 81.8426 132.834 81.8187 132.748 81.702Z" fill="#AAB2BC"/>
<path d="M133.217 82.3362C133.13 82.2192 133.155 82.0543 133.27 81.9671L133.689 81.6523L134.002 82.0752L133.583 82.3899C133.467 82.4767 133.303 82.4528 133.217 82.3362Z" fill="#AAB2BC"/>
<path d="M129.985 78.8458C130.02 78.8929 130.037 78.9481 130.037 79.0029C130.037 79.0832 130 79.1628 129.932 79.2145L129.512 79.5296L129.2 79.1068L129.619 78.7917C129.735 78.7048 129.899 78.7288 129.985 78.8458Z" fill="#AAB2BC"/>
<path d="M130.454 79.4798C130.489 79.5269 130.505 79.5821 130.505 79.6369C130.505 79.7173 130.469 79.7968 130.4 79.8485L129.981 80.1636L129.668 79.7408L130.087 79.4257C130.204 79.3389 130.367 79.3628 130.454 79.4798Z" fill="#AAB2BC"/>
<path d="M130.922 80.1137C130.958 80.1608 130.975 80.216 130.975 80.2708C130.975 80.3511 130.938 80.4307 130.869 80.4824L130.45 80.7975L130.137 80.3747L130.556 80.0596C130.673 79.9727 130.836 79.9966 130.922 80.1137Z" fill="#AAB2BC"/>
<path d="M131.391 80.7487C131.426 80.7958 131.443 80.8511 131.443 80.9059C131.443 80.9866 131.407 81.0657 131.338 81.1175L130.918 81.4325L130.606 81.0097L131.025 80.6947C131.141 80.6078 131.305 80.6321 131.391 80.7487Z" fill="#AAB2BC"/>
<path d="M131.86 81.3829C131.895 81.4304 131.912 81.4856 131.912 81.5405C131.912 81.6208 131.875 81.7003 131.806 81.7521L131.387 82.0668L131.075 81.6443L131.494 81.3293C131.61 81.242 131.774 81.2663 131.86 81.3829Z" fill="#AAB2BC"/>
<path d="M132.329 82.0172C132.364 82.0643 132.381 82.1195 132.381 82.1743C132.381 82.2546 132.344 82.3342 132.275 82.3859L131.856 82.7009L131.543 82.2782L131.963 81.9631C132.078 81.8762 132.242 81.9002 132.329 82.0172Z" fill="#AAB2BC"/>
<path d="M132.012 82.9123L132.432 82.5973C132.547 82.5104 132.711 82.5347 132.798 82.6513C132.832 82.6984 132.849 82.7537 132.849 82.8085C132.849 82.8892 132.813 82.9683 132.744 83.0201L132.325 83.3351L132.012 82.9123Z" fill="#AAB2BC"/>
<path d="M141.027 88.8085C141.736 86.0989 141.455 83.1217 140.004 80.483C138.555 77.8479 136.204 76.0311 133.553 75.1999C134.027 73.6599 134.838 72.2237 135.96 71.0201C136.973 69.9327 138.786 70.4042 139.129 71.8557C140.42 77.3304 142.929 81.9975 146.724 85.8125C147.78 86.8742 147.231 88.6987 145.766 88.9818C144.176 89.2892 142.557 89.2161 141.027 88.8085Z" fill="#517896"/>
<path d="M139.078 79.8682C137.751 77.4557 135.608 75.7899 133.19 75.0209C133.255 74.7254 133.329 74.432 133.418 74.143C136.069 74.9742 138.42 76.7911 139.869 79.4261C141.32 82.0649 141.602 85.0421 140.892 87.7517C140.602 87.6744 140.316 87.5824 140.033 87.4809C140.671 85.0029 140.406 82.2841 139.078 79.8682Z" fill="#3E4D57"/>
<path d="M122.525 79.3951C122.525 85.109 117.93 89.7411 112.262 89.7411C106.595 89.7411 102 85.109 102 79.3951C102 73.6811 106.595 69.0491 112.262 69.0491C117.93 69.0491 122.525 73.6811 122.525 79.3951Z" fill="#EBF0F3"/>
<path d="M118.464 79.1052C118.464 82.4403 115.782 85.144 112.474 85.144C109.166 85.144 106.484 82.4403 106.484 79.1052C106.484 75.7701 109.166 73.0664 112.474 73.0664C115.782 73.0664 118.464 75.7701 118.464 79.1052Z" fill="#3A556A"/>
<path d="M116.954 80.1008C116.954 82.5991 114.944 84.6244 112.466 84.6244C109.987 84.6244 107.978 82.5991 107.978 80.1008C107.978 77.6024 109.987 75.5771 112.466 75.5771C114.944 75.5771 116.954 77.6024 116.954 80.1008Z" fill="#64798A"/>
<path d="M105.253 79.4755C105.253 79.9646 104.859 80.361 104.374 80.361C103.889 80.361 103.495 79.9646 103.495 79.4755C103.495 78.9865 103.889 78.59 104.374 78.59C104.859 78.59 105.253 78.9865 105.253 79.4755Z" fill="#FCD462"/>
<path d="M115.426 80.0839C115.426 81.7409 114.093 83.0842 112.449 83.0842C110.805 83.0842 109.473 81.7409 109.473 80.0839C109.473 78.4268 110.805 77.0836 112.449 77.0836C114.093 77.0836 115.426 78.4268 115.426 80.0839Z" fill="#27A2DB"/>
<path d="M113.788 79.555C113.577 79.3416 113.745 78.8261 114.164 78.4036C114.583 77.981 115.095 77.8115 115.306 78.0248C115.518 78.2382 115.35 78.7537 114.931 79.1763C114.512 79.5988 114 79.7684 113.788 79.555Z" fill="white"/>
</svg>
