<svg width="216" height="250" viewBox="0 0 216 250" fill="none" xmlns="http://www.w3.org/2000/svg">
<g filter="url(#filter0_d)">
<path d="M65.6103 147.953C66.7713 157.409 59.9846 166.126 50.5616 167.283C41.1388 168.44 20.1611 163.132 19.0001 153.676C17.8391 144.221 36.9092 133.996 46.3322 132.839C55.7552 131.682 64.3547 138.424 65.6103 147.953Z" fill="#FFE066"/>
</g>
<path d="M51.8562 133.017L51.4136 133.586C43.7417 143.44 45.5038 157.792 55.3318 165.498L55.7097 165.794C62.3392 162.752 66.5048 155.642 65.5512 147.875C64.7128 140.351 58.951 134.46 51.8562 133.017Z" fill="#AFA315"/>
<path d="M78.2171 197.737L65.2606 199.328C38.0013 202.675 77.2809 174.114 73.7356 145.242C70.1903 116.369 24.9994 98.1797 52.4271 94.8122L65.3836 93.2214C92.643 89.875 113.098 111.101 116.644 139.974C120.189 168.846 105.476 194.39 78.2171 197.737Z" fill="#F25F5C"/>
<path d="M132.876 173.287C97.9506 177.49 80.186 174.701 80.186 174.701C60.1162 173.308 58.5061 162.28 56.6815 147.422C54.8568 132.563 53.6571 121.399 72.8882 115.267C72.8882 115.267 89.6187 108.242 124.524 103.871C178.201 97.2804 211.062 119.383 212.066 128.258C213.144 137.038 186.628 166.602 132.876 173.287Z" fill="#F4F0D3"/>
<path d="M181.502 107.93C177.41 114.946 175.573 124.341 176.796 134.303C177.947 142.988 181.108 150.656 185.651 156.353C203.986 145.702 212.809 133.392 212.261 128.232C211.734 123.241 200.764 113.876 181.502 107.93Z" fill="#F25F5C"/>
<path fill-rule="evenodd" clip-rule="evenodd" d="M110.387 151.337C117.605 160.936 131.199 162.87 140.751 155.657C150.303 148.444 152.195 134.815 144.977 125.217C137.76 115.618 124.165 113.685 114.614 120.898C105.062 128.111 103.17 141.739 110.387 151.337Z" fill="#4A90E2" stroke="#4A4A4A" stroke-width="4"/>
<path fill-rule="evenodd" clip-rule="evenodd" d="M124.739 122.668C125.316 124.373 129.275 123.352 133.821 125.834C139.525 128.95 140.412 133.94 141.257 133.236C143.208 131.612 140.433 126.717 136.185 123.875C131.938 121.034 124.012 120.52 124.739 122.668Z" fill="white"/>
<path d="M149.975 154.52L147.289 147.87L166.549 140.141C167.673 139.687 168.988 140.246 169.441 141.369L170.463 143.898C170.917 145.022 170.359 146.337 169.235 146.791L149.975 154.52Z" fill="#E15649"/>
<path d="M142.111 157.697L139.425 151.047L142.112 150.016L144.761 156.571L142.111 157.697Z" fill="#E15649"/>
<path d="M144.76 156.571C145.002 155.82 145.514 154.796 146.263 154.494C147.012 154.191 149.281 154.146 149.976 154.518L147.29 147.869C147.049 148.62 145.451 150.192 144.636 150.467C143.925 150.863 142.835 150.323 142.112 150.016L144.76 156.571Z" fill="#BC342E"/>
<path d="M119.421 160.711L117.688 163.699L121.104 164.606L124.303 162.551L123.178 159.901L119.421 160.711Z" fill="#C3C7CB"/>
<path d="M140.192 153.081L123.15 159.967L124.209 162.59L141.251 155.703L140.192 153.081Z" fill="#E0E0E0"/>
<path d="M151.115 150.736C150.918 150.652 150.814 150.531 150.738 150.343C150.587 149.969 150.754 149.574 151.129 149.423L167.047 142.991C167.422 142.839 167.816 143.007 167.968 143.381C168.119 143.756 167.952 144.15 167.577 144.302L151.659 150.734C151.471 150.81 151.312 150.82 151.115 150.736Z" fill="#BC342E"/>
<rect x="134.68" y="99.1211" width="7.34089" height="3.6706" fill="#575AA1"/>
<path fill-rule="evenodd" clip-rule="evenodd" d="M111.866 105.402C110.484 109.257 98.3311 115.173 91.7837 121.574C85.2364 127.975 94.7739 145.887 92.351 145.887C89.928 145.887 88.6659 139.364 87.2376 135.939C85.2848 131.257 83.3201 125.719 84.0689 123.307C85.5404 118.566 92.099 116.362 98.8919 112.318C103.231 109.735 113.248 101.546 111.866 105.402Z" fill="#575AA1"/>
<path fill-rule="evenodd" clip-rule="evenodd" d="M164.988 105.474C166.371 109.329 178.523 115.245 185.071 121.646C191.618 128.047 182.081 145.959 184.504 145.959C186.927 145.959 188.189 139.436 189.617 136.011C191.57 131.329 193.534 125.791 192.786 123.379C191.314 118.638 184.756 116.434 177.963 112.39C173.624 109.807 163.606 101.618 164.988 105.474Z" fill="#575AA1"/>
<path fill-rule="evenodd" clip-rule="evenodd" d="M134.683 103.375C133.3 107.231 128.477 117.987 125.494 128.144C122.511 138.301 127.187 153.819 124.764 153.819C122.342 153.819 122.578 145.777 121.15 142.352C119.197 137.67 117.233 132.132 117.981 129.72C119.453 124.979 120.988 120.001 127.329 111.635C129.802 108.372 136.065 99.5196 134.683 103.375Z" fill="#575AA1"/>
<path fill-rule="evenodd" clip-rule="evenodd" d="M142.116 103.608C143.498 107.464 148.321 118.22 151.304 128.377C154.287 138.534 149.611 154.052 152.034 154.052C154.457 154.052 154.22 146.01 155.648 142.585C157.601 137.903 159.566 132.365 158.817 129.953C157.346 125.212 155.811 120.234 149.469 111.868C146.996 108.605 140.734 99.7525 142.116 103.608Z" fill="#575AA1"/>
<path d="M170.986 78.8554C178.193 71.1978 170.082 64.09 170.082 64.09C170.082 64.09 167.925 60.0842 173.47 47.7592C188.874 13.2492 150.982 0 138.351 0C125.721 0 87.8287 13.2495 103.232 47.7595C108.777 60.0845 106.62 64.0903 106.62 64.0903C106.62 64.0903 98.5096 71.1984 105.716 78.8557C113.34 86.9569 90.4423 100.652 88.6196 101.842C84.8296 104.316 81.2359 107.36 78.5791 111.053C74.5722 116.621 72.8667 123.391 74.1333 130.164C75.4911 137.405 79.6665 143.966 84.7645 149.174C86.8129 151.267 89.8581 152.34 92.2054 149.917C94.3257 147.728 93.4732 145.062 91.8622 142.947C86.9707 136.522 82.6717 126.571 89.3586 119.765C91.7047 117.377 94.8429 115.918 97.7046 114.281C101.124 112.326 104.72 110.69 108.066 108.604C110.59 107.02 113.213 105.261 115.751 103.316C115.259 104.553 114.743 105.776 114.241 106.986C111.132 114.475 108.814 122.098 109.404 130.288C110.032 139.031 113.761 147.007 117.987 154.527C119.055 156.427 121.458 157.212 123.375 156.176C125.106 155.24 125.852 153.21 125.242 151.42C122.332 142.963 119.738 133.572 122.769 124.969C125.113 118.316 129.78 112.873 133.005 106.67C134.27 104.236 135.285 101.8 136.08 99.3407C136.818 99.4683 137.576 99.5386 138.35 99.5386C139.125 99.5386 139.883 99.4683 140.62 99.3407C141.416 101.801 142.431 104.236 143.696 106.67C146.921 112.873 151.587 118.316 153.932 124.969C156.962 133.572 154.368 142.963 151.523 151.231C150.848 153.21 151.594 155.24 153.325 156.176C155.243 157.212 157.646 156.427 158.714 154.527C162.939 147.007 166.668 139.031 167.297 130.288C167.886 122.098 165.568 114.475 162.46 106.986C161.957 105.775 161.441 104.552 160.949 103.316C163.487 105.261 166.11 107.02 168.635 108.604C171.98 110.69 175.576 112.326 178.996 114.281C181.858 115.917 184.996 117.378 187.342 119.765C194.029 126.571 189.73 136.522 184.838 142.947C183.228 145.063 182.375 147.729 184.495 149.917C186.843 152.34 189.887 151.267 191.936 149.174C197.034 143.966 201.209 137.405 202.567 130.164C203.833 123.391 202.128 116.621 198.121 111.053C195.465 107.36 191.871 104.316 188.081 101.842C186.258 100.652 162.46 87.915 170.986 78.8554Z" fill="#7B7EE1"/>
<path fill-rule="evenodd" clip-rule="evenodd" d="M138.504 80.9219C142.136 80.9219 145.08 79.1416 145.08 76.9454C145.08 75.6397 131.928 75.3898 131.928 76.9454C131.928 79.1416 134.872 80.9219 138.504 80.9219Z" fill="#EE9393"/>
<path fill-rule="evenodd" clip-rule="evenodd" d="M138.504 80.9128C139.94 80.9128 141.104 80.7777 141.104 80.2709C141.104 79.7641 139.94 79.0775 138.504 79.0775C137.068 79.0775 135.904 79.7641 135.904 80.2709C135.904 80.7777 137.068 80.9128 138.504 80.9128Z" fill="#FDA981"/>
<path fill-rule="evenodd" clip-rule="evenodd" d="M141.711 77.5587C142.049 77.5587 142.463 76.3188 142.318 76.1647C142.215 76.0549 141.204 75.9348 141.094 76.0827C140.98 76.2357 141.373 77.5587 141.711 77.5587Z" fill="white"/>
<path opacity="0.509542" fill-rule="evenodd" clip-rule="evenodd" d="M116.787 74.3397C119.067 74.3397 120.916 72.8332 120.916 70.975C120.916 69.1167 119.067 67.6102 116.787 67.6102C114.506 67.6102 112.658 69.1167 112.658 70.975C112.658 72.8332 114.506 74.3397 116.787 74.3397Z" fill="#FBA5F6" fill-opacity="0.681159"/>
<path opacity="0.509542" fill-rule="evenodd" clip-rule="evenodd" d="M160.221 74.3397C162.501 74.3397 164.35 72.8332 164.35 70.975C164.35 69.1167 162.501 67.6102 160.221 67.6102C157.94 67.6102 156.091 69.1167 156.091 70.975C156.091 72.8332 157.94 74.3397 160.221 74.3397Z" fill="#FBA5F6" fill-opacity="0.681159"/>
<path fill-rule="evenodd" clip-rule="evenodd" d="M138.351 65.7738C149.331 65.7738 158.232 56.186 158.232 44.3588C158.232 32.5316 149.331 22.9437 138.351 22.9437C127.371 22.9437 118.469 32.5316 118.469 44.3588C118.469 56.186 127.371 65.7738 138.351 65.7738Z" fill="white"/>
<path fill-rule="evenodd" clip-rule="evenodd" d="M138.198 55.0673C143.688 55.0673 148.139 50.2733 148.139 44.3597C148.139 38.4461 143.688 33.6522 138.198 33.6522C132.708 33.6522 128.257 38.4461 128.257 44.3597C128.257 50.2733 132.708 55.0673 138.198 55.0673Z" fill="#4A4A4A"/>
<path fill-rule="evenodd" clip-rule="evenodd" d="M138.428 18.3415C152.449 18.3415 157.564 27.0835 157.564 24.1269C157.564 21.1703 152.449 11.6246 138.428 11.6246C124.407 11.6246 119.388 21.1703 119.388 24.1269C119.388 27.0835 124.407 18.3415 138.428 18.3415Z" fill="#575AA1"/>
<path fill-rule="evenodd" clip-rule="evenodd" d="M93.3879 65.8616C93.3879 63.1103 95.6183 60.8799 98.3696 60.8799H99.341C103.716 60.8799 106.241 65.27 105.033 69.4751C104.871 70.0409 104.057 72.1294 105.033 74.82C106.437 78.6873 104.507 82.8699 100.393 82.8699H98.2811C95.5787 82.8699 93.3879 80.6792 93.3879 77.9767L93.3879 65.8616Z" fill="#3D5A80"/>
<path fill-rule="evenodd" clip-rule="evenodd" d="M97.9772 82.8744H101.197C101.197 82.8744 101.063 86.3921 106.071 86.3921C111.079 86.3921 118.866 86.3921 118.866 86.3921V89.4805H104.583C100.935 89.4805 97.9772 86.5229 97.9772 82.8744Z" fill="#959CB5"/>
<rect x="117.858" y="83.5186" width="14.6818" height="8.87063" rx="4.43531" fill="#4A4A4A"/>
<path fill-rule="evenodd" clip-rule="evenodd" d="M102.258 61.0327C102.258 61.0327 102.938 61.1984 103.68 61.6376C104.423 62.0768 104.998 62.7618 105.282 63.234C105.566 63.7062 106.48 65.4859 105.786 67.4273C105.091 69.3687 104.6 70.7683 104.571 71.8934C104.542 73.0186 104.542 73.6285 105.839 76.3196C107.137 79.0107 105.326 81.1633 104.432 81.8941C103.538 82.6248 102.258 82.8165 102.258 82.8165V61.0327Z" fill="#293241"/>
<path fill-rule="evenodd" clip-rule="evenodd" d="M183.303 65.8616C183.303 63.1103 181.073 60.8799 178.321 60.8799H177.35C172.975 60.8799 170.45 65.27 171.658 69.4751C171.82 70.0409 172.634 72.1294 171.658 74.82C170.254 78.6873 172.184 82.8699 176.298 82.8699H178.41C181.112 82.8699 183.303 80.6792 183.303 77.9767L183.303 65.8616Z" fill="#3D5A80"/>
<path fill-rule="evenodd" clip-rule="evenodd" d="M174.441 61.0336C174.441 61.0336 173.762 61.1992 173.019 61.6385C172.277 62.0777 171.701 62.7627 171.417 63.2349C171.133 63.7071 170.22 65.4867 170.914 67.4282C171.608 69.3696 172.099 70.7691 172.128 71.8943C172.157 73.0194 172.157 73.6293 170.86 76.3204C169.563 79.0115 171.373 81.1642 172.267 81.8949C173.161 82.6256 174.441 82.8174 174.441 82.8174V61.0336Z" fill="#293241"/>
<defs>
<filter id="filter0_d" x="13.9494" y="127.71" width="56.7902" height="44.7304" filterUnits="userSpaceOnUse" color-interpolation-filters="sRGB">
<feFlood flood-opacity="0" result="BackgroundImageFix"/>
<feColorMatrix in="SourceAlpha" type="matrix" values="0 0 0 0 0 0 0 0 0 0 0 0 0 0 0 0 0 0 127 0"/>
<feOffset/>
<feGaussianBlur stdDeviation="2.5"/>
<feColorMatrix type="matrix" values="0 0 0 0 1 0 0 0 0 0.878431 0 0 0 0 0.4 0 0 0 0.5 0"/>
<feBlend mode="normal" in2="BackgroundImageFix" result="effect1_dropShadow"/>
<feBlend mode="normal" in="SourceGraphic" in2="effect1_dropShadow" result="shape"/>
</filter>
</defs>
</svg>
