
<svg width="10rem" viewBox="0 0 250 250" version="1.1" xmlns="http://www.w3.org/2000/svg" xmlns:xlink="http://www.w3.org/1999/xlink">
    <!-- Generator: Sketch 51.1 (57501) - http://www.bohemiancoding.com/sketch -->
    <desc>Created with Sketch.</desc>
    <defs>
        <linearGradient x1="50%" y1="3.91753974%" x2="50%" y2="97.7784402%" id="linearGradient-1">
            <stop stop-color="#20244C" offset="0%"></stop>
            <stop stop-color="#2D3270" offset="49.2797146%"></stop>
            <stop stop-color="#2B3780" offset="100%"></stop>
        </linearGradient>
    </defs>
    <g id="Page-1" stroke="none" stroke-width="1" fill="none" fill-rule="evenodd">
        <g id="Profile" transform="translate(-596.000000, -387.000000)">
            <g id="Хедер">
                <g id="ava" transform="translate(596.000000, 387.000000)">
                    <rect id="Rectangle-20" fill="url(#linearGradient-1)" x="0" y="0" width="250" height="250" rx="125"></rect>
                    <g id="Group-5-Copy" transform="translate(0.000000, 92.307692)" fill="#FFFFFF">
                        <circle id="Oval-2" cx="8.65384615" cy="81.7307692" r="1"></circle>
                        <circle id="Oval-2-Copy" cx="4.80769231" cy="58.6538462" r="1"></circle>
                        <circle id="Oval-2-Copy-2" cx="20.1923077" cy="35.5769231" r="1"></circle>
                        <circle id="Oval-2-Copy-4" cx="47.1153846" cy="24.0384615" r="1"></circle>
                        <circle id="Oval-2-Copy-5" cx="16.3461538" cy="12.5" r="1"></circle>
                        <circle id="Oval-2-Copy-6" cx="1.92307692" cy="28.8461538" r="1.92307692"></circle>
                        <circle id="Oval-2-Copy-7" cx="74.0384615" cy="27.8846154" r="1"></circle>
                        <circle id="Oval-2-Copy-13" cx="208.653846" cy="24.0384615" r="1"></circle>
                        <circle id="Oval-2-Copy-14" cx="208.653846" cy="43.2692308" r="1"></circle>
                        <circle id="Oval-2-Copy-15" cx="220.192308" cy="27.8846154" r="1"></circle>
                        <circle id="Oval-2-Copy-16" cx="240.384615" cy="36.5384615" r="1.92307692"></circle>
                        <circle id="Oval-2-Copy-17" cx="63.4615385" cy="101.923077" r="1.92307692"></circle>
                        <circle id="Oval-2-Copy-8" cx="97.1153846" cy="31.7307692" r="1"></circle>
                        <circle id="Oval-2-Copy-9" cx="104.807692" cy="12.5" r="1"></circle>
                        <circle id="Oval-2-Copy-10" cx="127.884615" cy="27.8846154" r="1"></circle>
                        <circle id="Oval-2-Copy-11" cx="74.0384615" cy="0.961538462" r="1"></circle>
                        <circle id="Oval-2-Copy-12" cx="177.884615" cy="31.7307692" r="1"></circle>
                        <circle id="Oval-2-Copy-3" cx="59.6153846" cy="48.0769231" r="1.92307692"></circle>
                    </g>
                    <g id="Group-5" transform="translate(7.000000, 12.000000)" fill="#FFFFFF">
                        <ellipse id="Oval-2" cx="1.50746269" cy="75.6248151" rx="1" ry="1.03088018"></ellipse>
                        <ellipse id="Oval-2-Copy-7" cx="65.7860697" cy="17.8955251" rx="1" ry="1.03088018"></ellipse>
                        <ellipse id="Oval-2-Copy-14" cx="198.124378" cy="34.389608" rx="1" ry="1.03088018"></ellipse>
                        <ellipse id="Oval-2-Copy-17" cx="55.3880597" cy="97.2732988" rx="1.89054726" ry="2.06176036"></ellipse>
                        <ellipse id="Oval-2-Copy-8" cx="88.4726368" cy="22.0190459" rx="1" ry="1.03088018"></ellipse>
                        <ellipse id="Oval-2-Copy-9" cx="96.0348259" cy="1.40144231" rx="1" ry="1.03088018"></ellipse>
                        <ellipse id="Oval-2-Copy-10" cx="118.721393" cy="17.8955251" rx="1" ry="1.03088018"></ellipse>
                        <ellipse id="Oval-2-Copy-12" cx="167.875622" cy="22.0190459" rx="1" ry="1.03088018"></ellipse>
                        <ellipse id="Oval-2-Copy-3" cx="51.6069652" cy="39.5440089" rx="1.89054726" ry="2.06176036"></ellipse>
                    </g>
                    <path d="M27.1169571,169.369552 C28.5273881,154.40817 43.1013048,138.461538 85.8703766,138.461538 C114.04493,138.461538 148.8685,151.591888 182.709871,159.529235 C190.281568,161.305144 207.248435,150.094754 222.227695,156.127497 C237.206955,162.16024 237.785645,182.666108 228.334187,193.757868 C225.652897,196.904496 222.416784,198.689129 218.846314,199.487318 C201.666702,203.327873 176.746301,184.330934 168.643993,184.330934 C158.857768,184.330934 148.618686,195.442243 127.182048,195.442243 C105.745411,195.442243 99.8868532,184.330934 85.8703766,184.330934 C71.8539,184.330934 64.5911028,195.442243 48.253049,195.442243 C31.9149951,195.442243 25.7065262,184.330934 27.1169571,169.369552 Z" id="Rectangle-28-Copy-2" fill-opacity="0.156278306" fill="#8A81D0" transform="translate(130.769231, 169.230769) scale(-1, 1) translate(-130.769231, -169.230769) "></path>
                    <path d="M10.4820094,154.625238 C12.0863609,139.663856 28.6640496,123.717224 77.3134535,123.717224 C109.361734,123.717224 148.973207,136.847574 187.467438,144.784921 C196.08017,146.560829 215.379816,135.35044 232.418579,141.383183 C249.457342,147.415925 250.115596,167.921793 239.364654,179.013553 C236.314713,182.160181 232.633665,183.944814 228.572291,184.743004 C209.030649,188.583558 180.683934,169.58662 171.467638,169.58662 C160.335902,169.58662 148.689046,180.697929 124.305079,180.697929 C99.9211119,180.697929 93.2570594,169.58662 77.3134535,169.58662 C61.3698475,169.58662 53.1084862,180.697929 34.5241086,180.697929 C15.939731,180.697929 8.87765786,169.58662 10.4820094,154.625238 Z" id="Rectangle-28-Copy-3" fill-opacity="0.156278306" fill="#8A81D0" transform="translate(128.385464, 154.486455) rotate(-6.000000) translate(-128.385464, -154.486455) "></path>
                    <path d="M33.6434481,198.332663 C34.9299235,183.371282 48.2230129,167.42465 87.233329,167.42465 C112.931765,167.42465 144.694869,180.554999 175.562094,188.492346 C182.468353,190.268255 197.944088,179.057865 211.606897,185.090608 C225.269707,191.123351 225.797538,211.629219 217.176721,222.720979 C214.731076,225.867607 211.779368,227.65224 208.522689,228.450429 C192.852905,232.290984 170.122631,213.294045 162.732394,213.294045 C153.806231,213.294045 144.467009,224.405355 124.914328,224.405355 C105.361648,224.405355 100.017969,213.294045 87.233329,213.294045 C74.4486891,213.294045 67.8241821,224.405355 52.9219966,224.405355 C38.019811,224.405355 32.3569728,213.294045 33.6434481,198.332663 Z" id="Rectangle-28-Copy-4" fill-opacity="0.156278306" fill="#8A81D0" transform="translate(128.186252, 198.193880) scale(-1, -1) rotate(-6.000000) translate(-128.186252, -198.193880) "></path>
                    <g id="question" transform="translate(61.538462, 30.769231)">
                        <path d="M35.4486451,17.6797557 L35.4486451,41.252936 C35.4486451,51.0181613 43.3830101,58.9326917 53.172708,58.9326917 C56.7353833,58.9679134 88.6213531,64.8199007 88.6213531,88.3935989 C88.6213531,100.180448 76.804965,111.972477 59.0809021,111.972477 C44.6593628,111.972477 35.4486451,100.17993 35.4486451,94.2865055 C35.4486451,84.5269778 27.5142801,76.6067498 17.7245822,76.6067498 C7.93488429,76.6067498 0,84.5274958 0,94.2870235 C0,123.040388 27.0588849,147.332506 59.0803828,147.332506 C106.345416,147.332506 124.069479,112.07866 124.069479,82.5001743 C124.069479,58.0780467 110.616888,39.4022411 86.1808089,29.9317389 C80.8635381,27.8691957 75.6054635,26.4722396 70.8967709,25.5295403 L70.8967709,17.6797557 C70.8967709,7.91453043 62.9624059,0 53.172708,0 C43.3830101,0 35.4486451,7.91453043 35.4486451,17.6797557 Z" id="Shape" fill="#80BFF5" fill-rule="nonzero" transform="translate(62.034739, 73.666253) scale(1, -1) translate(-62.034739, -73.666253) "></path>
                        <path d="M71.3399504,174.472705 C71.3399504,164.621739 63.3559287,156.637717 53.5049628,156.637717 C43.6539968,156.637717 35.6699752,164.621739 35.6699752,174.472705 C35.6699752,184.323671 43.6539968,192.307692 53.5049628,192.307692 C63.3559287,192.307692 71.3399504,184.323671 71.3399504,174.472705" id="Shape" fill="#80BFF5" fill-rule="nonzero"></path>
                        <g id="mouth" transform="translate(44.871795, 96.153846)">
                            <path d="M15.59924,12.0916496 C23.983094,12.0916496 30.7795505,7.93324178 30.7795505,2.80358583 C30.7795505,-0.246374939 0.418929499,-0.830105344 0.418929499,2.80358583 C0.418929499,7.93324178 7.21538601,12.0916496 15.59924,12.0916496 Z" id="Oval-16" fill="#EE9393"></path>
                            <path d="M15.59924,12.0700264 C18.9137869,12.0700264 21.6007581,11.7543776 21.6007581,10.5706108 C21.6007581,9.38684406 18.9137869,7.7832278 15.59924,7.7832278 C12.2846931,7.7832278 9.59772188,9.38684406 9.59772188,10.5706108 C9.59772188,11.7543776 12.2846931,12.0700264 15.59924,12.0700264 Z" id="Oval-2" fill="#FDA981"></path>
                            <path d="M23.0014239,4.23586861 C23.7813173,4.23586861 24.7367797,1.33973848 24.4022283,0.979887782 C24.1637322,0.723356267 21.8324194,0.442766501 21.5779844,0.788203495 C21.3147065,1.14564635 22.2215305,4.23586861 23.0014239,4.23586861 Z" id="Oval" fill="#FFFFFF"></path>
                        </g>
                        <g id="Group-3" transform="translate(3.877171, 38.771712)">
                            <g id="Group-2" transform="translate(87.806218, 0.000000)">
                                <ellipse id="Oval-28" fill="#FFFFFF" cx="13.4790248" cy="13.9578164" rx="13.4790248" ry="13.9578164"></ellipse>
                                <ellipse id="Oval-29" fill="#4A4A4A" cx="13.4790248" cy="14.3455335" rx="5.7767249" ry="5.81575682"></ellipse>
                            </g>
                            <g id="Group">
                                <ellipse id="Oval-28" fill="#FFFFFF" cx="13.4790248" cy="13.9578164" rx="13.4790248" ry="13.9578164"></ellipse>
                                <ellipse id="Oval-29" fill="#4A4A4A" cx="13.4790248" cy="14.3455335" rx="5.7767249" ry="5.81575682"></ellipse>
                            </g>
                        </g>
                    </g>
                </g>
            </g>
        </g>
    </g>
</svg>