<svg width="902" height="577" viewBox="0 0 902 577" fill="none" xmlns="http://www.w3.org/2000/svg">
<rect width="902" height="577" fill="url(#paint0_linear)"/>
<path fill-rule="evenodd" clip-rule="evenodd" d="M29.5 304C30.3284 304 31 303.552 31 303C31 302.447 30.3284 302 29.5 302C28.6716 302 28 302.447 28 303C28 303.552 28.6716 304 29.5 304Z" fill="white"/>
<path fill-rule="evenodd" clip-rule="evenodd" d="M20.5 232C21.3284 232 22 231.552 22 231C22 230.448 21.3284 230 20.5 230C19.6716 230 19 230.448 19 231C19 231.552 19.6716 232 20.5 232Z" fill="white"/>
<path fill-rule="evenodd" clip-rule="evenodd" d="M64.5 162C65.3284 162 66 161.552 66 161C66 160.448 65.3284 160 64.5 160C63.6716 160 63 160.448 63 161C63 161.552 63.6716 162 64.5 162Z" fill="white"/>
<path fill-rule="evenodd" clip-rule="evenodd" d="M163.5 96C164.328 96 165 95.5523 165 95C165 94.4477 164.328 94 163.5 94C162.672 94 162 94.4477 162 95C162 95.5523 162.672 96 163.5 96Z" fill="white"/>
<path fill-rule="evenodd" clip-rule="evenodd" d="M53.5 80C54.3284 80 55 79.5523 55 79C55 78.4477 54.3284 78 53.5 78C52.6716 78 52 78.4477 52 79C52 79.5523 52.6716 80 53.5 80Z" fill="white"/>
<path fill-rule="evenodd" clip-rule="evenodd" d="M1.5 138C2.32843 138 3 137.105 3 136C3 134.895 2.32843 134 1.5 134C0.671573 134 0 134.895 0 136C0 137.105 0.671573 138 1.5 138Z" fill="white"/>
<path fill-rule="evenodd" clip-rule="evenodd" d="M262.5 121C263.328 121 264 120.552 264 120C264 119.448 263.328 119 262.5 119C261.672 119 261 119.448 261 120C261 120.552 261.672 121 262.5 121Z" fill="white"/>
<path fill-rule="evenodd" clip-rule="evenodd" d="M729.5 97C730.328 97 731 96.5523 731 96C731 95.4477 730.328 95 729.5 95C728.672 95 728 95.4477 728 96C728 96.5523 728.672 97 729.5 97Z" fill="white"/>
<path fill-rule="evenodd" clip-rule="evenodd" d="M736.5 169C737.328 169 738 168.552 738 168C738 167.448 737.328 167 736.5 167C735.672 167 735 167.448 735 168C735 168.552 735.672 169 736.5 169Z" fill="white"/>
<path fill-rule="evenodd" clip-rule="evenodd" d="M774.5 121C775.328 121 776 120.552 776 120C776 119.448 775.328 119 774.5 119C773.672 119 773 119.448 773 120C773 120.552 773.672 121 774.5 121Z" fill="white"/>
<path fill-rule="evenodd" clip-rule="evenodd" d="M835.5 158C836.328 158 837 157.105 837 156C837 154.895 836.328 154 835.5 154C834.672 154 834 154.895 834 156C834 157.105 834.672 158 835.5 158Z" fill="white"/>
<path fill-rule="evenodd" clip-rule="evenodd" d="M898.5 117C899.328 117 900 116.552 900 116C900 115.448 899.328 115 898.5 115C897.672 115 897 115.448 897 116C897 116.552 897.672 117 898.5 117Z" fill="white"/>
<path fill-rule="evenodd" clip-rule="evenodd" d="M897.5 244C898.328 244 899 243.552 899 243C899 242.448 898.328 242 897.5 242C896.672 242 896 242.448 896 243C896 243.552 896.672 244 897.5 244Z" fill="white"/>
<path fill-rule="evenodd" clip-rule="evenodd" d="M218.5 370C219.328 370 220 369.328 220 368.5C220 367.671 219.328 367 218.5 367C217.672 367 217 367.671 217 368.5C217 369.328 217.672 370 218.5 370Z" fill="white"/>
<path fill-rule="evenodd" clip-rule="evenodd" d="M343.5 142C344.328 142 345 141.552 345 141C345 140.448 344.328 140 343.5 140C342.672 140 342 140.448 342 141C342 141.552 342.672 142 343.5 142Z" fill="white"/>
<path fill-rule="evenodd" clip-rule="evenodd" d="M357.5 79C358.328 79 359 78.5523 359 78C359 77.4477 358.328 77 357.5 77C356.672 77 356 77.4477 356 78C356 78.5523 356.672 79 357.5 79Z" fill="white"/>
<path fill-rule="evenodd" clip-rule="evenodd" d="M453.5 119C454.328 119 455 118.552 455 118C455 117.448 454.328 117 453.5 117C452.672 117 452 117.448 452 118C452 118.552 452.672 119 453.5 119Z" fill="white"/>
<path fill-rule="evenodd" clip-rule="evenodd" d="M260.5 37C261.328 37 262 36.5523 262 36C262 35.4477 261.328 35 260.5 35C259.672 35 259 35.4477 259 36C259 36.5523 259.672 37 260.5 37Z" fill="white"/>
<path fill-rule="evenodd" clip-rule="evenodd" d="M617.5 144C618.328 144 619 143.552 619 143C619 142.448 618.328 142 617.5 142C616.672 142 616 142.448 616 143C616 143.552 616.672 144 617.5 144Z" fill="white"/>
<path fill-rule="evenodd" clip-rule="evenodd" d="M199 188C200.105 188 201 187.105 201 186C201 184.895 200.105 184 199 184C197.895 184 197 184.895 197 186C197 187.105 197.895 188 199 188Z" fill="white"/>
<defs>
<linearGradient id="paint0_linear" x1="885.004" y1="555.256" x2="885.004" y2="0" gradientUnits="userSpaceOnUse">
<stop stop-color="#2B3780"/>
<stop offset="1" stop-color="#20244C"/>
</linearGradient>
</defs>
</svg>
