<svg width="343" height="549" viewBox="0 0 343 549" fill="none" xmlns="http://www.w3.org/2000/svg">
<path d="M17.6336 453.346C17.1804 452.433 16.7343 451.514 16.2968 450.592C16.7336 451.515 17.1804 452.433 17.6336 453.346Z" fill="#FF4F19"/>
<path d="M15.9099 449.766C15.4909 448.869 15.0776 447.969 14.6735 447.064C15.0768 447.969 15.4909 448.869 15.9099 449.766Z" fill="#FF4F19"/>
<path d="M14.2737 446.153C13.8825 445.262 13.4949 444.369 13.1187 443.47C13.4949 444.369 13.8825 445.262 14.2737 446.153Z" fill="#FF4F19"/>
<path d="M12.7296 442.521C12.3598 441.622 11.9921 440.722 11.6372 439.815C11.9921 440.722 12.3598 441.622 12.7296 442.521Z" fill="#FF4F19"/>
<path d="M19.4414 456.888C18.9455 455.945 18.4595 454.996 17.9806 454.044C18.4595 454.997 18.9462 455.945 19.4414 456.888Z" fill="#FF4F19"/>
<path d="M21.3298 460.382C20.7804 459.394 20.2431 458.4 19.7129 457.401C20.2424 458.4 20.7811 459.394 21.3298 460.382Z" fill="#FF4F19"/>
<path d="M2.13635 404.857C2.03445 404.219 1.93611 403.58 1.84134 402.939C1.93611 403.58 2.03445 404.219 2.13635 404.857Z" fill="#FF4F19"/>
<path d="M196.434 209.31C197.4 209.454 198.36 209.611 199.32 209.77C198.36 209.611 197.399 209.454 196.434 209.31Z" fill="#FF4F19"/>
<path d="M200.517 209.969C201.547 210.148 202.572 210.34 203.596 210.537C202.572 210.34 201.547 210.147 200.517 209.969Z" fill="#FF4F19"/>
<path d="M0.309997 388.049C0.276506 387.486 0.238026 386.925 0.210236 386.36C0.238026 386.925 0.277218 387.486 0.309997 388.049Z" fill="#FF4F19"/>
<path d="M0.10408 383.564C0.0884032 383.09 0.0656005 382.618 0.0541992 382.143C0.0656005 382.617 0.0884032 383.089 0.10408 383.564Z" fill="#FF4F19"/>
<path d="M192.305 208.748C193.206 208.859 194.103 208.985 195 209.111C194.103 208.985 193.206 208.859 192.305 208.748Z" fill="#FF4F19"/>
<path d="M175.352 207.489C175.898 207.503 176.439 207.53 176.983 207.549C176.439 207.53 175.898 207.503 175.352 207.489Z" fill="#FF4F19"/>
<path d="M179.649 207.65C180.331 207.684 181.008 207.733 181.687 207.774C181.008 207.733 180.331 207.684 179.649 207.65Z" fill="#FF4F19"/>
<path d="M204.548 210.718C205.644 210.935 206.736 211.166 207.825 211.405C206.735 211.167 205.644 210.935 204.548 210.718Z" fill="#FF4F19"/>
<path d="M208.527 211.557C209.69 211.817 210.849 212.09 212.003 212.373C210.849 212.091 209.691 211.817 208.527 211.557Z" fill="#FF4F19"/>
<path d="M212.451 212.482C213.687 212.789 214.918 213.109 216.144 213.443C214.918 213.11 213.687 212.789 212.451 212.482Z" fill="#FF4F19"/>
<path d="M1.53136 400.733C1.44657 400.104 1.36319 399.475 1.28552 398.844C1.36391 399.475 1.44728 400.104 1.53136 400.733Z" fill="#FF4F19"/>
<path d="M1.02474 396.566C0.957041 395.948 0.888634 395.332 0.828064 394.712C0.888634 395.332 0.957041 395.948 1.02474 396.566Z" fill="#FF4F19"/>
<path d="M0.61712 392.347C0.566526 391.748 0.513083 391.151 0.468903 390.551C0.513083 391.151 0.567239 391.749 0.61712 392.347Z" fill="#FF4F19"/>
<path d="M183.91 207.915C184.674 207.971 185.435 208.043 186.197 208.111C185.435 208.043 184.674 207.971 183.91 207.915Z" fill="#FF4F19"/>
<path d="M5.509 420.962C5.33157 420.283 5.16554 419.6 4.99594 418.917C5.16554 419.6 5.33157 420.283 5.509 420.962Z" fill="#FF4F19"/>
<path d="M11.2973 438.924C10.9368 437.988 10.5783 437.05 10.2342 436.106C10.5783 437.05 10.9368 437.987 11.2973 438.924Z" fill="#FF4F19"/>
<path d="M6.58502 424.894C6.37837 424.176 6.18597 423.452 5.98859 422.73C6.18597 423.452 6.37908 424.176 6.58502 424.894Z" fill="#FF4F19"/>
<path d="M4.5242 416.99C4.36815 416.329 4.22207 415.664 4.07385 415C4.22207 415.664 4.36886 416.329 4.5242 416.99Z" fill="#FF4F19"/>
<path d="M10.0531 435.595C8.94507 432.525 7.9275 429.414 6.99402 426.265C7.9275 429.413 8.94578 432.525 10.0531 435.595Z" fill="#FF4F19"/>
<path d="M3.63421 412.985C3.4974 412.332 3.36699 411.677 3.2373 411.022C3.36699 411.677 3.49668 412.332 3.63421 412.985Z" fill="#FF4F19"/>
<path d="M2.83682 408.939C2.71782 408.295 2.60381 407.649 2.49265 407.001C2.60452 407.649 2.71853 408.294 2.83682 408.939Z" fill="#FF4F19"/>
<path d="M188.129 208.281C188.964 208.364 189.795 208.461 190.627 208.556C189.795 208.461 188.964 208.364 188.129 208.281Z" fill="#FF4F19"/>
<path fill-rule="evenodd" clip-rule="evenodd" d="M288.595 254.175C268.495 235.191 243.787 221.006 216.312 213.49C288.781 233.28 342.04 299.385 342.04 377.9C342.04 472.046 265.471 548.366 171.02 548.366C106.693 548.366 50.671 512.96 21.4744 460.637C39.9488 493.723 69.1626 520.029 104.418 534.898C104.399 534.898 104.38 534.898 104.361 534.899C104.339 534.899 104.317 534.9 104.296 534.899C107.996 536.463 111.776 537.87 115.61 539.164C115.946 539.279 116.285 539.389 116.623 539.502L117.081 539.654C117.803 539.893 118.524 540.132 119.251 540.36C120.667 540.807 122.09 541.238 123.521 541.65C123.533 541.653 123.545 541.657 123.558 541.661C123.57 541.665 123.583 541.669 123.595 541.672C123.596 541.672 123.597 541.671 123.598 541.671C132.257 544.156 141.195 545.982 150.358 547.083C146.298 543.249 142.428 539.216 138.76 535.006C138.761 535.005 138.762 535.005 138.763 535.004L138.761 535.003C149.917 529.954 161.204 525.144 170.782 525.631C195.054 526.669 207.575 519.488 208.098 519.177C210.803 517.607 211.706 514.167 210.152 511.459C208.599 508.757 205.119 507.824 202.391 509.339C202.291 509.4 191.797 515.177 171.26 514.278C158.203 513.773 144.587 519.87 131.351 525.877C109.746 497.349 96.912 461.858 96.912 423.357C96.912 421.371 96.9583 419.397 97.026 417.428C109.236 419.471 122.179 420.956 135.46 421.947C135.483 421.953 135.502 421.964 135.522 421.975C135.542 421.986 135.563 421.997 135.586 422.003L166.789 428.878C168.905 429.478 169.395 431.22 169.506 431.941C169.618 432.657 169.684 434.461 167.858 435.676C165.77 437.064 164.835 439.655 165.564 442.052C166.293 444.449 168.509 446.087 171.02 446.087C206.554 446.087 240.547 442.302 269.312 435.133C271.829 434.511 273.599 432.275 273.633 429.689C273.666 427.109 271.946 424.834 269.446 424.146L257.839 420.955L268.995 412.615C269.034 412.585 269.062 412.548 269.09 412.51C269.116 412.475 269.142 412.441 269.176 412.412C275.346 410.877 281.267 409.213 286.81 407.399C289.805 406.416 291.43 403.209 290.45 400.229C289.465 397.244 286.247 395.612 283.257 396.6C274.751 399.386 265.37 401.849 255.366 403.936C230.014 409.208 200.848 411.993 171.02 411.993C145.547 411.993 120.366 409.937 97.7842 406.038C97.7856 406.029 97.7863 406.019 97.787 406.009L97.7934 405.94C106.546 319.976 179.378 252.892 267.931 252.892C274.93 252.892 281.816 253.36 288.595 254.175ZM193.387 372.217C193.55 372.221 193.709 372.225 193.823 372.218C196.929 372.218 199.473 369.732 199.523 366.63C199.574 363.489 197.063 360.903 193.917 360.854C182.756 360.539 175.866 364.06 169.688 367.218C169.444 367.343 169.202 367.467 168.961 367.59C161.846 371.208 155.716 374.321 143.452 372.295C140.335 371.746 137.407 373.871 136.894 376.968C136.376 380.058 138.476 382.988 141.582 383.504C144.922 384.059 147.944 384.303 150.717 384.303C161.185 384.303 167.987 380.843 174.137 377.714L174.143 377.711L174.144 377.711C179.934 374.765 184.949 372.212 193.094 372.212C193.13 372.212 193.168 372.213 193.206 372.213C193.265 372.214 193.326 372.216 193.386 372.217L193.387 372.217ZM238.209 364.366C233.092 370.858 220.628 372.013 216.932 372.212C216.825 372.218 216.726 372.218 216.62 372.218C213.613 372.218 211.103 369.876 210.935 366.846C210.763 363.717 213.168 361.036 216.307 360.864C221.774 360.553 228.059 358.844 229.245 357.341C231.188 354.877 234.768 354.438 237.25 356.386C239.723 358.323 240.157 361.897 238.209 364.366ZM142.517 446.086C143.997 446.086 145.479 445.459 146.564 444.383C147.644 443.356 148.217 441.88 148.217 440.404C148.217 438.928 147.644 437.446 146.563 436.369C144.398 434.266 140.579 434.266 138.469 436.369C137.439 437.446 136.816 438.928 136.816 440.404C136.816 441.88 137.439 443.356 138.469 444.438C139.549 445.459 141.036 446.086 142.517 446.086ZM220.672 472.793C219.587 473.87 218.105 474.497 216.624 474.497C215.144 474.497 213.657 473.869 212.577 472.849C211.547 471.767 210.924 470.29 210.924 468.814C210.924 467.339 211.547 465.857 212.577 464.78C214.687 462.677 218.506 462.677 220.671 464.78C221.752 465.857 222.324 467.339 222.324 468.814C222.324 470.29 221.752 471.767 220.672 472.793ZM262.23 349.418C263.711 349.418 265.192 348.792 266.277 347.715C267.358 346.688 267.93 345.212 267.93 343.736C267.93 342.26 267.357 340.778 266.277 339.701C264.111 337.598 260.292 337.598 258.182 339.701C257.153 340.778 256.529 342.26 256.529 343.736C256.529 345.212 257.153 346.688 258.182 347.77C259.263 348.791 260.749 349.418 262.23 349.418ZM289.08 370.514C287.995 371.591 286.513 372.217 285.032 372.217C283.552 372.217 282.065 371.59 280.985 370.569C279.955 369.488 279.332 368.011 279.332 366.535C279.332 365.059 279.955 363.577 280.985 362.501C283.095 360.397 286.914 360.397 289.079 362.501C290.159 363.577 290.732 365.059 290.732 366.535C290.732 368.011 290.16 369.488 289.08 370.514ZM262.219 300.291C262.642 300.291 263.065 300.247 263.494 300.147C282.838 295.743 299.652 290.236 313.621 283.816C311.469 280.583 309.205 277.433 306.843 274.359C293.968 280.074 278.634 285.042 260.956 289.071C257.882 289.77 255.968 292.816 256.669 295.874C257.27 298.51 259.62 300.291 262.219 300.291Z" fill="#957FEF"/>
<path fill-rule="evenodd" clip-rule="evenodd" d="M104.294 534.899C104.334 534.901 104.377 534.897 104.416 534.898C69.1619 520.029 39.9481 493.723 21.4758 460.636L21.4058 460.511L21.3326 460.381C20.7839 459.393 20.2459 458.398 19.7157 457.399L19.6132 457.206C19.5567 457.099 19.5002 456.993 19.4443 456.886C18.9483 455.944 18.4616 454.995 17.9835 454.042C17.8838 453.845 17.7851 453.646 17.6866 453.448L17.6864 453.448L17.6357 453.346C17.1825 452.432 16.7364 451.514 16.2989 450.591C16.2091 450.402 16.1207 450.212 16.0322 450.023L16.032 450.022L15.912 449.765C15.493 448.868 15.0797 447.968 14.6756 447.063C14.5891 446.869 14.5043 446.675 14.4196 446.48C14.3717 446.371 14.324 446.261 14.2759 446.152C13.8847 445.261 13.497 444.368 13.1208 443.469C13.0438 443.285 12.9686 443.1 12.8933 442.915L12.8932 442.915L12.8924 442.913L12.8906 442.909L12.8903 442.908C12.8377 442.779 12.785 442.649 12.7317 442.52C12.3619 441.622 11.9942 440.721 11.6393 439.815C11.5711 439.64 11.5046 439.464 11.4381 439.288L11.4379 439.288C11.392 439.166 11.346 439.045 11.2994 438.923C10.9389 437.987 10.5804 437.05 10.2363 436.106C10.2029 436.014 10.1707 435.922 10.1385 435.83C10.111 435.751 10.0835 435.673 10.0553 435.594C8.94719 432.525 7.92962 429.413 6.99614 426.264C6.94398 426.088 6.89086 425.913 6.83774 425.737L6.83742 425.736L6.83738 425.736C6.75273 425.456 6.66804 425.176 6.58712 424.894C6.43299 424.358 6.28679 423.82 6.14054 423.281L6.1403 423.28L6.13961 423.277C6.09008 423.095 6.04054 422.912 5.99068 422.73C5.94852 422.576 5.90612 422.422 5.86371 422.268C5.74414 421.833 5.62455 421.399 5.5104 420.962C5.36225 420.395 5.22154 419.825 5.08082 419.255L5.08066 419.254L4.99734 418.917L4.91306 418.577L4.913 418.577C4.78183 418.049 4.65058 417.521 4.52561 416.99C4.39702 416.445 4.2752 415.898 4.15338 415.351L4.15329 415.35L4.07526 415C3.92562 414.329 3.77598 413.658 3.63489 412.985C3.49736 412.332 3.36767 411.677 3.23798 411.022C3.10116 410.328 2.96577 409.635 2.83751 408.939C2.7185 408.295 2.6052 407.649 2.49333 407.002C2.37005 406.288 2.25105 405.573 2.13704 404.856C2.03514 404.219 1.9368 403.579 1.84203 402.939C1.73371 402.205 1.63181 401.47 1.53277 400.733C1.44797 400.105 1.3646 399.475 1.28692 398.844C1.19358 398.086 1.10878 397.326 1.02541 396.565L1.00742 396.402C0.945664 395.839 0.883943 395.277 0.828734 394.712C0.755181 393.968 0.691852 393.221 0.62846 392.473L0.617809 392.347C0.605808 392.205 0.593647 392.063 0.581486 391.921L0.581331 391.919C0.542279 391.464 0.503248 391.008 0.469592 390.551C0.411324 389.76 0.364652 388.967 0.317937 388.173L0.317928 388.172L0.310686 388.049C0.29999 387.869 0.288785 387.69 0.277582 387.51L0.277574 387.51L0.277555 387.51C0.253689 387.127 0.229833 386.744 0.210925 386.36C0.165321 385.431 0.13468 384.497 0.10404 383.564L0.104037 383.564C0.0978547 383.368 0.0902127 383.173 0.0825685 382.977C0.0717102 382.699 0.0608472 382.421 0.0541563 382.143C0.0192397 380.732 0 379.319 0 377.9C0 358.375 3.30282 339.62 9.36619 322.151C8.35076 325.118 7.42868 328.128 6.56218 331.163C17.3635 340.702 34.0301 349.32 55.253 356.265C55.843 356.459 56.4387 356.548 57.0287 356.548C59.4287 356.548 61.6555 355.033 62.4458 352.636C63.4256 349.655 61.8002 346.449 58.8052 345.466C36.5313 338.175 19.9359 329.185 10.817 319.474C10.7527 319.406 10.6761 319.361 10.5995 319.316L10.5993 319.316C10.5385 319.28 10.4777 319.244 10.4227 319.196C34.4258 253.975 97.2657 207.434 171.02 207.434C172.469 207.434 173.912 207.454 175.353 207.489C175.684 207.497 176.013 207.511 176.342 207.524C176.556 207.533 176.769 207.541 176.984 207.549C177.154 207.555 177.325 207.56 177.496 207.566L177.498 207.566L177.5 207.566C178.218 207.59 178.936 207.614 179.651 207.65C180.119 207.672 180.586 207.703 181.053 207.733L181.053 207.733L181.053 207.733C181.265 207.747 181.477 207.761 181.689 207.774C181.881 207.786 182.074 207.797 182.267 207.809C182.816 207.841 183.365 207.874 183.911 207.914C184.479 207.957 185.044 208.008 185.61 208.058L185.61 208.058L185.615 208.059C185.81 208.076 186.004 208.093 186.199 208.111C186.406 208.129 186.614 208.147 186.822 208.164C187.258 208.201 187.695 208.238 188.13 208.282C188.861 208.354 189.589 208.437 190.316 208.521L190.628 208.557C190.824 208.579 191.02 208.601 191.216 208.622L191.216 208.622L191.216 208.622C191.58 208.663 191.944 208.703 192.305 208.748C193.201 208.858 194.091 208.983 194.982 209.108L194.982 209.108L195 209.111C195.182 209.136 195.363 209.161 195.545 209.186L195.545 209.186C195.842 209.226 196.139 209.267 196.435 209.311C197.4 209.454 198.361 209.611 199.321 209.771C199.465 209.795 199.61 209.819 199.755 209.842L199.755 209.842L199.756 209.842C200.01 209.883 200.264 209.925 200.517 209.969C201.548 210.148 202.573 210.339 203.597 210.537C203.725 210.562 203.854 210.586 203.983 210.61L203.984 210.61C204.172 210.646 204.36 210.682 204.548 210.719C205.644 210.937 206.736 211.167 207.825 211.405C207.915 211.425 208.006 211.445 208.097 211.464C208.24 211.495 208.384 211.526 208.527 211.558C209.691 211.818 210.85 212.091 212.004 212.374L212.153 212.41C212.253 212.434 212.352 212.458 212.451 212.483C213.687 212.79 214.919 213.11 216.143 213.444L216.144 213.444C216.2 213.459 216.256 213.474 216.312 213.489C243.787 221.006 268.494 235.191 288.595 254.175C281.816 253.36 274.93 252.892 267.931 252.892C179.379 252.892 106.546 319.976 97.7927 405.94C97.0128 405.805 96.2148 405.683 95.4169 405.562C94.3545 405.4 93.2924 405.239 92.2738 405.045C89.1783 404.462 86.194 406.482 85.6097 409.568C85.0197 412.647 87.0513 415.622 90.1467 416.21C91.9438 416.551 93.7891 416.857 95.6342 417.163L95.6354 417.163L95.6366 417.164C96.1122 417.242 96.5877 417.321 97.0623 417.401C97.1949 413.574 97.4065 409.767 97.787 406.009C97.7856 406.018 97.7849 406.028 97.7842 406.038C120.366 409.937 145.547 411.993 171.02 411.993C200.848 411.993 230.014 409.208 255.365 403.936C265.369 401.85 274.75 399.386 283.257 396.6C286.247 395.612 289.464 397.244 290.45 400.229C291.429 403.209 289.804 406.416 286.809 407.399C281.266 409.213 275.345 410.877 269.175 412.412C269.141 412.441 269.116 412.475 269.09 412.51C269.062 412.547 269.034 412.585 268.994 412.615L257.838 420.955L269.445 424.145C271.945 424.834 273.665 427.109 273.632 429.689C273.598 432.275 271.828 434.511 269.311 435.133C240.547 442.302 206.554 446.086 171.02 446.086C168.509 446.086 166.293 444.45 165.564 442.053C164.835 439.656 165.77 437.064 167.857 435.677C169.684 434.461 169.617 432.658 169.506 431.942C169.394 431.22 168.904 429.478 166.789 428.879L135.585 422.003C135.538 421.993 135.505 421.959 135.459 421.948C122.178 420.957 109.236 419.473 97.0253 417.428C96.9576 419.398 96.9113 421.372 96.9113 423.358C96.9113 461.858 109.746 497.349 131.35 525.878C144.585 519.87 158.202 513.773 171.259 514.279C191.796 515.178 202.289 509.401 202.39 509.34C205.118 507.825 208.597 508.757 210.151 511.459C211.704 514.167 210.802 517.608 208.096 519.178C207.573 519.489 195.053 526.669 170.78 525.632C161.203 525.144 149.916 529.954 138.76 535.004C136.189 532.052 133.752 528.986 131.386 525.862C131.229 525.933 131.071 526.004 130.914 526.075C121.106 530.525 111.03 535.055 104.423 534.893C105.605 535.392 106.804 535.858 108.003 536.325L108.004 536.326L108.005 536.326L108.012 536.329L108.018 536.331C108.25 536.421 108.482 536.511 108.713 536.602C109.106 536.754 109.497 536.909 109.889 537.063C110.804 537.424 111.718 537.785 112.646 538.117C113.508 538.429 114.381 538.718 115.254 539.008L115.321 539.03C115.465 539.078 115.609 539.125 115.753 539.173C115.937 539.234 116.121 539.296 116.305 539.358C118.201 539.989 120.104 540.604 122.027 541.175C122.569 541.336 123.114 541.491 123.657 541.646C127.553 540.082 131.561 538.269 135.641 536.418C136.677 535.948 137.718 535.477 138.758 535.006C142.427 539.216 146.297 543.248 150.356 547.083C141.193 545.982 132.255 544.156 123.597 541.671C123.596 541.672 123.595 541.672 123.594 541.672L123.574 541.667L123.557 541.661C123.544 541.657 123.532 541.653 123.519 541.65C122.088 541.238 120.665 540.807 119.249 540.36C118.523 540.132 117.801 539.893 117.08 539.654L116.621 539.502C116.55 539.478 116.479 539.455 116.408 539.431L116.294 539.393C116.065 539.318 115.836 539.242 115.609 539.164C111.776 537.87 107.995 536.464 104.294 534.899ZM10.4227 319.196C10.0722 320.149 9.72999 321.105 9.39612 322.065C9.72604 321.102 10.0652 320.143 10.4158 319.19L10.4227 319.196ZM129.461 260.222C127.296 258.119 123.477 258.119 121.367 260.222C120.337 261.299 119.714 262.78 119.714 264.256C119.714 265.732 120.337 267.208 121.367 268.291C122.447 269.311 123.934 269.938 125.415 269.938C126.895 269.938 128.376 269.311 129.461 268.235C130.541 267.208 131.115 265.732 131.115 264.256C131.115 262.78 130.542 261.299 129.461 260.222ZM74.7037 282.743C79.1188 275.827 87.005 272.953 92.3173 276.323C97.6296 279.692 98.3571 288.03 93.942 294.946C89.5268 301.862 81.6414 304.736 76.3283 301.367C71.0153 297.997 70.2885 289.659 74.7037 282.743ZM46.1462 388.885C41.1431 389.964 38.2322 396.117 39.6446 402.631C41.0569 409.143 46.258 413.55 51.2611 412.472C56.2641 411.394 59.175 405.24 57.7627 398.727C56.3503 392.214 51.1492 387.807 46.1462 388.885Z" fill="#7161EF"/>
<path d="M193.917 360.854C182.316 360.526 175.329 364.344 168.961 367.59C161.846 371.208 155.716 374.321 143.452 372.295C140.335 371.746 137.407 373.872 136.894 376.968C136.376 380.059 138.475 382.989 141.582 383.504C144.922 384.059 147.945 384.303 150.717 384.303C161.188 384.303 167.991 380.841 174.143 377.711C179.933 374.765 184.949 372.212 193.094 372.212C193.339 372.212 193.639 372.229 193.823 372.218C196.929 372.218 199.473 369.732 199.523 366.63C199.573 363.49 197.063 360.903 193.917 360.854Z" fill="#B79CED"/>
<path d="M237.251 356.387C234.768 354.439 231.188 354.877 229.246 357.341C228.06 358.845 221.775 360.554 216.308 360.865C213.168 361.037 210.764 363.718 210.936 366.847C211.103 369.877 213.614 372.219 216.62 372.219C216.726 372.219 216.826 372.219 216.932 372.213C220.629 372.014 233.094 370.859 238.209 364.367C240.157 361.897 239.723 358.323 237.251 356.387Z" fill="#B79CED"/>
<path d="M74.6981 282.744C70.2826 289.66 71.0099 297.999 76.3225 301.368C81.6351 304.738 89.5212 301.863 93.9367 294.947C98.3521 288.031 97.6249 279.693 92.3123 276.323C86.9997 272.953 79.1135 275.828 74.6981 282.744Z" fill="#5448B1"/>
<path d="M51.2627 412.465C56.2655 411.387 59.1759 405.234 57.7633 398.721C56.3508 392.208 51.1501 387.802 46.1472 388.88C41.1444 389.958 38.234 396.112 39.6465 402.625C41.0591 409.137 46.2598 413.543 51.2627 412.465Z" fill="#5448B1"/>
<path d="M125.415 269.939C126.895 269.939 128.376 269.311 129.462 268.235C130.542 267.208 131.115 265.732 131.115 264.256C131.115 262.781 130.542 261.299 129.462 260.222C127.296 258.119 123.478 258.119 121.368 260.222C120.337 261.299 119.714 262.781 119.714 264.256C119.714 265.732 120.337 267.208 121.367 268.291C122.447 269.311 123.934 269.939 125.415 269.939Z" fill="#5448B1"/>
<path d="M258.183 339.702C257.153 340.779 256.53 342.261 256.53 343.737C256.53 345.213 257.153 346.689 258.183 347.771C259.263 348.792 260.75 349.419 262.23 349.419C263.711 349.419 265.192 348.792 266.278 347.716C267.358 346.689 267.931 345.213 267.931 343.737C267.931 342.26 267.357 340.779 266.278 339.702C264.112 337.599 260.293 337.599 258.183 339.702Z" fill="#B79CED"/>
<path d="M280.986 362.501C279.956 363.578 279.333 365.06 279.333 366.536C279.333 368.012 279.956 369.488 280.986 370.57C282.066 371.592 283.552 372.218 285.033 372.218C286.514 372.218 287.995 371.591 289.081 370.515C290.161 369.488 290.734 368.012 290.734 366.536C290.734 365.059 290.16 363.578 289.081 362.501C286.914 360.398 283.096 360.398 280.986 362.501Z" fill="#B79CED"/>
<path d="M138.469 436.37C137.439 437.447 136.816 438.928 136.816 440.404C136.816 441.88 137.439 443.356 138.469 444.439C139.549 445.46 141.036 446.086 142.517 446.086C143.997 446.086 145.478 445.459 146.564 444.383C147.644 443.357 148.217 441.881 148.217 440.404C148.217 438.928 147.644 437.447 146.564 436.37C144.398 434.267 140.579 434.267 138.469 436.37Z" fill="#B79CED"/>
<path d="M212.578 464.781C211.548 465.858 210.925 467.339 210.925 468.815C210.925 470.291 211.548 471.767 212.578 472.85C213.658 473.871 215.144 474.498 216.625 474.498C218.106 474.498 219.587 473.87 220.673 472.794C221.753 471.768 222.326 470.292 222.326 468.815C222.326 467.339 221.752 465.858 220.673 464.781C218.506 462.678 214.688 462.678 212.578 464.781Z" fill="#B79CED"/>
<path d="M85.6104 409.569C85.0204 412.648 87.0519 415.622 90.1474 416.211C92.4084 416.64 94.7457 417.014 97.063 417.402C97.1948 413.575 97.4065 409.768 97.7877 406.009C97.7899 405.987 97.7913 405.963 97.7941 405.941C95.9756 405.626 94.0581 405.385 92.2752 405.046C89.1783 404.463 86.1947 406.483 85.6104 409.569Z" fill="#5448B1"/>
<path d="M55.2529 356.265C55.8429 356.459 56.4387 356.547 57.0287 356.547C59.4279 356.547 61.6548 355.032 62.4457 352.635C63.4255 349.655 61.8001 346.448 58.8051 345.466C36.5312 338.174 19.9359 329.185 10.817 319.474C10.7001 319.35 10.5412 319.301 10.4158 319.19C10.0652 320.143 9.726 321.102 9.39608 322.065C9.3861 322.093 9.37612 322.121 9.36615 322.149C8.35072 325.117 7.42863 328.128 6.56213 331.161C17.3635 340.701 34.0301 349.32 55.2529 356.265Z" fill="#5448B1"/>
<path d="M131.386 525.863C131.229 525.934 131.071 526.005 130.914 526.076C121.106 530.526 111.03 535.055 104.423 534.893C105.838 535.49 107.278 536.042 108.713 536.602C110.023 537.109 111.32 537.642 112.646 538.117C113.854 538.554 115.084 538.947 116.305 539.358C118.201 539.989 120.104 540.604 122.027 541.175C122.569 541.337 123.113 541.491 123.657 541.646C127.553 540.082 131.561 538.27 135.641 536.419C136.677 535.948 137.718 535.477 138.758 535.006C138.759 535.005 138.76 535.005 138.761 535.004C138.761 535.004 138.761 535.004 138.761 535.004C136.19 532.053 133.752 528.986 131.386 525.863Z" fill="#5448B1"/>
<path d="M306.843 274.359C293.968 280.075 278.633 285.042 260.956 289.071C257.882 289.77 255.968 292.816 256.669 295.874C257.27 298.51 259.62 300.291 262.219 300.291C262.642 300.291 263.066 300.247 263.494 300.147C282.838 295.743 299.652 290.236 313.62 283.816C311.468 280.583 309.205 277.433 306.843 274.359Z" fill="#B79CED"/>
<path fill-rule="evenodd" clip-rule="evenodd" d="M172.573 225.416C192.027 225.416 214.145 228.933 214.145 237.986C214.145 247.04 198.08 251.543 172.573 251.543C147.065 251.543 131 246.259 131 238.466C131 230.673 153.118 225.416 172.573 225.416Z" fill="#5247AF"/>
<path fill-rule="evenodd" clip-rule="evenodd" d="M173.067 92.4553C179.311 92.4553 185.311 105.429 189.68 119.949C189.888 120.641 189.68 162.484 189.68 167.74C189.68 169.921 195.135 194.417 195.135 205.661C195.135 216.904 195.7 229.096 189.68 229.096C183.66 229.096 186.03 205.661 181.238 205.661C180.056 205.661 183.353 210.872 181.238 212.564C179.122 214.255 177.294 212.564 177.294 212.564C177.294 212.564 177.903 229.096 172.686 229.096C167.469 229.096 167.692 212.564 167.692 212.564C167.692 212.564 165.787 214.719 163.405 212.564C161.023 210.408 164.589 205.661 163.405 205.661C159.743 205.661 160.766 229.096 155.43 229.096C150.094 229.096 150.122 216.687 150.261 205.661C150.455 190.229 155.43 170.371 155.43 167.74C155.43 160.113 152.186 138.213 155.43 119.949C158.085 105.003 166.451 92.4553 173.067 92.4553Z" fill="#D7B274"/>
<path fill-rule="evenodd" clip-rule="evenodd" d="M173.005 0.147873C202.814 0.147873 226.979 27.6019 226.979 61.4682C226.979 95.3345 173.005 122.789 173.005 122.789C173.005 122.789 119.03 95.3345 119.03 61.4682C119.03 27.6019 143.195 0.147873 173.005 0.147873Z" fill="#F9CE85"/>
<path fill-rule="evenodd" clip-rule="evenodd" d="M173.067 89.8437C179.176 89.8437 181.42 83.0135 181.42 83.0135C181.42 83.0135 206.321 64.1734 206.321 48.058C206.321 27.4636 179.107 40.9383 173.067 40.9383C167.028 40.9383 139.813 27.4636 139.813 48.058C139.813 64.2511 164.436 83.0135 164.436 83.0135C164.436 83.0135 166.959 89.8437 173.067 89.8437Z" fill="#FADCA6"/>
<path fill-rule="evenodd" clip-rule="evenodd" d="M137.836 22.5085C141.51 22.5085 141.476 18.8115 141.476 14.235C141.476 9.65847 131.888 5.69214 131.888 5.69214C131.888 5.69214 128.175 9.65847 128.175 14.235C128.175 18.8115 134.163 22.5085 137.836 22.5085Z" fill="#F46577"/>
<path fill-rule="evenodd" clip-rule="evenodd" d="M208.298 22.5085C204.625 22.5085 204.659 18.8115 204.659 14.235C204.659 9.65847 214.247 5.69214 214.247 5.69214C214.247 5.69214 217.96 9.65847 217.96 14.235C217.96 18.8115 211.971 22.5085 208.298 22.5085Z" fill="#F46577"/>
<path fill-rule="evenodd" clip-rule="evenodd" d="M187.86 51.6627C189.889 51.6627 190.729 53.8079 192.363 52.7419C193.997 51.6759 191.695 49.0386 187.86 49.0386C184.026 49.0386 182.109 51.6315 183.492 52.7419C184.876 53.8524 185.832 51.6627 187.86 51.6627Z" fill="black"/>
<path fill-rule="evenodd" clip-rule="evenodd" d="M157.932 51.6627C159.961 51.6627 160.8 53.8079 162.434 52.7419C164.068 51.6759 161.767 49.0386 157.932 49.0386C154.097 49.0386 152.18 51.6315 153.564 52.7419C154.948 53.8524 155.903 51.6627 157.932 51.6627Z" fill="black"/>
<path fill-rule="evenodd" clip-rule="evenodd" d="M197.841 59.811C199.678 59.811 201.167 58.8835 201.167 57.7394C201.167 56.5952 199.678 55.6677 197.841 55.6677C196.005 55.6677 194.516 56.5952 194.516 57.7394C194.516 58.8835 196.005 59.811 197.841 59.811Z" fill="#FFBDFB"/>
<path fill-rule="evenodd" clip-rule="evenodd" d="M148.127 59.811C149.964 59.811 151.452 58.8835 151.452 57.7394C151.452 56.5952 149.964 55.6677 148.127 55.6677C146.29 55.6677 144.802 56.5952 144.802 57.7394C144.802 58.8835 146.29 59.811 148.127 59.811Z" fill="#FFBDFB"/>
<path fill-rule="evenodd" clip-rule="evenodd" d="M149.655 121.107C153.022 121.107 154.69 119.747 154.69 118.069C154.69 116.391 153.022 115.031 149.655 115.031C146.288 115.031 143.991 116.838 143.991 118.515C143.991 120.193 146.288 121.107 149.655 121.107Z" fill="#D7B274"/>
<path fill-rule="evenodd" clip-rule="evenodd" d="M201.167 118.4C201.167 115.883 196.564 114.694 196.564 114.694V120.955H191.679C191.679 120.955 191.787 115.61 191.679 115.705C190.82 116.46 190.465 117.391 190.465 118.4C190.465 119.347 191.679 120.955 191.679 120.955H196.564C196.564 120.955 201.167 120.917 201.167 118.4Z" fill="#D7B274"/>
<path fill-rule="evenodd" clip-rule="evenodd" d="M173.014 63.6037C178.411 63.6037 183.168 59.6722 183.168 57.3839C183.168 55.0957 163.091 55.0957 163.091 57.3839C163.091 59.6722 167.616 63.6037 173.014 63.6037Z" fill="#E13A3A"/>
<path fill-rule="evenodd" clip-rule="evenodd" d="M173.407 63.6026C173.917 63.586 174.67 63.4899 174.877 63.4502C175.139 63.3997 176.154 63.2946 176.154 62.9104C176.154 62.5262 175.011 61.2363 173.174 61.2363C171.338 61.2363 170.127 62.5738 170.197 63.0023C170.268 63.4309 171.367 63.4858 171.579 63.5131C172.184 63.5911 172.896 63.6191 173.407 63.6026Z" fill="#FFE5D9"/>
<path d="M196.544 125.693H191.711V112.839C191.711 110.91 190.956 109.096 189.588 107.734L182.755 100.93L186.171 97.5283L193.004 104.332C195.286 106.604 196.544 109.625 196.544 112.839V125.693Z" fill="#959CB5"/>
<path d="M204.979 120.961H139.734C138.348 120.961 137.318 122.093 137.319 123.364C137.32 123.658 137.32 127.417 137.32 128.171H207.393C207.393 127.417 207.393 123.658 207.394 123.364C207.395 122.093 206.365 120.961 204.979 120.961Z" fill="#919FEC"/>
<path d="M204.979 125.692H139.734C138.028 125.692 136.86 127.415 137.494 128.999L145.214 148.285C145.58 149.201 146.467 149.801 147.454 149.801H197.259C198.246 149.801 199.133 149.201 199.499 148.285L207.219 128.999C207.853 127.415 206.686 125.692 204.979 125.692Z" fill="#A66464"/>
<path d="M189.536 231.59H155.629V142.52C155.629 141.19 156.713 140.113 158.051 140.113H187.114C188.452 140.113 189.536 141.19 189.536 142.52V231.59H189.536Z" fill="#919FEC"/>
<path d="M179.686 101.297L176.262 97.8833C174.37 95.9981 174.37 92.9417 176.262 91.0565C178.153 89.1713 181.219 89.1713 183.111 91.0565L186.535 94.47C188.427 96.3553 188.427 99.4116 186.535 101.297C184.644 103.182 181.578 103.182 179.686 101.297Z" fill="#5B5D6E"/>
<path d="M199.096 238.8H145.843C144.506 238.8 143.423 237.716 143.423 236.378V231.534C143.423 230.196 144.506 229.112 145.843 229.112H199.096C200.433 229.112 201.517 230.196 201.517 231.534V236.378C201.517 237.716 200.433 238.8 199.096 238.8Z" fill="#C78886"/>
</svg>
