<svg width="239" height="448" viewBox="0 0 239 448" fill="none" xmlns="http://www.w3.org/2000/svg">
<path d="M12.2787 381.157C11.9631 380.521 11.6525 379.881 11.3478 379.239C11.652 379.882 11.9631 380.521 12.2787 381.157Z" fill="#FF4F19"/>
<path d="M11.0784 378.663C10.7867 378.039 10.4989 377.412 10.2175 376.782C10.4984 377.413 10.7867 378.039 11.0784 378.663Z" fill="#FF4F19"/>
<path d="M9.93915 376.148C9.66674 375.528 9.39681 374.906 9.13483 374.28C9.39681 374.906 9.66674 375.527 9.93915 376.148Z" fill="#FF4F19"/>
<path d="M8.86393 373.619C8.60641 372.993 8.35037 372.366 8.10327 371.735C8.35037 372.366 8.60641 372.993 8.86393 373.619Z" fill="#FF4F19"/>
<path fill-rule="evenodd" clip-rule="evenodd" d="M200.956 242.469C186.96 229.25 169.755 219.373 150.624 214.138C201.085 227.919 238.171 273.95 238.171 328.622C238.171 394.178 184.854 447.321 119.085 447.321C74.293 447.321 35.2835 422.667 14.9532 386.234C27.8174 409.272 48.1597 427.59 72.7086 437.943C72.6958 437.943 72.6826 437.943 72.6694 437.944H72.6681C72.653 437.944 72.6381 437.945 72.6238 437.944C75.2005 439.033 77.8328 440.013 80.5023 440.914C80.6479 440.964 80.7941 441.012 80.9404 441.06L80.9492 441.063L80.9576 441.066C81.0409 441.094 81.1242 441.121 81.2074 441.149L81.5294 441.256C82.0307 441.422 82.5322 441.588 83.0373 441.746C84.0232 442.058 85.0141 442.358 86.0105 442.645C86.0278 442.65 86.0452 442.655 86.0626 442.66L86.0634 442.66L86.0646 442.659C92.0938 444.39 98.3174 445.661 104.698 446.428C101.871 443.758 99.1764 440.95 96.622 438.018C96.623 438.018 96.6235 438.018 96.624 438.017L96.623 438.016C104.391 434.5 112.25 431.151 118.92 431.49C135.821 432.213 144.539 427.213 144.904 426.997C146.788 425.903 147.416 423.508 146.334 421.622C145.252 419.741 142.83 419.091 140.93 420.146C140.86 420.189 133.553 424.211 119.253 423.585C110.161 423.233 100.679 427.479 91.4631 431.662C76.4191 411.797 67.4823 387.083 67.4823 360.274C67.4823 358.892 67.5145 357.517 67.5617 356.146C76.0639 357.569 85.0761 358.602 94.3241 359.293C94.3318 359.295 94.3391 359.297 94.346 359.301C94.3534 359.304 94.3605 359.308 94.3675 359.312C94.3816 359.32 94.3956 359.328 94.4119 359.331L116.14 364.119C117.613 364.536 117.954 365.749 118.032 366.252C118.109 366.751 118.156 368.006 116.884 368.852C115.43 369.819 114.779 371.623 115.287 373.292C115.794 374.962 117.337 376.102 119.085 376.102C143.829 376.102 167.499 373.466 187.529 368.474C189.281 368.041 190.514 366.484 190.537 364.684C190.561 362.887 189.363 361.303 187.622 360.823L179.54 358.602L187.308 352.794C187.335 352.774 187.355 352.748 187.374 352.721C187.392 352.697 187.41 352.673 187.434 352.653C191.731 351.584 195.853 350.425 199.713 349.162C201.798 348.478 202.93 346.245 202.248 344.17C201.562 342.091 199.321 340.955 197.239 341.643C191.316 343.583 184.784 345.298 177.818 346.751C160.164 350.422 139.855 352.362 119.085 352.362C101.348 352.362 83.8138 350.93 68.0896 348.215C68.0901 348.211 68.0905 348.208 68.0908 348.204L68.0916 348.194L68.0961 348.146C74.1907 288.288 124.906 241.575 186.567 241.575C191.441 241.575 196.235 241.901 200.956 242.469ZM134.66 324.665H134.661H134.661H134.661H134.662H134.662C134.774 324.667 134.884 324.67 134.964 324.665C137.126 324.665 138.898 322.934 138.933 320.774C138.968 318.587 137.22 316.786 135.029 316.752C127.257 316.532 122.46 318.985 118.158 321.184C117.988 321.27 117.82 321.357 117.651 321.442C112.698 323.962 108.429 326.13 99.8894 324.719C97.7185 324.336 95.6797 325.816 95.3229 327.972C94.9622 330.124 96.424 332.164 98.5869 332.524C100.913 332.91 103.017 333.08 104.948 333.08C112.237 333.08 116.973 330.671 121.256 328.492L121.26 328.49L121.261 328.49L121.261 328.49L121.261 328.49C125.292 326.438 128.785 324.661 134.456 324.661C134.521 324.661 134.591 324.663 134.66 324.665ZM165.871 319.197C162.308 323.718 153.629 324.522 151.055 324.661C150.981 324.665 150.912 324.665 150.838 324.665C148.744 324.665 146.996 323.034 146.879 320.924C146.759 318.745 148.434 316.879 150.62 316.759C154.427 316.542 158.803 315.352 159.629 314.305C160.982 312.59 163.475 312.285 165.203 313.641C166.925 314.989 167.227 317.478 165.871 319.197ZM99.2379 376.101C100.269 376.101 101.301 375.665 102.056 374.915C102.808 374.2 103.207 373.172 103.207 372.144C103.207 371.117 102.808 370.085 102.056 369.335C100.548 367.871 97.8887 367.871 96.4195 369.335C95.7025 370.085 95.2684 371.117 95.2684 372.144C95.2684 373.172 95.7025 374.2 96.4195 374.954C97.1718 375.664 98.2068 376.101 99.2379 376.101ZM153.659 394.698C152.904 395.448 151.872 395.884 150.841 395.884C149.81 395.884 148.775 395.448 148.023 394.737C147.306 393.984 146.872 392.955 146.872 391.928C146.872 390.9 147.306 389.868 148.023 389.118C149.492 387.654 152.151 387.654 153.659 389.118C154.411 389.868 154.81 390.9 154.81 391.928C154.81 392.955 154.412 393.984 153.659 394.698ZM182.597 308.789C183.628 308.789 184.66 308.353 185.416 307.603C186.168 306.888 186.566 305.86 186.566 304.832C186.566 303.804 186.167 302.773 185.415 302.023C183.907 300.558 181.248 300.558 179.779 302.023C179.062 302.773 178.628 303.804 178.628 304.832C178.628 305.86 179.062 306.888 179.779 307.641C180.531 308.352 181.566 308.789 182.597 308.789ZM201.294 323.479C200.538 324.228 199.506 324.665 198.475 324.665C197.444 324.665 196.409 324.228 195.657 323.517C194.94 322.764 194.506 321.736 194.506 320.708C194.506 319.68 194.94 318.648 195.657 317.899C197.126 316.434 199.785 316.434 201.293 317.899C202.045 318.648 202.444 319.68 202.444 320.708C202.444 321.736 202.046 322.764 201.294 323.479ZM182.59 274.581C182.884 274.581 183.179 274.55 183.477 274.48C196.947 271.414 208.655 267.579 218.382 263.109C216.884 260.857 215.307 258.664 213.663 256.523C204.697 260.503 194.019 263.962 181.71 266.768C179.57 267.254 178.237 269.376 178.725 271.505C179.144 273.34 180.78 274.581 182.59 274.581Z" fill="#A4D7FB"/>
<path d="M13.5375 383.623C13.1922 382.967 12.8538 382.306 12.5203 381.643C12.8538 382.306 13.1927 382.967 13.5375 383.623Z" fill="#FF4F19"/>
<path d="M14.8524 386.056C14.4699 385.368 14.0957 384.676 13.7266 383.98C14.0952 384.676 14.4704 385.368 14.8524 386.056Z" fill="#FF4F19"/>
<path d="M1.48917 347.392C1.41767 346.948 1.34867 346.503 1.28217 346.057C1.34867 346.503 1.41767 346.948 1.48917 347.392Z" fill="#FF4F19"/>
<path d="M136.782 211.229C137.454 211.329 138.123 211.439 138.792 211.551C138.123 211.44 137.454 211.329 136.782 211.229Z" fill="#FF4F19"/>
<path d="M139.625 211.687C140.342 211.813 141.056 211.947 141.769 212.086C141.056 211.948 140.342 211.812 139.625 211.687Z" fill="#FF4F19"/>
<path d="M0.216362 335.689C0.192862 335.297 0.165862 334.906 0.146362 334.513C0.165862 334.906 0.193362 335.297 0.216362 335.689Z" fill="#FF4F19"/>
<path d="M0.0727197 332.566C0.0617197 332.236 0.0457197 331.907 0.0377197 331.576C0.0457197 331.906 0.0617197 332.235 0.0727197 332.566Z" fill="#FF4F19"/>
<path d="M133.907 210.837C134.534 210.915 135.159 211.003 135.783 211.092C135.159 211.003 134.534 210.915 133.907 210.837Z" fill="#FF4F19"/>
<path d="M122.102 209.96C122.482 209.97 122.859 209.989 123.238 210.002C122.859 209.989 122.482 209.97 122.102 209.96Z" fill="#FF4F19"/>
<path d="M125.094 210.073C125.569 210.097 126.041 210.131 126.513 210.16C126.041 210.131 125.569 210.097 125.094 210.073Z" fill="#FF4F19"/>
<path d="M142.432 212.209C143.195 212.361 143.955 212.523 144.714 212.691C143.955 212.524 143.195 212.361 142.432 212.209Z" fill="#FF4F19"/>
<path d="M145.202 212.793C146.013 212.974 146.819 213.164 147.623 213.361C146.819 213.165 146.013 212.974 145.202 212.793Z" fill="#FF4F19"/>
<path d="M147.935 213.437C148.796 213.651 149.653 213.874 150.506 214.106C149.653 213.874 148.796 213.651 147.935 213.437Z" fill="#FF4F19"/>
<path d="M1.06764 344.521C1.00814 344.083 0.949642 343.645 0.895142 343.206C0.950142 343.645 1.00864 344.083 1.06764 344.521Z" fill="#FF4F19"/>
<path d="M0.714599 341.619C0.667099 341.189 0.619099 340.76 0.576599 340.329C0.619099 340.76 0.667099 341.189 0.714599 341.619Z" fill="#FF4F19"/>
<path d="M0.430477 338.682C0.394977 338.265 0.357477 337.849 0.326477 337.431C0.357477 337.849 0.395477 338.265 0.430477 338.682Z" fill="#FF4F19"/>
<path d="M128.061 210.257C128.593 210.296 129.123 210.347 129.654 210.394C129.123 210.347 128.593 210.296 128.061 210.257Z" fill="#FF4F19"/>
<path d="M3.83876 358.607C3.71426 358.134 3.59776 357.658 3.47876 357.183C3.59776 357.658 3.71426 358.134 3.83876 358.607Z" fill="#FF4F19"/>
<path d="M7.8666 371.114C7.61552 370.462 7.36594 369.81 7.12628 369.152C7.36594 369.81 7.61552 370.462 7.8666 371.114Z" fill="#FF4F19"/>
<path d="M4.58848 361.345C4.44348 360.845 4.30848 360.34 4.16998 359.838C4.30848 360.341 4.44398 360.845 4.58848 361.345Z" fill="#FF4F19"/>
<path d="M3.15273 355.841C3.04323 355.381 2.94073 354.918 2.83673 354.456C2.94073 354.918 3.04373 355.381 3.15273 355.841Z" fill="#FF4F19"/>
<path d="M7.00026 368.796C6.22868 366.659 5.52013 364.492 4.87012 362.299C5.52013 364.491 6.22918 366.659 7.00026 368.796Z" fill="#FF4F19"/>
<path d="M2.53271 353.052C2.43671 352.598 2.34521 352.141 2.25421 351.685C2.34521 352.142 2.43621 352.598 2.53271 353.052Z" fill="#FF4F19"/>
<path d="M1.97716 350.235C1.89366 349.787 1.81366 349.337 1.73566 348.886C1.81416 349.337 1.89416 349.786 1.97716 350.235Z" fill="#FF4F19"/>
<path d="M130.999 210.512C131.58 210.57 132.159 210.639 132.739 210.705C132.159 210.639 131.58 210.57 130.999 210.512Z" fill="#FF4F19"/>
<path fill-rule="evenodd" clip-rule="evenodd" d="M72.6679 437.944L72.6884 437.943C72.6949 437.943 72.7013 437.943 72.7076 437.943C48.1591 427.59 27.8169 409.272 14.9542 386.233L14.8544 386.055C14.4724 385.368 14.0977 384.675 13.7286 383.979L13.6578 383.846L13.6576 383.845C13.6181 383.771 13.5786 383.696 13.5395 383.622C13.1942 382.966 12.8553 382.305 12.5223 381.642C12.441 381.48 12.3606 381.318 12.2802 381.156C11.9646 380.52 11.654 379.881 11.3493 379.238C11.2865 379.106 11.2247 378.973 11.1628 378.841L11.0799 378.663C10.7881 378.039 10.5004 377.412 10.219 376.782C10.1586 376.647 10.0995 376.511 10.0404 376.375L10.0396 376.374L10.0392 376.373C10.0064 376.298 9.97363 376.222 9.94066 376.147C9.66825 375.527 9.39832 374.905 9.13633 374.279C9.08253 374.151 9.02992 374.021 8.9773 373.892C8.94015 373.801 8.903 373.71 8.86541 373.619C8.60789 372.993 8.35186 372.366 8.10476 371.735C8.0572 371.613 8.01085 371.49 7.96449 371.368C7.9325 371.283 7.90049 371.198 7.86807 371.114C7.617 370.462 7.36742 369.809 7.12776 369.152C7.10463 369.089 7.08236 369.025 7.0601 368.961L7.05974 368.96C7.04386 368.915 7.02798 368.869 7.01181 368.824L7.00173 368.796C6.23015 366.659 5.52159 364.492 4.87159 362.299C4.83529 362.177 4.79833 362.054 4.76137 361.932C4.70231 361.737 4.64323 361.541 4.58677 361.345C4.47941 360.972 4.37756 360.597 4.27568 360.221C4.24102 360.093 4.20635 359.966 4.17146 359.838C4.14211 359.731 4.11258 359.623 4.08305 359.516L4.08289 359.516C3.99968 359.213 3.91647 358.911 3.83703 358.607C3.7338 358.212 3.63577 357.815 3.53773 357.418L3.47978 357.183L3.42105 356.946C3.32972 356.579 3.23832 356.211 3.1513 355.841C3.06174 355.462 2.97691 355.081 2.89207 354.7L2.89201 354.699L2.83771 354.455C2.73351 353.989 2.62931 353.521 2.53106 353.052C2.4353 352.598 2.34499 352.142 2.25468 351.685C2.15942 351.203 2.06514 350.72 1.97583 350.235C1.89296 349.787 1.81407 349.337 1.73617 348.886C1.65033 348.389 1.56746 347.891 1.48807 347.392C1.41712 346.948 1.34864 346.503 1.28265 346.057C1.20723 345.546 1.13627 345.034 1.0673 344.521C1.00826 344.084 0.950202 343.645 0.896118 343.206C0.831117 342.678 0.772071 342.149 0.714016 341.619L0.701484 341.505L0.701411 341.504C0.658435 341.113 0.615487 340.722 0.577068 340.329C0.52586 339.81 0.481769 339.29 0.437635 338.77L0.437627 338.769L0.430196 338.682L0.404809 338.384C0.377612 338.067 0.350428 337.749 0.326989 337.431C0.286409 336.88 0.253906 336.328 0.221373 335.775L0.216339 335.689C0.20889 335.564 0.201087 335.439 0.193286 335.314L0.193278 335.313C0.176656 335.047 0.160041 334.781 0.146872 334.513C0.115116 333.866 0.0937798 333.216 0.0724436 332.566C0.0681395 332.43 0.0628194 332.293 0.0574976 332.157L0.0574959 332.157C0.0499345 331.964 0.0423697 331.77 0.0377104 331.576C0.0133971 330.594 0 329.61 0 328.622C0 315.026 2.29984 301.966 6.52191 289.802C5.81484 291.869 5.17277 293.965 4.56941 296.078C12.0906 302.72 23.696 308.721 38.474 313.557C38.8849 313.692 39.2997 313.754 39.7105 313.754C41.3817 313.754 42.9323 312.699 43.4826 311.03C44.1648 308.954 43.033 306.721 40.9475 306.037C25.4376 300.96 13.8819 294.701 7.53215 287.939C7.48731 287.891 7.43399 287.86 7.38057 287.828C7.33825 287.803 7.29587 287.778 7.25761 287.745C23.9716 242.33 67.7286 209.922 119.085 209.922C120.094 209.922 121.099 209.936 122.103 209.96C122.333 209.966 122.562 209.975 122.791 209.985H122.791H122.791C122.94 209.991 123.089 209.997 123.238 210.002L123.597 210.014L123.598 210.014C124.098 210.031 124.598 210.047 125.095 210.072C125.421 210.088 125.746 210.109 126.071 210.13L126.071 210.13L126.072 210.13C126.219 210.14 126.367 210.15 126.514 210.159L126.718 210.171L126.917 210.183L126.918 210.183C127.3 210.206 127.682 210.229 128.062 210.257C128.457 210.286 128.85 210.322 129.244 210.357L129.244 210.357L129.245 210.357L129.25 210.357L129.255 210.358C129.388 210.37 129.521 210.382 129.655 210.393C129.798 210.406 129.942 210.418 130.085 210.43L130.087 210.43L130.089 210.431C130.393 210.456 130.697 210.482 130.999 210.512C131.509 210.563 132.015 210.621 132.522 210.679L132.522 210.679L132.522 210.679L132.739 210.704C132.796 210.71 132.853 210.717 132.91 210.723L132.961 210.729L133.148 210.75C133.401 210.778 133.655 210.806 133.907 210.837C134.53 210.914 135.149 211.001 135.769 211.087L135.769 211.088L135.771 211.088L135.784 211.09C135.91 211.107 136.036 211.125 136.163 211.142L136.163 211.142L136.163 211.142C136.37 211.17 136.577 211.198 136.783 211.229C137.454 211.329 138.124 211.438 138.792 211.55C138.892 211.566 138.993 211.582 139.093 211.599L139.094 211.599L139.095 211.599C139.272 211.628 139.449 211.657 139.625 211.687C140.343 211.812 141.057 211.945 141.77 212.083C141.859 212.1 141.949 212.117 142.039 212.134C142.17 212.159 142.301 212.184 142.432 212.209C143.195 212.361 143.955 212.521 144.714 212.688C144.747 212.695 144.781 212.702 144.814 212.709L144.903 212.729L144.903 212.729L144.903 212.729C145.003 212.75 145.103 212.771 145.203 212.794C146.013 212.975 146.82 213.165 147.624 213.362L147.728 213.387L147.729 213.388C147.798 213.404 147.867 213.421 147.935 213.438C148.796 213.652 149.653 213.875 150.506 214.107L150.572 214.125L150.624 214.139C169.755 219.373 186.959 229.25 200.956 242.469C196.235 241.902 191.441 241.576 186.567 241.576C124.906 241.576 74.1907 288.288 68.0955 348.147C67.5528 348.053 66.9975 347.968 66.4422 347.884L66.4418 347.884L66.4413 347.884C65.7015 347.771 64.9619 347.659 64.2525 347.524C62.0971 347.118 60.0191 348.524 59.6122 350.673C59.2013 352.817 60.616 354.889 62.7714 355.298C64.023 355.536 65.3081 355.749 66.5932 355.962L66.5933 355.962L66.5936 355.962C66.9249 356.017 67.2562 356.072 67.5869 356.127C67.679 353.468 67.826 350.823 68.0899 348.211L68.0896 348.215C83.8138 350.93 101.348 352.362 119.085 352.362C139.855 352.362 160.164 350.422 177.817 346.751C184.783 345.299 191.315 343.583 197.239 341.643C199.321 340.955 201.561 342.091 202.247 344.17C202.93 346.245 201.798 348.478 199.712 349.162C195.853 350.426 191.73 351.584 187.434 352.654C187.41 352.674 187.392 352.697 187.374 352.721L187.374 352.722C187.354 352.748 187.335 352.774 187.307 352.795L179.539 358.602L187.622 360.824C189.362 361.303 190.56 362.887 190.537 364.684C190.513 366.485 189.28 368.042 187.528 368.474C167.499 373.467 143.829 376.102 119.085 376.102C117.337 376.102 115.794 374.962 115.286 373.293C114.779 371.624 115.43 369.819 116.883 368.853C118.155 368.007 118.108 366.751 118.031 366.253C117.953 365.75 117.612 364.537 116.139 364.12L94.4114 359.332C94.3787 359.325 94.3558 359.301 94.3236 359.293C85.0756 358.604 76.0638 357.57 67.5611 356.146C67.514 357.518 67.4817 358.892 67.4817 360.275C67.4817 387.084 76.4186 411.797 91.4621 431.663C100.678 427.479 110.16 423.234 119.252 423.586C133.552 424.212 140.859 420.189 140.929 420.147C142.829 419.092 145.251 419.741 146.333 421.623C147.415 423.508 146.787 425.904 144.903 426.997C144.538 427.214 135.82 432.214 118.919 431.491C112.249 431.152 104.39 434.501 96.6219 438.017C94.8317 435.962 93.1347 433.827 91.4874 431.652C91.3777 431.701 91.2681 431.751 91.1589 431.8C84.3288 434.899 77.3127 438.053 72.7121 437.94C73.5363 438.288 74.3719 438.613 75.2077 438.938C75.3717 439.002 75.5357 439.066 75.6996 439.13C75.973 439.236 76.2456 439.343 76.5182 439.451C77.1551 439.702 77.7918 439.953 78.4381 440.185C79.0373 440.402 79.6441 440.603 80.2507 440.804L80.2532 440.805C80.4976 440.886 80.7421 440.967 80.986 441.049C82.3064 441.489 83.6312 441.917 84.9704 442.314C85.3043 442.413 85.6394 442.509 85.9742 442.605L86.1057 442.642C88.8184 441.553 91.6094 440.291 94.4501 439.002C95.1716 438.674 95.8965 438.346 96.6209 438.018C99.1753 440.95 101.87 443.758 104.697 446.428C98.3164 445.661 92.0922 444.39 86.0635 442.66L86.0625 442.66L86.0615 442.661C86.0442 442.656 86.0268 442.65 86.0094 442.645C85.0126 442.358 84.0217 442.058 83.0363 441.747C82.5299 441.588 82.0272 441.421 81.5247 441.255L81.2063 441.149C81.1297 441.124 81.053 441.098 80.9762 441.073C80.8177 441.021 80.659 440.968 80.5013 440.914C77.8323 440.013 75.1995 439.034 72.6228 437.944C72.6372 437.945 72.6526 437.944 72.6679 437.944ZM7.25761 287.745C7.01354 288.408 6.77523 289.074 6.54275 289.743C6.77249 289.072 7.00867 288.405 7.2528 287.741L7.25761 287.745ZM90.1472 246.68C88.6393 245.215 85.9802 245.215 84.511 246.68C83.794 247.429 83.3598 248.461 83.3598 249.489C83.3598 250.517 83.794 251.544 84.511 252.298C85.2632 253.009 86.2982 253.446 87.3293 253.446C88.3604 253.446 89.3915 253.009 90.1472 252.26C90.8989 251.544 91.2983 250.517 91.2983 249.489C91.2983 248.461 90.8994 247.429 90.1472 246.68ZM52.018 262.362C55.0924 257.546 60.5837 255.544 64.2828 257.891C67.9819 260.237 68.4885 266.043 65.4141 270.859C62.3397 275.674 56.8489 277.676 53.1493 275.33C49.4497 272.983 48.9436 267.177 52.018 262.362ZM32.1327 336.271C28.649 337.022 26.622 341.307 27.6055 345.842C28.5889 350.377 32.2106 353.445 35.6944 352.695C39.1781 351.944 41.2051 347.659 40.2216 343.124C39.2382 338.589 35.6165 335.52 32.1327 336.271Z" fill="#6DB7EC"/>
<path d="M138.649 313.993L115.208 320.215L96.3634 324.715L91.5187 329.184L94.9816 335.435L101.73 336.2L119.037 329.895L133.279 330.8L138.579 324.862L142.79 319.518L138.649 313.993Z" fill="#A4D7FB"/>
<path d="M165.457 311.293C163.623 309.431 160.979 309.85 159.544 312.206C158.668 313.645 154.025 315.279 149.986 315.577C147.666 315.741 145.89 318.305 146.017 321.298C146.14 324.196 147.995 326.435 150.216 326.435C150.294 326.435 150.368 326.435 150.447 326.43C153.177 326.239 162.386 325.135 166.165 318.926C167.604 316.564 167.284 313.145 165.457 311.293Z" fill="#A4D7FB"/>
<path d="M52.0142 262.362C48.9396 267.178 49.446 272.984 53.1453 275.331C56.8446 277.677 62.3359 275.675 65.4105 270.86C68.4851 266.044 67.9787 260.237 64.2794 257.891C60.5801 255.545 55.0888 257.546 52.0142 262.362Z" fill="#1671DB"/>
<path d="M35.6955 352.69C39.1791 351.94 41.2057 347.655 40.2221 343.12C39.2385 338.585 35.6171 335.517 32.1335 336.267C28.6499 337.018 26.6233 341.303 27.6069 345.838C28.5905 350.373 32.2119 353.441 35.6955 352.69Z" fill="#1671DB"/>
<path d="M87.3293 253.445C88.3604 253.445 89.3915 253.009 90.1477 252.259C90.8994 251.544 91.2988 250.516 91.2988 249.489C91.2988 248.461 90.8994 247.429 90.1477 246.679C88.6398 245.215 85.9807 245.215 84.5115 246.679C83.794 247.429 83.3598 248.461 83.3598 249.489C83.3598 250.516 83.794 251.544 84.511 252.298C85.2632 253.009 86.2982 253.445 87.3293 253.445Z" fill="#1671DB"/>
<path d="M179.779 302.024C179.062 302.773 178.628 303.805 178.628 304.833C178.628 305.861 179.062 306.888 179.779 307.642C180.532 308.353 181.567 308.79 182.598 308.79C183.629 308.79 184.66 308.353 185.416 307.604C186.168 306.889 186.567 305.861 186.567 304.833C186.567 303.805 186.168 302.773 185.416 302.024C183.908 300.559 181.249 300.559 179.779 302.024Z" fill="#94CCF4"/>
<path d="M195.657 317.899C194.94 318.649 194.506 319.681 194.506 320.708C194.506 321.736 194.94 322.764 195.657 323.518C196.41 324.229 197.445 324.665 198.476 324.665C199.507 324.665 200.538 324.228 201.294 323.479C202.046 322.764 202.445 321.737 202.445 320.708C202.445 319.68 202.046 318.649 201.294 317.899C199.786 316.435 197.127 316.435 195.657 317.899Z" fill="#94CCF4"/>
<path d="M96.4195 369.336C95.7025 370.085 95.2683 371.117 95.2683 372.145C95.2683 373.173 95.7025 374.2 96.4195 374.954C97.1717 375.665 98.2067 376.102 99.2378 376.102C100.269 376.102 101.3 375.665 102.056 374.916C102.808 374.201 103.207 373.173 103.207 372.145C103.207 371.117 102.808 370.085 102.056 369.336C100.548 367.871 97.8887 367.871 96.4195 369.336Z" fill="#94CCF4"/>
<path d="M148.023 389.119C147.306 389.869 146.872 390.901 146.872 391.928C146.872 392.956 147.306 393.984 148.023 394.738C148.775 395.449 149.81 395.885 150.842 395.885C151.873 395.885 152.904 395.448 153.66 394.699C154.412 393.984 154.811 392.957 154.811 391.928C154.811 390.9 154.412 389.869 153.66 389.119C152.151 387.655 149.492 387.655 148.023 389.119Z" fill="#94CCF4"/>
<path d="M59.6127 350.673C59.2018 352.818 60.6165 354.888 62.7719 355.298C64.3463 355.597 65.9738 355.857 67.5874 356.127C67.6792 353.463 67.8266 350.812 68.092 348.195C68.0935 348.179 68.0945 348.163 68.0965 348.147C66.8302 347.928 65.495 347.76 64.2535 347.524C62.0971 347.118 60.0195 348.525 59.6127 350.673Z" fill="#1671DB"/>
<path d="M38.474 313.556C38.8849 313.691 39.2997 313.753 39.7105 313.753C41.3812 313.753 42.9318 312.698 43.4825 311.029C44.1648 308.954 43.033 306.721 40.9475 306.037C25.4376 300.959 13.8819 294.7 7.53214 287.938C7.45077 287.851 7.34012 287.818 7.25279 287.74C7.00866 288.404 6.77248 289.071 6.54274 289.742C6.53579 289.762 6.52885 289.781 6.5219 289.801C5.81483 291.867 5.17276 293.964 4.5694 296.076C12.0906 302.719 23.696 308.72 38.474 313.556Z" fill="#1671DB"/>
<path d="M91.4874 431.652C91.3782 431.701 91.2681 431.751 91.1589 431.8C84.3289 434.899 77.3133 438.052 72.7121 437.94C73.698 438.356 74.7003 438.74 75.6997 439.13C76.6116 439.483 77.5152 439.854 78.4381 440.185C79.2797 440.489 80.1356 440.763 80.9861 441.049C82.3064 441.488 83.6312 441.917 84.9705 442.314C85.3476 442.427 85.7266 442.534 86.1057 442.642C88.8184 441.553 91.6095 440.291 94.4501 439.002C95.1716 438.674 95.8965 438.346 96.621 438.018C96.6215 438.018 96.622 438.018 96.623 438.017C96.6225 438.017 96.6225 438.017 96.6225 438.017C94.8322 435.962 93.1348 433.827 91.4874 431.652Z" fill="#1671DB"/>
<path d="M213.663 256.523C204.697 260.503 194.019 263.962 181.71 266.768C179.57 267.254 178.237 269.376 178.725 271.505C179.144 273.34 180.78 274.581 182.59 274.581C182.884 274.581 183.179 274.549 183.477 274.48C196.947 271.414 208.655 267.579 218.382 263.109C216.883 260.857 215.307 258.664 213.663 256.523Z" fill="#94CCF4"/>
<path fill-rule="evenodd" clip-rule="evenodd" d="M119.605 214.214C138.138 214.214 159.21 217.565 159.21 226.19C159.21 234.814 143.906 239.105 119.605 239.105C95.3038 239.105 79.9992 234.071 79.9992 226.647C79.9992 219.222 101.071 214.214 119.605 214.214Z" fill="#347DD3"/>
<path fill-rule="evenodd" clip-rule="evenodd" d="M76.6193 39.7988C85.9218 31.974 101.19 28.175 117.154 27.3197C118.109 27.2685 122.61 22.4966 121.168 18.3367C119.631 13.9025 114.773 11.2804 114.248 8.0617C113.724 4.84302 115.337 0.0686035 124.687 0.0686035C134.037 0.0686035 135.712 5.09772 135.712 8.0617C135.712 11.0257 128.472 14.2611 128.231 18.3367C127.974 22.6718 132.549 27.3647 133.657 27.4376C152.053 28.6483 168.943 33.3357 176.045 39.7988C184.902 47.8598 162.146 82.3587 168.678 81.9571C170.462 81.8474 176.791 79.3278 180.091 75.8272C182.083 73.7147 183.381 69.9705 185.227 69.194C187.074 68.4174 187.632 72.6197 187.808 72.8022C187.983 72.9847 189.695 69.4217 191.276 69.4217C192.857 69.4217 193.63 74.2871 189.649 78.7809C186.633 82.1848 181.966 84.4219 175.635 86.5185C169.305 88.6151 161.718 87.5116 157.173 94.4042C152.628 101.297 152.671 101.735 151.224 105.663C146.231 119.227 153.86 133.579 144.653 133.579C135.446 133.579 134.519 105.663 124.856 105.663C115.193 105.663 115.195 133.579 104.758 133.579C94.3209 133.579 100.558 116.106 97.7417 105.663C96.8795 102.466 92.3801 96.892 87.2203 90.1328C86.9519 89.7812 78.8285 92.2383 74.0509 91.8629C69.2732 91.4875 56.1593 86.5438 56.8385 84.5712C57.5178 82.5987 60.763 84.524 61.2434 83.7788C61.7238 83.0336 56.2361 81.4177 59.64 80.0993C60.4909 79.7697 61.2813 79.6926 62.9802 80.8248C64.6791 81.9571 65.7867 82.6341 69.0889 83.7788C72.1186 84.8291 74.0862 84.8888 75.855 85.052C80.1942 85.4523 81.5229 82.4194 81.2 81.9571C71.3377 67.8371 63.16 51.1201 76.6193 39.7988Z" fill="#F4ADAB"/>
<path fill-rule="evenodd" clip-rule="evenodd" d="M124.816 10.899C126.469 10.899 127.809 9.56375 127.809 7.91665C127.809 6.26956 126.469 4.93433 124.816 4.93433C123.164 4.93433 121.824 6.26956 121.824 7.91665C121.824 9.56375 123.164 10.899 124.816 10.899Z" fill="#D05A69"/>
<path fill-rule="evenodd" clip-rule="evenodd" d="M125.415 98.0449C130.879 98.0449 136.048 86.4002 140.647 84.8925C152.18 81.1111 160.122 73.1694 160.122 63.9843C160.122 51.137 144.583 40.7222 125.415 40.7222C106.246 40.7222 90.7074 51.137 90.7074 63.9843C90.7074 72.763 98.6246 80.9002 109.336 84.8606C112.149 85.9009 119.951 98.0449 125.415 98.0449Z" fill="#F6C1BF"/>
<path fill-rule="evenodd" clip-rule="evenodd" d="M125.415 75.3174C137.973 75.3174 148.154 68.9082 148.154 61.0022C148.154 53.0961 137.973 46.687 125.415 46.687C112.856 46.687 102.676 53.0961 102.676 61.0022C102.676 68.9082 112.856 75.3174 125.415 75.3174Z" fill="white"/>
<path fill-rule="evenodd" clip-rule="evenodd" d="M124.793 60.475C129.75 60.475 134.031 47.7113 132.089 47.2542C130.147 46.7972 125.173 46.6714 124.483 46.6714C123.793 46.6714 120.747 46.6048 117.501 47.5897C114.255 48.5747 119.836 60.475 124.793 60.475Z" fill="#4A4A4A"/>
<path fill-rule="evenodd" clip-rule="evenodd" d="M124.816 90.8252C127.791 90.8252 130.202 88.6888 130.202 86.0535C130.202 83.4181 127.791 81.2817 124.816 81.2817C121.842 81.2817 119.431 83.4181 119.431 86.0535C119.431 88.6888 121.842 90.8252 124.816 90.8252Z" fill="#D05A69"/>
<path fill-rule="evenodd" clip-rule="evenodd" d="M124.863 90.229C125.779 90.229 126.671 89.9802 127.355 89.6101C128.398 89.0457 129.032 88.2342 129.116 87.8676C129.255 87.2608 127.176 86.72 124.863 86.72C122.55 86.72 120.509 87.2703 120.69 88.0346C120.871 88.7988 122.55 90.229 124.863 90.229Z" fill="#F2B679"/>
<path d="M144.151 129.071H139.924V117.827C139.924 116.14 139.264 114.553 138.067 113.361L132.09 107.41L135.078 104.434L141.055 110.386C143.051 112.373 144.151 115.016 144.151 117.827V129.071Z" fill="#959CB5"/>
<path d="M129.405 107.73L126.41 104.744C124.755 103.095 124.755 100.422 126.41 98.7725C128.064 97.1234 130.746 97.1234 132.401 98.7725L135.397 101.759C137.051 103.408 137.051 106.081 135.397 107.73C133.742 109.379 131.06 109.379 129.405 107.73Z" fill="#5B5D6E"/>
<path d="M151.53 124.932H94.457C93.2447 124.932 92.3437 125.922 92.3447 127.034C92.345 127.292 92.3455 130.579 92.3455 131.239H153.642C153.642 130.579 153.642 127.292 153.643 127.034C153.644 125.922 152.742 124.932 151.53 124.932Z" fill="#919FEC"/>
<path d="M151.53 129.071H94.457C92.9641 129.071 91.9432 130.578 92.4978 131.963L99.2503 148.834C99.5708 149.635 100.347 150.16 101.21 150.16H144.778C145.641 150.16 146.417 149.635 146.737 148.834L153.49 131.963C154.044 130.578 153.023 129.071 151.53 129.071Z" fill="#A66464"/>
<path d="M138.021 221.705H108.361V143.791C108.361 142.628 109.31 141.685 110.48 141.685H135.903C137.073 141.685 138.022 142.628 138.022 143.791V221.705H138.021Z" fill="#919FEC"/>
<path d="M146.384 228.012H99.801C98.6315 228.012 97.6836 227.064 97.6836 225.894V221.656C97.6836 220.486 98.6315 219.537 99.801 219.537H146.384C147.554 219.537 148.502 220.486 148.502 221.656V225.894C148.502 227.064 147.554 228.012 146.384 228.012Z" fill="#C78886"/>
</svg>
