<svg width="1440" height="923" viewBox="0 0 1440 923" fill="none" xmlns="http://www.w3.org/2000/svg">
<path fill-rule="evenodd" clip-rule="evenodd" d="M0 0H1440V865.768C1440 865.768 1352.65 923 1250.99 923C1149.33 923 1062.57 865.768 981.078 865.768C899.587 865.768 801.905 923 698.186 923C594.468 923 532.948 865.768 434.264 865.768C335.579 865.768 268.322 923 168.33 923C68.338 923 0 857.32 0 857.32V0Z" fill="url(#paint0_linear)"/>
<path fill-rule="evenodd" clip-rule="evenodd" d="M141.5 385.466C142.328 385.466 143 384.877 143 384.152C143 383.426 142.328 382.838 141.5 382.838C140.672 382.838 140 383.426 140 384.152C140 384.877 140.672 385.466 141.5 385.466Z" fill="white"/>
<path fill-rule="evenodd" clip-rule="evenodd" d="M128.5 300.488C129.328 300.488 130 299.9 130 299.174C130 298.448 129.328 297.86 128.5 297.86C127.672 297.86 127 298.448 127 299.174C127 299.9 127.672 300.488 128.5 300.488Z" fill="white"/>
<path fill-rule="evenodd" clip-rule="evenodd" d="M189.5 217.262C190.328 217.262 191 216.674 191 215.948C191 215.223 190.328 214.634 189.5 214.634C188.672 214.634 188 215.223 188 215.948C188 216.674 188.672 217.262 189.5 217.262Z" fill="white"/>
<path fill-rule="evenodd" clip-rule="evenodd" d="M323.5 138.417C324.328 138.417 325 137.829 325 137.103C325 136.377 324.328 135.789 323.5 135.789C322.672 135.789 322 136.377 322 137.103C322 137.829 322.672 138.417 323.5 138.417Z" fill="white"/>
<path fill-rule="evenodd" clip-rule="evenodd" d="M173.5 119.144C174.328 119.144 175 118.556 175 117.83C175 117.104 174.328 116.516 173.5 116.516C172.672 116.516 172 117.104 172 117.83C172 118.556 172.672 119.144 173.5 119.144Z" fill="white"/>
<path fill-rule="evenodd" clip-rule="evenodd" d="M104.5 187.476C105.881 187.476 107 186.496 107 185.286C107 184.077 105.881 183.096 104.5 183.096C103.119 183.096 102 184.077 102 185.286C102 186.496 103.119 187.476 104.5 187.476Z" fill="white"/>
<path fill-rule="evenodd" clip-rule="evenodd" d="M458.5 168.203C459.328 168.203 460 167.615 460 166.889C460 166.164 459.328 165.575 458.5 165.575C457.672 165.575 457 166.164 457 166.889C457 167.615 457.672 168.203 458.5 168.203Z" fill="white"/>
<path fill-rule="evenodd" clip-rule="evenodd" d="M1093.5 140.169C1094.33 140.169 1095 139.581 1095 138.855C1095 138.13 1094.33 137.541 1093.5 137.541C1092.67 137.541 1092 138.13 1092 138.855C1092 139.581 1092.67 140.169 1093.5 140.169Z" fill="white"/>
<path fill-rule="evenodd" clip-rule="evenodd" d="M1103.5 225.147C1104.33 225.147 1105 224.559 1105 223.833C1105 223.107 1104.33 222.519 1103.5 222.519C1102.67 222.519 1102 223.107 1102 223.833C1102 224.559 1102.67 225.147 1103.5 225.147Z" fill="white"/>
<path fill-rule="evenodd" clip-rule="evenodd" d="M1154.5 168.203C1155.33 168.203 1156 167.615 1156 166.889C1156 166.164 1155.33 165.575 1154.5 165.575C1153.67 165.575 1153 166.164 1153 166.889C1153 167.615 1153.67 168.203 1154.5 168.203Z" fill="white"/>
<path fill-rule="evenodd" clip-rule="evenodd" d="M1238.5 211.13C1239.88 211.13 1241 210.149 1241 208.94C1241 207.73 1239.88 206.75 1238.5 206.75C1237.12 206.75 1236 207.73 1236 208.94C1236 210.149 1237.12 211.13 1238.5 211.13Z" fill="white"/>
<path fill-rule="evenodd" clip-rule="evenodd" d="M1324.5 162.947C1325.33 162.947 1326 162.358 1326 161.633C1326 160.907 1325.33 160.319 1324.5 160.319C1323.67 160.319 1323 160.907 1323 161.633C1323 162.358 1323.67 162.947 1324.5 162.947Z" fill="white"/>
<path fill-rule="evenodd" clip-rule="evenodd" d="M1321.5 314.505C1322.33 314.505 1323 313.917 1323 313.191C1323 312.465 1322.33 311.877 1321.5 311.877C1320.67 311.877 1320 312.465 1320 313.191C1320 313.917 1320.67 314.505 1321.5 314.505Z" fill="white"/>
<path fill-rule="evenodd" clip-rule="evenodd" d="M398 464.311C399.105 464.311 400 463.527 400 462.559C400 461.591 399.105 460.807 398 460.807C396.895 460.807 396 461.591 396 462.559C396 463.527 396.895 464.311 398 464.311Z" fill="white"/>
<path fill-rule="evenodd" clip-rule="evenodd" d="M568.5 193.609C569.328 193.609 570 193.021 570 192.295C570 191.569 569.328 190.981 568.5 190.981C567.672 190.981 567 191.569 567 192.295C567 193.021 567.672 193.609 568.5 193.609Z" fill="white"/>
<path fill-rule="evenodd" clip-rule="evenodd" d="M587.5 118.268C588.328 118.268 589 117.68 589 116.954C589 116.228 588.328 115.64 587.5 115.64C586.672 115.64 586 116.228 586 116.954C586 117.68 586.672 118.268 587.5 118.268Z" fill="white"/>
<path fill-rule="evenodd" clip-rule="evenodd" d="M717.5 165.575C718.328 165.575 719 164.987 719 164.261C719 163.535 718.328 162.947 717.5 162.947C716.672 162.947 716 163.535 716 164.261C716 164.987 716.672 165.575 717.5 165.575Z" fill="white"/>
<path fill-rule="evenodd" clip-rule="evenodd" d="M455.5 68.3325C456.328 68.3325 457 67.7442 457 67.0184C457 66.2927 456.328 65.7043 455.5 65.7043C454.672 65.7043 454 66.2927 454 67.0184C454 67.7442 454.672 68.3325 455.5 68.3325Z" fill="white"/>
<path fill-rule="evenodd" clip-rule="evenodd" d="M940.5 196.237C941.328 196.237 942 195.649 942 194.923C942 194.197 941.328 193.609 940.5 193.609C939.672 193.609 939 194.197 939 194.923C939 195.649 939.672 196.237 940.5 196.237Z" fill="white"/>
<path fill-rule="evenodd" clip-rule="evenodd" d="M373 248.801C374.657 248.801 376 247.624 376 246.173C376 244.721 374.657 243.544 373 243.544C371.343 243.544 370 244.721 370 246.173C370 247.624 371.343 248.801 373 248.801Z" fill="white"/>
<path fill-rule="evenodd" clip-rule="evenodd" d="M1059.58 630.461C1186.78 660.213 1272.92 656.246 1332.19 730.211C1391.46 804.176 1340.47 867.181 1249.27 867.181C1158.06 867.181 1031.29 793.941 966.599 793.941C901.911 793.941 834.229 867.181 692.531 867.181C550.832 867.181 512.107 793.941 419.456 793.941C326.806 793.941 278.798 867.181 170.802 867.181C62.8054 867.181 23.0963 731.712 23.0963 696.989C23.0963 681.111 38.6431 595.337 250.214 587.707C461.786 580.077 616.479 645.816 735.297 651.228C873.067 657.504 994.391 615.216 1059.58 630.461Z" fill="#2B3780"/>
<path fill-rule="evenodd" clip-rule="evenodd" d="M1439.61 719.224C1439.61 719.224 1452.61 572.14 1037.31 572.14C860.818 572.14 642.668 638.061 430.672 677.91C310.12 700.57 213.481 647.137 125.754 677.91C38.026 708.683 47.1895 780.398 68.9519 811.751C90.7144 843.104 164.467 858.21 250.902 858.21C337.337 858.21 457.482 802.426 518.786 802.426C580.091 802.426 644.233 858.21 778.521 858.21C912.809 858.21 949.51 802.426 1037.31 802.426C1125.12 802.426 1170.62 858.21 1272.96 858.21C1375.31 858.21 1439.61 719.224 1439.61 719.224Z" fill="#2B3780" fill-opacity="0.222939"/>
<path fill-rule="evenodd" clip-rule="evenodd" d="M1437.65 727.335C1427.88 652.211 1326.91 572.14 1030.58 572.14C835.372 572.14 594.097 638.07 359.627 677.925C307.167 686.842 189.612 630.553 85.8281 660.844C-17.9557 691.136 -21.9652 794.099 43.5192 849.793C62.0966 865.593 84.5181 874.554 109.256 878.562C228.285 897.846 400.946 802.459 457.083 802.459C524.887 802.459 595.828 858.25 744.352 858.25C892.875 858.25 933.466 802.459 1030.58 802.459C1127.69 802.459 1178.01 858.25 1291.21 858.25C1404.41 858.25 1447.42 802.459 1437.65 727.335Z" fill="#52489C" fill-opacity="0.156278"/>
<defs>
<linearGradient id="paint0_linear" x1="1437.32" y1="922.994" x2="1437.31" y2="-0.00558376" gradientUnits="userSpaceOnUse">
<stop stop-color="#2B3780"/>
<stop offset="0.508919" stop-color="#2D3270"/>
<stop offset="1" stop-color="#20244C"/>
</linearGradient>
</defs>
</svg>
