<svg width="1440" height="923" viewBox="0 0 1440 923" fill="none" xmlns="http://www.w3.org/2000/svg">
<path fill-rule="evenodd" clip-rule="evenodd" d="M0 0H1440V865.768C1440 865.768 1352.65 923 1250.99 923C1149.33 923 1062.57 865.768 981.078 865.768C899.587 865.768 801.905 923 698.186 923C594.468 923 532.948 865.768 434.264 865.768C335.579 865.768 268.322 923 168.33 923C68.338 923 0 857.32 0 857.32V0Z" fill="url(#paint0_linear)"/>
<path fill-rule="evenodd" clip-rule="evenodd" d="M141.5 385.466C142.328 385.466 143 384.877 143 384.152C143 383.426 142.328 382.838 141.5 382.838C140.672 382.838 140 383.426 140 384.152C140 384.877 140.672 385.466 141.5 385.466Z" fill="white"/>
<path fill-rule="evenodd" clip-rule="evenodd" d="M128.5 300.488C129.328 300.488 130 299.9 130 299.174C130 298.448 129.328 297.86 128.5 297.86C127.672 297.86 127 298.448 127 299.174C127 299.9 127.672 300.488 128.5 300.488Z" fill="white"/>
<path fill-rule="evenodd" clip-rule="evenodd" d="M189.5 217.262C190.328 217.262 191 216.674 191 215.948C191 215.223 190.328 214.634 189.5 214.634C188.672 214.634 188 215.223 188 215.948C188 216.674 188.672 217.262 189.5 217.262Z" fill="white"/>
<path fill-rule="evenodd" clip-rule="evenodd" d="M323.5 138.417C324.328 138.417 325 137.829 325 137.103C325 136.377 324.328 135.789 323.5 135.789C322.672 135.789 322 136.377 322 137.103C322 137.829 322.672 138.417 323.5 138.417Z" fill="white"/>
<path fill-rule="evenodd" clip-rule="evenodd" d="M173.5 119.144C174.328 119.144 175 118.556 175 117.83C175 117.104 174.328 116.516 173.5 116.516C172.672 116.516 172 117.104 172 117.83C172 118.556 172.672 119.144 173.5 119.144Z" fill="white"/>
<path fill-rule="evenodd" clip-rule="evenodd" d="M104.5 187.476C105.881 187.476 107 186.496 107 185.286C107 184.077 105.881 183.096 104.5 183.096C103.119 183.096 102 184.077 102 185.286C102 186.496 103.119 187.476 104.5 187.476Z" fill="white"/>
<path fill-rule="evenodd" clip-rule="evenodd" d="M458.5 168.203C459.328 168.203 460 167.615 460 166.889C460 166.164 459.328 165.575 458.5 165.575C457.672 165.575 457 166.164 457 166.889C457 167.615 457.672 168.203 458.5 168.203Z" fill="white"/>
<path fill-rule="evenodd" clip-rule="evenodd" d="M1093.5 140.169C1094.33 140.169 1095 139.581 1095 138.855C1095 138.13 1094.33 137.541 1093.5 137.541C1092.67 137.541 1092 138.13 1092 138.855C1092 139.581 1092.67 140.169 1093.5 140.169Z" fill="white"/>
<path fill-rule="evenodd" clip-rule="evenodd" d="M1103.5 225.147C1104.33 225.147 1105 224.559 1105 223.833C1105 223.107 1104.33 222.519 1103.5 222.519C1102.67 222.519 1102 223.107 1102 223.833C1102 224.559 1102.67 225.147 1103.5 225.147Z" fill="white"/>
<path fill-rule="evenodd" clip-rule="evenodd" d="M1154.5 168.203C1155.33 168.203 1156 167.615 1156 166.889C1156 166.164 1155.33 165.575 1154.5 165.575C1153.67 165.575 1153 166.164 1153 166.889C1153 167.615 1153.67 168.203 1154.5 168.203Z" fill="white"/>
<path fill-rule="evenodd" clip-rule="evenodd" d="M1238.5 211.13C1239.88 211.13 1241 210.149 1241 208.94C1241 207.73 1239.88 206.75 1238.5 206.75C1237.12 206.75 1236 207.73 1236 208.94C1236 210.149 1237.12 211.13 1238.5 211.13Z" fill="white"/>
<path fill-rule="evenodd" clip-rule="evenodd" d="M1324.5 162.947C1325.33 162.947 1326 162.358 1326 161.633C1326 160.907 1325.33 160.319 1324.5 160.319C1323.67 160.319 1323 160.907 1323 161.633C1323 162.358 1323.67 162.947 1324.5 162.947Z" fill="white"/>
<path fill-rule="evenodd" clip-rule="evenodd" d="M1321.5 314.505C1322.33 314.505 1323 313.917 1323 313.191C1323 312.465 1322.33 311.877 1321.5 311.877C1320.67 311.877 1320 312.465 1320 313.191C1320 313.917 1320.67 314.505 1321.5 314.505Z" fill="white"/>
<path fill-rule="evenodd" clip-rule="evenodd" d="M398 464.311C399.105 464.311 400 463.527 400 462.559C400 461.591 399.105 460.807 398 460.807C396.895 460.807 396 461.591 396 462.559C396 463.527 396.895 464.311 398 464.311Z" fill="white"/>
<path fill-rule="evenodd" clip-rule="evenodd" d="M568.5 193.609C569.328 193.609 570 193.021 570 192.295C570 191.569 569.328 190.981 568.5 190.981C567.672 190.981 567 191.569 567 192.295C567 193.021 567.672 193.609 568.5 193.609Z" fill="white"/>
<path fill-rule="evenodd" clip-rule="evenodd" d="M587.5 118.268C588.328 118.268 589 117.68 589 116.954C589 116.228 588.328 115.64 587.5 115.64C586.672 115.64 586 116.228 586 116.954C586 117.68 586.672 118.268 587.5 118.268Z" fill="white"/>
<path fill-rule="evenodd" clip-rule="evenodd" d="M717.5 165.575C718.328 165.575 719 164.987 719 164.261C719 163.535 718.328 162.947 717.5 162.947C716.672 162.947 716 163.535 716 164.261C716 164.987 716.672 165.575 717.5 165.575Z" fill="white"/>
<path fill-rule="evenodd" clip-rule="evenodd" d="M455.5 68.3325C456.328 68.3325 457 67.7442 457 67.0184C457 66.2927 456.328 65.7043 455.5 65.7043C454.672 65.7043 454 66.2927 454 67.0184C454 67.7442 454.672 68.3325 455.5 68.3325Z" fill="white"/>
<path fill-rule="evenodd" clip-rule="evenodd" d="M940.5 196.237C941.328 196.237 942 195.649 942 194.923C942 194.197 941.328 193.609 940.5 193.609C939.672 193.609 939 194.197 939 194.923C939 195.649 939.672 196.237 940.5 196.237Z" fill="white"/>
<path fill-rule="evenodd" clip-rule="evenodd" d="M373 248.801C374.657 248.801 376 247.624 376 246.173C376 244.721 374.657 243.544 373 243.544C371.343 243.544 370 244.721 370 246.173C370 247.624 371.343 248.801 373 248.801Z" fill="white"/>
<path fill-rule="evenodd" clip-rule="evenodd" d="M1059.58 630.461C1186.78 660.213 1272.92 656.246 1332.19 730.211C1391.46 804.176 1340.47 867.181 1249.27 867.181C1158.06 867.181 1031.29 793.941 966.599 793.941C901.911 793.941 834.229 867.181 692.531 867.181C550.832 867.181 512.107 793.941 419.456 793.941C326.806 793.941 278.798 867.181 170.802 867.181C62.8054 867.181 23.0963 731.712 23.0963 696.989C23.0963 681.111 38.6431 595.337 250.214 587.707C461.786 580.077 616.479 645.816 735.297 651.228C873.067 657.504 994.391 615.216 1059.58 630.461Z" fill="#2B3780"/>
<path fill-rule="evenodd" clip-rule="evenodd" d="M1439.61 719.224C1439.61 719.224 1452.61 572.14 1037.31 572.14C860.818 572.14 642.668 638.061 430.672 677.91C310.12 700.57 213.481 647.137 125.754 677.91C38.026 708.683 47.1895 780.398 68.9519 811.751C90.7144 843.104 164.467 858.21 250.902 858.21C337.337 858.21 457.482 802.426 518.786 802.426C580.091 802.426 644.233 858.21 778.521 858.21C912.809 858.21 949.51 802.426 1037.31 802.426C1125.12 802.426 1170.62 858.21 1272.96 858.21C1375.31 858.21 1439.61 719.224 1439.61 719.224Z" fill="#2B3780" fill-opacity="0.222939"/>
<path fill-rule="evenodd" clip-rule="evenodd" d="M1437.65 727.335C1427.88 652.211 1326.91 572.14 1030.58 572.14C835.372 572.14 594.097 638.07 359.627 677.925C307.167 686.842 189.612 630.553 85.8281 660.844C-17.9557 691.136 -21.9652 794.099 43.5192 849.793C62.0966 865.593 84.5181 874.554 109.256 878.562C228.285 897.846 400.946 802.459 457.083 802.459C524.887 802.459 595.828 858.25 744.352 858.25C892.875 858.25 933.466 802.459 1030.58 802.459C1127.69 802.459 1178.01 858.25 1291.21 858.25C1404.41 858.25 1447.42 802.459 1437.65 727.335Z" fill="#52489C" fill-opacity="0.156278"/>
<path d="M1046.63 715.346C1046.18 714.433 1045.73 713.514 1045.3 712.592C1045.73 713.515 1046.18 714.433 1046.63 715.346Z" fill="#FF4F19"/>
<path d="M1044.91 711.766C1044.49 710.869 1044.08 709.969 1043.67 709.064C1044.08 709.969 1044.49 710.869 1044.91 711.766Z" fill="#FF4F19"/>
<path d="M1043.27 708.153C1042.88 707.262 1042.49 706.369 1042.12 705.47C1042.49 706.369 1042.88 707.262 1043.27 708.153Z" fill="#FF4F19"/>
<path d="M1041.73 704.521C1041.36 703.622 1040.99 702.722 1040.64 701.815C1040.99 702.722 1041.36 703.622 1041.73 704.521Z" fill="#FF4F19"/>
<path d="M1048.44 718.888C1047.95 717.945 1047.46 716.996 1046.98 716.044C1047.46 716.997 1047.95 717.945 1048.44 718.888Z" fill="#FF4F19"/>
<path d="M1050.33 722.382C1049.78 721.394 1049.24 720.4 1048.71 719.401C1049.24 720.4 1049.78 721.394 1050.33 722.382Z" fill="#FF4F19"/>
<path d="M1031.14 666.857C1031.03 666.219 1030.94 665.58 1030.84 664.939C1030.94 665.58 1031.03 666.219 1031.14 666.857Z" fill="#FF4F19"/>
<path d="M1225.43 471.31C1226.4 471.454 1227.36 471.611 1228.32 471.77C1227.36 471.611 1226.4 471.454 1225.43 471.31Z" fill="#FF4F19"/>
<path d="M1229.52 471.969C1230.55 472.148 1231.57 472.34 1232.6 472.537C1231.57 472.34 1230.55 472.147 1229.52 471.969Z" fill="#FF4F19"/>
<path d="M1029.31 650.049C1029.28 649.486 1029.24 648.925 1029.21 648.36C1029.24 648.925 1029.28 649.486 1029.31 650.049Z" fill="#FF4F19"/>
<path d="M1029.1 645.564C1029.09 645.09 1029.07 644.618 1029.05 644.143C1029.07 644.617 1029.09 645.089 1029.1 645.564Z" fill="#FF4F19"/>
<path d="M1221.3 470.748C1222.21 470.859 1223.1 470.985 1224 471.111C1223.1 470.985 1222.21 470.859 1221.3 470.748Z" fill="#FF4F19"/>
<path d="M1204.35 469.489C1204.9 469.503 1205.44 469.53 1205.98 469.549C1205.44 469.53 1204.9 469.503 1204.35 469.489Z" fill="#FF4F19"/>
<path d="M1208.65 469.65C1209.33 469.684 1210.01 469.733 1210.69 469.774C1210.01 469.733 1209.33 469.684 1208.65 469.65Z" fill="#FF4F19"/>
<path d="M1233.55 472.718C1234.64 472.935 1235.74 473.166 1236.82 473.405C1235.74 473.167 1234.64 472.935 1233.55 472.718Z" fill="#FF4F19"/>
<path d="M1237.53 473.557C1238.69 473.817 1239.85 474.09 1241 474.373C1239.85 474.091 1238.69 473.817 1237.53 473.557Z" fill="#FF4F19"/>
<path d="M1241.45 474.482C1242.69 474.789 1243.92 475.109 1245.14 475.443C1243.92 475.11 1242.69 474.789 1241.45 474.482Z" fill="#FF4F19"/>
<path d="M1030.53 662.733C1030.45 662.104 1030.36 661.475 1030.29 660.844C1030.36 661.475 1030.45 662.104 1030.53 662.733Z" fill="#FF4F19"/>
<path d="M1030.02 658.566C1029.96 657.948 1029.89 657.332 1029.83 656.712C1029.89 657.332 1029.96 657.948 1030.02 658.566Z" fill="#FF4F19"/>
<path d="M1029.62 654.347C1029.57 653.748 1029.51 653.151 1029.47 652.551C1029.51 653.151 1029.57 653.749 1029.62 654.347Z" fill="#FF4F19"/>
<path d="M1212.91 469.915C1213.67 469.971 1214.44 470.043 1215.2 470.111C1214.44 470.043 1213.67 469.971 1212.91 469.915Z" fill="#FF4F19"/>
<path d="M1034.51 682.962C1034.33 682.283 1034.17 681.6 1034 680.917C1034.17 681.6 1034.33 682.283 1034.51 682.962Z" fill="#FF4F19"/>
<path d="M1040.3 700.924C1039.94 699.988 1039.58 699.05 1039.23 698.106C1039.58 699.05 1039.94 699.987 1040.3 700.924Z" fill="#FF4F19"/>
<path d="M1035.59 686.894C1035.38 686.176 1035.19 685.452 1034.99 684.73C1035.19 685.452 1035.38 686.176 1035.59 686.894Z" fill="#FF4F19"/>
<path d="M1033.52 678.99C1033.37 678.329 1033.22 677.664 1033.07 677C1033.22 677.664 1033.37 678.329 1033.52 678.99Z" fill="#FF4F19"/>
<path d="M1039.05 697.595C1037.95 694.525 1036.93 691.414 1035.99 688.265C1036.93 691.413 1037.95 694.525 1039.05 697.595Z" fill="#FF4F19"/>
<path d="M1032.63 674.985C1032.5 674.332 1032.37 673.677 1032.24 673.022C1032.37 673.677 1032.5 674.332 1032.63 674.985Z" fill="#FF4F19"/>
<path d="M1031.84 670.939C1031.72 670.295 1031.6 669.649 1031.49 669.001C1031.6 669.649 1031.72 670.294 1031.84 670.939Z" fill="#FF4F19"/>
<path d="M1217.13 470.281C1217.96 470.364 1218.8 470.461 1219.63 470.556C1218.8 470.461 1217.96 470.364 1217.13 470.281Z" fill="#FF4F19"/>
<path fill-rule="evenodd" clip-rule="evenodd" d="M1317.59 516.175C1297.49 497.191 1272.79 483.006 1245.31 475.49C1317.78 495.28 1371.04 561.385 1371.04 639.9C1371.04 734.046 1294.47 810.366 1200.02 810.366C1135.69 810.366 1079.67 774.96 1050.47 722.637C1068.95 755.723 1098.16 782.029 1133.42 796.898L1133.41 796.898L1133.39 796.898C1133.38 796.898 1133.37 796.898 1133.36 796.899L1133.33 796.9L1133.32 796.9C1133.31 796.9 1133.3 796.9 1133.3 796.899C1137 798.463 1140.78 799.87 1144.61 801.164C1144.95 801.279 1145.28 801.389 1145.62 801.502L1146.08 801.654C1146.8 801.893 1147.52 802.132 1148.25 802.36C1149.67 802.807 1151.09 803.238 1152.52 803.65C1152.55 803.657 1152.57 803.665 1152.6 803.672L1152.6 803.672L1152.6 803.671L1152.6 803.671C1161.26 806.156 1170.19 807.982 1179.36 809.083C1175.3 805.249 1171.43 801.216 1167.76 797.006C1167.76 797.005 1167.76 797.005 1167.76 797.004L1167.76 797.003C1178.92 791.954 1190.2 787.144 1199.78 787.631C1224.05 788.669 1236.57 781.488 1237.1 781.177C1239.8 779.607 1240.71 776.167 1239.15 773.459C1237.6 770.757 1234.12 769.824 1231.39 771.339C1231.29 771.4 1220.8 777.177 1200.26 776.278C1187.2 775.773 1173.59 781.87 1160.35 787.877C1138.75 759.349 1125.91 723.858 1125.91 685.357C1125.91 683.371 1125.96 681.397 1126.03 679.428C1138.24 681.471 1151.18 682.956 1164.46 683.947C1164.48 683.953 1164.5 683.964 1164.52 683.975C1164.53 683.982 1164.55 683.989 1164.56 683.994C1164.57 683.998 1164.58 684.001 1164.59 684.003L1195.79 690.878C1197.9 691.478 1198.4 693.22 1198.51 693.941C1198.62 694.657 1198.68 696.461 1196.86 697.676C1194.77 699.064 1193.84 701.655 1194.56 704.052C1195.29 706.449 1197.51 708.087 1200.02 708.087C1235.55 708.087 1269.55 704.302 1298.31 697.133C1300.83 696.511 1302.6 694.275 1302.63 691.689C1302.67 689.109 1300.95 686.834 1298.45 686.146L1286.84 682.955L1298 674.615C1298.03 674.585 1298.06 674.548 1298.09 674.51C1298.12 674.475 1298.14 674.441 1298.18 674.412C1304.35 672.877 1310.27 671.213 1315.81 669.399C1318.8 668.416 1320.43 665.209 1319.45 662.229C1318.46 659.244 1315.25 657.612 1312.26 658.6C1303.75 661.386 1294.37 663.849 1284.37 665.936C1259.01 671.208 1229.85 673.993 1200.02 673.993C1174.55 673.993 1149.37 671.937 1126.78 668.038C1126.79 668.029 1126.79 668.019 1126.79 668.009L1126.79 667.94C1135.55 581.976 1208.38 514.892 1296.93 514.892C1303.93 514.892 1310.82 515.36 1317.59 516.175ZM1222.39 634.217C1222.55 634.221 1222.71 634.225 1222.82 634.218C1225.93 634.218 1228.47 631.732 1228.52 628.63C1228.57 625.489 1226.06 622.903 1222.92 622.854C1211.76 622.539 1204.87 626.06 1198.69 629.218L1198.68 629.223L1198.63 629.248L1198.31 629.411L1197.96 629.59C1190.85 633.208 1184.72 636.321 1172.45 634.295C1169.33 633.746 1166.41 635.871 1165.89 638.968C1165.38 642.058 1167.48 644.988 1170.58 645.504C1173.92 646.059 1176.94 646.303 1179.72 646.303C1190.18 646.303 1196.99 642.843 1203.14 639.714L1203.14 639.711L1203.14 639.711C1208.93 636.765 1213.95 634.212 1222.09 634.212C1222.19 634.212 1222.29 634.215 1222.39 634.217L1222.39 634.217ZM1267.21 626.366C1262.09 632.858 1249.63 634.013 1245.93 634.212C1245.83 634.218 1245.73 634.218 1245.62 634.218C1242.61 634.218 1240.1 631.876 1239.94 628.846C1239.76 625.717 1242.17 623.036 1245.31 622.864C1250.77 622.553 1257.06 620.844 1258.25 619.341C1260.19 616.877 1263.77 616.438 1266.25 618.386C1268.72 620.323 1269.16 623.897 1267.21 626.366ZM1171.52 708.086C1173 708.086 1174.48 707.459 1175.56 706.383C1176.64 705.356 1177.22 703.88 1177.22 702.404C1177.22 700.928 1176.64 699.446 1175.56 698.369C1173.4 696.266 1169.58 696.266 1167.47 698.369C1166.44 699.446 1165.82 700.928 1165.82 702.404C1165.82 703.88 1166.44 705.356 1167.47 706.438C1168.55 707.459 1170.04 708.086 1171.52 708.086ZM1249.67 734.793C1248.59 735.87 1247.11 736.497 1245.62 736.497C1244.14 736.497 1242.66 735.869 1241.58 734.849C1240.55 733.767 1239.92 732.29 1239.92 730.814C1239.92 729.339 1240.55 727.857 1241.58 726.78C1243.69 724.677 1247.51 724.677 1249.67 726.78C1250.75 727.857 1251.32 729.339 1251.32 730.814C1251.32 732.29 1250.75 733.767 1249.67 734.793ZM1291.23 611.418C1292.71 611.418 1294.19 610.792 1295.28 609.715C1296.36 608.688 1296.93 607.212 1296.93 605.736C1296.93 604.26 1296.36 602.778 1295.28 601.701C1293.11 599.598 1289.29 599.598 1287.18 601.701C1286.15 602.778 1285.53 604.26 1285.53 605.736C1285.53 607.212 1286.15 608.688 1287.18 609.77C1288.26 610.791 1289.75 611.418 1291.23 611.418ZM1318.08 632.514C1316.99 633.591 1315.51 634.217 1314.03 634.217C1312.55 634.217 1311.07 633.59 1309.98 632.569C1308.96 631.488 1308.33 630.011 1308.33 628.535C1308.33 627.059 1308.96 625.577 1309.98 624.501C1312.09 622.397 1315.91 622.397 1318.08 624.501C1319.16 625.577 1319.73 627.059 1319.73 628.535C1319.73 630.011 1319.16 631.488 1318.08 632.514ZM1291.22 562.291C1291.64 562.291 1292.07 562.247 1292.49 562.147C1311.84 557.743 1328.65 552.236 1342.62 545.816C1340.47 542.583 1338.21 539.433 1335.84 536.359C1322.97 542.074 1307.63 547.042 1289.96 551.071C1286.88 551.77 1284.97 554.816 1285.67 557.874C1286.27 560.51 1288.62 562.291 1291.22 562.291Z" fill="#957FEF"/>
<path fill-rule="evenodd" clip-rule="evenodd" d="M1133.36 796.899C1133.38 796.898 1133.4 796.897 1133.42 796.898C1098.16 782.029 1068.95 755.723 1050.48 722.636L1050.42 722.541L1050.33 722.381C1049.78 721.393 1049.25 720.398 1048.72 719.399L1048.61 719.206C1048.56 719.1 1048.5 718.993 1048.44 718.886C1047.95 717.944 1047.46 716.995 1046.98 716.042C1046.88 715.843 1046.78 715.642 1046.68 715.442L1046.64 715.346C1046.18 714.432 1045.74 713.514 1045.3 712.591C1045.21 712.401 1045.12 712.211 1045.03 712.021L1044.91 711.765C1044.49 710.868 1044.08 709.968 1043.68 709.063C1043.59 708.869 1043.5 708.675 1043.42 708.481L1043.42 708.48C1043.37 708.371 1043.32 708.261 1043.28 708.152C1042.88 707.261 1042.5 706.368 1042.12 705.469C1042.04 705.284 1041.97 705.099 1041.89 704.913C1041.84 704.782 1041.79 704.651 1041.73 704.52C1041.36 703.622 1040.99 702.721 1040.64 701.815C1040.57 701.64 1040.5 701.464 1040.44 701.288L1040.44 701.288C1040.39 701.166 1040.35 701.045 1040.3 700.923C1039.94 699.987 1039.58 699.05 1039.24 698.106C1039.2 698.014 1039.17 697.922 1039.14 697.83C1039.11 697.752 1039.08 697.673 1039.06 697.594C1037.95 694.525 1036.93 691.413 1036 688.264C1035.94 688.088 1035.89 687.913 1035.84 687.737L1035.84 687.736L1035.84 687.736C1035.75 687.456 1035.67 687.176 1035.59 686.894C1035.43 686.358 1035.29 685.82 1035.14 685.281L1035.14 685.28L1035.14 685.277C1035.09 685.095 1035.04 684.912 1034.99 684.73C1034.95 684.576 1034.91 684.422 1034.86 684.268C1034.74 683.833 1034.62 683.399 1034.51 682.962C1034.36 682.395 1034.22 681.825 1034.08 681.255L1034.08 681.254L1034 680.917L1033.91 680.577L1033.91 680.577C1033.78 680.049 1033.65 679.521 1033.53 678.99C1033.4 678.445 1033.28 677.898 1033.15 677.351L1033.15 677.35L1033.08 677C1032.93 676.329 1032.78 675.658 1032.63 674.985C1032.5 674.332 1032.37 673.677 1032.24 673.022C1032.1 672.328 1031.97 671.635 1031.84 670.939C1031.72 670.295 1031.61 669.649 1031.49 669.002C1031.37 668.288 1031.25 667.573 1031.14 666.856C1031.04 666.219 1030.94 665.579 1030.84 664.939C1030.73 664.205 1030.63 663.47 1030.53 662.733C1030.45 662.105 1030.36 661.475 1030.29 660.844C1030.19 660.086 1030.11 659.326 1030.03 658.565L1030.01 658.402C1029.95 657.839 1029.88 657.277 1029.83 656.712C1029.76 655.968 1029.69 655.221 1029.63 654.473L1029.62 654.347C1029.61 654.205 1029.59 654.063 1029.58 653.921L1029.58 653.919C1029.54 653.464 1029.5 653.008 1029.47 652.551C1029.41 651.76 1029.36 650.967 1029.32 650.173L1029.32 650.172L1029.31 650.049C1029.3 649.869 1029.29 649.69 1029.28 649.51L1029.28 649.51L1029.28 649.51C1029.25 649.127 1029.23 648.744 1029.21 648.36C1029.17 647.431 1029.13 646.497 1029.1 645.564L1029.1 645.564C1029.1 645.368 1029.09 645.173 1029.08 644.977C1029.07 644.699 1029.06 644.421 1029.05 644.143C1029.02 642.732 1029 641.319 1029 639.9C1029 620.375 1032.3 601.62 1038.37 584.151C1037.35 587.118 1036.43 590.128 1035.56 593.163C1046.36 602.702 1063.03 611.32 1084.25 618.265C1084.84 618.459 1085.44 618.548 1086.03 618.548C1088.43 618.548 1090.66 617.033 1091.45 614.636C1092.43 611.655 1090.8 608.449 1087.81 607.466C1065.53 600.175 1048.94 591.185 1039.82 581.474C1039.75 581.406 1039.68 581.361 1039.6 581.316C1039.54 581.28 1039.48 581.244 1039.42 581.196C1063.43 515.975 1126.27 469.434 1200.02 469.434C1201.47 469.434 1202.91 469.454 1204.35 469.489C1204.68 469.497 1205.01 469.511 1205.34 469.524C1205.56 469.533 1205.77 469.541 1205.98 469.549C1206.16 469.555 1206.33 469.56 1206.5 469.566C1207.22 469.59 1207.94 469.614 1208.65 469.65C1209.12 469.673 1209.59 469.703 1210.05 469.733L1210.05 469.733C1210.27 469.747 1210.48 469.761 1210.69 469.774C1210.88 469.786 1211.07 469.797 1211.27 469.809L1211.27 469.809C1211.82 469.841 1212.37 469.874 1212.91 469.914C1213.48 469.957 1214.04 470.008 1214.61 470.058C1214.81 470.076 1215 470.093 1215.2 470.111C1215.41 470.129 1215.61 470.147 1215.82 470.164C1216.26 470.201 1216.69 470.238 1217.13 470.282C1217.86 470.354 1218.59 470.437 1219.32 470.521L1219.32 470.521L1219.63 470.557C1219.82 470.579 1220.02 470.601 1220.22 470.622L1220.22 470.622C1220.58 470.663 1220.94 470.703 1221.31 470.748C1222.2 470.858 1223.09 470.983 1223.98 471.108L1224 471.111C1224.18 471.136 1224.36 471.161 1224.54 471.186C1224.84 471.226 1225.14 471.267 1225.43 471.311C1226.4 471.454 1227.36 471.611 1228.32 471.771C1228.47 471.795 1228.61 471.819 1228.75 471.842C1229.01 471.883 1229.26 471.925 1229.52 471.969C1230.55 472.148 1231.57 472.339 1232.6 472.537C1232.73 472.562 1232.85 472.586 1232.98 472.61L1232.98 472.61C1233.17 472.646 1233.36 472.682 1233.55 472.719C1234.64 472.937 1235.74 473.167 1236.82 473.405C1236.92 473.425 1237.01 473.445 1237.1 473.464L1237.1 473.464C1237.24 473.495 1237.38 473.526 1237.53 473.558C1238.69 473.818 1239.85 474.091 1241 474.374L1241.15 474.41C1241.25 474.434 1241.35 474.458 1241.45 474.483C1242.69 474.79 1243.92 475.11 1245.14 475.444L1245.14 475.444C1245.2 475.459 1245.26 475.474 1245.31 475.489C1272.79 483.006 1297.49 497.191 1317.59 516.175C1310.82 515.36 1303.93 514.892 1296.93 514.892C1208.38 514.892 1135.55 581.976 1126.79 667.94C1126.01 667.805 1125.21 667.683 1124.42 667.562C1123.35 667.4 1122.29 667.239 1121.27 667.045C1118.18 666.462 1115.19 668.482 1114.61 671.568C1114.02 674.647 1116.05 677.622 1119.15 678.21C1120.94 678.551 1122.79 678.857 1124.63 679.163L1124.64 679.163L1124.64 679.164C1125.11 679.242 1125.59 679.321 1126.06 679.401C1126.19 675.574 1126.41 671.767 1126.79 668.009C1126.79 668.018 1126.78 668.028 1126.78 668.038C1149.37 671.937 1174.55 673.993 1200.02 673.993C1229.85 673.993 1259.01 671.208 1284.37 665.936C1294.37 663.85 1303.75 661.386 1312.26 658.6C1315.25 657.612 1318.46 659.244 1319.45 662.229C1320.43 665.209 1318.8 668.416 1315.81 669.399C1310.27 671.213 1304.34 672.877 1298.18 674.412C1298.14 674.441 1298.12 674.475 1298.09 674.51C1298.06 674.547 1298.03 674.585 1297.99 674.615L1286.84 682.955L1298.45 686.145C1300.95 686.834 1302.67 689.109 1302.63 691.689C1302.6 694.275 1300.83 696.511 1298.31 697.133C1269.55 704.302 1235.55 708.087 1200.02 708.087C1197.51 708.087 1195.29 706.45 1194.56 704.053C1193.83 701.656 1194.77 699.064 1196.86 697.677C1198.68 696.461 1198.62 694.658 1198.51 693.942C1198.39 693.22 1197.9 691.478 1195.79 690.879L1164.59 684.003C1164.56 683.998 1164.54 683.986 1164.52 683.975C1164.5 683.964 1164.48 683.953 1164.46 683.948C1151.18 682.957 1138.24 681.473 1126.03 679.428C1125.96 681.398 1125.91 683.372 1125.91 685.358C1125.91 723.858 1138.75 759.349 1160.35 787.878C1173.59 781.87 1187.2 775.773 1200.26 776.279C1220.8 777.178 1231.29 771.401 1231.39 771.34C1234.12 769.825 1237.6 770.757 1239.15 773.459C1240.7 776.167 1239.8 779.608 1237.1 781.178C1236.57 781.489 1224.05 788.669 1199.78 787.632C1190.2 787.144 1178.92 791.954 1167.76 797.004C1165.19 794.052 1162.75 790.986 1160.39 787.862L1160.19 787.951L1159.91 788.075C1150.11 792.525 1140.03 797.055 1133.42 796.893C1134.61 797.392 1135.8 797.858 1137 798.325L1137 798.326L1137.01 798.326L1137.01 798.329L1137.02 798.331C1137.25 798.421 1137.48 798.511 1137.71 798.602C1138.11 798.754 1138.5 798.909 1138.89 799.063C1139.8 799.424 1140.72 799.785 1141.65 800.117C1142.51 800.429 1143.38 800.718 1144.25 801.008C1144.6 801.124 1144.96 801.24 1145.3 801.358C1147.2 801.989 1149.1 802.604 1151.03 803.175C1151.5 803.316 1151.98 803.452 1152.45 803.587L1152.66 803.646C1156.55 802.082 1160.56 800.269 1164.64 798.418C1165.55 798.007 1166.46 797.595 1167.37 797.183L1167.76 797.006C1171.43 801.216 1175.3 805.248 1179.36 809.083C1170.19 807.982 1161.25 806.156 1152.6 803.671C1152.6 803.672 1152.59 803.672 1152.59 803.672C1152.58 803.669 1152.57 803.665 1152.56 803.661L1152.54 803.657C1152.53 803.654 1152.53 803.652 1152.52 803.65C1151.09 803.238 1149.66 802.807 1148.25 802.36C1147.52 802.132 1146.8 801.893 1146.08 801.654L1145.62 801.502C1145.51 801.465 1145.4 801.429 1145.29 801.393C1145.07 801.318 1144.84 801.242 1144.61 801.164C1140.78 799.87 1136.99 798.464 1133.29 796.899C1133.3 796.899 1133.31 796.9 1133.32 796.9C1133.33 796.9 1133.35 796.899 1133.36 796.899ZM1039.42 581.196C1039.07 582.149 1038.73 583.105 1038.4 584.065C1038.73 583.102 1039.07 582.144 1039.42 581.19L1039.42 581.196ZM1158.46 522.222C1156.3 520.119 1152.48 520.119 1150.37 522.222C1149.34 523.299 1148.71 524.78 1148.71 526.256C1148.71 527.732 1149.34 529.208 1150.37 530.291C1151.45 531.311 1152.93 531.938 1154.41 531.938C1155.9 531.938 1157.38 531.311 1158.46 530.235C1159.54 529.208 1160.11 527.732 1160.11 526.256C1160.11 524.78 1159.54 523.299 1158.46 522.222ZM1103.7 544.743C1108.12 537.827 1116 534.953 1121.32 538.323C1126.63 541.692 1127.36 550.03 1122.94 556.946C1118.53 563.862 1110.64 566.736 1105.33 563.367C1100.02 559.997 1099.29 551.659 1103.7 544.743ZM1075.15 650.885C1070.14 651.964 1067.23 658.117 1068.64 664.631C1070.06 671.143 1075.26 675.55 1080.26 674.472C1085.26 673.394 1088.18 667.24 1086.76 660.727C1085.35 654.214 1080.15 649.807 1075.15 650.885Z" fill="#7161EF"/>
<path d="M1222.92 622.854C1211.32 622.526 1204.33 626.344 1197.96 629.59C1190.85 633.208 1184.72 636.321 1172.45 634.295C1169.33 633.746 1166.41 635.872 1165.89 638.968C1165.38 642.059 1167.48 644.989 1170.58 645.504C1173.92 646.059 1176.95 646.303 1179.72 646.303C1190.19 646.303 1196.99 642.841 1203.14 639.711C1208.93 636.765 1213.95 634.212 1222.09 634.212C1222.34 634.212 1222.64 634.229 1222.82 634.218C1225.93 634.218 1228.47 631.732 1228.52 628.63C1228.57 625.49 1226.06 622.903 1222.92 622.854Z" fill="#B79CED"/>
<path d="M1266.25 618.387C1263.77 616.439 1260.19 616.877 1258.25 619.341C1257.06 620.845 1250.78 622.554 1245.31 622.865C1242.17 623.037 1239.76 625.718 1239.94 628.847C1240.1 631.877 1242.61 634.219 1245.62 634.219C1245.73 634.219 1245.83 634.219 1245.93 634.213C1249.63 634.014 1262.09 632.859 1267.21 626.367C1269.16 623.897 1268.72 620.323 1266.25 618.387Z" fill="#B79CED"/>
<path d="M1103.7 544.744C1099.28 551.66 1100.01 559.999 1105.32 563.368C1110.64 566.738 1118.52 563.863 1122.94 556.947C1127.35 550.031 1126.62 541.693 1121.31 538.323C1116 534.953 1108.11 537.828 1103.7 544.744Z" fill="#5448B1"/>
<path d="M1080.26 674.465C1085.27 673.387 1088.18 667.234 1086.76 660.721C1085.35 654.208 1080.15 649.802 1075.15 650.88C1070.14 651.958 1067.23 658.112 1068.65 664.625C1070.06 671.137 1075.26 675.543 1080.26 674.465Z" fill="#5448B1"/>
<path d="M1154.41 531.939C1155.9 531.939 1157.38 531.311 1158.46 530.235C1159.54 529.208 1160.12 527.732 1160.12 526.256C1160.12 524.781 1159.54 523.299 1158.46 522.222C1156.3 520.119 1152.48 520.119 1150.37 522.222C1149.34 523.299 1148.71 524.781 1148.71 526.256C1148.71 527.732 1149.34 529.208 1150.37 530.291C1151.45 531.311 1152.93 531.939 1154.41 531.939Z" fill="#5448B1"/>
<path d="M1287.18 601.702C1286.15 602.779 1285.53 604.261 1285.53 605.737C1285.53 607.213 1286.15 608.689 1287.18 609.771C1288.26 610.792 1289.75 611.419 1291.23 611.419C1292.71 611.419 1294.19 610.792 1295.28 609.716C1296.36 608.689 1296.93 607.213 1296.93 605.737C1296.93 604.26 1296.36 602.779 1295.28 601.702C1293.11 599.599 1289.29 599.599 1287.18 601.702Z" fill="#B79CED"/>
<path d="M1309.99 624.501C1308.96 625.578 1308.33 627.06 1308.33 628.536C1308.33 630.012 1308.96 631.488 1309.99 632.57C1311.07 633.592 1312.55 634.218 1314.03 634.218C1315.51 634.218 1316.99 633.591 1318.08 632.515C1319.16 631.488 1319.73 630.012 1319.73 628.536C1319.73 627.059 1319.16 625.578 1318.08 624.501C1315.91 622.398 1312.1 622.398 1309.99 624.501Z" fill="#B79CED"/>
<path d="M1167.47 698.37C1166.44 699.447 1165.82 700.928 1165.82 702.404C1165.82 703.88 1166.44 705.356 1167.47 706.439C1168.55 707.46 1170.04 708.086 1171.52 708.086C1173 708.086 1174.48 707.459 1175.56 706.383C1176.64 705.357 1177.22 703.881 1177.22 702.404C1177.22 700.928 1176.64 699.447 1175.56 698.37C1173.4 696.267 1169.58 696.267 1167.47 698.37Z" fill="#B79CED"/>
<path d="M1241.58 726.781C1240.55 727.858 1239.92 729.339 1239.92 730.815C1239.92 732.291 1240.55 733.767 1241.58 734.85C1242.66 735.871 1244.14 736.498 1245.63 736.498C1247.11 736.498 1248.59 735.87 1249.67 734.794C1250.75 733.768 1251.33 732.292 1251.33 730.815C1251.33 729.339 1250.75 727.858 1249.67 726.781C1247.51 724.678 1243.69 724.678 1241.58 726.781Z" fill="#B79CED"/>
<path d="M1114.61 671.569C1114.02 674.648 1116.05 677.622 1119.15 678.211C1121.41 678.64 1123.75 679.014 1126.06 679.402C1126.19 675.575 1126.41 671.768 1126.79 668.009C1126.79 667.987 1126.79 667.963 1126.79 667.941C1124.98 667.626 1123.06 667.385 1121.28 667.046C1118.18 666.463 1115.19 668.483 1114.61 671.569Z" fill="#5448B1"/>
<path d="M1084.25 618.265C1084.84 618.459 1085.44 618.547 1086.03 618.547C1088.43 618.547 1090.65 617.032 1091.45 614.635C1092.43 611.655 1090.8 608.448 1087.81 607.466C1065.53 600.174 1048.94 591.185 1039.82 581.474C1039.7 581.35 1039.54 581.301 1039.42 581.19C1039.07 582.143 1038.73 583.102 1038.4 584.065C1038.39 584.093 1038.38 584.121 1038.37 584.149C1037.35 587.117 1036.43 590.128 1035.56 593.161C1046.36 602.701 1063.03 611.32 1084.25 618.265Z" fill="#5448B1"/>
<path d="M1160.39 787.863C1160.23 787.934 1160.07 788.005 1159.91 788.076C1150.11 792.526 1140.03 797.055 1133.42 796.893C1134.84 797.49 1136.28 798.042 1137.71 798.602C1139.02 799.109 1140.32 799.642 1141.65 800.117C1142.85 800.554 1144.08 800.947 1145.3 801.358C1147.2 801.989 1149.1 802.604 1151.03 803.175C1151.57 803.337 1152.11 803.491 1152.66 803.646C1156.55 802.082 1160.56 800.27 1164.64 798.419C1165.68 797.948 1166.72 797.477 1167.76 797.006C1167.76 797.005 1167.76 797.005 1167.76 797.004C1167.76 797.004 1167.76 797.004 1167.76 797.004C1165.19 794.053 1162.75 790.986 1160.39 787.863Z" fill="#5448B1"/>
<path d="M1335.84 536.359C1322.97 542.075 1307.63 547.042 1289.96 551.071C1286.88 551.77 1284.97 554.816 1285.67 557.874C1286.27 560.51 1288.62 562.291 1291.22 562.291C1291.64 562.291 1292.07 562.247 1292.49 562.147C1311.84 557.743 1328.65 552.236 1342.62 545.816C1340.47 542.583 1338.21 539.433 1335.84 536.359Z" fill="#B79CED"/>
<path fill-rule="evenodd" clip-rule="evenodd" d="M1201.57 487.416C1221.03 487.416 1243.15 490.933 1243.15 499.986C1243.15 509.04 1227.08 513.543 1201.57 513.543C1176.06 513.543 1160 508.259 1160 500.466C1160 492.673 1182.12 487.416 1201.57 487.416Z" fill="#5247AF"/>
<path fill-rule="evenodd" clip-rule="evenodd" d="M1202.07 354.455C1208.31 354.455 1214.31 367.429 1218.68 381.949C1218.89 382.641 1218.68 424.484 1218.68 429.74C1218.68 431.921 1224.13 456.417 1224.13 467.661C1224.13 478.904 1224.7 491.096 1218.68 491.096C1212.66 491.096 1215.03 467.661 1210.24 467.661C1209.06 467.661 1212.35 472.872 1210.24 474.564C1208.12 476.255 1206.29 474.564 1206.29 474.564C1206.29 474.564 1206.9 491.096 1201.69 491.096C1196.47 491.096 1196.69 474.564 1196.69 474.564C1196.69 474.564 1194.79 476.719 1192.41 474.564C1190.02 472.408 1193.59 467.661 1192.41 467.661C1188.74 467.661 1189.77 491.096 1184.43 491.096C1179.09 491.096 1179.12 478.687 1179.26 467.661C1179.46 452.229 1184.43 432.371 1184.43 429.74C1184.43 422.113 1181.19 400.213 1184.43 381.949C1187.09 367.003 1195.45 354.455 1202.07 354.455Z" fill="#D7B274"/>
<path fill-rule="evenodd" clip-rule="evenodd" d="M1202 262.148C1231.81 262.148 1255.98 289.602 1255.98 323.468C1255.98 357.335 1202 384.789 1202 384.789C1202 384.789 1148.03 357.335 1148.03 323.468C1148.03 289.602 1172.2 262.148 1202 262.148Z" fill="#F9CE85"/>
<path fill-rule="evenodd" clip-rule="evenodd" d="M1202.07 351.844C1208.18 351.844 1210.42 345.013 1210.42 345.013C1210.42 345.013 1235.32 326.173 1235.32 310.058C1235.32 289.464 1208.11 302.938 1202.07 302.938C1196.03 302.938 1168.81 289.464 1168.81 310.058C1168.81 326.251 1193.44 345.013 1193.44 345.013C1193.44 345.013 1195.96 351.844 1202.07 351.844Z" fill="#FADCA6"/>
<path fill-rule="evenodd" clip-rule="evenodd" d="M1166.84 284.508C1170.51 284.508 1170.48 280.812 1170.48 276.235C1170.48 271.658 1160.89 267.692 1160.89 267.692C1160.89 267.692 1157.17 271.658 1157.17 276.235C1157.17 280.812 1163.16 284.508 1166.84 284.508Z" fill="#F46577"/>
<path fill-rule="evenodd" clip-rule="evenodd" d="M1237.3 284.508C1233.63 284.508 1233.66 280.812 1233.66 276.235C1233.66 271.658 1243.25 267.692 1243.25 267.692C1243.25 267.692 1246.96 271.658 1246.96 276.235C1246.96 280.812 1240.97 284.508 1237.3 284.508Z" fill="#F46577"/>
<path fill-rule="evenodd" clip-rule="evenodd" d="M1216.86 313.663C1218.89 313.663 1219.73 315.808 1221.36 314.742C1223 313.676 1220.7 311.039 1216.86 311.039C1213.03 311.039 1211.11 313.631 1212.49 314.742C1213.88 315.852 1214.83 313.663 1216.86 313.663Z" fill="black"/>
<path fill-rule="evenodd" clip-rule="evenodd" d="M1186.93 313.663C1188.96 313.663 1189.8 315.808 1191.43 314.742C1193.07 313.676 1190.77 311.039 1186.93 311.039C1183.1 311.039 1181.18 313.631 1182.56 314.742C1183.95 315.852 1184.9 313.663 1186.93 313.663Z" fill="black"/>
<path fill-rule="evenodd" clip-rule="evenodd" d="M1226.84 321.811C1228.68 321.811 1230.17 320.883 1230.17 319.739C1230.17 318.595 1228.68 317.668 1226.84 317.668C1225 317.668 1223.52 318.595 1223.52 319.739C1223.52 320.883 1225 321.811 1226.84 321.811Z" fill="#FFBDFB"/>
<path fill-rule="evenodd" clip-rule="evenodd" d="M1177.13 321.811C1178.96 321.811 1180.45 320.883 1180.45 319.739C1180.45 318.595 1178.96 317.668 1177.13 317.668C1175.29 317.668 1173.8 318.595 1173.8 319.739C1173.8 320.883 1175.29 321.811 1177.13 321.811Z" fill="#FFBDFB"/>
<path fill-rule="evenodd" clip-rule="evenodd" d="M1178.65 383.107C1182.02 383.107 1183.69 381.747 1183.69 380.069C1183.69 378.391 1182.02 377.031 1178.65 377.031C1175.29 377.031 1172.99 378.838 1172.99 380.515C1172.99 382.193 1175.29 383.107 1178.65 383.107Z" fill="#D7B274"/>
<path fill-rule="evenodd" clip-rule="evenodd" d="M1230.17 380.4C1230.17 377.883 1225.56 376.694 1225.56 376.694V382.955H1220.68C1220.68 382.955 1220.79 377.61 1220.68 377.705C1219.82 378.46 1219.46 379.391 1219.46 380.4C1219.46 381.347 1220.68 382.955 1220.68 382.955H1225.56C1225.56 382.955 1230.17 382.917 1230.17 380.4Z" fill="#D7B274"/>
<path fill-rule="evenodd" clip-rule="evenodd" d="M1202.01 325.604C1207.41 325.604 1212.17 321.672 1212.17 319.384C1212.17 317.096 1192.09 317.096 1192.09 319.384C1192.09 321.672 1196.62 325.604 1202.01 325.604Z" fill="#E13A3A"/>
<path fill-rule="evenodd" clip-rule="evenodd" d="M1202.41 325.603C1202.92 325.586 1203.67 325.49 1203.88 325.45C1204.14 325.4 1205.15 325.295 1205.15 324.91C1205.15 324.526 1204.01 323.236 1202.17 323.236C1200.34 323.236 1199.13 324.574 1199.2 325.002C1199.27 325.431 1200.37 325.486 1200.58 325.513C1201.18 325.591 1201.9 325.619 1202.41 325.603Z" fill="#FFE5D9"/>
<path d="M1225.54 387.693H1220.71V374.839C1220.71 372.91 1219.96 371.096 1218.59 369.734L1211.75 362.93L1215.17 359.528L1222 366.332C1224.29 368.604 1225.54 371.625 1225.54 374.839V387.693Z" fill="#959CB5"/>
<path d="M1233.98 382.961H1168.73C1167.35 382.961 1166.32 384.093 1166.32 385.364C1166.32 385.658 1166.32 389.417 1166.32 390.171H1236.39C1236.39 389.417 1236.39 385.658 1236.39 385.364C1236.39 384.093 1235.36 382.961 1233.98 382.961Z" fill="#919FEC"/>
<path d="M1233.98 387.692H1168.73C1167.03 387.692 1165.86 389.415 1166.49 390.999L1174.21 410.285C1174.58 411.201 1175.47 411.801 1176.45 411.801H1226.26C1227.25 411.801 1228.13 411.201 1228.5 410.285L1236.22 390.999C1236.85 389.415 1235.69 387.692 1233.98 387.692Z" fill="#A66464"/>
<path d="M1218.54 493.59H1184.63V404.52C1184.63 403.19 1185.71 402.113 1187.05 402.113H1216.11C1217.45 402.113 1218.54 403.19 1218.54 404.52V493.59H1218.54Z" fill="#919FEC"/>
<path d="M1208.69 363.297L1205.26 359.883C1203.37 357.998 1203.37 354.942 1205.26 353.056C1207.15 351.171 1210.22 351.171 1212.11 353.056L1215.54 356.47C1217.43 358.355 1217.43 361.412 1215.54 363.297C1213.64 365.182 1210.58 365.182 1208.69 363.297Z" fill="#5B5D6E"/>
<path d="M1228.1 500.8H1174.84C1173.51 500.8 1172.42 499.716 1172.42 498.378V493.534C1172.42 492.196 1173.51 491.112 1174.84 491.112H1228.1C1229.43 491.112 1230.52 492.196 1230.52 493.534V498.378C1230.52 499.716 1229.43 500.8 1228.1 500.8Z" fill="#C78886"/>
<path d="M80.2787 699.157C79.9631 698.521 79.6525 697.881 79.3478 697.239C79.652 697.882 79.9631 698.521 80.2787 699.157Z" fill="#FF4F19"/>
<path d="M79.0784 696.663C78.7867 696.039 78.4989 695.412 78.2175 694.782C78.4984 695.413 78.7867 696.039 79.0784 696.663Z" fill="#FF4F19"/>
<path d="M77.9391 694.148C77.6667 693.528 77.3968 692.906 77.1348 692.28C77.3968 692.906 77.6667 693.527 77.9391 694.148Z" fill="#FF4F19"/>
<path d="M76.8639 691.619C76.6064 690.993 76.3504 690.366 76.1033 689.735C76.3504 690.366 76.6064 690.993 76.8639 691.619Z" fill="#FF4F19"/>
<path fill-rule="evenodd" clip-rule="evenodd" d="M268.956 560.469C254.96 547.25 237.755 537.373 218.624 532.138C269.085 545.919 306.171 591.95 306.171 646.622C306.171 712.178 252.854 765.321 187.085 765.321C142.293 765.321 103.284 740.667 82.9532 704.234C95.8174 727.272 116.16 745.59 140.709 755.943C140.692 755.943 140.674 755.944 140.657 755.944C140.646 755.944 140.635 755.944 140.624 755.944C143.2 757.033 145.833 758.013 148.502 758.914C148.647 758.963 148.793 759.012 148.939 759.06C149.028 759.089 149.118 759.119 149.207 759.149L149.528 759.255L149.53 759.256C150.031 759.422 150.533 759.588 151.037 759.746C152.023 760.058 153.014 760.358 154.01 760.645C154.028 760.65 154.045 760.655 154.063 760.66C154.063 760.66 154.064 760.659 154.065 760.659C160.094 762.39 166.317 763.661 172.698 764.428C169.871 761.758 167.176 758.95 164.622 756.018L164.623 756.018C164.623 756.018 164.624 756.018 164.624 756.017L164.623 756.016C172.391 752.5 180.25 749.151 186.92 749.49C203.821 750.213 212.539 745.213 212.904 744.997C214.788 743.903 215.416 741.508 214.334 739.622C213.252 737.741 210.83 737.091 208.93 738.146C208.86 738.189 201.553 742.211 187.253 741.585C178.161 741.233 168.679 745.479 159.463 749.662C144.419 729.797 135.482 705.083 135.482 678.274C135.482 676.892 135.515 675.517 135.562 674.146C144.064 675.569 153.076 676.602 162.324 677.293C162.356 677.301 162.38 677.324 162.412 677.331L184.14 682.119C185.613 682.536 185.954 683.749 186.032 684.252C186.109 684.751 186.156 686.006 184.884 686.852C183.43 687.819 182.779 689.623 183.287 691.292C183.794 692.962 185.337 694.102 187.085 694.102C211.829 694.102 235.499 691.466 255.529 686.474C257.281 686.041 258.514 684.484 258.537 682.684C258.561 680.887 257.363 679.303 255.622 678.823L247.54 676.602L255.308 670.794C255.313 670.79 255.318 670.786 255.323 670.782C255.327 670.778 255.331 670.775 255.334 670.771C255.339 670.766 255.344 670.761 255.348 670.755C255.357 670.744 255.366 670.733 255.374 670.721C255.392 670.697 255.41 670.673 255.434 670.653C259.731 669.584 263.853 668.425 267.713 667.162C269.798 666.478 270.93 664.245 270.248 662.17C269.562 660.091 267.321 658.955 265.239 659.643C259.316 661.583 252.784 663.298 245.818 664.751C228.164 668.422 207.855 670.362 187.085 670.362C169.348 670.362 151.814 668.93 136.09 666.215C136.091 666.208 136.091 666.201 136.092 666.194L136.096 666.146C142.191 606.288 192.906 559.575 254.567 559.575C259.441 559.575 264.235 559.901 268.956 560.469ZM202.66 642.665H202.661H202.661C202.774 642.667 202.884 642.67 202.964 642.665C205.126 642.665 206.898 640.934 206.933 638.774C206.968 636.587 205.22 634.786 203.029 634.752C195.257 634.532 190.46 636.985 186.158 639.184C185.988 639.27 185.82 639.357 185.651 639.442C180.698 641.962 176.429 644.13 167.889 642.719C165.719 642.336 163.68 643.816 163.323 645.972C162.962 648.124 164.424 650.164 166.587 650.524C168.913 650.91 171.017 651.08 172.948 651.08C180.237 651.08 184.973 648.671 189.256 646.492L189.26 646.49L189.261 646.49C193.292 644.438 196.785 642.661 202.456 642.661C202.521 642.661 202.591 642.663 202.66 642.665ZM233.871 637.197C230.308 641.718 221.629 642.522 219.055 642.661C219.027 642.662 219 642.663 218.973 642.664C218.928 642.665 218.884 642.665 218.838 642.665C216.744 642.665 214.996 641.034 214.879 638.924C214.759 636.745 216.434 634.879 218.62 634.759C222.427 634.542 226.803 633.352 227.629 632.305C228.982 630.59 231.475 630.285 233.203 631.641C234.925 632.989 235.227 635.478 233.871 637.197ZM167.238 694.101C168.269 694.101 169.301 693.665 170.056 692.915C170.808 692.2 171.207 691.172 171.207 690.144C171.207 689.117 170.808 688.085 170.056 687.335C168.548 685.871 165.889 685.871 164.42 687.335C163.703 688.085 163.268 689.117 163.268 690.144C163.268 691.172 163.703 692.2 164.42 692.954C165.172 693.664 166.207 694.101 167.238 694.101ZM221.659 712.698C220.904 713.448 219.872 713.884 218.841 713.884C217.81 713.884 216.775 713.448 216.023 712.737C215.306 711.984 214.872 710.955 214.872 709.928C214.872 708.9 215.306 707.868 216.023 707.118C217.492 705.654 220.151 705.654 221.659 707.118C222.411 707.868 222.81 708.9 222.81 709.928C222.81 710.955 222.412 711.984 221.659 712.698ZM250.597 626.789C251.628 626.789 252.66 626.353 253.416 625.603C254.168 624.888 254.566 623.86 254.566 622.832C254.566 621.804 254.167 620.773 253.415 620.023C251.907 618.558 249.248 618.558 247.779 620.023C247.062 620.773 246.628 621.804 246.628 622.832C246.628 623.86 247.062 624.888 247.779 625.641C248.531 626.352 249.566 626.789 250.597 626.789ZM269.294 641.479C268.538 642.228 267.506 642.665 266.475 642.665C265.444 642.665 264.409 642.228 263.657 641.517C262.94 640.764 262.506 639.736 262.506 638.708C262.506 637.68 262.94 636.648 263.657 635.899C265.126 634.434 267.785 634.434 269.293 635.899C270.045 636.648 270.444 637.68 270.444 638.708C270.444 639.736 270.046 640.764 269.294 641.479ZM250.59 592.581C250.884 592.581 251.179 592.55 251.477 592.48C264.947 589.414 276.655 585.579 286.382 581.109C284.884 578.857 283.307 576.664 281.663 574.523C272.697 578.503 262.019 581.962 249.71 584.768C247.57 585.254 246.237 587.376 246.725 589.505C247.144 591.34 248.78 592.581 250.59 592.581Z" fill="#A4D7FB"/>
<path d="M81.5375 701.623C81.1922 700.967 80.8538 700.306 80.5203 699.643C80.8538 700.306 81.1927 700.967 81.5375 701.623Z" fill="#FF4F19"/>
<path d="M82.8524 704.056C82.4699 703.368 82.0957 702.676 81.7266 701.98C82.0952 702.676 82.4704 703.368 82.8524 704.056Z" fill="#FF4F19"/>
<path d="M69.4892 665.392C69.4177 664.948 69.3487 664.503 69.2822 664.057C69.3487 664.503 69.4177 664.948 69.4892 665.392Z" fill="#FF4F19"/>
<path d="M204.782 529.229C205.454 529.329 206.123 529.439 206.792 529.551C206.123 529.44 205.454 529.329 204.782 529.229Z" fill="#FF4F19"/>
<path d="M207.625 529.687C208.342 529.813 209.056 529.947 209.769 530.086C209.056 529.948 208.342 529.812 207.625 529.687Z" fill="#FF4F19"/>
<path d="M68.2164 653.689C68.1929 653.297 68.1659 652.906 68.1464 652.513C68.1659 652.906 68.1934 653.297 68.2164 653.689Z" fill="#FF4F19"/>
<path d="M68.0727 650.566C68.0617 650.236 68.0457 649.907 68.0377 649.576C68.0457 649.906 68.0617 650.235 68.0727 650.566Z" fill="#FF4F19"/>
<path d="M201.907 528.837C202.534 528.915 203.159 529.003 203.783 529.092C203.159 529.003 202.534 528.915 201.907 528.837Z" fill="#FF4F19"/>
<path d="M190.102 527.96C190.482 527.97 190.859 527.989 191.238 528.002C190.859 527.989 190.482 527.97 190.102 527.96Z" fill="#FF4F19"/>
<path d="M193.094 528.073C193.569 528.097 194.041 528.131 194.513 528.16C194.041 528.131 193.569 528.097 193.094 528.073Z" fill="#FF4F19"/>
<path d="M210.432 530.209C211.195 530.361 211.955 530.523 212.714 530.691C211.955 530.524 211.195 530.361 210.432 530.209Z" fill="#FF4F19"/>
<path d="M213.202 530.793C214.013 530.974 214.819 531.164 215.623 531.361C214.819 531.165 214.013 530.974 213.202 530.793Z" fill="#FF4F19"/>
<path d="M215.935 531.437C216.796 531.651 217.653 531.874 218.506 532.106C217.653 531.874 216.796 531.651 215.935 531.437Z" fill="#FF4F19"/>
<path d="M69.0676 662.521C69.0081 662.083 68.9496 661.645 68.8951 661.206C68.9501 661.645 69.0086 662.083 69.0676 662.521Z" fill="#FF4F19"/>
<path d="M68.7146 659.619C68.6671 659.189 68.6191 658.76 68.5766 658.329C68.6191 658.76 68.6671 659.189 68.7146 659.619Z" fill="#FF4F19"/>
<path d="M68.4305 656.682C68.395 656.265 68.3575 655.849 68.3265 655.431C68.3575 655.849 68.3955 656.265 68.4305 656.682Z" fill="#FF4F19"/>
<path d="M196.061 528.257C196.593 528.296 197.123 528.347 197.654 528.394C197.123 528.347 196.593 528.296 196.061 528.257Z" fill="#FF4F19"/>
<path d="M71.8388 676.607C71.7143 676.134 71.5978 675.658 71.4788 675.183C71.5978 675.658 71.7143 676.134 71.8388 676.607Z" fill="#FF4F19"/>
<path d="M75.8666 689.114C75.6155 688.462 75.3659 687.81 75.1263 687.152C75.3659 687.81 75.6155 688.462 75.8666 689.114Z" fill="#FF4F19"/>
<path d="M72.5885 679.345C72.4435 678.845 72.3085 678.34 72.17 677.838C72.3085 678.341 72.444 678.845 72.5885 679.345Z" fill="#FF4F19"/>
<path d="M71.1527 673.841C71.0432 673.381 70.9407 672.918 70.8367 672.456C70.9407 672.918 71.0437 673.381 71.1527 673.841Z" fill="#FF4F19"/>
<path d="M75.0003 686.796C74.2287 684.659 73.5201 682.492 72.8701 680.299C73.5201 682.491 74.2292 684.659 75.0003 686.796Z" fill="#FF4F19"/>
<path d="M70.5327 671.052C70.4367 670.598 70.3452 670.141 70.2542 669.685C70.3452 670.142 70.4362 670.598 70.5327 671.052Z" fill="#FF4F19"/>
<path d="M69.9772 668.235C69.8937 667.787 69.8137 667.337 69.7357 666.886C69.8142 667.337 69.8942 667.786 69.9772 668.235Z" fill="#FF4F19"/>
<path d="M198.999 528.512C199.58 528.57 200.159 528.639 200.739 528.705C200.159 528.639 199.58 528.57 198.999 528.512Z" fill="#FF4F19"/>
<path fill-rule="evenodd" clip-rule="evenodd" d="M140.623 755.944C140.65 755.945 140.68 755.943 140.708 755.943C116.159 745.59 95.8169 727.272 82.9542 704.233L82.8544 704.055C82.4724 703.368 82.0977 702.675 81.7286 701.979L81.6578 701.846C81.6182 701.771 81.5787 701.697 81.5395 701.622C81.1942 700.966 80.8553 700.305 80.5223 699.642C80.4524 699.503 80.3833 699.364 80.3142 699.225L80.2802 699.156C79.9646 698.52 79.654 697.881 79.3493 697.238C79.2865 697.106 79.2247 696.973 79.1628 696.841L79.0799 696.663C78.7881 696.039 78.5004 695.412 78.219 694.782C78.1586 694.647 78.0995 694.511 78.0404 694.375C78.0072 694.299 77.974 694.223 77.9407 694.147C77.6682 693.527 77.3983 692.905 77.1363 692.279C77.0825 692.151 77.0299 692.021 76.9773 691.892C76.9402 691.801 76.903 691.71 76.8654 691.619C76.6079 690.993 76.3519 690.366 76.1048 689.735C76.0572 689.613 76.0109 689.49 75.9645 689.368C75.9325 689.283 75.9005 689.198 75.8681 689.114C75.617 688.462 75.3674 687.809 75.1278 687.152C75.1046 687.089 75.0824 687.025 75.0601 686.961L75.0597 686.96C75.0406 686.905 75.0214 686.85 75.0017 686.796C74.2302 684.659 73.5216 682.492 72.8716 680.299C72.8353 680.177 72.7983 680.054 72.7614 679.932C72.7023 679.737 72.6432 679.541 72.5868 679.345C72.4794 678.972 72.3776 678.597 72.2757 678.221C72.241 678.093 72.2064 677.966 72.1715 677.838C72.1421 677.731 72.1126 677.623 72.0831 677.516L72.0829 677.516C71.9997 677.213 71.9165 676.911 71.837 676.607C71.7338 676.212 71.6358 675.815 71.5377 675.418L71.4798 675.183L71.4211 674.946C71.3297 674.579 71.2383 674.211 71.1513 673.841C71.0617 673.462 70.9769 673.081 70.8921 672.7L70.892 672.699L70.8377 672.455C70.7335 671.989 70.6293 671.521 70.5311 671.052C70.4353 670.598 70.345 670.142 70.2547 669.685C70.1594 669.203 70.0651 668.72 69.9758 668.235C69.893 667.787 69.8141 667.337 69.7362 666.886C69.6503 666.389 69.5675 665.891 69.4881 665.392C69.4171 664.948 69.3486 664.503 69.2826 664.057C69.2072 663.546 69.1363 663.034 69.0673 662.521C69.0083 662.084 68.9502 661.645 68.8961 661.206C68.8311 660.678 68.7721 660.149 68.714 659.619L68.7015 659.505L68.7014 659.504C68.6584 659.113 68.6155 658.722 68.5771 658.329C68.5259 657.81 68.4818 657.29 68.4376 656.77L68.4376 656.769L68.4302 656.682L68.4048 656.384C68.3776 656.067 68.3504 655.749 68.327 655.431C68.2864 654.88 68.2539 654.328 68.2214 653.775L68.2163 653.689C68.2089 653.564 68.2011 653.439 68.1933 653.314C68.1767 653.047 68.16 652.781 68.1469 652.513C68.1151 651.866 68.0938 651.216 68.0724 650.566C68.0681 650.43 68.0628 650.293 68.0575 650.157L68.0575 650.157L68.0575 650.157C68.0499 649.964 68.0424 649.77 68.0377 649.576C68.0134 648.594 68 647.61 68 646.622C68 633.026 70.2998 619.966 74.5219 607.802C73.8148 609.869 73.1728 611.965 72.5694 614.078C80.0906 620.72 91.696 626.721 106.474 631.557C106.885 631.692 107.3 631.754 107.711 631.754C109.382 631.754 110.932 630.699 111.483 629.03C112.165 626.954 111.033 624.721 108.948 624.037C93.4376 618.96 81.8819 612.701 75.5322 605.939C75.4873 605.891 75.434 605.86 75.3806 605.828C75.3382 605.803 75.2959 605.778 75.2576 605.745C91.9716 560.33 135.729 527.922 187.085 527.922C188.094 527.922 189.099 527.936 190.103 527.96C190.333 527.966 190.562 527.975 190.791 527.985L190.791 527.985C190.94 527.991 191.089 527.997 191.238 528.002L191.597 528.014C192.097 528.031 192.597 528.047 193.095 528.072C193.422 528.088 193.747 528.109 194.072 528.13L194.072 528.131C194.22 528.14 194.367 528.15 194.514 528.159C194.648 528.167 194.783 528.175 194.917 528.183L194.917 528.183L194.917 528.183C195.299 528.206 195.682 528.229 196.062 528.257C196.457 528.286 196.851 528.322 197.245 528.357L197.247 528.357C197.383 528.369 197.519 528.381 197.655 528.393C197.799 528.406 197.944 528.418 198.088 528.431L198.089 528.431C198.393 528.456 198.697 528.482 198.999 528.512C199.509 528.563 200.015 528.621 200.522 528.679L200.739 528.704C200.875 528.719 201.012 528.734 201.148 528.75L201.149 528.75C201.402 528.778 201.655 528.806 201.907 528.837C202.531 528.914 203.151 529.001 203.771 529.088L203.784 529.09C203.91 529.107 204.036 529.125 204.162 529.142L204.163 529.142L204.163 529.142C204.37 529.17 204.577 529.198 204.783 529.229C205.454 529.329 206.124 529.438 206.792 529.55C206.892 529.566 206.992 529.582 207.092 529.599L207.092 529.599L207.094 529.599C207.271 529.628 207.449 529.656 207.625 529.687C208.343 529.812 209.057 529.945 209.77 530.083C209.859 530.1 209.949 530.117 210.039 530.134C210.17 530.159 210.301 530.184 210.432 530.209C211.195 530.361 211.955 530.521 212.714 530.688C212.777 530.701 212.84 530.715 212.903 530.728L212.903 530.729C213.003 530.75 213.103 530.772 213.203 530.794C214.013 530.975 214.82 531.165 215.624 531.362L215.728 531.387C215.797 531.404 215.866 531.421 215.935 531.438C216.796 531.652 217.653 531.875 218.506 532.107C218.545 532.117 218.585 532.128 218.624 532.139C237.755 537.373 254.959 547.25 268.956 560.469C264.235 559.902 259.441 559.576 254.567 559.576C192.906 559.576 142.191 606.288 136.096 666.147C135.553 666.053 134.997 665.968 134.442 665.884L134.442 665.884L134.441 665.884C133.701 665.771 132.962 665.659 132.253 665.524C130.097 665.118 128.019 666.524 127.612 668.673C127.201 670.817 128.616 672.889 130.771 673.298C132.023 673.536 133.308 673.749 134.593 673.962L134.593 673.962L134.594 673.962C134.925 674.017 135.256 674.072 135.587 674.127C135.679 671.462 135.827 668.812 136.092 666.195C136.091 666.201 136.09 666.208 136.09 666.215C151.814 668.93 169.348 670.362 187.085 670.362C207.855 670.362 228.164 668.422 245.817 664.751C252.783 663.299 259.315 661.583 265.239 659.643C267.321 658.955 269.561 660.091 270.247 662.17C270.93 664.245 269.798 666.478 267.712 667.162C263.853 668.426 259.73 669.584 255.434 670.654C255.428 670.659 255.422 670.664 255.417 670.669C255.401 670.685 255.388 670.703 255.374 670.721L255.374 670.722C255.354 670.748 255.335 670.774 255.307 670.795L247.539 676.602L255.622 678.824C257.362 679.303 258.56 680.887 258.537 682.684C258.513 684.485 257.28 686.042 255.528 686.474C235.499 691.467 211.829 694.102 187.085 694.102C185.337 694.102 183.794 692.962 183.286 691.293C182.779 689.624 183.43 687.819 184.883 686.853C186.155 686.007 186.108 684.751 186.031 684.253C185.953 683.75 185.612 682.537 184.139 682.12L162.411 677.332C162.395 677.328 162.381 677.32 162.367 677.313C162.353 677.305 162.339 677.297 162.324 677.293C153.076 676.604 144.064 675.57 135.561 674.146C135.514 675.518 135.482 676.892 135.482 678.275C135.482 705.084 144.419 729.797 159.462 749.663C168.678 745.479 178.16 741.234 187.252 741.586C201.552 742.212 208.859 738.189 208.929 738.147C210.829 737.092 213.251 737.741 214.333 739.623C215.415 741.508 214.787 743.904 212.903 744.997C212.538 745.214 203.82 750.214 186.919 749.491C180.249 749.152 172.39 752.501 164.622 756.017C162.832 753.962 161.135 751.827 159.487 749.652L159.283 749.744L159.159 749.8C152.329 752.899 145.313 756.053 140.712 755.94C141.536 756.287 142.371 756.613 143.206 756.938L143.207 756.938L143.207 756.938L143.214 756.941C143.376 757.004 143.538 757.067 143.7 757.13C143.973 757.236 144.245 757.343 144.518 757.451C145.155 757.702 145.792 757.953 146.438 758.185C147.038 758.402 147.645 758.603 148.253 758.805L148.254 758.805C148.498 758.886 148.742 758.967 148.986 759.049C150.306 759.489 151.631 759.917 152.97 760.314C153.348 760.426 153.727 760.534 154.106 760.642C156.818 759.553 159.609 758.291 162.45 757.002C163.081 756.715 163.715 756.428 164.349 756.141L164.621 756.019C167.175 758.95 169.87 761.758 172.697 764.428C166.316 763.661 160.092 762.39 154.064 760.66C154.063 760.66 154.062 760.661 154.062 760.661C154.053 760.658 154.044 760.655 154.035 760.653C154.027 760.65 154.018 760.647 154.009 760.645C153.013 760.358 152.022 760.058 151.036 759.747C150.531 759.588 150.029 759.422 149.527 759.255L149.206 759.149C149.13 759.124 149.054 759.099 148.978 759.074L148.976 759.073C148.817 759.021 148.659 758.968 148.501 758.914C145.832 758.013 143.199 757.034 140.623 755.944ZM75.2576 605.745C75.0135 606.408 74.7752 607.074 74.5428 607.743C74.7725 607.072 75.0087 606.405 75.2528 605.741L75.2576 605.745ZM158.147 564.68C156.639 563.215 153.98 563.215 152.511 564.68C151.794 565.429 151.36 566.461 151.36 567.489C151.36 568.517 151.794 569.544 152.511 570.298C153.263 571.009 154.298 571.446 155.329 571.446C156.36 571.446 157.391 571.009 158.147 570.26C158.899 569.544 159.298 568.517 159.298 567.489C159.298 566.461 158.899 565.429 158.147 564.68ZM120.018 580.362C123.092 575.546 128.584 573.544 132.283 575.891C135.982 578.237 136.489 584.043 133.414 588.859C130.34 593.674 124.849 595.676 121.149 593.33C117.45 590.983 116.944 585.177 120.018 580.362ZM100.133 654.271C96.649 655.022 94.622 659.307 95.6055 663.842C96.5889 668.377 100.211 671.445 103.694 670.695C107.178 669.944 109.205 665.659 108.222 661.124C107.238 656.589 103.616 653.52 100.133 654.271Z" fill="#6DB7EC"/>
<path d="M206.649 631.993L183.208 638.215L164.363 642.715L159.519 647.184L162.982 653.435L169.73 654.2L187.037 647.895L201.279 648.8L206.579 642.862L210.79 637.518L206.649 631.993Z" fill="#A4D7FB"/>
<path d="M233.457 629.293C231.623 627.431 228.979 627.85 227.544 630.206C226.668 631.645 222.025 633.279 217.986 633.577C215.666 633.741 213.89 636.305 214.017 639.298C214.14 642.196 215.995 644.435 218.216 644.435C218.294 644.435 218.368 644.435 218.447 644.43C221.177 644.239 230.386 643.135 234.165 636.926C235.604 634.564 235.284 631.145 233.457 629.293Z" fill="#A4D7FB"/>
<path d="M120.014 580.362C116.94 585.178 117.446 590.984 121.145 593.331C124.845 595.677 130.336 593.675 133.41 588.86C136.485 584.044 135.979 578.237 132.279 575.891C128.58 573.545 123.089 575.546 120.014 580.362Z" fill="#1671DB"/>
<path d="M103.696 670.69C107.179 669.94 109.206 665.655 108.222 661.12C107.238 656.585 103.617 653.517 100.134 654.267C96.6499 655.018 94.6233 659.303 95.6069 663.838C96.5905 668.373 100.212 671.441 103.696 670.69Z" fill="#1671DB"/>
<path d="M155.329 571.445C156.36 571.445 157.391 571.009 158.148 570.259C158.899 569.544 159.299 568.516 159.299 567.489C159.299 566.461 158.899 565.429 158.148 564.679C156.64 563.215 153.981 563.215 152.511 564.679C151.794 565.429 151.36 566.461 151.36 567.489C151.36 568.516 151.794 569.544 152.511 570.298C153.263 571.009 154.298 571.445 155.329 571.445Z" fill="#1671DB"/>
<path d="M247.779 620.024C247.062 620.773 246.628 621.805 246.628 622.833C246.628 623.861 247.062 624.888 247.779 625.642C248.532 626.353 249.567 626.79 250.598 626.79C251.629 626.79 252.66 626.353 253.416 625.604C254.168 624.889 254.567 623.861 254.567 622.833C254.567 621.805 254.168 620.773 253.416 620.024C251.908 618.559 249.249 618.559 247.779 620.024Z" fill="#94CCF4"/>
<path d="M263.657 635.899C262.94 636.649 262.506 637.681 262.506 638.708C262.506 639.736 262.94 640.764 263.657 641.518C264.41 642.229 265.445 642.665 266.476 642.665C267.507 642.665 268.538 642.228 269.294 641.479C270.046 640.764 270.445 639.737 270.445 638.708C270.445 637.68 270.046 636.649 269.294 635.899C267.786 634.435 265.127 634.435 263.657 635.899Z" fill="#94CCF4"/>
<path d="M164.419 687.336C163.702 688.085 163.268 689.117 163.268 690.145C163.268 691.173 163.702 692.2 164.419 692.954C165.172 693.665 166.207 694.102 167.238 694.102C168.269 694.102 169.3 693.665 170.056 692.916C170.808 692.201 171.207 691.173 171.207 690.145C171.207 689.117 170.808 688.085 170.056 687.336C168.548 685.871 165.889 685.871 164.419 687.336Z" fill="#94CCF4"/>
<path d="M216.023 707.119C215.306 707.869 214.872 708.901 214.872 709.928C214.872 710.956 215.306 711.984 216.023 712.738C216.775 713.449 217.81 713.885 218.842 713.885C219.873 713.885 220.904 713.448 221.66 712.699C222.412 711.984 222.811 710.957 222.811 709.928C222.811 708.9 222.412 707.869 221.66 707.119C220.151 705.655 217.492 705.655 216.023 707.119Z" fill="#94CCF4"/>
<path d="M127.613 668.673C127.202 670.818 128.616 672.888 130.772 673.298C132.346 673.597 133.974 673.857 135.587 674.127C135.679 671.463 135.827 668.812 136.092 666.195C136.094 666.179 136.095 666.163 136.097 666.147C134.83 665.928 133.495 665.76 132.254 665.524C130.097 665.118 128.02 666.525 127.613 668.673Z" fill="#1671DB"/>
<path d="M106.474 631.556C106.885 631.691 107.3 631.753 107.711 631.753C109.381 631.753 110.932 630.698 111.483 629.029C112.165 626.954 111.033 624.721 108.948 624.037C93.4376 618.959 81.8819 612.7 75.5321 605.938C75.4508 605.851 75.3401 605.818 75.2528 605.74C75.0087 606.404 74.7725 607.071 74.5427 607.742C74.5358 607.762 74.5288 607.781 74.5219 607.801C73.8148 609.867 73.1728 611.964 72.5694 614.076C80.0906 620.719 91.696 626.72 106.474 631.556Z" fill="#1671DB"/>
<path d="M159.487 749.652C159.378 749.701 159.268 749.751 159.159 749.8C152.329 752.899 145.313 756.052 140.712 755.94C141.698 756.356 142.7 756.74 143.7 757.13C144.612 757.483 145.515 757.854 146.438 758.185C147.28 758.489 148.136 758.763 148.986 759.049C150.306 759.488 151.631 759.917 152.97 760.314C153.348 760.427 153.727 760.534 154.106 760.642C156.818 759.553 159.609 758.291 162.45 757.002C163.172 756.674 163.897 756.346 164.621 756.018C164.621 756.018 164.622 756.018 164.623 756.017C164.622 756.017 164.622 756.017 164.622 756.017C162.832 753.962 161.135 751.827 159.487 749.652Z" fill="#1671DB"/>
<path d="M281.663 574.523C272.697 578.503 262.019 581.962 249.71 584.768C247.57 585.254 246.237 587.376 246.725 589.505C247.144 591.34 248.78 592.581 250.59 592.581C250.884 592.581 251.179 592.549 251.477 592.48C264.947 589.414 276.655 585.579 286.382 581.109C284.883 578.857 283.307 576.664 281.663 574.523Z" fill="#94CCF4"/>
<path fill-rule="evenodd" clip-rule="evenodd" d="M187.605 532.214C206.138 532.214 227.21 535.565 227.21 544.19C227.21 552.814 211.906 557.105 187.605 557.105C163.304 557.105 147.999 552.071 147.999 544.647C147.999 537.222 169.071 532.214 187.605 532.214Z" fill="#347DD3"/>
<path fill-rule="evenodd" clip-rule="evenodd" d="M144.619 357.799C153.922 349.974 169.19 346.175 185.154 345.32C186.109 345.269 190.61 340.497 189.168 336.337C187.631 331.903 182.773 329.28 182.248 326.062C181.724 322.843 183.337 318.069 192.687 318.069C202.037 318.069 203.712 323.098 203.712 326.062C203.712 329.026 196.472 332.261 196.231 336.337C195.974 340.672 200.549 345.365 201.657 345.438C220.053 346.648 236.943 351.336 244.045 357.799C252.902 365.86 230.146 400.359 236.678 399.957C238.462 399.847 244.791 397.328 248.091 393.827C250.083 391.715 251.381 387.971 253.227 387.194C255.074 386.417 255.632 390.62 255.808 390.802C255.983 390.985 257.695 387.422 259.276 387.422C260.857 387.422 261.63 392.287 257.649 396.781C254.633 400.185 249.966 402.422 243.635 404.519C237.305 406.615 229.718 405.512 225.173 412.404C220.628 419.297 220.671 419.735 219.224 423.663C214.231 437.227 221.86 451.579 212.653 451.579C203.446 451.579 202.519 423.663 192.856 423.663C183.193 423.663 183.195 451.579 172.758 451.579C162.321 451.579 168.558 434.106 165.742 423.663C164.88 420.466 160.38 414.892 155.22 408.133C154.952 407.781 146.828 410.238 142.051 409.863C137.273 409.487 124.159 404.544 124.839 402.571C125.518 400.599 128.763 402.524 129.243 401.779C129.724 401.034 124.236 399.418 127.64 398.099C128.491 397.77 129.281 397.693 130.98 398.825C132.679 399.957 133.787 400.634 137.089 401.779C140.119 402.829 142.086 402.889 143.855 403.052C148.194 403.452 149.523 400.419 149.2 399.957C139.338 385.837 131.16 369.12 144.619 357.799Z" fill="#F4ADAB"/>
<path fill-rule="evenodd" clip-rule="evenodd" d="M192.816 328.899C194.469 328.899 195.809 327.564 195.809 325.917C195.809 324.27 194.469 322.934 192.816 322.934C191.164 322.934 189.824 324.27 189.824 325.917C189.824 327.564 191.164 328.899 192.816 328.899Z" fill="#D05A69"/>
<path fill-rule="evenodd" clip-rule="evenodd" d="M193.415 416.045C198.879 416.045 204.048 404.4 208.647 402.892C220.18 399.111 228.122 391.169 228.122 381.984C228.122 369.137 212.583 358.722 193.415 358.722C174.246 358.722 158.707 369.137 158.707 381.984C158.707 390.763 166.625 398.9 177.336 402.861C180.149 403.901 187.951 416.045 193.415 416.045Z" fill="#F6C1BF"/>
<path fill-rule="evenodd" clip-rule="evenodd" d="M193.415 393.317C205.973 393.317 216.154 386.908 216.154 379.002C216.154 371.096 205.973 364.687 193.415 364.687C180.856 364.687 170.676 371.096 170.676 379.002C170.676 386.908 180.856 393.317 193.415 393.317Z" fill="white"/>
<path fill-rule="evenodd" clip-rule="evenodd" d="M192.793 378.475C197.75 378.475 202.031 365.711 200.089 365.254C198.147 364.797 193.173 364.671 192.483 364.671C191.793 364.671 188.747 364.605 185.501 365.59C182.255 366.575 187.836 378.475 192.793 378.475Z" fill="#4A4A4A"/>
<path fill-rule="evenodd" clip-rule="evenodd" d="M192.816 408.825C195.791 408.825 198.202 406.689 198.202 404.053C198.202 401.418 195.791 399.282 192.816 399.282C189.842 399.282 187.431 401.418 187.431 404.053C187.431 406.689 189.842 408.825 192.816 408.825Z" fill="#D05A69"/>
<path fill-rule="evenodd" clip-rule="evenodd" d="M192.863 408.229C193.779 408.229 194.671 407.98 195.355 407.61C196.398 407.046 197.032 406.234 197.116 405.868C197.255 405.261 195.176 404.72 192.863 404.72C190.55 404.72 188.509 405.27 188.69 406.035C188.871 406.799 190.55 408.229 192.863 408.229Z" fill="#F2B679"/>
<path d="M212.151 447.071H207.924V435.827C207.924 434.14 207.264 432.553 206.067 431.361L200.09 425.41L203.078 422.434L209.055 428.386C211.051 430.373 212.151 433.016 212.151 435.827V447.071Z" fill="#959CB5"/>
<path d="M197.405 425.73L194.41 422.744C192.755 421.095 192.755 418.422 194.41 416.772C196.064 415.123 198.746 415.123 200.401 416.772L203.397 419.759C205.051 421.408 205.051 424.081 203.397 425.73C201.742 427.379 199.06 427.379 197.405 425.73Z" fill="#5B5D6E"/>
<path d="M219.53 442.932H162.457C161.245 442.932 160.344 443.922 160.345 445.034C160.345 445.292 160.345 448.579 160.345 449.239H221.642C221.642 448.579 221.642 445.292 221.643 445.034C221.644 443.922 220.742 442.932 219.53 442.932Z" fill="#919FEC"/>
<path d="M219.53 447.071H162.457C160.964 447.071 159.943 448.578 160.498 449.963L167.25 466.834C167.571 467.635 168.347 468.16 169.21 468.16H212.778C213.641 468.16 214.417 467.635 214.737 466.834L221.49 449.963C222.044 448.578 221.023 447.071 219.53 447.071Z" fill="#A66464"/>
<path d="M206.021 539.705H176.361V461.791C176.361 460.628 177.31 459.685 178.48 459.685H203.903C205.073 459.685 206.022 460.628 206.022 461.791V539.705H206.021Z" fill="#919FEC"/>
<path d="M214.384 546.012H167.801C166.632 546.012 165.684 545.064 165.684 543.894V539.656C165.684 538.486 166.632 537.537 167.801 537.537H214.384C215.554 537.537 216.502 538.486 216.502 539.656V543.894C216.502 545.064 215.554 546.012 214.384 546.012Z" fill="#C78886"/>
<g filter="url(#filter0_d)">
<path d="M659.417 697.192C659.417 708.469 650.153 717.732 638.876 717.732C627.599 717.732 603.635 708.469 603.635 697.192C603.635 685.915 627.599 676.651 638.876 676.651C650.153 676.651 659.316 685.814 659.417 697.192Z" fill="#FFE066"/>
</g>
<path d="M645.363 677.658L644.759 678.262C634.287 688.734 634.287 705.851 644.758 716.323L645.161 716.725C653.418 714.107 659.358 706.354 659.358 697.091C659.459 688.129 653.519 680.376 645.363 677.658Z" fill="#AFA315"/>
<path d="M667.073 757.504L651.567 757.504C618.944 757.504 669.389 729.614 669.389 695.178C669.389 660.742 618.742 632.851 651.567 632.851L667.073 632.851C699.696 632.851 720.74 660.742 720.74 695.178C720.74 729.614 699.696 757.504 667.073 757.504Z" fill="#F25F5C"/>
<path d="M735.056 736.662C693.27 736.561 672.729 730.721 672.729 730.721C649.269 726.19 648.967 713 648.967 695.279C648.966 677.557 649.168 664.267 672.729 659.836C672.729 659.836 693.472 653.996 735.258 653.895C799.497 653.895 835.04 684.606 834.94 695.178C834.94 705.649 799.397 736.561 735.056 736.662Z" fill="#F4F0D3"/>
<path d="M801.847 666.885C796.007 674.538 792.482 685.312 792.481 697.193C792.581 707.564 795.198 717.029 799.729 724.379C822.888 714.509 835.072 701.318 835.174 695.176C835.275 689.235 823.696 676.65 801.847 666.885Z" fill="#F25F5C"/>
<path fill-rule="evenodd" clip-rule="evenodd" d="M711.719 707.627C718.839 719.946 734.587 724.18 746.893 717.083C759.199 709.985 763.402 694.246 756.282 681.926C749.162 669.607 733.414 665.374 721.109 672.471C708.803 679.568 704.599 695.308 711.719 707.627Z" fill="#4A90E2" stroke="#4A4A4A" stroke-width="4"/>
<path fill-rule="evenodd" clip-rule="evenodd" d="M732.791 676.012C733.224 678.098 738.039 677.47 743.039 681.043C749.314 685.526 749.637 691.517 750.735 690.813C753.271 689.185 750.707 683.034 746.111 679.082C741.514 675.13 732.245 673.384 732.791 676.012Z" fill="white"/>
<path d="M780.744 623.665L775.96 627.667L776.468 628.27L776.976 628.874L781.76 624.873L780.99 633.642L782.427 635.35L783.473 623.44L785.791 621.501C785.325 621.227 784.965 620.799 784.775 620.294L782.456 622.233L770.508 621.191L771.946 622.898L780.744 623.665Z" fill="#FF9300"/>
<path d="M762.573 635.527C763.861 635.64 764.951 636.356 765.585 637.372L773.721 630.567L762.181 616.858C762.607 616.372 763.052 615.898 763.536 615.453C757.671 620.836 756.026 629.496 759.472 636.63C760.267 635.859 761.381 635.423 762.573 635.527Z" fill="#D5D9DE"/>
<path d="M785.791 621.501C786.087 621.675 786.425 621.788 786.79 621.819C788.094 621.933 789.245 620.971 789.359 619.671C789.473 618.37 788.508 617.224 787.203 617.11C785.898 616.996 784.748 617.958 784.634 619.259C784.602 619.622 784.654 619.974 784.775 620.294C784.965 620.799 785.325 621.226 785.791 621.501Z" fill="#FFCF00"/>
<path d="M766.171 639.716C766.17 639.743 766.169 639.769 766.166 639.795C765.976 641.963 764.059 643.567 761.884 643.377C759.71 643.187 758.101 641.276 758.291 639.109C758.293 639.081 758.297 639.055 758.3 639.027L753.75 656.114L767.676 657.329L766.568 644.357L766.171 639.716Z" fill="#888693"/>
<path d="M752.05 655.965C751.182 655.89 750.413 656.532 750.337 657.398L750.131 659.753L770.606 661.538L770.812 659.184C770.888 658.318 770.243 657.552 769.375 657.476L767.675 657.328L753.75 656.114L752.05 655.965Z" fill="#B6B8BE"/>
<path d="M747.768 659.547C746.465 659.433 745.313 660.397 745.199 661.696L775.124 664.305C775.238 663.007 774.271 661.858 772.968 661.744L770.606 661.538L750.131 659.753L747.768 659.547Z" fill="#888693"/>
<path d="M744.411 661.627C743.976 661.589 743.593 661.91 743.555 662.343C743.517 662.777 743.838 663.159 744.274 663.197L775.774 665.944C776.209 665.982 776.592 665.661 776.63 665.228C776.668 664.794 776.347 664.412 775.912 664.374L775.124 664.305L745.199 661.696L744.411 661.627Z" fill="#5C546A"/>
<path fill-rule="evenodd" clip-rule="evenodd" d="M766.167 639.795C765.976 641.963 764.059 643.566 761.885 643.377C759.71 643.187 758.101 641.276 758.292 639.109C758.293 639.092 758.295 639.075 758.297 639.058C758.298 639.048 758.3 639.038 758.301 639.027C758.403 638.082 758.835 637.248 759.472 636.63C760.267 635.859 761.381 635.423 762.574 635.527C763.862 635.639 764.951 636.356 765.586 637.372L773.722 630.567L785.267 644.281L785.267 644.281C785.38 644.212 785.491 644.14 785.602 644.068C785.647 644.04 785.691 644.011 785.735 643.983C786.124 643.731 786.512 643.474 786.886 643.189C783.177 646.012 778.684 647.24 774.29 646.857C771.613 646.623 768.973 645.79 766.568 644.357L766.172 639.716C766.171 639.727 766.17 639.737 766.17 639.748C766.169 639.764 766.168 639.779 766.167 639.795ZM773.722 630.567L762.181 616.858C762.607 616.372 763.052 615.898 763.536 615.453C763.851 615.165 764.261 615.02 764.692 615.048C765.122 615.072 765.534 615.281 765.812 615.612L770.509 621.191L771.946 622.898L775.96 627.666L776.468 628.27L773.722 630.567ZM762.09 641.02C762.96 641.096 763.727 640.455 763.803 639.588C763.879 638.721 763.236 637.957 762.367 637.882C761.497 637.806 760.73 638.447 760.654 639.314C760.577 640.181 761.22 640.945 762.09 641.02Z" fill="#B6B8BE"/>
<path d="M762.091 641.021C762.96 641.097 763.727 640.455 763.803 639.589C763.879 638.722 763.236 637.958 762.366 637.882C761.496 637.806 760.73 638.447 760.654 639.314C760.578 640.181 761.221 640.945 762.091 641.021Z" fill="#5C546A"/>
<path d="M776.976 628.873L776.468 628.27L773.721 630.567L785.266 644.282L785.267 644.281C785.424 644.186 785.579 644.083 785.735 643.984C786.124 643.731 786.511 643.475 786.885 643.19C787.226 642.931 787.44 642.552 787.487 642.124C787.534 641.694 787.402 641.259 787.124 640.929L782.427 635.349L780.99 633.642L776.976 628.873Z" fill="#888693"/>
<defs>
<filter id="filter0_d" x="598.635" y="671.651" width="65.7819" height="51.0809" filterUnits="userSpaceOnUse" color-interpolation-filters="sRGB">
<feFlood flood-opacity="0" result="BackgroundImageFix"/>
<feColorMatrix in="SourceAlpha" type="matrix" values="0 0 0 0 0 0 0 0 0 0 0 0 0 0 0 0 0 0 127 0"/>
<feOffset/>
<feGaussianBlur stdDeviation="2.5"/>
<feColorMatrix type="matrix" values="0 0 0 0 1 0 0 0 0 0.878431 0 0 0 0 0.4 0 0 0 0.5 0"/>
<feBlend mode="normal" in2="BackgroundImageFix" result="effect1_dropShadow"/>
<feBlend mode="normal" in="SourceGraphic" in2="effect1_dropShadow" result="shape"/>
</filter>
<linearGradient id="paint0_linear" x1="1437.32" y1="922.994" x2="1437.31" y2="-0.00558376" gradientUnits="userSpaceOnUse">
<stop stop-color="#2B3780"/>
<stop offset="0.508919" stop-color="#2D3270"/>
<stop offset="1" stop-color="#20244C"/>
</linearGradient>
</defs>
</svg>
