
<svg width="1440px" height="935px" viewBox="0 0 1440 935" version="1.1" xmlns="http://www.w3.org/2000/svg" xmlns:xlink="http://www.w3.org/1999/xlink">
    <!-- Generator: Sketch 51.1 (57501) - http://www.bohemiancoding.com/sketch -->
    <desc>Created with Sketch.</desc>
    <defs>
        <linearGradient x1="49.8139424%" y1="100%" x2="49.8127391%" y2="0%" id="linearGradient-1">
            <stop stop-color="#2B3780" offset="0%"></stop>
            <stop stop-color="#2D3270" offset="50.8918895%"></stop>
            <stop stop-color="#20244C" offset="100%"></stop>
        </linearGradient>
    </defs>
    <g id="Page-1" stroke="none" stroke-width="1" fill="none" fill-rule="evenodd">
        <g id="Home">
            <g id="Хедер">
                <g id="Group-8">
                    <path d="M0,0 L1440,0 L1440,877.024455 C1381.7678,915.674818 1318.76454,935 1250.99022,935 C1149.32875,935 1062.56843,877.024455 981.077731,877.024455 C899.587032,877.024455 801.904847,935 698.186249,935 C594.467651,935 532.948112,877.024455 434.263666,877.024455 C335.57922,877.024455 268.321837,935 168.32992,935 C101.668642,935 45.5586688,912.822039 0,868.466117 L0,0 Z" id="Rectangle-27" fill="url(#linearGradient-1)"></path>
                    <g id="Group-5" transform="translate(102.000000, 65.917969)" fill="#FFFFFF">
                        <ellipse id="Oval-2" cx="39.5" cy="319.482422" rx="1.5" ry="1.31835938"></ellipse>
                        <ellipse id="Oval-2-Copy" cx="26.5" cy="234.228516" rx="1.5" ry="1.31835938"></ellipse>
                        <ellipse id="Oval-2-Copy-2" cx="87.5" cy="150.732422" rx="1.5" ry="1.31835938"></ellipse>
                        <ellipse id="Oval-2-Copy-4" cx="221.5" cy="71.6308594" rx="1.5" ry="1.31835938"></ellipse>
                        <ellipse id="Oval-2-Copy-5" cx="71.5" cy="52.2949219" rx="1.5" ry="1.31835938"></ellipse>
                        <ellipse id="Oval-2-Copy-6" cx="2.5" cy="119.970703" rx="2.5" ry="2.19726562"></ellipse>
                        <ellipse id="Oval-2-Copy-7" cx="356.5" cy="101.513672" rx="1.5" ry="1.31835938"></ellipse>
                        <ellipse id="Oval-2-Copy-13" cx="991.5" cy="73.3886719" rx="1.5" ry="1.31835938"></ellipse>
                        <ellipse id="Oval-2-Copy-14" cx="1001.5" cy="158.642578" rx="1.5" ry="1.31835938"></ellipse>
                        <ellipse id="Oval-2-Copy-15" cx="1052.5" cy="101.513672" rx="1.5" ry="1.31835938"></ellipse>
                        <ellipse id="Oval-2-Copy-16" cx="1136.5" cy="143.701172" rx="2.5" ry="2.19726562"></ellipse>
                        <ellipse id="Oval-2-Copy-18" cx="1222.5" cy="96.2402344" rx="1.5" ry="1.31835938"></ellipse>
                        <ellipse id="Oval-2-Copy-19" cx="1219.5" cy="248.291016" rx="1.5" ry="1.31835938"></ellipse>
                        <ellipse id="Oval-2-Copy-17" cx="296" cy="398.144531" rx="2" ry="1.7578125"></ellipse>
                        <ellipse id="Oval-2-Copy-8" cx="466.5" cy="127.001953" rx="1.5" ry="1.31835938"></ellipse>
                        <ellipse id="Oval-2-Copy-9" cx="485.5" cy="51.4160156" rx="1.5" ry="1.31835938"></ellipse>
                        <ellipse id="Oval-2-Copy-10" cx="615.5" cy="98.8769531" rx="1.5" ry="1.31835938"></ellipse>
                        <ellipse id="Oval-2-Copy-11" cx="353.5" cy="1.31835938" rx="1.5" ry="1.31835938"></ellipse>
                        <ellipse id="Oval-2-Copy-12" cx="838.5" cy="129.638672" rx="1.5" ry="1.31835938"></ellipse>
                        <ellipse id="Oval-2-Copy-3" cx="271" cy="181.054688" rx="3" ry="2.63671875"></ellipse>
                    </g>
                    <g id="Group-47" transform="translate(0.000000, 574.000000)">
                        <path d="M1055.16099,58.5108255 C1181.8356,88.3587236 1267.61542,84.3793756 1326.63872,158.584701 C1385.66201,232.790027 1334.88623,296 1244.0611,296 C1153.23596,296 1026.98989,222.522011 962.571414,222.522011 C898.152939,222.522011 830.753499,296 689.645406,296 C548.537313,296 509.972967,222.522011 417.708577,222.522011 C325.444187,222.522011 277.636341,296 170.090015,296 C62.5436876,296 23,160.090082 23,125.254522 C23,109.324725 38.482032,23.2719569 249.171812,15.6173564 C459.861591,7.96275585 613.910799,73.9151583 732.232781,79.3450256 C869.429203,85.6410524 990.247467,43.2154762 1055.16099,58.5108255 Z" id="Rectangle-28" fill="#2B3780"></path>
                        <path d="M54.3931027,147.561738 C45.7607908,49.1872459 179.298977,0 455.007662,0 C630.769229,0 848.009415,66.1348506 1059.12234,106.113622 C1179.17207,128.847619 1275.4083,75.2407344 1362.77037,106.113622 C1450.13245,136.986509 1441.00705,208.934621 1419.3353,240.389449 C1397.66355,271.844276 1324.21839,287 1238.14327,287 C1152.06814,287 1032.42454,231.034639 971.375046,231.034639 C910.325553,231.034639 846.450996,287 712.72263,287 C578.994265,287 542.446772,231.034639 455.007662,231.034639 C367.568552,231.034639 322.26098,287 220.339154,287 C152.391269,287 97.0759191,240.520579 54.3931027,147.561738 Z" id="Rectangle-28-Copy" fill-opacity="0.222939312" fill="#2B3780" transform="translate(744.000000, 143.500000) scale(-1, 1) translate(-744.000000, -143.500000) "></path>
                        <path d="M1.33770157,155.69912 C11.0691527,80.3311587 111.62378,0 406.714536,0 C601.10852,0 841.378256,66.1441375 1074.87118,106.128523 C1127.11309,115.074663 1244.17818,58.6023252 1347.52953,88.9922672 C1450.88088,119.382209 1454.87362,222.680517 1389.66206,278.55526 C1371.16215,294.406399 1348.83417,303.396488 1324.19926,307.417366 C1205.66629,326.764161 1033.72475,231.067082 977.82183,231.067082 C910.300504,231.067082 839.654629,287.040302 691.74977,287.040302 C543.844911,287.040302 503.423033,231.067082 406.714536,231.067082 C310.006039,231.067082 259.895428,287.040302 147.168907,287.040302 C34.4423866,287.040302 -8.39374958,231.067082 1.33770157,155.69912 Z" id="Rectangle-28-Copy-2" fill-opacity="0.156278306" fill="#52489C" transform="translate(716.500000, 155.000000) scale(-1, 1) translate(-716.500000, -155.000000) "></path>
                    </g>
                </g>
            </g>
        </g>
    </g>
</svg>