<svg width="259" height="258" viewBox="0 0 259 258" fill="none" xmlns="http://www.w3.org/2000/svg">
<g filter="url(#filter0_d)">
<path d="M78.4167 131.192C78.4167 142.469 69.1533 151.732 57.876 151.732C46.599 151.732 22.6348 142.469 22.6348 131.192C22.6348 119.915 46.5987 110.651 57.876 110.651C69.1533 110.651 78.316 119.814 78.4167 131.192Z" fill="#FFE066"/>
</g>
<path d="M64.363 111.658L63.7588 112.262C53.2871 122.734 53.2869 139.851 63.7585 150.323L64.1611 150.725C72.4178 148.107 78.3583 140.354 78.3584 131.091C78.4592 122.129 72.5189 114.376 64.363 111.658Z" fill="#AFA315"/>
<path d="M86.0731 191.504L70.567 191.504C37.9437 191.504 88.3891 163.614 88.3891 129.178C88.389 94.7417 37.7422 66.8509 70.567 66.8509L86.073 66.8509C118.696 66.8514 139.74 94.7423 139.74 129.178C139.74 163.614 118.696 191.504 86.0731 191.504Z" fill="#F25F5C"/>
<path d="M154.056 170.662C112.27 170.561 91.7294 164.721 91.7294 164.721C68.2686 160.19 67.9669 147 67.9667 129.279C67.9665 111.557 68.1682 98.2666 91.7295 93.836C91.7295 93.836 112.472 87.996 154.258 87.8953C218.497 87.8952 254.04 118.606 253.94 129.178C253.94 139.649 218.397 170.561 154.056 170.662Z" fill="#F4F0D3"/>
<path d="M220.847 100.885C215.007 108.538 211.482 119.312 211.481 131.193C211.581 141.564 214.198 151.029 218.729 158.379C241.888 148.509 254.072 135.318 254.174 129.176C254.275 123.235 242.696 110.65 220.847 100.885Z" fill="#F25F5C"/>
<path fill-rule="evenodd" clip-rule="evenodd" d="M130.719 141.627C137.839 153.946 153.587 158.18 165.893 151.083C178.199 143.985 182.402 128.246 175.282 115.926C168.162 103.607 152.414 99.3742 140.109 106.471C127.803 113.568 123.599 129.308 130.719 141.627Z" fill="#4A90E2" stroke="#4A4A4A" stroke-width="4"/>
<path fill-rule="evenodd" clip-rule="evenodd" d="M151.791 110.012C152.224 112.098 157.039 111.47 162.039 115.043C168.314 119.526 168.637 125.517 169.735 124.813C172.271 123.185 169.707 117.034 165.111 113.082C160.514 109.13 151.245 107.384 151.791 110.012Z" fill="white"/>
<path d="M199.744 57.6655L194.96 61.6666L195.468 62.2703L195.976 62.8738L200.76 58.8727L199.99 67.6423L201.427 69.3496L202.473 57.44L204.791 55.5012C204.325 55.2267 203.965 54.7992 203.775 54.294L201.456 56.2329L189.508 55.1909L190.946 56.8982L199.744 57.6655Z" fill="#FF9300"/>
<path d="M181.573 69.5272C182.861 69.6395 183.951 70.3559 184.585 71.3718L192.721 64.5671L181.181 50.8584C181.607 50.372 182.052 49.898 182.536 49.4535C176.671 54.8363 175.026 63.496 178.472 70.6303C179.267 69.859 180.381 69.4232 181.573 69.5272Z" fill="#D5D9DE"/>
<path d="M204.791 55.501C205.087 55.675 205.425 55.7877 205.79 55.8195C207.094 55.9332 208.245 54.9712 208.359 53.6708C208.473 52.3703 207.508 51.2238 206.203 51.1101C204.898 50.9963 203.748 51.9583 203.634 53.2588C203.602 53.6223 203.654 53.9737 203.775 54.2939C203.965 54.7991 204.325 55.2265 204.791 55.501Z" fill="#FFCF00"/>
<path d="M185.171 73.7164C185.17 73.7427 185.169 73.769 185.166 73.7954C184.976 75.9631 183.059 77.5666 180.884 77.3769C178.71 77.1873 177.101 75.2763 177.291 73.1086C177.293 73.0813 177.297 73.0546 177.3 73.0274L172.75 90.1145L186.676 91.3289L185.568 78.3574L185.171 73.7164Z" fill="#888693"/>
<path d="M171.05 89.9655C170.182 89.8898 169.413 90.5322 169.337 91.398L169.131 93.7529L189.606 95.5385L189.812 93.1836C189.888 92.3178 189.243 91.552 188.375 91.4763L186.675 91.3281L172.75 90.1137L171.05 89.9655Z" fill="#B6B8BE"/>
<path d="M166.768 93.5468C165.465 93.4332 164.313 94.3972 164.199 95.6957L194.124 98.3054C194.238 97.0068 193.271 95.8581 191.968 95.7445L189.606 95.5384L169.131 93.7529L166.768 93.5468Z" fill="#888693"/>
<path d="M163.411 95.627C162.976 95.5891 162.593 95.9098 162.555 96.3433C162.517 96.7768 162.838 97.159 163.274 97.1969L194.774 99.944C195.209 99.9819 195.592 99.6612 195.63 99.2277C195.668 98.7942 195.347 98.412 194.912 98.374L194.124 98.3054L164.199 95.6957L163.411 95.627Z" fill="#5C546A"/>
<path fill-rule="evenodd" clip-rule="evenodd" d="M185.167 73.7953C184.976 75.963 183.059 77.5664 180.885 77.3768C178.71 77.1871 177.101 75.2763 177.292 73.1086C177.293 73.0916 177.295 73.0747 177.297 73.0579C177.298 73.0477 177.3 73.0376 177.301 73.0274C177.403 72.0818 177.835 71.2483 178.472 70.6303C179.267 69.8589 180.381 69.4232 181.574 69.5271C182.862 69.6394 183.951 70.3558 184.586 71.3717L192.722 64.5669L204.267 78.2809L204.267 78.2806C204.38 78.2123 204.491 78.1404 204.602 78.0685C204.647 78.0398 204.691 78.0112 204.735 77.9828C205.124 77.7306 205.512 77.4737 205.886 77.189C202.177 80.012 197.684 81.2397 193.29 80.857C190.613 80.6235 187.973 79.79 185.568 78.3572L185.172 73.7163C185.171 73.7269 185.17 73.7374 185.17 73.7479C185.169 73.7637 185.168 73.7795 185.167 73.7953ZM192.722 64.5669L181.181 50.8582C181.607 50.3718 182.052 49.8977 182.536 49.4533C182.851 49.1648 183.261 49.0205 183.692 49.0477C184.122 49.0717 184.534 49.281 184.812 49.6116L189.509 55.1906L190.946 56.8979L194.96 61.6661L195.468 62.2698L192.722 64.5669ZM181.09 75.0205C181.96 75.0961 182.727 74.4549 182.803 73.5881C182.879 72.7214 182.236 71.9573 181.367 71.8817C180.497 71.806 179.73 72.4474 179.654 73.3141C179.577 74.1809 180.22 74.9448 181.09 75.0205Z" fill="#B6B8BE"/>
<path d="M181.091 75.0208C181.96 75.0966 182.727 74.4554 182.803 73.5887C182.879 72.7219 182.236 71.9578 181.366 71.8819C180.496 71.8061 179.73 72.4473 179.654 73.314C179.578 74.1808 180.221 74.9449 181.091 75.0208Z" fill="#5C546A"/>
<path d="M195.976 62.8735L195.468 62.2701L192.721 64.5672L204.266 78.2817L204.267 78.2815C204.424 78.1859 204.579 78.0833 204.735 77.9836C205.124 77.7313 205.511 77.4745 205.885 77.1898C206.226 76.9309 206.44 76.5521 206.487 76.1236C206.534 75.6944 206.402 75.2588 206.124 74.9291L201.427 69.3493L199.99 67.642L195.976 62.8735Z" fill="#888693"/>
<defs>
<filter id="filter0_d" x="17.6348" y="105.651" width="65.7819" height="51.0809" filterUnits="userSpaceOnUse" color-interpolation-filters="sRGB">
<feFlood flood-opacity="0" result="BackgroundImageFix"/>
<feColorMatrix in="SourceAlpha" type="matrix" values="0 0 0 0 0 0 0 0 0 0 0 0 0 0 0 0 0 0 127 0"/>
<feOffset/>
<feGaussianBlur stdDeviation="2.5"/>
<feColorMatrix type="matrix" values="0 0 0 0 1 0 0 0 0 0.878431 0 0 0 0 0.4 0 0 0 0.5 0"/>
<feBlend mode="normal" in2="BackgroundImageFix" result="effect1_dropShadow"/>
<feBlend mode="normal" in="SourceGraphic" in2="effect1_dropShadow" result="shape"/>
</filter>
</defs>
</svg>
