
<svg viewBox="0 0 340 397" version="1.1" xmlns="http://www.w3.org/2000/svg" xmlns:xlink="http://www.w3.org/1999/xlink">
    <!-- Generator: Sketch 51.1 (57501) - http://www.bohemiancoding.com/sketch -->
    <desc>Created with Sketch.</desc>
    <defs></defs>
    <g id="Page-1" stroke="none" stroke-width="1" fill="none" fill-rule="evenodd">
        <g id="Desktop-HD-Copy-14" transform="translate(-288.000000, -197.000000)">
            <g id="Group-7" transform="translate(213.000000, 163.000000)">
                <g id="Group-2" transform="translate(217.944121, 263.002922) rotate(12.000000) translate(-217.944121, -263.002922) translate(44.444121, 31.002922)">
                    <g id="Group-4" transform="translate(104.000000, 153.000000)">
                        <path d="M43.4759824,-1.8189894e-12 L96.6752423,-1.8189894e-12 L137.327416,152.944984 C138.46237,157.215002 135.920898,161.596599 131.65088,162.731553 C130.980412,162.909761 130.289611,163 129.595864,163 L10.4134682,163 C5.99519021,163 2.41346821,159.418278 2.41346821,155 C2.41346821,154.303932 2.5043122,153.610842 2.68369869,152.938286 L43.4759824,-1.8189894e-12 Z" id="Rectangle-38-Copy-3" fill="#FFCB8E" opacity="0.415401786"></path>
                        <path d="M43.75,1.8189894e-12 L95.25,1.8189894e-12 L118.991114,150.283556 C119.93908,156.284272 115.843016,161.917292 109.8423,162.865257 C109.274552,162.954948 108.700646,163 108.125856,163 L30.8741436,163 C24.7990113,163 19.8741436,158.075132 19.8741436,152 C19.8741436,151.42521 19.9191957,150.851305 20.0088861,150.283556 L43.75,1.8189894e-12 Z" id="Rectangle-38" fill="#F5A623" opacity="0.324944196"></path>
                        <path d="M69.2673123,0 L104.522133,153.205975 C105.512945,157.511724 102.825658,161.805435 98.5199098,162.796248 C97.9315065,162.931647 97.3296662,163 96.7258851,163 L42.9756218,163 C38.5573438,163 34.9756218,159.418278 34.9756218,155 C34.9756218,154.415596 35.0396577,153.832952 35.166583,153.262498 L69.2673123,0 Z" id="Rectangle-38-Copy" fill="#FFC565"></path>
                    </g>
                    <g id="Group" transform="translate(-0.000000, 0.000000)">
                        <path d="M231,53.8370491 C231,24.1036679 205.256373,0 173.5,0 C141.743627,0 116,24.1036679 116,53.8370491 C116,83.5704303 231,83.5704303 231,53.8370491 Z" id="Oval-41" fill="#5D6FB1"></path>
                        <path d="M131.197123,102 L173.5,102 L215.163161,102 C230.032086,102 244.713886,105.315774 258.139646,111.705915 L347,154 L0,154 L87.9667063,111.827216 C101.460076,105.358257 116.233218,102 131.197123,102 Z" id="Rectangle-Copy" fill="#DAE6F4" transform="translate(173.500000, 128.000000) scale(1, -1) translate(-173.500000, -128.000000) "></path>
                        <path d="M198.08105,57.3410495 C202.064882,57.3410495 207.156805,51.293527 202.473687,30.8312694 C197.79057,10.3690118 176.689589,0.116739233 174.616891,0.116739233 C172.544192,0.116739233 194.012535,16.9548629 194.012535,37.2579773 C194.012535,57.5610917 194.097217,57.3410495 198.08105,57.3410495 Z" id="Oval-42" fill="#A2ABD3"></path>
                        <path d="M131.197123,50 L173.5,50 L215.163161,50 C230.032086,50 244.713886,53.3157738 258.139646,59.7059153 L347,102 L0,102 L87.9667063,59.8272156 C101.460076,53.3582571 116.233218,50 131.197123,50 Z" id="Rectangle-Copy-2" fill="#7986C0"></path>
                        <rect id="Rectangle-38-Copy-2" fill="#7986C0" x="111" y="148" width="126" height="12"></rect>
                        <rect id="Rectangle-2" fill="#B8BEDE" x="0" y="94" width="347" height="16" rx="8"></rect>
                        <rect id="Rectangle-38-Copy-2" fill="#B8BEDE" x="111" y="45" width="126" height="12"></rect>
                    </g>
                    <g id="Group" transform="translate(148.382517, 368.356245) rotate(89.000000) translate(-148.382517, -368.356245) translate(54.882517, 274.356245)" fill-rule="nonzero">
                        <g id="rocket" transform="translate(93.338095, 93.704115) rotate(-45.000000) translate(-93.338095, -93.704115) translate(27.338095, 27.704115)">
                            <path d="M75.76051,119.965918 L67.8240386,127.902389 C51.1264628,144.599965 62.6705402,104.505161 45.0452195,86.8798398 C27.4198988,69.2545192 -12.7780173,80.9017083 4.02267037,64.1010207 L11.9591417,56.1645493 C28.6569792,39.4672352 53.7032121,42.9717293 71.3285327,60.5967883 C88.9538534,78.222109 92.4580858,103.268342 75.76051,119.965918 Z" id="Shape" fill="#F25F5C"></path>
                            <path d="M99.7764096,74.614503 C78.337521,95.9502798 64.8351037,103.474565 64.8351037,103.474565 C50.5080535,113.163415 43.6024388,106.566612 34.5319989,97.496434 C25.461559,88.4262558 18.762168,81.5203794 28.5538674,67.1933291 C28.5538674,67.1933291 36.181265,53.5878001 57.5170417,32.1489115 C90.3966341,-0.730680871 124.307345,-3.20431826 129.667067,2.25825402 C135.026789,7.61797617 132.656264,41.6315371 99.7764096,74.614503 Z" id="Shape" fill="#F4F0D3"></path>
                            <path d="M98.1271435,4.83526496 C99.0548884,11.7411413 102.765344,19.0592034 108.846588,25.1404467 C114.20631,30.397057 120.390665,33.9015511 126.471908,35.3445935 C133.274411,18.4405323 132.759114,5.45367431 129.667067,2.25825402 C126.67787,-0.833792713 114.309422,-1.34909022 98.1271435,4.83526496 Z" id="Shape" fill="#F25F5C"></path>
                        </g>
                    </g>
                </g>
            </g>
        </g>
    </g>
</svg>