<svg width="15" height="16" viewBox="0 0 15 16" fill="none" xmlns="http://www.w3.org/2000/svg">
<path fill-rule="evenodd" clip-rule="evenodd" d="M12.408 0.0471687H3.4966C2.07422 0.0471687 0.916992 1.29845 0.916992 2.83645V12.4721C0.916992 14.0101 2.07422 15.2618 3.4966 15.2618H12.408C13.8303 15.2618 14.9879 14.0105 14.9879 12.4721V2.83645C14.9879 1.29845 13.8307 0.0471687 12.408 0.0471687ZM7.95246 12.6627C5.3985 12.6627 3.32056 10.4158 3.32056 7.65393C3.32056 4.89239 5.3985 2.64555 7.95246 2.64555C10.5067 2.64555 12.5847 4.89239 12.5847 7.65393C12.5847 10.4155 10.5064 12.6627 7.95246 12.6627ZM11.6373 2.49593C11.6373 3.14931 12.129 3.68094 12.7336 3.68094C13.3379 3.68094 13.8295 3.14931 13.8295 2.49593C13.8295 1.84256 13.3379 1.31092 12.7336 1.31092C12.129 1.31092 11.6373 1.84256 11.6373 2.49593Z" fill="white"/>
<path d="M7.95222 4.7623C6.47787 4.7623 5.27734 6.05969 5.27734 7.65387C5.27734 9.24877 6.47787 10.5465 7.95222 10.5465C9.42723 10.5465 10.6268 9.24877 10.6268 7.65387C10.6268 6.06005 9.4269 4.7623 7.95222 4.7623Z" fill="white"/>
</svg>
