<svg viewBox="0 0 15 16" fill="none" xmlns="http://www.w3.org/2000/svg">
<path fill-rule="evenodd" clip-rule="evenodd" d="M12.2497 0.808594H2.74993C1.23364 0.808594 0 2.04223 0 3.55853V13.0583C0 14.5746 1.23364 15.8086 2.74993 15.8086H12.2497C13.766 15.8086 15 14.575 15 13.0583V3.55853C15 2.04223 13.7664 0.808594 12.2497 0.808594ZM7.49999 13.2461C4.7774 13.2461 2.56226 11.031 2.56226 8.30801C2.56226 5.58542 4.7774 3.37027 7.49999 3.37027C10.2229 3.37027 12.4381 5.58542 12.4381 8.30801C12.4381 11.0306 10.2226 13.2461 7.49999 13.2461ZM11.4282 3.22277C11.4282 3.86693 11.9524 4.39106 12.5969 4.39106C13.241 4.39106 13.7652 3.86693 13.7652 3.22277C13.7652 2.57861 13.241 2.05447 12.5969 2.05447C11.9524 2.05447 11.4282 2.57861 11.4282 3.22277Z" fill="white"/>
<path d="M7.50002 5.45715C5.92833 5.45715 4.64853 6.73624 4.64853 8.30794C4.64853 9.88034 5.92833 11.1598 7.50002 11.1598C9.07243 11.1598 10.3512 9.88034 10.3512 8.30794C10.3512 6.7366 9.07207 5.45715 7.50002 5.45715Z" fill="white"/>
</svg>
