<svg width="19" height="16" viewBox="0 0 19 16" fill="none" xmlns="http://www.w3.org/2000/svg">
<path d="M18.0194 2.17389C17.3812 2.47496 16.6947 2.67859 15.9747 2.76954C16.7098 2.30098 17.274 1.55959 17.5402 0.674733C16.8524 1.10883 16.0901 1.42374 15.2796 1.59349C14.6302 0.85775 13.705 0.397949 12.6805 0.397949C10.7148 0.397949 9.12059 2.09396 9.12059 4.18509C9.12059 4.48193 9.15218 4.77085 9.21324 5.0482C6.25466 4.89032 3.63138 3.3827 1.87545 1.09076C1.56908 1.64997 1.39333 2.30098 1.39333 2.99492C1.39333 4.30851 2.02227 5.46818 2.97696 6.14715C2.39368 6.12766 1.84439 5.95735 1.36466 5.67294C1.36439 5.68904 1.36439 5.70514 1.36439 5.72096C1.36439 7.55592 2.592 9.08643 4.22023 9.4341C3.92183 9.52109 3.60669 9.56713 3.28253 9.56713C3.05262 9.56713 2.82988 9.54368 2.61271 9.49963C3.06563 11.0039 4.38006 12.0989 5.9382 12.1296C4.71961 13.1455 3.18483 13.7508 1.51652 13.7508C1.22979 13.7508 0.94572 13.733 0.667755 13.6977C2.24236 14.7726 4.11404 15.3994 6.1243 15.3994C12.6723 15.3994 16.2532 9.6287 16.2532 4.62371C16.2532 4.45961 16.2497 4.29609 16.2428 4.13397C16.9389 3.60017 17.5424 2.93335 18.0194 2.17389Z" fill="white"/>
</svg>
