<svg width="19" height="16" viewBox="0 0 19 16" fill="none" xmlns="http://www.w3.org/2000/svg">
<path d="M18.2825 1.85103C17.6447 2.15684 16.9586 2.36367 16.239 2.45605C16.9737 1.98012 17.5375 1.22708 17.8036 0.328305C17.1162 0.769229 16.3545 1.08909 15.5445 1.2615C14.8955 0.514199 13.9709 0.0471687 12.9471 0.0471687C10.9827 0.0471687 9.38956 1.76984 9.38956 3.89386C9.38956 4.19536 9.42113 4.48883 9.48215 4.77054C6.52555 4.61018 3.90403 3.07885 2.14927 0.750869C1.84311 1.31888 1.66747 1.98012 1.66747 2.68497C1.66747 4.01922 2.29599 5.19712 3.25004 5.88677C2.66716 5.86697 2.11823 5.69399 1.63882 5.4051C1.63855 5.42146 1.63855 5.43781 1.63855 5.45387C1.63855 7.31769 2.86534 8.87226 4.49248 9.2254C4.19428 9.31376 3.87935 9.36052 3.55541 9.36052C3.32565 9.36052 3.10306 9.33671 2.88604 9.29195C3.33865 10.8198 4.6522 11.932 6.2093 11.9633C4.99153 12.9952 3.45778 13.61 1.79058 13.61C1.50404 13.61 1.22016 13.5919 0.942383 13.556C2.51593 14.6479 4.38636 15.2845 6.39528 15.2845C12.9389 15.2845 16.5174 9.42305 16.5174 4.33937C16.5174 4.1727 16.5139 4.0066 16.507 3.84193C17.2026 3.29974 17.8057 2.62243 18.2825 1.85103Z" fill="white"/>
</svg>
