<svg width="21" height="13" viewBox="0 0 21 13" fill="none" xmlns="http://www.w3.org/2000/svg">
<path fill-rule="evenodd" clip-rule="evenodd" d="M10.3342 12.4736H11.5031C11.5031 12.4736 11.8562 12.4324 12.0365 12.2256C12.2024 12.0358 12.1971 11.6794 12.1971 11.6794C12.1971 11.6794 12.1743 10.0108 12.9023 9.76509C13.6199 9.52304 14.5414 11.3778 15.5181 12.0909C16.2567 12.6307 16.8179 12.5123 16.8179 12.5123L19.4295 12.4736C19.4295 12.4736 20.7957 12.3841 20.1479 11.2414C20.0948 11.1479 19.7707 10.396 18.2062 8.85114C16.5686 7.23421 16.7879 7.49574 18.7605 4.69881C19.9618 2.99546 20.4421 1.95554 20.2921 1.51015C20.149 1.08593 19.2654 1.19806 19.2654 1.19806L16.3249 1.21755C16.3249 1.21755 16.1069 1.18591 15.9453 1.28872C15.7873 1.38955 15.6856 1.62453 15.6856 1.62453C15.6856 1.62453 15.2202 2.94265 14.5995 4.06362C13.2901 6.42899 12.7666 6.55383 12.5526 6.40697C12.0548 6.06466 12.1791 5.0318 12.1791 4.29804C12.1791 2.00582 12.5059 1.05006 11.5427 0.802653C11.2231 0.720465 10.9878 0.666238 10.1704 0.657483C9.1212 0.645903 8.23314 0.660872 7.73031 0.922969C7.3958 1.09723 7.13775 1.48558 7.29491 1.50789C7.48925 1.53557 7.92943 1.63413 8.16279 1.97221C8.46412 2.40828 8.4535 3.38776 8.4535 3.38776C8.4535 3.38776 8.62659 6.08612 8.04916 6.42137C7.65279 6.65127 7.10907 6.18187 5.94173 4.03594C5.34359 2.93671 4.89199 1.72169 4.89199 1.72169C4.89199 1.72169 4.80491 1.49461 4.6496 1.37317C4.46111 1.22602 4.19775 1.17914 4.19775 1.17914L1.4035 1.19862C1.4035 1.19862 0.984028 1.21105 0.830046 1.40508C0.693055 1.57765 0.819161 1.93464 0.819161 1.93464C0.819161 1.93464 3.00677 7.37938 5.48376 10.1232C7.755 12.6388 10.3342 12.4736 10.3342 12.4736V12.4736Z" fill="white"/>
</svg>
