<svg width="21" height="13" viewBox="0 0 21 13" fill="none" xmlns="http://www.w3.org/2000/svg">
<path fill-rule="evenodd" clip-rule="evenodd" d="M10.5513 12.0047H11.7195C11.7195 12.0047 12.0724 11.9628 12.2525 11.7528C12.4183 11.56 12.413 11.198 12.413 11.198C12.413 11.198 12.3902 9.50313 13.1177 9.25355C13.8348 9.0077 14.7557 10.8916 15.7318 11.616C16.4699 12.1642 17.0307 12.044 17.0307 12.044L19.6406 12.0047C19.6406 12.0047 21.0058 11.9137 20.3585 10.753C20.3054 10.6581 19.9815 9.89442 18.418 8.32523C16.7816 6.68288 17.0007 6.94852 18.972 4.10761C20.1725 2.37748 20.6525 1.32121 20.5026 0.868811C20.3596 0.437927 19.4766 0.551816 19.4766 0.551816L16.538 0.57161C16.538 0.57161 16.3202 0.53948 16.1587 0.643902C16.0008 0.746316 15.8992 0.984995 15.8992 0.984995C15.8992 0.984995 15.4341 2.32383 14.8138 3.46243C13.5053 5.865 12.9821 5.9918 12.7683 5.84262C12.2708 5.49493 12.395 4.44584 12.395 3.70054C12.395 1.37227 12.7216 0.401494 11.759 0.150193C11.4396 0.0667128 11.2045 0.0116331 10.3876 0.00273998C9.33915 -0.00902183 8.45169 0.00618245 7.94919 0.272401C7.6149 0.449402 7.35702 0.843853 7.51409 0.866516C7.70829 0.89463 8.14818 0.994748 8.38138 1.33814C8.68251 1.78107 8.6719 2.77595 8.6719 2.77595C8.6719 2.77595 8.84488 5.51674 8.26783 5.85725C7.87172 6.09077 7.32837 5.61399 6.16181 3.43432C5.56406 2.31781 5.11277 1.08368 5.11277 1.08368C5.11277 1.08368 5.02575 0.853033 4.87055 0.729677C4.68218 0.580216 4.41899 0.532595 4.41899 0.532595L1.62661 0.55239C1.62661 0.55239 1.20742 0.565012 1.05354 0.762094C0.916645 0.937374 1.04267 1.29998 1.04267 1.29998C1.04267 1.29998 3.22881 6.83033 5.70415 9.6173C7.97387 12.1725 10.5513 12.0047 10.5513 12.0047Z" fill="white"/>
</svg>
