<svg width="24" height="24" viewBox="0 0 24 24" fill="none" xmlns="http://www.w3.org/2000/svg">
<path fill-rule="evenodd" clip-rule="evenodd" d="M19.4298 12.9805C19.4698 12.6605 19.4998 12.3405 19.4998 12.0005C19.4998 11.6605 19.4698 11.3405 19.4298 11.0205L21.5398 9.37049C21.7298 9.22049 21.7798 8.95049 21.6598 8.73049L19.6598 5.27049C19.5398 5.05049 19.2698 4.97049 19.0498 5.05049L16.5598 6.05049C16.0398 5.65049 15.4798 5.32049 14.8698 5.07049L14.4898 2.42049C14.4598 2.18049 14.2498 2.00049 13.9998 2.00049H9.99984C9.74984 2.00049 9.53984 2.18049 9.50984 2.42049L9.12984 5.07049C8.51984 5.32049 7.95984 5.66049 7.43984 6.05049L4.94984 5.05049C4.71984 4.96049 4.45984 5.05049 4.33984 5.27049L2.33984 8.73049C2.20984 8.95049 2.26984 9.22049 2.45984 9.37049L4.56984 11.0205C4.52984 11.3405 4.49984 11.6705 4.49984 12.0005C4.49984 12.3305 4.52984 12.6605 4.56984 12.9805L2.45984 14.6305C2.26984 14.7805 2.21984 15.0505 2.33984 15.2705L4.33984 18.7305C4.45984 18.9505 4.72984 19.0305 4.94984 18.9505L7.43984 17.9505C7.95984 18.3505 8.51984 18.6805 9.12984 18.9305L9.50984 21.5805C9.53984 21.8205 9.74984 22.0005 9.99984 22.0005H13.9998C14.2498 22.0005 14.4598 21.8205 14.4898 21.5805L14.8698 18.9305C15.4798 18.6805 16.0398 18.3405 16.5598 17.9505L19.0498 18.9505C19.2798 19.0405 19.5398 18.9505 19.6598 18.7305L21.6598 15.2705C21.7798 15.0505 21.7298 14.7805 21.5398 14.6305L19.4298 12.9805ZM11.9998 15.5003C10.0698 15.5003 8.49976 13.9303 8.49976 12.0003C8.49976 10.0703 10.0698 8.50031 11.9998 8.50031C13.9298 8.50031 15.4998 10.0703 15.4998 12.0003C15.4998 13.9303 13.9298 15.5003 11.9998 15.5003Z" fill="white"/>
</svg>
