<svg width="58" height="37" viewBox="0 0 58 37" fill="none" xmlns="http://www.w3.org/2000/svg">
<path d="M33.793 1.56641L34.1641 2.50391H34.3594L34.5352 2.30859H34.7305L34.9062 2.50391L34.7305 2.67969V2.875L35.1016 3.24609C35.1016 3.71484 32.6146 6.87891 27.6406 12.7383C20.7526 21.6185 16.2214 28.0117 14.0469 31.918C13.513 33.8971 12.6471 34.8867 11.4492 34.8867H10.707C8.59766 34.8867 6.79427 34.0859 5.29688 32.4844L5.66797 30.8047L1.76172 10.3164L0.277344 3.42188V3.24609C0.902344 2.25651 1.64453 1.76172 2.50391 1.76172C4.15755 1.76172 5.77214 2.38021 7.34766 3.61719C8.59766 4.51562 9.22266 6.13021 9.22266 8.46094C9.37891 8.5 10.1211 12.9661 11.4492 21.8594H11.6445L16.0977 16.0977C17.3216 15.069 18.0052 14.1966 18.1484 13.4805H18.3438L18.5195 13.6758H18.7148L20.3945 11.9961L20.5703 12.1719V11.9961L20.3945 11.4297L20.9414 11.0586H21.1367L21.3125 11.9961L21.6836 11.625L21.5078 10.8828H21.6836L21.5078 10.3164C21.8464 9.49609 22.2174 9.0013 22.6211 8.83203H22.8164L22.9922 9.00781H23.1875L23.5586 8.63672V9.00781L23.3633 9.20312V9.37891H23.5586L25.6094 6.78125H25.7852V6.95703L24.4766 8.63672V9.75L26.5273 7.52344L26.7227 7.71875H26.8984V7.34766H27.0938L26.7227 6.41016L26.8984 6.21484H27.0938L27.2695 6.41016H27.4648L29.3203 4.92578L29.5156 5.10156V5.29688L28.5781 6.21484V6.41016H28.9492C31.6966 3.22005 33.3112 1.60547 33.793 1.56641ZM55.0273 0.960938H55.3984C55.9453 0.960938 56.6745 1.38411 57.5859 2.23047L57.7617 2.40625H57.9375L57.7617 3.12891L57.9375 5.31641C57.7422 7.25651 57.0781 8.22656 55.9453 8.22656H54.8516C50.112 8.22656 44.181 9.86068 37.0586 13.1289V13.4805H37.2344C46.0365 14.2096 50.8802 15.4206 51.7656 17.1133C52.612 17.6081 53.0352 18.4609 53.0352 19.6719C52.7096 23.6562 52.2279 25.6484 51.5898 25.6484C48.8555 27.6927 45.8281 29.3268 42.5078 30.5508C37.5208 32.2565 30.6784 34.1966 21.9805 36.3711L21.8047 36.1953V36L23.0742 35.4727V35.1016L21.082 35.4727V35.2773C21.082 35.0039 21.3815 34.8216 21.9805 34.7305V34.3789H21.4336V34.0078H21.8047V33.832L20.7109 33.4609L20.8867 33.2852V32.7383C20.4049 32.7383 20.1641 32.556 20.1641 32.1914L19.9883 32.3672H19.6172V32.1914L19.793 32.0156V31.8398H19.4414C19.4414 31.5924 19.2591 31.4688 18.8945 31.4688V31.293C18.8945 30.681 23.7969 28.9818 33.6016 26.1953C40.112 23.9427 43.8685 22.4323 44.8711 21.6641C34.5716 20.987 29.4219 19.8932 29.4219 18.3828C28.2109 17.6016 27.6055 16.4557 27.6055 14.9453C27.6055 13.5521 28.3346 11.918 29.793 10.043C38.6471 3.98828 47.0586 0.960938 55.0273 0.960938ZM22.5273 33.2852V33.4609H22.8984V33.2852H22.5273Z" fill="#F7567C"/>
</svg>
