<svg width="23" height="23" viewBox="0 0 23 23" fill="none" xmlns="http://www.w3.org/2000/svg">
<path fill-rule="evenodd" clip-rule="evenodd" d="M15.9056 13.7444L19.9879 17.8435C20.3333 18.1903 20.3218 18.7433 19.9629 19.0767C19.794 19.2337 19.5715 19.32 19.3369 19.32C19.0891 19.32 18.8579 19.2249 18.6859 19.0526L14.5726 14.9223C13.4046 15.7147 12.0385 16.1322 10.605 16.1322C6.78644 16.1322 3.67969 13.1328 3.67969 9.4461C3.67969 5.75945 6.78644 2.76001 10.605 2.76001C14.4236 2.76001 17.5303 5.75945 17.5303 9.4461C17.5303 11.024 16.9552 12.5397 15.9056 13.7444ZM15.7247 9.44641C15.7247 6.72139 13.4285 4.50452 10.606 4.50452C7.7835 4.50452 5.4873 6.72139 5.4873 9.44641C5.4873 12.1714 7.7835 14.3883 10.606 14.3883C13.4285 14.3883 15.7247 12.1714 15.7247 9.44641Z" fill="black"/>
</svg>
