
<svg width="1224px" height="455px" version="1.1" xmlns="http://www.w3.org/2000/svg" xmlns:xlink="http://www.w3.org/1999/xlink">
    <!-- Generator: Sketch 51.1 (57501) - http://www.bohemiancoding.com/sketch -->
    <desc>Created with Sketch.</desc>
    <defs></defs>
    <g id="Page-1" stroke="none" stroke-width="1" fill="none" fill-rule="evenodd">
        <g id="Desktop-HD-Copy-16" transform="translate(-135.000000, -57.000000)" fill="#FFFFFF">
            <g id="Group">
                <g id="Group-5-Copy" transform="translate(135.000000, 57.000000)">
                    <circle id="Oval-2" cx="39.5" cy="363.5" r="1.5"></circle>
                    <circle id="Oval-2-Copy" cx="26.5" cy="266.5" r="1.5"></circle>
                    <circle id="Oval-2-Copy-2" cx="87.5" cy="171.5" r="1.5"></circle>
                    <circle id="Oval-2-Copy-4" cx="221.5" cy="81.5" r="1.5"></circle>
                    <circle id="Oval-2-Copy-5" cx="71.5" cy="59.5" r="1.5"></circle>
                    <circle id="Oval-2-Copy-6" cx="2.5" cy="136.5" r="2.5"></circle>
                    <circle id="Oval-2-Copy-7" cx="356.5" cy="115.5" r="1.5"></circle>
                    <circle id="Oval-2-Copy-13" cx="991.5" cy="83.5" r="1.5"></circle>
                    <circle id="Oval-2-Copy-14" cx="1001.5" cy="180.5" r="1.5"></circle>
                    <circle id="Oval-2-Copy-15" cx="1052.5" cy="115.5" r="1.5"></circle>
                    <circle id="Oval-2-Copy-16" cx="1136.5" cy="163.5" r="2.5"></circle>
                    <circle id="Oval-2-Copy-18" cx="1222.5" cy="109.5" r="1.5"></circle>
                    <circle id="Oval-2-Copy-19" cx="1219.5" cy="282.5" r="1.5"></circle>
                    <circle id="Oval-2-Copy-17" cx="296" cy="453" r="2"></circle>
                    <circle id="Oval-2-Copy-8" cx="466.5" cy="144.5" r="1.5"></circle>
                    <circle id="Oval-2-Copy-9" cx="485.5" cy="58.5" r="1.5"></circle>
                    <circle id="Oval-2-Copy-10" cx="615.5" cy="112.5" r="1.5"></circle>
                    <circle id="Oval-2-Copy-11" cx="353.5" cy="1.5" r="1.5"></circle>
                    <circle id="Oval-2-Copy-12" cx="838.5" cy="147.5" r="1.5"></circle>
                    <circle id="Oval-2-Copy-3" cx="271" cy="206" r="3"></circle>
                </g>
            </g>
        </g>
    </g>
</svg>