<svg width="56" height="25" viewBox="0 0 56 25" fill="none" xmlns="http://www.w3.org/2000/svg">
<path d="M0 5C0 2.23858 2.23858 0 5 0H56V25H0V5Z" fill="#F7567C"/>
<path fill-rule="evenodd" clip-rule="evenodd" d="M10 18C12.7614 18 15 15.7614 15 13C15 10.2386 12.7614 8 10 8C7.23858 8 5 10.2386 5 13C5 15.7614 7.23858 18 10 18Z" fill="#FFF9FB"/>
<path d="M22.1055 15.2891H27.0205V16H21.2578V6.04688H22.1055V15.2891ZM30.4112 16H29.5704V6.04688H30.4112V16ZM36.8644 14.7695L36.9191 14.9814L36.9806 14.7695L40.1115 6.04688H41.0343L37.3293 16H36.5226L32.8175 6.04688H33.7336L36.8644 14.7695ZM48.7454 11.2285H44.0901V15.2891H49.4426V16H43.2493V6.04688H49.4085V6.76465H44.0901V10.5176H48.7454V11.2285Z" fill="#FFF9FB"/>
</svg>
