<svg width="40" height="18" viewBox="0 0 40 18" fill="none" xmlns="http://www.w3.org/2000/svg">
<path d="M0 5C0 2.23858 2.23858 0 5 0H40V18H0V5Z" fill="#F7567C"/>
<path fill-rule="evenodd" clip-rule="evenodd" d="M7 13C8.933 13 10.5 11.433 10.5 9.5C10.5 7.567 8.933 6 7 6C5.067 6 3.5 7.567 3.5 9.5C3.5 11.433 5.067 13 7 13Z" fill="#FFF9FB"/>
<path d="M15.5039 10.4922H19.0146V11H14.8984V3.89062H15.5039V10.4922ZM21.4366 11H20.836V3.89062H21.4366V11ZM26.046 10.1211L26.0851 10.2725L26.129 10.1211L28.3654 3.89062H29.0245L26.378 11H25.8019L23.1554 3.89062H23.8097L26.046 10.1211ZM34.5324 7.5918H31.2072V10.4922H35.0305V11H30.6066V3.89062H35.006V4.40332H31.2072V7.08398H34.5324V7.5918Z" fill="#FFF9FB"/>
</svg>
