<svg width="64" height="53" viewBox="0 0 64 53" fill="none" xmlns="http://www.w3.org/2000/svg">
<g filter="url(#filter0_d)">
<path fill-rule="evenodd" clip-rule="evenodd" d="M57.25 9.37476H49.75C48.7188 9.37476 47.6075 8.57476 47.2819 7.59601L45.3431 1.77788C45.0163 0.799756 43.9062 -0.000244141 42.875 -0.000244141H21.625C20.5938 -0.000244141 19.4825 0.799756 19.1569 1.77851L17.2181 7.59663C16.8912 8.57476 15.7812 9.37476 14.75 9.37476H7.25C3.8125 9.37476 1 12.1873 1 15.6248V43.7498C1 47.1873 3.8125 49.9998 7.25 49.9998H57.25C59.558 49.9998 61.5843 48.7319 62.6667 46.8582V12.5163C61.5843 10.6427 59.558 9.37476 57.25 9.37476ZM32.25 18.7498C27.0719 18.7498 22.875 22.9485 22.875 28.1248C22.875 33.3029 27.0719 37.4998 32.25 37.4998C37.4269 37.4998 41.625 33.3029 41.625 28.1248C41.625 22.9485 37.4269 18.7498 32.25 18.7498ZM16.625 28.1248C16.625 36.7541 23.6206 43.7498 32.25 43.7498C40.8781 43.7498 47.875 36.7541 47.875 28.1248C47.875 19.496 40.8781 12.4998 32.25 12.4998C23.6206 12.4998 16.625 19.496 16.625 28.1248ZM55.0625 19.9954C53.855 19.9954 52.875 19.0166 52.875 17.8079C52.875 16.6004 53.855 15.6204 55.0625 15.6204C56.2713 15.6204 57.25 16.6004 57.25 17.8079C57.25 19.0166 56.2706 19.9954 55.0625 19.9954Z" fill="white"/>
</g>
<mask id="mask0" mask-type="alpha" maskUnits="userSpaceOnUse" x="1" y="-1" width="62" height="51">
<path fill-rule="evenodd" clip-rule="evenodd" d="M57.25 9.37476H49.75C48.7188 9.37476 47.6075 8.57476 47.2819 7.59601L45.3431 1.77788C45.0163 0.799756 43.9062 -0.000244141 42.875 -0.000244141H21.625C20.5938 -0.000244141 19.4825 0.799756 19.1569 1.77851L17.2181 7.59663C16.8912 8.57476 15.7812 9.37476 14.75 9.37476H7.25C3.8125 9.37476 1 12.1873 1 15.6248V43.7498C1 47.1873 3.8125 49.9998 7.25 49.9998H57.25C59.558 49.9998 61.5843 48.7319 62.6667 46.8582V12.5163C61.5843 10.6427 59.558 9.37476 57.25 9.37476ZM32.25 18.7498C27.0719 18.7498 22.875 22.9485 22.875 28.1248C22.875 33.3029 27.0719 37.4998 32.25 37.4998C37.4269 37.4998 41.625 33.3029 41.625 28.1248C41.625 22.9485 37.4269 18.7498 32.25 18.7498ZM16.625 28.1248C16.625 36.7541 23.6206 43.7498 32.25 43.7498C40.8781 43.7498 47.875 36.7541 47.875 28.1248C47.875 19.496 40.8781 12.4998 32.25 12.4998C23.6206 12.4998 16.625 19.496 16.625 28.1248ZM55.0625 19.9954C53.855 19.9954 52.875 19.0166 52.875 17.8079C52.875 16.6004 53.855 15.6204 55.0625 15.6204C56.2713 15.6204 57.25 16.6004 57.25 17.8079C57.25 19.0166 56.2706 19.9954 55.0625 19.9954Z" fill="white"/>
</mask>
<g mask="url(#mask0)">
</g>
<defs>
<filter id="filter0_d" x="0" y="-0.000244141" width="63.6667" height="53" filterUnits="userSpaceOnUse" color-interpolation-filters="sRGB">
<feFlood flood-opacity="0" result="BackgroundImageFix"/>
<feColorMatrix in="SourceAlpha" type="matrix" values="0 0 0 0 0 0 0 0 0 0 0 0 0 0 0 0 0 0 127 0"/>
<feOffset dy="2"/>
<feGaussianBlur stdDeviation="0.5"/>
<feColorMatrix type="matrix" values="0 0 0 0 0 0 0 0 0 0 0 0 0 0 0 0 0 0 0.5 0"/>
<feBlend mode="normal" in2="BackgroundImageFix" result="effect1_dropShadow"/>
<feBlend mode="normal" in="SourceGraphic" in2="effect1_dropShadow" result="shape"/>
</filter>
</defs>
</svg>
