
<svg width="22px" height="20px" viewBox="0 0 22 20" version="1.1" xmlns="http://www.w3.org/2000/svg" xmlns:xlink="http://www.w3.org/1999/xlink">
    <!-- Generator: Sketch 51.1 (57501) - http://www.bohemiancoding.com/sketch -->
    <desc>Created with Sketch.</desc>
    <defs></defs>
    <g id="Page-1" stroke="none" stroke-width="1" fill="none" fill-rule="evenodd">
        <g id="Profile" transform="translate(-856.000000, -671.000000)" fill="#123597" fill-rule="nonzero">
            <g id="Group-8" transform="translate(563.000000, 658.000000)">
                <g id="checkbox-pen-outline" transform="translate(293.000000, 13.000000)">
                    <path d="M21.4650456,2.14893617 L19.5178116,0.292765957 C19.3167579,0.100851064 19.0524012,0.00468085106 18.7884904,0.00468085106 C18.5241337,0.00468085106 18.2597771,0.100425532 18.0591692,0.292340426 L16.5015603,1.77489362 L19.9074367,5.02 L21.4650456,3.53787234 C21.8675988,3.15404255 21.8675988,2.53148936 21.4650456,2.14893617 Z" id="Shape"></path>
                    <polygon id="Shape" points="6.39092199 11.4085106 9.79679838 14.6540426 19.1785613 5.71531915 15.7726849 2.46978723"></polygon>
                    <polygon id="Shape" points="5.65580547 12.1025532 4.92871327 16.04 9.06168186 15.3476596"></polygon>
                    <path d="M15.071003,17.7940426 L2.22942249,17.7940426 L2.22942249,5.53659574 L11.2919959,5.53659574 L13.5254306,3.40893617 L1.44170213,3.40893617 C0.648632219,3.40893617 0,4.02808511 0,4.78510638 L0,18.5459574 C0,19.3025532 0.648632219,19.9217021 1.44170213,19.9217021 L15.8582776,19.9217021 C16.6504559,19.9217021 17.2990881,19.3025532 17.2990881,18.5459574 L17.2990881,8.70723404 L15.0701114,10.8314894 L15.071003,17.7940426 Z" id="Shape"></path>
                </g>
            </g>
        </g>
    </g>
</svg>