
<svg width="106px" height="188px" viewBox="0 0 106 188" version="1.1" xmlns="http://www.w3.org/2000/svg" xmlns:xlink="http://www.w3.org/1999/xlink">
    <!-- Generator: Sketch 51.1 (57501) - http://www.bohemiancoding.com/sketch -->
    <desc>Created with Sketch.</desc>
    <defs>
        <filter x="-23.3%" y="-16.7%" width="146.7%" height="146.7%" filterUnits="objectBoundingBox" id="filter-1">
            <feOffset dx="0" dy="2" in="SourceAlpha" result="shadowOffsetOuter1"></feOffset>
            <feGaussianBlur stdDeviation="2" in="shadowOffsetOuter1" result="shadowBlurOuter1"></feGaussianBlur>
            <feColorMatrix values="0 0 0 0 0.970775187   0 0 0 0 0.907238424   0 0 0 0 0.109462149  0 0 0 0.606884058 0" type="matrix" in="shadowBlurOuter1" result="shadowMatrixOuter1"></feColorMatrix>
            <feMerge>
                <feMergeNode in="shadowMatrixOuter1"></feMergeNode>
                <feMergeNode in="SourceGraphic"></feMergeNode>
            </feMerge>
        </filter>
    </defs>
    <g id="Page-1" stroke="none" stroke-width="1" fill="none" fill-rule="evenodd">
        <g id="Регистрация-2-Copy-2" transform="translate(-298.000000, -354.000000)">
            <g id="Group-Copy" transform="translate(351.000000, 460.000000) rotate(90.000000) translate(-351.000000, -460.000000) translate(241.000000, 350.000000)">
                <g id="rocket" transform="translate(109.601551, 109.601551) rotate(-135.000000) translate(-109.601551, -109.601551) translate(32.101551, 32.101551)">
                    <g id="Group-6" filter="url(#filter-1)" transform="translate(23.000000, 105.000000)" fill-rule="nonzero">
                        <path d="M25.402363,3.59100691 C30.1904084,8.37905231 30.1904084,16.2452975 25.402363,21.03356 C20.6143176,25.8216053 6.50635437,32.0633235 1.71830897,27.2752781 C-3.06973642,22.4872327 3.17176461,8.3792694 7.9600271,3.59122401 C12.7480725,-1.19703849 20.5287819,-1.19703849 25.402363,3.59100691 Z" id="Shape" fill="#FFE066"></path>
                        <path d="M11.1111111,1.29856591 L11.1111111,1.81156302 C11.1111111,10.7038024 18.3788235,17.9715147 27.2710628,17.9715147 L27.6129885,17.9715147 C30.0071198,13.3543237 29.2375156,7.54028404 25.304393,3.60716146 C21.5423418,-0.240425418 15.7283022,-1.01002963 11.1111111,1.29856591 Z" id="Shape" fill="#AFA315"></path>
                    </g>
                    <path d="M88.6137119,140.318819 L79.3307729,149.601757 C59.8003583,169.132172 73.3029541,122.235056 52.6873975,101.619499 C32.0718408,81.0039426 -14.9458806,94.6271438 4.7051393,74.9761238 L13.9880782,65.6931849 C33.5187989,46.1630764 62.8142678,50.2621279 83.4298244,70.8773784 C104.045381,91.4929351 108.144126,120.788404 88.6137119,140.318819 Z" id="Shape" fill="#F25F5C" fill-rule="nonzero"></path>
                    <path d="M116.704045,87.2732783 C91.6279274,112.228791 75.8347482,121.029615 75.8347482,121.029615 C59.0770323,132.362232 50.9998408,124.646245 40.3905491,114.037259 C29.7812574,103.428273 21.9452766,95.3507759 33.3981936,78.59306 C33.3981936,78.59306 42.3196226,62.6792755 67.2751353,37.6031574 C105.732938,-0.854645041 145.396794,-3.7479491 151.665823,2.64137968 C157.934853,8.9104092 155.162154,48.6945644 116.704045,87.2732783 Z" id="Shape" fill="#F4F0D3" fill-rule="nonzero"></path>
                    <path d="M114.774972,5.65559519 C115.860114,13.7330928 120.20007,22.2927057 127.313031,29.4056666 C133.582061,35.5540908 140.815627,39.6531423 147.928588,41.341005 C155.885174,21.5690736 155.282453,6.3789212 151.665823,2.64137968 C148.169492,-0.975250394 133.702666,-1.57797105 114.774972,5.65559519 Z" id="Shape" fill="#F25F5C" fill-rule="nonzero"></path>
                    <g id="Group-7" transform="translate(91.004724, 63.310603) rotate(45.000000) translate(-91.004724, -63.310603) translate(68.504724, 40.810603)">
                        <circle id="Oval-3" stroke="#4A4A4A" stroke-width="3" fill="#4A90E2" cx="22.5" cy="22.5" r="22.5"></circle>
                        <path d="M5.74175055,23.9184764 C7.4495879,23.1295587 5.95553352,19.1075596 8.03612734,14.0890611 C10.6471216,7.7912096 15.734097,6.31934668 14.9109501,5.51426283 C13.0091756,3.65422061 8.2286628,7.08754484 5.74175055,11.8340013 C3.25483831,16.5804578 3.59003441,24.9124394 5.74175055,23.9184764 Z" id="Oval-4" fill="#FFFFFF" transform="translate(9.500000, 14.500000) rotate(6.000000) translate(-9.500000, -14.500000) "></path>
                    </g>
                </g>
            </g>
        </g>
    </g>
</svg>