<svg width="109" height="116" viewBox="0 0 109 116" fill="none" xmlns="http://www.w3.org/2000/svg">
<g filter="url(#filter0_d)">
<path d="M33.651 76.3222C37.486 81.0582 36.746 88.0988 32.0101 91.9341C27.2742 95.7691 14.06 100.029 10.225 95.2927C6.38999 90.5567 13.3035 78.5167 18.0395 74.6816C22.7754 70.8463 29.7394 71.5783 33.651 76.3222Z" fill="#FFE066"/>
</g>
<path d="M21.0888 72.9128L21.0405 73.372C20.204 81.3313 26.0255 88.5202 33.9848 89.3568L34.2908 89.389C36.8682 85.4814 36.7263 80.205 33.5758 76.3145C30.5704 72.5166 25.4387 71.2808 21.0888 72.9128Z" fill="#AFA315"/>
<path d="M57.335 99.0838L50.8228 104.357C37.1218 115.452 48.8222 86.5827 37.111 72.1205C25.3997 57.6583 -5.35613 63.1693 8.42946 52.0059L14.9416 46.7325C28.6428 35.6379 46.9661 40.1946 58.6774 54.6566C70.3887 69.1188 71.036 87.989 57.335 99.0838Z" fill="#F25F5C"/>
<path d="M78.7061 67.2846C61.1228 81.4533 50.5101 85.9863 50.5101 85.9863C39.1162 92.0622 34.5036 86.6252 28.4766 79.1827C22.4497 71.7403 18.0143 66.0899 26.4027 56.2162C26.4027 56.2162 33.1278 46.7094 50.6427 32.4561C77.6216 10.609 102.993 11.4187 106.547 15.893C110.108 20.2908 105.693 45.3608 78.7061 67.2846Z" fill="#F4F0D3"/>
<path fill-rule="evenodd" clip-rule="evenodd" d="M57.9312 61.2911C63.9691 64.638 71.5771 62.4565 74.924 56.4185C78.2709 50.3805 76.0894 42.7725 70.0514 39.4256C64.0134 36.0787 56.4054 38.2602 53.0585 44.2982C49.7116 50.3362 51.8932 57.9442 57.9312 61.2911Z" fill="#4A90E2" stroke="#4A4A4A" stroke-width="3"/>
<path fill-rule="evenodd" clip-rule="evenodd" d="M55.2639 45.9812C56.2818 46.1651 56.8754 43.8848 59.3933 42.2838C62.5531 40.2748 65.3085 41.2175 65.1912 40.5957C64.9203 39.1591 61.6852 39.1953 59.0699 40.5457C56.4545 41.8961 53.9814 45.7495 55.2639 45.9812Z" fill="white"/>
<path d="M82.9273 15.3451C83.0772 20.545 85.261 26.268 89.3016 31.2577C92.8707 35.5789 97.1889 38.6635 101.591 40.2095C107.961 28.1895 108.592 18.5068 106.546 15.893C104.568 13.364 95.4247 12.0162 82.9273 15.3451Z" fill="#F25F5C"/>
<defs>
<filter id="filter0_d" x="3.52539" y="65.7185" width="38.6774" height="38.6779" filterUnits="userSpaceOnUse" color-interpolation-filters="sRGB">
<feFlood flood-opacity="0" result="BackgroundImageFix"/>
<feColorMatrix in="SourceAlpha" type="matrix" values="0 0 0 0 0 0 0 0 0 0 0 0 0 0 0 0 0 0 127 0"/>
<feOffset/>
<feGaussianBlur stdDeviation="2.5"/>
<feColorMatrix type="matrix" values="0 0 0 0 1 0 0 0 0 0.878431 0 0 0 0 0.4 0 0 0 0.5 0"/>
<feBlend mode="normal" in2="BackgroundImageFix" result="effect1_dropShadow"/>
<feBlend mode="normal" in="SourceGraphic" in2="effect1_dropShadow" result="shape"/>
</filter>
</defs>
</svg>
