<svg width="30" height="25" viewBox="0 0 30 25" fill="none" xmlns="http://www.w3.org/2000/svg">
<path fill-rule="evenodd" clip-rule="evenodd" d="M15 24.5979C23.2843 24.5979 30 23.3627 30 16.5701C30 9.77763 23.2843 0 15 0C6.71573 0 0 9.77763 0 16.5701C0 23.3627 6.71573 24.5979 15 24.5979Z" fill="#F3A6A4"/>
<path fill-rule="evenodd" clip-rule="evenodd" d="M7.97113 4.62986C8.69544 4.62986 8.68887 3.87303 8.68887 2.93613C8.68887 1.99924 6.79812 1.18726 6.79812 1.18726C6.79812 1.18726 6.06592 1.99924 6.06592 2.93613C6.06592 3.87303 7.24682 4.62986 7.97113 4.62986Z" fill="#EF476F"/>
<path fill-rule="evenodd" clip-rule="evenodd" d="M21.8653 4.62986C21.141 4.62986 21.1476 3.87303 21.1476 2.93613C21.1476 1.99924 23.0383 1.18726 23.0383 1.18726C23.0383 1.18726 23.7705 1.99924 23.7705 2.93613C23.7705 3.87303 22.5896 4.62986 21.8653 4.62986Z" fill="#EF476F"/>
<path fill-rule="evenodd" clip-rule="evenodd" d="M15.3926 19.3412C19.1877 19.3412 22.2642 16.1576 22.2642 12.2304C22.2642 8.30323 19.1877 5.11963 15.3926 5.11963C11.5975 5.11963 8.521 8.30323 8.521 12.2304C8.521 16.1576 11.5975 19.3412 15.3926 19.3412Z" fill="#FAFAFA"/>
<path fill-rule="evenodd" clip-rule="evenodd" d="M15.5295 15.9281C17.4271 15.9281 18.9653 14.3363 18.9653 12.3728C18.9653 10.4092 17.4271 8.81738 15.5295 8.81738C13.632 8.81738 12.0938 10.4092 12.0938 12.3728C12.0938 14.3363 13.632 15.9281 15.5295 15.9281Z" fill="#4A4A4A"/>
<path fill-rule="evenodd" clip-rule="evenodd" d="M15.4211 4.78418C18.0074 4.78418 20.4207 7.35047 20.4207 7.35047C20.4207 7.35047 17.7278 5.48784 15.4211 5.48784C13.1144 5.48784 10.4214 7.35047 10.4214 7.35047C10.4214 7.35047 12.8347 4.78418 15.4211 4.78418Z" fill="#4A4A4A"/>
<path d="M17.9846 4.89402C18.0959 4.69461 18.3449 4.6279 18.541 4.74502C18.737 4.86214 18.8057 5.11873 18.6944 5.31814L18.3221 5.98548L17.6123 5.56136L17.9846 4.89402Z" fill="#4A4A4A"/>
<path d="M13.114 4.89402C13.0028 4.69461 12.7537 4.6279 12.5577 4.74502C12.3617 4.86214 12.2929 5.11873 12.4042 5.31814L12.7765 5.98548L13.4863 5.56136L13.114 4.89402Z" fill="#4A4A4A"/>
<path d="M15.959 3.97258C15.959 3.74623 15.7755 3.56274 15.5491 3.56274C15.3228 3.56274 15.1393 3.74623 15.1393 3.97258V5.25915H15.959V3.97258Z" fill="#4A4A4A"/>
</svg>
