<svg width="606" height="1024" viewBox="0 0 606 1024" fill="none" xmlns="http://www.w3.org/2000/svg">
<rect y="-2" width="606" height="1028" fill="url(#paint0_linear)"/>
<path fill-rule="evenodd" clip-rule="evenodd" d="M99.5 392C100.328 392 101 391.328 101 390.5C101 389.672 100.328 389 99.5 389C98.6716 389 98 389.672 98 390.5C98 391.328 98.6716 392 99.5 392Z" fill="white"/>
<path fill-rule="evenodd" clip-rule="evenodd" d="M86.5 294C87.3284 294 88 293.328 88 292.5C88 291.672 87.3284 291 86.5 291C85.6716 291 85 291.672 85 292.5C85 293.328 85.6716 294 86.5 294Z" fill="white"/>
<path fill-rule="evenodd" clip-rule="evenodd" d="M147.5 200C148.328 200 149 199.328 149 198.5C149 197.672 148.328 197 147.5 197C146.672 197 146 197.672 146 198.5C146 199.328 146.672 200 147.5 200Z" fill="white"/>
<path fill-rule="evenodd" clip-rule="evenodd" d="M281.5 110C282.328 110 283 109.328 283 108.5C283 107.672 282.328 107 281.5 107C280.672 107 280 107.672 280 108.5C280 109.328 280.672 110 281.5 110Z" fill="white"/>
<path fill-rule="evenodd" clip-rule="evenodd" d="M131.5 88C132.328 88 133 87.3284 133 86.5C133 85.6716 132.328 85 131.5 85C130.672 85 130 85.6716 130 86.5C130 87.3284 130.672 88 131.5 88Z" fill="white"/>
<path fill-rule="evenodd" clip-rule="evenodd" d="M62.5 166C63.8807 166 65 164.881 65 163.5C65 162.119 63.8807 161 62.5 161C61.1193 161 60 162.119 60 163.5C60 164.881 61.1193 166 62.5 166Z" fill="white"/>
<path fill-rule="evenodd" clip-rule="evenodd" d="M416.5 144C417.328 144 418 143.328 418 142.5C418 141.672 417.328 141 416.5 141C415.672 141 415 141.672 415 142.5C415 143.328 415.672 144 416.5 144Z" fill="white"/>
<path fill-rule="evenodd" clip-rule="evenodd" d="M526.5 173C527.328 173 528 172.328 528 171.5C528 170.672 527.328 170 526.5 170C525.672 170 525 170.672 525 171.5C525 172.328 525.672 173 526.5 173Z" fill="white"/>
<path fill-rule="evenodd" clip-rule="evenodd" d="M545.5 87C546.328 87 547 86.3284 547 85.5C547 84.6716 546.328 84 545.5 84C544.672 84 544 84.6716 544 85.5C544 86.3284 544.672 87 545.5 87Z" fill="white"/>
<path fill-rule="evenodd" clip-rule="evenodd" d="M413.5 30C414.328 30 415 29.3284 415 28.5C415 27.6716 414.328 27 413.5 27C412.672 27 412 27.6716 412 28.5C412 29.3284 412.672 30 413.5 30Z" fill="white"/>
<path fill-rule="evenodd" clip-rule="evenodd" d="M331 236C332.657 236 334 234.657 334 233C334 231.343 332.657 230 331 230C329.343 230 328 231.343 328 233C328 234.657 329.343 236 331 236Z" fill="white"/>
<path fill-rule="evenodd" clip-rule="evenodd" d="M248.477 573.048C248.477 545.986 270.415 524.048 297.477 524.048H304.702H311.927C338.989 524.048 360.927 545.986 360.927 573.048V649.595C360.927 655.67 356.002 660.595 349.927 660.595H304.702H259.477C253.402 660.595 248.477 655.67 248.477 649.595V573.048Z" fill="#DBBCE2"/>
<path d="M248.477 623.04C248.477 622.488 248.925 622.04 249.477 622.04H359.927C360.479 622.04 360.927 622.488 360.927 623.04V637.701C360.927 651.232 349.958 662.201 336.427 662.201H272.977C259.446 662.201 248.477 651.232 248.477 637.701V623.04Z" fill="#F4B19D"/>
<rect x="270.967" y="532.08" width="14.4578" height="89.9598" fill="#F4B19D"/>
<rect x="323.979" y="530.474" width="14.4578" height="94.7791" fill="#F4B19D"/>
<path fill-rule="evenodd" clip-rule="evenodd" d="M303.095 541.719C354.553 541.719 396.268 486.794 396.268 419.04C396.268 351.286 209.923 351.286 209.923 419.04C209.923 486.794 251.637 541.719 303.095 541.719Z" fill="#F8EDE0"/>
<path fill-rule="evenodd" clip-rule="evenodd" d="M303.324 504.831C310.354 504.831 316.053 501.385 316.053 497.135C316.053 494.607 290.595 494.123 290.595 497.135C290.595 501.385 296.294 504.831 303.324 504.831Z" fill="#EE9393"/>
<path fill-rule="evenodd" clip-rule="evenodd" d="M303.324 504.813C306.104 504.813 308.357 504.552 308.357 503.571C308.357 502.59 306.104 501.261 303.324 501.261C300.545 501.261 298.292 502.59 298.292 503.571C298.292 504.552 300.545 504.813 303.324 504.813Z" fill="#FDA981"/>
<path fill-rule="evenodd" clip-rule="evenodd" d="M309.531 498.322C310.185 498.322 310.986 495.922 310.706 495.623C310.506 495.411 308.551 495.178 308.338 495.465C308.117 495.761 308.877 498.322 309.531 498.322Z" fill="white"/>
<path fill-rule="evenodd" clip-rule="evenodd" d="M261.289 492.093C265.703 492.093 269.281 489.178 269.281 485.581C269.281 481.984 265.703 479.068 261.289 479.068C256.875 479.068 253.296 481.984 253.296 485.581C253.296 489.178 256.875 492.093 261.289 492.093Z" fill="#FBA5F6" fill-opacity="0.356091"/>
<path fill-rule="evenodd" clip-rule="evenodd" d="M345.36 492.093C349.774 492.093 353.352 489.178 353.352 485.581C353.352 481.984 349.774 479.068 345.36 479.068C340.946 479.068 337.367 481.984 337.367 485.581C337.367 489.178 340.946 492.093 345.36 492.093Z" fill="#FBA5F6" fill-opacity="0.356091"/>
<path fill-rule="evenodd" clip-rule="evenodd" d="M331.68 468.091C335.601 468.091 337.223 472.25 340.38 470.183C343.538 468.117 339.09 463.004 331.68 463.004C324.27 463.004 320.566 468.031 323.24 470.183C325.913 472.336 327.76 468.091 331.68 468.091Z" fill="black"/>
<path fill-rule="evenodd" clip-rule="evenodd" d="M273.849 468.091C277.769 468.091 279.391 472.25 282.549 470.183C285.706 468.117 281.259 463.004 273.849 463.004C266.439 463.004 262.734 468.031 265.408 470.183C268.082 472.336 269.929 468.091 273.849 468.091Z" fill="black"/>
<path fill-rule="evenodd" clip-rule="evenodd" d="M204.599 391.589C207.477 377.075 220.211 366.618 235.007 366.618H300.713V438.759C300.713 445.939 294.893 451.759 287.713 451.759H192.667L204.599 391.589Z" fill="#F8F3BD"/>
<path fill-rule="evenodd" clip-rule="evenodd" d="M399.145 392.284C396.553 377.446 383.67 366.618 368.608 366.618H301.489V441.759C301.489 447.282 305.966 451.759 311.489 451.759H409.535L399.145 392.284Z" fill="#4A4A4A"/>
<rect x="270.967" y="654.169" width="12.8514" height="57.8313" rx="4" fill="#F8EDE0"/>
<rect x="327.192" y="654.169" width="12.8514" height="57.8313" rx="4" fill="#F8EDE0"/>
<path fill-rule="evenodd" clip-rule="evenodd" d="M303.511 553.736C370.051 553.736 423.993 499.795 423.993 433.254C423.993 366.714 370.051 312.772 303.511 312.772C236.97 312.772 183.029 366.714 183.029 433.254C183.029 499.795 236.97 553.736 303.511 553.736Z" fill="#808CB1" fill-opacity="0.319639"/>
<path fill-rule="evenodd" clip-rule="evenodd" d="M251.325 338.479C253.9 337.039 257.091 337.767 258.892 340.104C261.373 343.323 260.165 348.135 256.632 350.143C249.573 354.155 238.359 361.658 227.807 373.542C210.673 392.838 207.518 412.972 203.363 413.814C199.209 414.657 196.022 414.973 197.64 404.759C199.258 394.546 206.061 377.255 219.044 362.634C228.543 351.936 243.814 342.677 251.325 338.479Z" fill="white"/>
<rect y="626" width="606" height="400" fill="url(#paint1_linear)"/>
<path d="M314.575 681.303L301.525 692.647C300.816 693.263 299.743 693.188 299.128 692.48L276.925 666.938C276.309 666.23 276.384 665.157 277.092 664.541L290.142 653.197C290.85 652.581 291.924 652.656 292.539 653.365L314.742 678.906C315.358 679.614 315.283 680.688 314.575 681.303Z" fill="#424A60"/>
<rect x="279.205" y="659.049" width="6.89655" height="2.75862" transform="rotate(-41 279.205 659.049)" fill="#D8A852"/>
<path d="M298.572 668.714L296.49 670.524L290.639 663.793C290.619 663.757 290.564 663.774 290.566 663.814L292.642 676.61L295.245 674.347L301.548 681.596C301.567 681.634 301.623 681.62 301.622 681.578L298.572 668.714Z" fill="#EFCE4A"/>
<path d="M290.142 653.197L277.092 664.541C276.384 665.157 276.309 666.23 276.925 666.938L279.882 670.34L295.497 656.767L292.539 653.365C291.924 652.656 290.85 652.581 290.142 653.197Z" fill="#EA6248"/>
<path fill-rule="evenodd" clip-rule="evenodd" d="M392.5 724C404.926 724 415 713.926 415 701.5C415 689.074 404.926 679 392.5 679C380.074 679 370 689.074 370 701.5C370 713.926 380.074 724 392.5 724Z" fill="#4A90E2" stroke="#4A4A4A" stroke-width="3"/>
<path fill-rule="evenodd" clip-rule="evenodd" d="M374.94 702.225C376.703 701.626 375.648 697.518 378.215 692.8C381.436 686.88 386.596 685.959 385.869 685.083C384.189 683.058 379.127 685.938 376.189 690.346C373.25 694.754 372.719 702.979 374.94 702.225Z" fill="white"/>
<path d="M445.796 771.536L448.972 784.274C455.654 811.074 422.41 775.346 394.121 782.4C365.832 789.453 353.294 836.771 346.571 809.806L343.395 797.068C336.713 770.268 355.315 747.268 383.604 740.215C411.892 733.162 439.114 744.737 445.796 771.536Z" fill="#F25F5C"/>
<path d="M239.602 769.039C256.828 738.138 269.583 725.325 269.583 725.325C282.568 709.812 292.459 715.003 305.582 722.277C318.704 729.55 328.463 735.155 322.073 754.421C322.073 754.421 317.884 772.177 300.807 803.16C274.439 850.729 237.109 864.443 229.322 860.029C221.568 855.731 213.267 816.724 239.602 769.039Z" fill="#F4F0D3"/>
<path d="M170.541 735.187C178.024 738.417 187.596 739.105 197.357 736.672C205.856 734.465 213.095 730.376 218.205 725.148C205.355 708.145 192.024 700.838 186.958 702.013C182.057 703.147 174.09 715.237 170.541 735.187Z" fill="#F25F5C"/>
<g filter="url(#filter0_d)">
<path d="M395.248 636.291L394.758 636.692C393.95 637.5 393.35 638.432 392.899 639.411L365.721 639.409C365.271 638.429 364.67 637.498 363.863 636.69L363.373 636.289C359.694 633.077 354.125 633.186 350.621 636.69C349.601 637.71 348.895 638.915 348.445 640.19L357.242 640.19C357.705 640.19 358.138 640.305 358.533 640.488C359.603 640.981 360.36 642.051 360.362 643.311C360.362 644.172 360.014 644.953 359.449 645.518C359.188 645.778 358.873 645.979 358.533 646.134C358.133 646.313 357.705 646.432 357.239 646.43L348.445 646.432C348.895 647.707 349.601 648.912 350.621 649.932C354.125 653.437 359.694 653.545 363.373 650.334L363.863 649.932C364.67 649.124 365.271 648.193 365.723 647.215L392.897 647.217C393.352 648.193 393.952 649.124 394.76 649.932L395.252 650.331C398.929 653.549 404.497 653.437 408.002 649.932C409.021 648.912 409.734 647.71 410.178 646.432L401.381 646.432C400.922 646.432 400.485 646.317 400.088 646.14C399.017 645.648 398.258 644.576 398.26 643.311C398.256 642.455 398.609 641.669 399.174 641.104C399.434 640.844 399.745 640.643 400.092 640.486C400.489 640.305 400.92 640.184 401.381 640.191H410.178C409.727 638.911 409.021 637.71 408.002 636.69C404.495 633.188 398.927 633.08 395.248 636.291Z" fill="#8096B0"/>
</g>
<path fill-rule="evenodd" clip-rule="evenodd" d="M248.132 560.794C249.765 558.739 252.708 558.432 254.803 560.014L256.469 561.272C258.594 562.877 259.1 565.856 257.639 568.082C252.195 576.375 239.828 595.771 235.664 606.982C231.797 617.394 232.638 633.717 233.427 642.146C233.701 645.075 231.509 647.721 228.571 647.875L223.959 648.116C221.507 648.245 219.35 646.578 219.063 644.14C218.205 636.848 217.424 620.935 223.463 603.398C229.731 585.193 242.39 568.02 248.132 560.794Z" fill="#F8EDE0"/>
<path fill-rule="evenodd" clip-rule="evenodd" d="M359.74 560.654C358.143 558.57 355.206 558.212 353.084 559.757L351.396 560.986C349.243 562.553 348.686 565.523 350.108 567.774C355.406 576.161 367.432 595.77 371.4 607.052C375.085 617.53 373.96 633.836 373.024 642.25C372.698 645.174 374.844 647.857 377.779 648.062L382.386 648.384C384.835 648.556 387.021 646.927 387.35 644.494C388.335 637.218 389.394 621.322 383.662 603.681C377.713 585.37 365.356 567.979 359.74 560.654Z" fill="#F8EDE0"/>
<defs>
<filter id="filter0_d" x="340" y="606" width="78.6224" height="78.6224" filterUnits="userSpaceOnUse" color-interpolation-filters="sRGB">
<feFlood flood-opacity="0" result="BackgroundImageFix"/>
<feColorMatrix in="SourceAlpha" type="matrix" values="0 0 0 0 0 0 0 0 0 0 0 0 0 0 0 0 0 0 127 0"/>
<feOffset dy="2"/>
<feGaussianBlur stdDeviation="2"/>
<feColorMatrix type="matrix" values="0 0 0 0 0 0 0 0 0 0 0 0 0 0 0 0 0 0 0.5 0"/>
<feBlend mode="normal" in2="BackgroundImageFix" result="effect1_dropShadow"/>
<feBlend mode="normal" in="SourceGraphic" in2="effect1_dropShadow" result="shape"/>
</filter>
<linearGradient id="paint0_linear" x1="606" y1="1026" x2="606" y2="-2" gradientUnits="userSpaceOnUse">
<stop stop-color="#2B3780"/>
<stop offset="1" stop-color="#20244C"/>
</linearGradient>
<linearGradient id="paint1_linear" x1="782.308" y1="1258.75" x2="782.308" y2="626" gradientUnits="userSpaceOnUse">
<stop stop-color="#434A83"/>
<stop offset="1" stop-color="#20244C"/>
</linearGradient>
</defs>
</svg>
