
<svg width="299px" height="439px" viewBox="0 0 299 439" version="1.1" xmlns="http://www.w3.org/2000/svg" xmlns:xlink="http://www.w3.org/1999/xlink">
    <!-- Generator: Sketch 51.1 (57501) - http://www.bohemiancoding.com/sketch -->
    <desc>Created with Sketch.</desc>
    <defs></defs>
    <g id="Page-1" stroke="none" stroke-width="1" fill="none" fill-rule="evenodd">
        <g id="Вход" transform="translate(-173.000000, -153.000000)">
            <g id="Хедер">
                <g id="Group-2" transform="translate(173.000000, 149.000000)">
                    <g id="mars" transform="translate(0.000000, 144.000000)">
                        <path d="M15.4125936,215.637419 C15.0164727,214.836458 14.62658,214.031136 14.2441613,213.222078 C14.6259572,214.031759 15.0164727,214.836458 15.4125936,215.637419 Z" id="Shape" fill="#FF4F19" fill-rule="nonzero"></path>
                        <path d="M13.9059637,212.497725 C13.5397387,211.711088 13.1784963,210.92196 12.8253507,210.128473 C13.1778734,210.922583 13.5397387,211.711088 13.9059637,212.497725 Z" id="Shape" fill="#FF4F19" fill-rule="nonzero"></path>
                        <path d="M12.4759421,209.330002 C12.1340075,208.548972 11.795187,207.765449 11.4663319,206.977567 C11.795187,207.765449 12.1340075,208.548349 12.4759421,209.330002 Z" id="Shape" fill="#FF4F19" fill-rule="nonzero"></path>
                        <path d="M11.1262658,206.144841 C10.8030161,205.356959 10.4816349,204.567208 10.1714647,203.772475 C10.4816349,204.567831 10.8030161,205.356959 11.1262658,206.144841 Z" id="Shape" fill="#FF4F19" fill-rule="nonzero"></path>
                        <path d="M189.067418,5.30964037 C213.081941,11.9010684 234.677385,24.3396406 252.245599,40.9860638 C246.320601,40.2716759 240.302178,39.8612298 234.184725,39.8612298 C156.785428,39.8612298 93.1264209,98.6864396 85.4761789,174.067139 C85.4743104,174.08707 85.4724419,174.107623 85.4705734,174.127554 C85.4699506,174.136274 85.4693278,174.144993 85.4680821,174.153713 C105.205619,177.572436 127.215246,179.375534 149.479612,179.375534 C175.550724,179.375534 201.043227,176.932788 223.202333,172.310131 C231.946268,170.480251 240.145224,168.320271 247.580589,165.877525 C250.193368,165.011166 253.006077,166.441811 253.867453,169.059572 C254.723846,171.672351 253.303167,174.485059 250.685406,175.346436 C245.84102,176.937148 240.665912,178.396443 235.272812,179.743005 C235.209906,179.7947 235.180633,179.870685 235.114613,179.920512 L225.363559,187.233802 L235.508865,190.031562 C237.693759,190.635086 239.197275,192.630016 239.168001,194.892763 C239.138728,197.160494 237.591614,199.121168 235.391773,199.666146 C210.249302,205.953009 180.538361,209.271456 149.479612,209.271456 C147.285376,209.271456 145.348369,207.835829 144.711212,205.733772 C144.074055,203.631715 144.89121,201.359625 146.716107,200.142612 C148.312425,199.076947 148.253879,197.495577 148.156717,196.867763 C148.059555,196.234966 147.631047,194.707159 145.78186,194.18149 L118.508682,188.152479 C118.468198,188.143136 118.438925,188.113863 118.398441,188.103898 C106.790103,187.234425 95.4776106,185.932706 84.8053892,184.140819 C84.7462202,185.867309 84.7057361,187.598781 84.7057361,189.340219 C84.7057361,223.100812 95.9235581,254.222467 114.807193,279.239126 C126.375669,273.971215 138.27736,268.624827 149.689506,269.067661 C167.639516,269.856166 176.811959,264.790675 176.899778,264.737112 C179.283978,263.408612 182.325265,264.22639 183.683038,266.595642 C185.040811,268.970499 184.252306,271.986873 181.887414,273.363954 C181.430256,273.636754 170.48648,279.93296 149.271586,279.023003 C140.900105,278.59574 131.035073,282.813557 121.28402,287.241267 C121.28402,287.241267 121.284643,287.24189 121.285266,287.242513 C121.284643,287.243136 121.28402,287.243136 121.282774,287.243759 C124.489112,290.935905 127.871711,294.471721 131.419983,297.833766 C123.41099,296.868377 115.598812,295.2677 108.030784,293.088412 C108.030161,293.088412 108.028915,293.089034 108.028293,293.089657 C108.006493,293.083429 107.984694,293.075955 107.962895,293.069727 C106.712249,292.709107 105.468454,292.331048 104.230888,291.938664 C103.461068,291.696383 102.698099,291.439776 101.933884,291.186283 C101.638662,291.087253 101.342817,290.990714 101.04884,290.890438 C97.6980057,289.755639 94.3938834,288.521809 91.1595183,287.150334 C91.1937741,287.15158 91.231144,287.148465 91.2660226,287.149088 C60.4514234,274.110729 34.9171916,251.042911 18.7696566,222.030787 C44.2889404,267.911685 93.2547242,298.959223 149.479612,298.959223 C232.03471,298.959223 298.959223,232.03471 298.959223,149.479612 C298.959223,80.6305482 252.408158,22.6636005 189.067418,5.30964037 Z M169.410227,144.496958 C169.249536,144.506923 168.986701,144.491975 168.77307,144.491975 C161.654103,144.491975 157.269991,146.730432 152.209483,149.313938 C146.832577,152.058135 140.886402,155.09444 131.73389,155.09444 C129.310452,155.09444 126.6684,154.880185 123.749188,154.393754 C121.034264,153.940955 119.199402,151.371774 119.652201,148.661834 C120.100017,145.94691 122.659232,144.082775 125.384121,144.564847 C136.103678,146.341163 141.461276,143.611291 147.679628,140.438586 C153.246498,137.592246 159.35274,134.244525 169.493063,134.53165 C172.242242,134.575249 174.437101,136.842979 174.39288,139.597141 C174.349282,142.317047 172.12515,144.496958 169.410227,144.496958 Z M208.205791,137.611553 C203.73386,143.304858 192.839287,144.31696 189.608659,144.491975 C189.515857,144.496958 189.428661,144.496958 189.335859,144.496958 C186.708132,144.496958 184.513896,142.443482 184.36753,139.786482 C184.216805,137.042285 186.318862,134.691718 189.063058,134.540993 C193.841423,134.268193 199.334799,132.76966 200.371191,131.451125 C202.069653,129.290522 205.198137,128.906234 207.368083,130.614039 C209.529309,132.312501 209.908613,135.44659 208.205791,137.611553 Z M128.104027,207.777283 C127.155454,208.721496 125.860587,209.270833 124.566343,209.270833 C123.272099,209.270833 121.972872,208.720873 121.028659,207.825864 C120.128667,206.877291 119.583689,205.582424 119.583689,204.28818 C119.583689,202.993935 120.128667,201.694708 121.028659,200.750496 C122.872864,198.906291 126.210619,198.906291 128.103404,200.750496 C129.047617,201.694708 129.548374,202.993935 129.548374,204.28818 C129.548374,205.582424 129.047617,206.877291 128.104027,207.777283 Z M192.877903,232.690552 C191.92933,233.634765 190.634463,234.184102 189.340219,234.184102 C188.045974,234.184102 186.746747,233.634142 185.802534,232.739133 C184.902543,231.79056 184.357565,230.495693 184.357565,229.201448 C184.357565,227.907204 184.902543,226.607977 185.802534,225.663764 C187.646739,223.81956 190.984494,223.81956 192.87728,225.663764 C193.821493,226.607977 194.322249,227.907204 194.322249,229.201448 C194.322249,230.495693 193.822116,231.79056 192.877903,232.690552 Z M232.739133,123.010509 C231.79056,123.954722 230.495693,124.50406 229.201448,124.50406 C227.907204,124.50406 226.607977,123.954099 225.663764,123.05909 C224.763772,122.110518 224.218795,120.81565 224.218795,119.521406 C224.218795,118.227162 224.763772,116.927935 225.663764,115.983722 C227.507969,114.139517 230.845724,114.139517 232.73851,115.983722 C233.682723,116.927935 234.183479,118.227162 234.183479,119.521406 C234.183479,120.81565 233.683345,122.110518 232.739133,123.010509 Z M252.669747,143.002785 C251.721175,143.946998 250.426308,144.496335 249.132063,144.496335 C247.837819,144.496335 246.538592,143.946375 245.594379,143.051366 C244.694387,142.102793 244.14941,140.807926 244.14941,139.513681 C244.14941,138.219437 244.694387,136.92021 245.594379,135.975997 C247.438584,134.131793 250.776339,134.131793 252.669125,135.975997 C253.613337,136.92021 254.114094,138.219437 254.114094,139.513681 C254.114094,140.807926 253.61396,142.102793 252.669747,143.002785 Z M230.306352,81.2988466 C229.931407,81.3866659 229.562068,81.4252815 229.192106,81.4252815 C226.920016,81.4252815 224.86654,79.8632195 224.34087,77.551891 C223.728003,74.8706005 225.401552,72.1992753 228.087825,71.5864088 C243.539034,68.0537074 256.942373,63.6969995 268.195696,58.6856955 C270.260384,61.3813112 272.23912,64.1435699 274.119449,66.9786998 C261.910079,72.6078529 247.213742,77.43729 230.306352,81.2988466 Z" id="Shape" fill="#A4D7FB" fill-rule="nonzero"></path>
                        <path d="M16.9927177,218.742858 C16.5592268,217.916361 16.1344556,217.084257 15.7159127,216.24904 C16.1344556,217.08488 16.5598496,217.916361 16.9927177,218.742858 Z" id="Shape" fill="#FF4F19" fill-rule="nonzero"></path>
                        <path d="M18.6432217,221.80719 C18.1630185,220.940831 17.6934034,220.068867 17.2300166,219.192543 C17.6927805,220.068867 18.1636413,220.940831 18.6432217,221.80719 Z" id="Shape" fill="#FF4F19" fill-rule="nonzero"></path>
                        <path d="M1.86724948,173.117321 C1.77818455,172.558018 1.69223377,171.997469 1.60939715,171.435675 C1.69223377,171.997469 1.77818455,172.558018 1.86724948,173.117321 Z" id="Shape" fill="#FF4F19" fill-rule="nonzero"></path>
                        <path d="M171.692905,1.64489856 C172.536842,1.77071057 173.376419,1.90835638 174.215373,2.04849351 C173.375796,1.90897921 172.536219,1.77071057 171.692905,1.64489856 Z" id="Shape" fill="#FF4F19" fill-rule="nonzero"></path>
                        <path d="M175.261108,2.22226356 C176.161722,2.37921715 177.057977,2.54738172 177.952986,2.72052893 C177.057977,2.54800455 176.161722,2.37859432 175.261108,2.22226356 Z" id="Shape" fill="#FF4F19" fill-rule="nonzero"></path>
                        <path d="M0.270931796,158.379254 C0.241658705,157.885348 0.208025793,157.393311 0.183735356,156.89816 C0.208025793,157.393311 0.242281537,157.885348 0.270931796,158.379254 Z" id="Shape" fill="#FF4F19" fill-rule="nonzero"></path>
                        <path d="M0.0909334304,154.446072 C0.0772311327,154.030643 0.0573005178,153.61646 0.0473352104,153.199785 C0.0573005178,153.615837 0.0772311327,154.03002 0.0909334304,154.446072 Z" id="Shape" fill="#FF4F19" fill-rule="nonzero"></path>
                        <path d="M168.083595,1.15161584 C168.871477,1.24940042 169.654999,1.35964163 170.439145,1.46988285 C169.654999,1.35964163 168.871477,1.24940042 168.083595,1.15161584 Z" id="Shape" fill="#FF4F19" fill-rule="nonzero"></path>
                        <path d="M153.266428,0.0479580421 C153.742895,0.0597918447 154.216247,0.0840822816 154.691467,0.100275906 C154.216247,0.0840822816 153.742895,0.0597918447 153.266428,0.0479580421 Z" id="Shape" fill="#FF4F19" fill-rule="nonzero"></path>
                        <path d="M157.022104,0.18871801 C157.617531,0.218613932 158.209844,0.260966489 158.803402,0.29771356 C158.209844,0.26158932 157.618154,0.218613932 157.022104,0.18871801 Z" id="Shape" fill="#FF4F19" fill-rule="nonzero"></path>
                        <path d="M178.784467,2.87935102 C179.743005,3.06993752 180.697183,3.27235783 181.64887,3.48162929 C180.69656,3.27298066 179.742382,3.06993752 178.784467,2.87935102 Z" id="Shape" fill="#FF4F19" fill-rule="nonzero"></path>
                        <path d="M182.262359,3.61553811 C183.279443,3.84349451 184.292168,4.08266189 185.301155,4.33117175 C184.292168,4.08328472 183.280066,3.84287168 182.262359,3.61553811 Z" id="Shape" fill="#FF4F19" fill-rule="nonzero"></path>
                        <path d="M185.692293,4.426465 C186.772906,4.6955283 187.848537,4.9764254 188.919807,5.26915631 C187.848537,4.97704824 186.772906,4.6955283 185.692293,4.426465 Z" id="Shape" fill="#FF4F19" fill-rule="nonzero"></path>
                        <path d="M1.33846536,169.501783 C1.26434838,168.949954 1.19147707,168.398125 1.12358841,167.84505 C1.1920999,168.398125 1.26497121,168.949954 1.33846536,169.501783 Z" id="Shape" fill="#FF4F19" fill-rule="nonzero"></path>
                        <path d="M0.895632006,165.847006 C0.836462993,165.305766 0.776671149,164.765148 0.723730453,164.222038 C0.776671149,164.765148 0.836462993,165.305766 0.895632006,165.847006 Z" id="Shape" fill="#FF4F19" fill-rule="nonzero"></path>
                        <path d="M0.539372265,162.148009 C0.495151214,161.622962 0.448438835,161.09916 0.409823269,160.572867 C0.448438835,161.09916 0.495774045,161.623584 0.539372265,162.148009 Z" id="Shape" fill="#FF4F19" fill-rule="nonzero"></path>
                        <path d="M160.746015,0.421034239 C161.414313,0.470860777 162.079497,0.53376678 162.745304,0.592935793 C162.079497,0.53376678 161.414313,0.470860777 160.746015,0.421034239 Z" id="Shape" fill="#FF4F19" fill-rule="nonzero"></path>
                        <path d="M4.81511199,187.24003 C4.66002689,186.644603 4.5149071,186.045439 4.36667316,185.446898 C4.5149071,186.045439 4.66002689,186.644603 4.81511199,187.24003 Z" id="Shape" fill="#FF4F19" fill-rule="nonzero"></path>
                        <path d="M9.87437401,202.990821 C9.55922116,202.169929 9.24593681,201.347791 8.94510909,200.520048 C9.24593681,201.347791 9.55922116,202.169306 9.87437401,202.990821 Z" id="Shape" fill="#FF4F19" fill-rule="nonzero"></path>
                        <path d="M5.75558788,190.688026 C5.57496668,190.058344 5.40680212,189.423055 5.23427773,188.790258 C5.40680212,189.423678 5.57558951,190.058344 5.75558788,190.688026 Z" id="Shape" fill="#FF4F19" fill-rule="nonzero"></path>
                        <path d="M3.95435856,183.757155 C3.81795841,183.177299 3.69027791,182.594328 3.56072892,182.011981 C3.69027791,182.594328 3.81858125,183.177299 3.95435856,183.757155 Z" id="Shape" fill="#FF4F19" fill-rule="nonzero"></path>
                        <path d="M8.78690984,200.071609 C7.81840652,197.37973 6.92900283,194.651105 6.11309328,191.890092 C6.92900283,194.650482 7.81902935,197.37973 8.78690984,200.071609 Z" id="Shape" fill="#FF4F19" fill-rule="nonzero"></path>
                        <path d="M3.17644175,180.245007 C3.05685806,179.672625 2.94287985,179.097751 2.82952448,178.5235 C2.94287985,179.098374 3.05623523,179.672625 3.17644175,180.245007 Z" id="Shape" fill="#FF4F19" fill-rule="nonzero"></path>
                        <path d="M2.47949306,176.697358 C2.37548016,176.132449 2.27582709,175.565672 2.17866534,174.998273 C2.27644992,175.565672 2.37610299,176.131826 2.47949306,176.697358 Z" id="Shape" fill="#FF4F19" fill-rule="nonzero"></path>
                        <path d="M164.433801,0.742415405 C165.16376,0.815286715 165.889982,0.90061466 166.617449,0.983451278 C165.889982,0.90061466 165.16376,0.815286715 164.433801,0.742415405 Z" id="Shape" fill="#FF4F19" fill-rule="nonzero"></path>
                        <path d="M91.2647769,287.149088 C91.2305211,287.148465 91.1925284,287.15158 91.1582727,287.150334 C94.3926378,288.522432 97.6973828,289.755639 101.047595,290.890438 C101.341571,290.991337 101.638039,291.087876 101.932639,291.186283 C102.696853,291.439776 103.459822,291.696383 104.229642,291.938664 C105.466586,292.331048 106.710381,292.708484 107.96165,293.069727 C107.983449,293.075955 108.005248,293.083429 108.027047,293.089657 C108.02767,293.089657 108.028915,293.089034 108.029538,293.088412 C115.596944,295.2677 123.409745,296.868377 131.418738,297.833766 C127.870465,294.471721 124.487866,290.935905 121.281529,287.243759 C120.372194,287.656696 119.462237,288.069634 118.55664,288.482571 C114.990928,290.10567 111.4875,291.695137 108.082479,293.066612 C107.607258,292.930212 107.131415,292.794435 106.65744,292.653675 C104.976417,292.152918 103.313456,291.613546 101.656101,291.059849 C100.58919,290.699852 99.514183,290.355426 98.4578604,289.971762 C97.2993934,289.55571 96.1652168,289.088586 95.0204521,288.643262 C93.7660691,288.151847 92.507949,287.66853 91.2703824,287.144728 C97.045278,287.286734 105.852118,283.314936 114.425397,279.412896 C114.56242,279.350612 114.700066,279.288329 114.837712,279.226046 C116.905513,281.96526 119.035597,284.654024 121.282774,287.24189 C131.033828,282.81418 140.898859,278.596363 149.27034,279.023626 C170.485857,279.933583 181.42901,273.637377 181.886169,273.364577 C184.251061,271.987496 185.039566,268.970499 183.681792,266.596265 C182.324019,264.22639 179.282732,263.409235 176.898532,264.737735 C176.810713,264.791298 167.638893,269.856789 149.68826,269.068284 C138.276115,268.62545 126.374424,273.971838 114.805947,279.239748 C95.9229353,254.22309 84.7051133,223.101435 84.7051133,189.340841 C84.7051133,187.599404 84.7455973,185.868555 84.8047663,184.141442 C95.4776106,185.933952 106.78948,187.23567 118.397818,188.10452 C118.438302,188.114486 118.466952,188.143759 118.508059,188.153101 L145.781237,194.182112 C147.630424,194.707782 148.05831,196.235589 148.156094,196.868386 C148.253256,197.4962 148.311802,199.07757 146.715484,200.143235 C144.890588,201.359625 144.073432,203.632338 144.710589,205.734395 C145.347746,207.836452 147.284753,209.271456 149.479612,209.271456 C180.538361,209.271456 210.249302,205.953009 235.39115,199.666146 C237.590369,199.121168 239.138106,197.160494 239.167379,194.892763 C239.196652,192.630016 237.693136,190.635086 235.508242,190.031562 L225.362936,187.233802 L235.11399,179.920512 C235.18001,179.870685 235.209283,179.795323 235.272189,179.743005 C240.664666,178.396443 245.840398,176.937148 250.684783,175.346436 C253.302544,174.485059 254.723224,171.672974 253.86683,169.059572 C253.005454,166.441811 250.193368,165.011166 247.579967,165.877525 C240.144602,168.320271 231.945645,170.480874 223.20171,172.310131 C201.043227,176.932788 175.550724,179.375534 149.479612,179.375534 C127.215246,179.375534 105.205619,177.572436 85.4680821,174.153713 C85.4687049,174.144993 85.4693278,174.136274 85.4705734,174.127554 C85.1379813,177.423579 84.9530003,180.761335 84.8371536,184.117152 C82.8117049,183.777086 80.7688168,183.449476 78.7925718,183.073286 C76.0869908,182.557581 74.3112976,179.949162 74.8270023,177.248564 C75.3377243,174.542983 77.9461435,172.771649 80.6517245,173.282994 C82.2106722,173.580085 83.8860896,173.791225 85.4755561,174.067139 C93.1264209,98.6864396 156.785428,39.8612298 234.184725,39.8612298 C240.302178,39.8612298 246.320601,40.2716759 252.245599,40.9860638 C234.676762,24.3396406 213.081941,11.9010684 189.067418,5.30964037 C189.018215,5.29593807 188.969011,5.28285861 188.919807,5.26977914 C187.849159,4.97704824 186.772906,4.69615113 185.692293,4.42708783 C185.562744,4.39470058 185.43195,4.363559 185.301778,4.33179458 C184.29279,4.08328472 183.280066,3.84411735 182.262982,3.61616094 C182.058693,3.57007139 181.853159,3.527096 181.64887,3.48225212 C180.697183,3.27298066 179.743005,3.07118319 178.784467,2.87997385 C178.507929,2.82516466 178.230146,2.77409246 177.953609,2.72052893 C177.0586,2.54738172 176.162345,2.37921715 175.26173,2.22226356 C174.91419,2.16184888 174.564159,2.10703969 174.215996,2.04911634 C173.377042,1.90897921 172.536842,1.7713334 171.693528,1.64552139 C171.276853,1.58323822 170.857687,1.52905186 170.439767,1.46988285 C169.655622,1.35964163 168.8721,1.24940042 168.084218,1.15161584 C167.597163,1.09120117 167.106372,1.04012896 166.618072,0.98407411 C165.891227,0.90061466 165.165006,0.815286715 164.434424,0.743038236 C163.873253,0.686983382 163.308967,0.64276233 162.74655,0.592935793 C162.080743,0.534389612 161.415559,0.471483608 160.74726,0.421034239 C160.102007,0.373076197 159.452393,0.33757479 158.804648,0.29771356 C158.211089,0.260966489 157.618776,0.2179911 157.023349,0.18871801 C156.248547,0.150102443 155.470007,0.12705767 154.69209,0.100275906 C154.21687,0.0840822816 153.743518,0.0597918447 153.267051,0.0479580421 C152.007686,0.0168164563 150.745829,0 149.479612,0 C84.0735619,0 28.4876998,42.0118677 8.212659,100.518811 C8.50103008,99.6742507 8.79749798,98.8334279 9.10393118,97.9975877 C9.21354956,98.0953723 9.3518182,98.1377249 9.45458544,98.2467204 C17.4249629,106.762076 31.9300907,114.644634 51.3985645,121.038624 C54.0163262,121.9 55.4370053,124.712086 54.5806117,127.325488 C53.8898913,129.427545 51.9435422,130.756045 49.845845,130.756045 C49.3301403,130.756045 48.809453,130.678191 48.2937484,130.508158 C29.7439514,124.418109 15.1765404,116.860669 5.73565727,108.496039 C6.49302063,105.835302 7.29896487,103.195741 8.18650006,100.59355 C2.886825,115.912096 0,132.357968 0,149.479612 C0,150.723407 0.0168164563,151.962842 0.0473352104,153.199785 C0.0573005178,153.61646 0.0778539644,154.030643 0.0909334304,154.446072 C0.117715194,155.264473 0.144496958,156.082873 0.184358188,156.89816 C0.208648625,157.393311 0.242281537,157.885348 0.271554628,158.379254 C0.314530016,159.111704 0.356882573,159.843531 0.4104461,160.572867 C0.449061667,161.09916 0.495774045,161.622962 0.539995097,162.148009 C0.598541278,162.840598 0.656464628,163.532564 0.724353285,164.222038 C0.777293981,164.765148 0.837085825,165.305766 0.896254838,165.847006 C0.969126149,166.514059 1.04324312,167.180489 1.12483408,167.84505 C1.19272273,168.398748 1.26559405,168.950577 1.33971102,169.501783 C1.42628463,170.147659 1.51534956,170.79229 1.61001998,171.435675 C1.6928566,171.997469 1.77880738,172.558018 1.86787231,173.117321 C1.96752539,173.745758 2.07153828,174.372327 2.17928817,174.998273 C2.27707275,175.565672 2.37610299,176.132449 2.48011589,176.697358 C2.5922256,177.307733 2.71056362,177.915616 2.83014731,178.5235 C2.94350269,179.098374 3.05685806,179.672625 3.17706458,180.245007 C3.30038526,180.835452 3.43117992,181.424027 3.56197458,182.011981 C3.69152358,182.594328 3.81920408,183.177299 3.95560422,183.757155 C4.08826738,184.322063 4.22902735,184.88448 4.36791882,185.446898 C4.51552994,186.045439 4.66127256,186.644603 4.81635765,187.24003 C4.95151214,187.758849 5.09538626,188.273931 5.23614623,188.790258 C5.40867061,189.423678 5.57683518,190.058344 5.75745638,190.688026 C5.87268024,191.090376 5.99662375,191.488988 6.11496178,191.889469 C6.93087133,194.650482 7.82027502,197.37973 8.78877833,200.070986 C8.84234186,200.219843 8.89279123,200.370568 8.94697759,200.519425 C9.24780531,201.347168 9.56108966,202.169306 9.87624251,202.990198 C9.97589558,203.250542 10.0724345,203.512754 10.1733332,203.771852 C10.4835034,204.566586 10.8048846,205.356336 11.1281343,206.144218 C11.2421125,206.421378 11.3529765,206.699784 11.4682004,206.976321 C11.7970555,207.764826 12.135876,208.547726 12.4778106,209.328757 C12.5942801,209.594706 12.7088811,209.861901 12.8272192,210.12785 C13.1803648,210.921338 13.5416072,211.710465 13.9078322,212.497102 C14.0205647,212.73876 14.1320516,212.980419 14.2460298,213.221455 C14.6284485,214.030513 15.0183411,214.835835 15.4144621,215.636796 C15.5153609,215.840462 15.6162596,216.044751 15.718404,216.247794 C16.1363241,217.083635 16.5617181,217.915115 16.995209,218.741613 C17.0736858,218.891715 17.1534083,219.041195 17.2325079,219.191297 C17.6958947,220.067621 18.1661326,220.940208 18.6457131,221.805945 C18.6874428,221.880684 18.7291725,221.954801 18.7709022,222.029541 C34.9165688,251.043534 60.4508006,274.110729 91.2647769,287.149088 Z M106.080698,46.2888531 C107.924902,44.4446484 111.262658,44.4446484 113.155443,46.2888531 C114.099656,47.233066 114.600413,48.5322929 114.600413,49.8265372 C114.600413,51.1207815 114.099033,52.4150258 113.155443,53.3156405 C112.20687,54.2592305 110.912626,54.8091909 109.618382,54.8091909 C108.324138,54.8091909 107.024911,54.2592305 106.080698,53.3642214 C105.180706,52.4150258 104.635728,51.1207815 104.635728,49.8265372 C104.635728,48.5322929 105.180706,47.233066 106.080698,46.2888531 Z M65.2945629,66.0376011 C69.1536282,59.9730887 76.0465068,57.4524887 80.6897172,60.4072024 C85.3329276,63.361916 85.9688388,70.6733376 82.1097735,76.73785 C78.2507082,82.8023624 71.3584524,85.3229623 66.7146192,82.3682487 C62.0707859,79.413535 61.4354976,72.1021135 65.2945629,66.0376011 Z M34.6512425,171.165366 C33.41679,165.453999 35.9610576,160.057785 40.333959,159.112327 C44.7068605,158.166868 49.2529092,162.030916 50.4873617,167.742283 C51.7218141,173.45365 49.1775466,178.849864 44.8046451,179.795323 C40.4317436,180.740158 35.8856949,176.87611 34.6512425,171.165366 Z" id="Shape" fill="#6DB7EC" fill-rule="nonzero"></path>
                        <polygon id="Shape" fill="#A4D7FB" fill-rule="nonzero" points="174.036063 131.057122 144.612411 138.892457 120.958306 144.559967 114.877105 150.18727 119.223746 158.06019 127.695004 159.022597 149.418297 151.08295 167.29618 152.222858 173.948178 144.744694 179.234455 138.014686"></polygon>
                        <path d="M207.687155,127.657759 C205.384981,125.312051 202.0652,125.839878 200.263901,128.807515 C199.164355,130.618552 193.336235,132.67682 188.266696,133.051518 C185.355279,133.258542 183.125131,136.487098 183.285041,140.256313 C183.439665,143.905762 185.76827,146.726257 188.55612,146.726257 C188.653916,146.726257 188.747086,146.726257 188.845543,146.719413 C192.273033,146.479025 203.832138,145.088881 208.57591,137.269001 C210.381834,134.29452 209.979416,129.989779 207.687155,127.657759 Z" id="Shape" fill="#A4D7FB" fill-rule="nonzero"></path>
                        <ellipse id="Oval" fill="#1671DB" fill-rule="nonzero" transform="translate(73.697478, 71.388655) rotate(122.471192) translate(-73.697478, -71.388655) " cx="73.6974775" cy="71.3886545" rx="13.0159085" ry="9.96576235"></ellipse>
                        <ellipse id="Oval" fill="#1671DB" fill-rule="nonzero" transform="translate(42.570495, 169.448474) rotate(-12.198804) translate(-42.570495, -169.448474) " cx="42.5704947" cy="169.448474" rx="8.100381" ry="10.5798225"></ellipse>
                        <path d="M109.618382,54.8091909 C110.912626,54.8091909 112.20687,54.2592305 113.156066,53.3156405 C114.099656,52.4150258 114.601036,51.1207815 114.601036,49.8265372 C114.601036,48.5322929 114.099656,47.233066 113.156066,46.2888531 C111.26328,44.4446484 107.925525,44.4446484 106.081321,46.2888531 C105.180706,47.233066 104.635728,48.5322929 104.635728,49.8265372 C104.635728,51.1207815 105.180706,52.4150258 106.080698,53.3642214 C107.024911,54.2592305 108.324138,54.8091909 109.618382,54.8091909 Z" id="Shape" fill="#1671DB" fill-rule="nonzero"></path>
                        <path d="M225.664387,115.984345 C224.764395,116.928558 224.219417,118.227785 224.219417,119.522029 C224.219417,120.816273 224.764395,122.110518 225.664387,123.059713 C226.6086,123.955345 227.907827,124.504683 229.202071,124.504683 C230.496315,124.504683 231.79056,123.954722 232.739755,123.011132 C233.683968,122.11114 234.184725,120.816896 234.184725,119.522029 C234.184725,118.227162 233.683345,116.928558 232.739755,115.984345 C230.846347,114.14014 227.508592,114.14014 225.664387,115.984345 Z" id="Shape" fill="#94CCF4" fill-rule="nonzero"></path>
                        <path d="M245.595002,135.97662 C244.69501,136.920833 244.150032,138.22006 244.150032,139.514304 C244.150032,140.808549 244.69501,142.102793 245.595002,143.051988 C246.539215,143.94762 247.838442,144.496958 249.132686,144.496958 C250.42693,144.496958 251.721175,143.946998 252.67037,143.003407 C253.614583,142.103416 254.11534,140.809171 254.11534,139.514304 C254.11534,138.219437 253.61396,136.920833 252.67037,135.97662 C250.776962,134.132415 247.439207,134.132415 245.595002,135.97662 Z" id="Shape" fill="#94CCF4" fill-rule="nonzero"></path>
                        <path d="M121.028659,200.751118 C120.128667,201.695331 119.583689,202.994558 119.583689,204.288803 C119.583689,205.583047 120.128667,206.877291 121.028659,207.826487 C121.972872,208.722119 123.272099,209.271456 124.566343,209.271456 C125.860587,209.271456 127.154832,208.721496 128.104027,207.777906 C129.04824,206.877914 129.548997,205.58367 129.548997,204.288803 C129.548997,202.993935 129.047617,201.695331 128.104027,200.751118 C126.211242,198.906914 122.872864,198.906914 121.028659,200.751118 Z" id="Shape" fill="#94CCF4" fill-rule="nonzero"></path>
                        <path d="M185.803157,225.664387 C184.903165,226.6086 184.358188,227.907827 184.358188,229.202071 C184.358188,230.496315 184.903165,231.79056 185.803157,232.739755 C186.74737,233.635387 188.046597,234.184725 189.340841,234.184725 C190.635086,234.184725 191.92933,233.634765 192.878526,232.691174 C193.822738,231.791183 194.323495,230.496938 194.323495,229.202071 C194.323495,227.907204 193.822116,226.6086 192.878526,225.664387 C190.985117,223.820182 187.647362,223.820182 185.803157,225.664387 Z" id="Shape" fill="#94CCF4" fill-rule="nonzero"></path>
                        <path d="M74.8276251,177.249186 C74.3119204,179.949785 76.0876137,182.557581 78.7931946,183.073909 C80.7694397,183.450099 82.8123277,183.777709 84.8377764,184.117775 C84.9530003,180.761957 85.1379813,177.424202 85.4711963,174.128177 C85.4730648,174.108246 85.4743104,174.087693 85.4768018,174.067762 C83.8873352,173.791848 82.2112951,173.580708 80.6529701,173.283617 C77.9461435,172.772272 75.3383471,174.543606 74.8276251,177.249186 Z" id="Shape" fill="#1671DB" fill-rule="nonzero"></path>
                        <path d="M48.2937484,130.507535 C48.809453,130.677568 49.3301403,130.755422 49.845845,130.755422 C51.9429194,130.755422 53.8892685,129.426922 54.5806117,127.324865 C55.4370053,124.712086 54.0163262,121.899378 51.3985645,121.038001 C31.9300907,114.644011 17.4249629,106.761453 9.45458544,98.2460976 C9.35244104,98.137102 9.21354956,98.0947495 9.10393118,97.9969649 C8.79749798,98.8328051 8.50103008,99.6736279 8.212659,100.518188 C8.20393935,100.543101 8.19521971,100.567391 8.18650006,100.592305 C7.29896487,103.194496 6.49302063,105.834679 5.73565727,108.494793 C15.1765404,116.860046 29.7439514,124.417486 48.2937484,130.507535 Z" id="Shape" fill="#1671DB" fill-rule="nonzero"></path>
                        <path d="M114.837712,279.226046 C114.700689,279.288329 114.56242,279.350612 114.425397,279.412896 C105.852118,283.314936 97.0459009,287.286734 91.2703824,287.144728 C92.507949,287.66853 93.7660691,288.15247 95.0204521,288.643262 C96.1652168,289.087963 97.2993934,289.555087 98.4578604,289.971762 C99.514183,290.355426 100.588568,290.699852 101.656101,291.059849 C103.313456,291.613546 104.976417,292.152918 106.65744,292.653675 C107.130792,292.795058 107.606635,292.930212 108.082479,293.066612 C111.4875,291.695137 114.990928,290.10567 118.55664,288.482571 C119.462237,288.069634 120.372194,287.656696 121.281529,287.243759 C121.282151,287.243136 121.282774,287.243136 121.28402,287.242513 C121.283397,287.24189 121.283397,287.24189 121.283397,287.24189 C119.03622,284.654024 116.905513,281.96526 114.837712,279.226046 Z" id="Shape" fill="#1671DB" fill-rule="nonzero"></path>
                        <path d="M268.195696,58.6856955 C256.942373,63.6976223 243.539034,68.0537074 228.087825,71.5864088 C225.401552,72.1992753 223.728003,74.8706005 224.34087,77.551891 C224.86654,79.8632195 226.920016,81.4252815 229.192106,81.4252815 C229.562068,81.4252815 229.93203,81.3860431 230.306352,81.2988466 C247.213742,77.43729 261.910079,72.6078529 274.119449,66.9786998 C272.238497,64.1435699 270.260384,61.3813112 268.195696,58.6856955 Z" id="Shape" fill="#94CCF4" fill-rule="nonzero"></path>
                        <path d="M146.954885,5 C172.67158,5 201.909771,10.3911979 201.909771,24.2679932 C201.909771,38.1447885 180.673805,45.047483 146.954885,45.047483 C113.235965,45.047483 92,36.9488579 92,25.0036576 C92,13.0584573 121.238191,5 146.954885,5 Z" id="Rectangle-29" fill="#347DD3"></path>
                    </g>
                    <g id="Group" transform="translate(39.000000, 0.000000)" fill-rule="nonzero">
                        <g id="rocket" transform="translate(109.601551, 109.601551) rotate(-45.000000) translate(-109.601551, -109.601551) translate(32.101551, 32.101551)">
                            <path d="M88.6137119,140.318819 L79.3307729,149.601757 C59.8003583,169.132172 73.3029541,122.235056 52.6873975,101.619499 C32.0718408,81.0039426 -14.9458806,94.6271438 4.7051393,74.9761238 L13.9880782,65.6931849 C33.5187989,46.1630764 62.8142678,50.2621279 83.4298244,70.8773784 C104.045381,91.4929351 108.144126,120.788404 88.6137119,140.318819 Z" id="Shape" fill="#F25F5C"></path>
                            <path d="M116.704045,87.2732783 C91.6279274,112.228791 75.8347482,121.029615 75.8347482,121.029615 C59.0770323,132.362232 50.9998408,124.646245 40.3905491,114.037259 C29.7812574,103.428273 21.9452766,95.3507759 33.3981936,78.59306 C33.3981936,78.59306 42.3196226,62.6792755 67.2751353,37.6031574 C105.732938,-0.854645041 145.396794,-3.7479491 151.665823,2.64137968 C157.934853,8.9104092 155.162154,48.6945644 116.704045,87.2732783 Z" id="Shape" fill="#F4F0D3"></path>
                            <path d="M114.774972,5.65559519 C115.860114,13.7330928 120.20007,22.2927057 127.313031,29.4056666 C133.582061,35.5540908 140.815627,39.6531423 147.928588,41.341005 C155.885174,21.5690736 155.282453,6.3789212 151.665823,2.64137968 C148.169492,-0.975250394 133.702666,-1.57797105 114.774972,5.65559519 Z" id="Shape" fill="#F25F5C"></path>
                        </g>
                        <path d="M131.185863,115.254744 C131.148292,114.838899 131.148292,114.536812 131.185863,114.347533 L131.185863,102.09962 L131.185863,89.8516129 C131.223624,89.3224858 131.166983,89.0010436 131.01575,88.8877609 C130.864516,88.7743833 130.562144,88.7176471 130.108539,88.7176471 L129.768311,88.7176471 L128.294023,88.7176471 L126.64962,88.7176471 L91.5218216,88.7176471 L89.962334,88.7176471 L88.6581594,88.7176471 C88.3935484,88.7176471 88.2234345,88.7836812 88.1478178,88.916129 C88.0722011,89.048482 88.0533207,89.2658444 88.0910816,89.5682163 L88.0910816,91.2126186 L88.0910816,116.332258 C88.1666983,116.634725 88.3462049,116.814231 88.6297913,116.870968 C88.9133776,116.927989 89.2723909,116.937097 89.7071157,116.899336 C90.1418406,116.861765 90.4537002,116.861765 90.6426945,116.899336 L130.618786,116.899336 C130.921252,116.786243 131.100759,116.587571 131.157495,116.304269 C131.214231,116.020493 131.223624,115.670778 131.185863,115.254744 Z M113.437761,102.808159 C112.946015,103.545256 112.322296,104.083966 111.566224,104.424194 C111.566224,104.575427 111.585104,104.72666 111.623245,104.877514 L112.757021,110.43444 L106.236243,110.43444 L107.370304,105.161006 C107.44592,104.858539 107.483681,104.575047 107.483681,104.310436 C106.765465,103.932448 106.188994,103.393738 105.754175,102.694402 C105.319355,101.995066 105.102087,101.229696 105.102087,100.397913 C105.102087,99.5662239 105.328937,98.7912713 105.782543,98.073055 C106.047154,97.543833 106.425142,97.1091082 106.916603,96.7688805 C107.710436,96.1264706 108.617742,95.8049336 109.638425,95.8049336 L109.922106,95.8049336 L109.922106,95.805408 C111.056167,95.805408 111.982353,96.2587287 112.700569,97.1663188 C113.683397,98.0357685 114.174858,99.1131879 114.174858,100.398102 C114.174858,101.267742 113.929127,102.071157 113.437761,102.808159 Z M125.055935,88.7059942 C125.055935,88.7059942 123.719246,88.7059942 121.045868,88.7059942 C122.211689,77.3194567 118.381711,71.626188 109.555935,71.626188 C100.730159,71.626188 96.8691864,77.3194567 97.9730168,88.7059942 C95.3616291,88.7059942 94.0559352,88.7059942 94.0559352,88.7059942 C94.0559352,79.8694382 94.0559352,68.6197681 109.555935,68.6197681 C125.055935,68.6197681 125.055935,79.8694382 125.055935,88.7059942 Z" id="Shape" fill="#F25F5C"></path>
                    </g>
                </g>
            </g>
        </g>
    </g>
</svg>