<svg width="606" height="1024" viewBox="0 0 606 1024" fill="none" xmlns="http://www.w3.org/2000/svg">
<rect y="-1" width="606" height="1028" fill="url(#paint0_linear)"/>
<path fill-rule="evenodd" clip-rule="evenodd" d="M99.5 393C100.328 393 101 392.328 101 391.5C101 390.672 100.328 390 99.5 390C98.6716 390 98 390.672 98 391.5C98 392.328 98.6716 393 99.5 393Z" fill="white"/>
<path fill-rule="evenodd" clip-rule="evenodd" d="M86.5 295C87.3284 295 88 294.328 88 293.5C88 292.672 87.3284 292 86.5 292C85.6716 292 85 292.672 85 293.5C85 294.328 85.6716 295 86.5 295Z" fill="white"/>
<path fill-rule="evenodd" clip-rule="evenodd" d="M147.5 201C148.328 201 149 200.328 149 199.5C149 198.672 148.328 198 147.5 198C146.672 198 146 198.672 146 199.5C146 200.328 146.672 201 147.5 201Z" fill="white"/>
<path fill-rule="evenodd" clip-rule="evenodd" d="M281.5 111C282.328 111 283 110.328 283 109.5C283 108.672 282.328 108 281.5 108C280.672 108 280 108.672 280 109.5C280 110.328 280.672 111 281.5 111Z" fill="white"/>
<path fill-rule="evenodd" clip-rule="evenodd" d="M131.5 89C132.328 89 133 88.3284 133 87.5C133 86.6716 132.328 86 131.5 86C130.672 86 130 86.6716 130 87.5C130 88.3284 130.672 89 131.5 89Z" fill="white"/>
<path fill-rule="evenodd" clip-rule="evenodd" d="M62.5 167C63.8807 167 65 165.881 65 164.5C65 163.119 63.8807 162 62.5 162C61.1193 162 60 163.119 60 164.5C60 165.881 61.1193 167 62.5 167Z" fill="white"/>
<path fill-rule="evenodd" clip-rule="evenodd" d="M416.5 145C417.328 145 418 144.328 418 143.5C418 142.672 417.328 142 416.5 142C415.672 142 415 142.672 415 143.5C415 144.328 415.672 145 416.5 145Z" fill="white"/>
<path fill-rule="evenodd" clip-rule="evenodd" d="M526.5 174C527.328 174 528 173.328 528 172.5C528 171.672 527.328 171 526.5 171C525.672 171 525 171.672 525 172.5C525 173.328 525.672 174 526.5 174Z" fill="white"/>
<path fill-rule="evenodd" clip-rule="evenodd" d="M545.5 88C546.328 88 547 87.3284 547 86.5C547 85.6716 546.328 85 545.5 85C544.672 85 544 85.6716 544 86.5C544 87.3284 544.672 88 545.5 88Z" fill="white"/>
<path fill-rule="evenodd" clip-rule="evenodd" d="M413.5 31C414.328 31 415 30.3284 415 29.5C415 28.6716 414.328 28 413.5 28C412.672 28 412 28.6716 412 29.5C412 30.3284 412.672 31 413.5 31Z" fill="white"/>
<path fill-rule="evenodd" clip-rule="evenodd" d="M331 237C332.657 237 334 235.657 334 234C334 232.343 332.657 231 331 231C329.343 231 328 232.343 328 234C328 235.657 329.343 237 331 237Z" fill="white"/>
<path fill-rule="evenodd" clip-rule="evenodd" d="M248.477 573.048C248.477 545.986 270.415 524.048 297.477 524.048H304.702H311.927C338.989 524.048 360.927 545.986 360.927 573.048V649.595C360.927 655.67 356.002 660.595 349.927 660.595H304.702H259.477C253.402 660.595 248.477 655.67 248.477 649.595V573.048Z" fill="#DBBCE2"/>
<path d="M248.477 623.04C248.477 622.488 248.925 622.04 249.477 622.04H359.927C360.479 622.04 360.927 622.488 360.927 623.04V637.701C360.927 651.232 349.958 662.201 336.427 662.201H272.977C259.446 662.201 248.477 651.232 248.477 637.701V623.04Z" fill="#F4B19D"/>
<rect x="270.967" y="532.08" width="14.4578" height="89.9598" fill="#F4B19D"/>
<rect x="323.979" y="530.474" width="14.4578" height="94.7791" fill="#F4B19D"/>
<path fill-rule="evenodd" clip-rule="evenodd" d="M303.095 541.719C354.553 541.719 396.268 486.794 396.268 419.04C396.268 351.287 209.923 351.287 209.923 419.04C209.923 486.794 251.637 541.719 303.095 541.719Z" fill="#F8EDE0"/>
<path fill-rule="evenodd" clip-rule="evenodd" d="M303.324 504.831C310.354 504.831 316.053 501.385 316.053 497.135C316.053 494.607 290.595 494.123 290.595 497.135C290.595 501.385 296.294 504.831 303.324 504.831Z" fill="#EE9393"/>
<path fill-rule="evenodd" clip-rule="evenodd" d="M303.324 504.813C306.104 504.813 308.357 504.552 308.357 503.571C308.357 502.59 306.104 501.261 303.324 501.261C300.545 501.261 298.292 502.59 298.292 503.571C298.292 504.552 300.545 504.813 303.324 504.813Z" fill="#FDA981"/>
<path fill-rule="evenodd" clip-rule="evenodd" d="M309.531 498.321C310.185 498.321 310.986 495.921 310.706 495.623C310.506 495.411 308.551 495.178 308.338 495.464C308.117 495.761 308.877 498.321 309.531 498.321Z" fill="white"/>
<path fill-rule="evenodd" clip-rule="evenodd" d="M261.289 492.093C265.703 492.093 269.281 489.178 269.281 485.581C269.281 481.984 265.703 479.068 261.289 479.068C256.875 479.068 253.296 481.984 253.296 485.581C253.296 489.178 256.875 492.093 261.289 492.093Z" fill="#FBA5F6" fill-opacity="0.356091"/>
<path fill-rule="evenodd" clip-rule="evenodd" d="M345.36 492.093C349.774 492.093 353.352 489.178 353.352 485.581C353.352 481.984 349.774 479.068 345.36 479.068C340.946 479.068 337.367 481.984 337.367 485.581C337.367 489.178 340.946 492.093 345.36 492.093Z" fill="#FBA5F6" fill-opacity="0.356091"/>
<path fill-rule="evenodd" clip-rule="evenodd" d="M331.68 468.091C335.601 468.091 337.223 472.25 340.38 470.183C343.538 468.117 339.09 463.004 331.68 463.004C324.27 463.004 320.566 468.031 323.24 470.183C325.913 472.336 327.76 468.091 331.68 468.091Z" fill="black"/>
<path fill-rule="evenodd" clip-rule="evenodd" d="M273.849 468.091C277.769 468.091 279.391 472.25 282.549 470.183C285.706 468.117 281.259 463.004 273.849 463.004C266.439 463.004 262.734 468.031 265.408 470.183C268.082 472.336 269.929 468.091 273.849 468.091Z" fill="black"/>
<path fill-rule="evenodd" clip-rule="evenodd" d="M204.599 391.589C207.477 377.075 220.211 366.618 235.007 366.618H300.713V438.759C300.713 445.939 294.893 451.759 287.713 451.759H192.667L204.599 391.589Z" fill="#F8F3BD"/>
<path fill-rule="evenodd" clip-rule="evenodd" d="M399.145 392.284C396.553 377.446 383.67 366.618 368.608 366.618H301.489V441.759C301.489 447.282 305.966 451.759 311.489 451.759H409.535L399.145 392.284Z" fill="#4A4A4A"/>
<rect x="270.967" y="654.169" width="12.8514" height="57.8313" rx="4" fill="#F8EDE0"/>
<rect x="327.192" y="654.169" width="12.8514" height="57.8313" rx="4" fill="#F8EDE0"/>
<path fill-rule="evenodd" clip-rule="evenodd" d="M303.511 553.736C370.051 553.736 423.993 499.795 423.993 433.254C423.993 366.714 370.051 312.772 303.511 312.772C236.97 312.772 183.029 366.714 183.029 433.254C183.029 499.795 236.97 553.736 303.511 553.736Z" fill="#808CB1" fill-opacity="0.319639"/>
<path fill-rule="evenodd" clip-rule="evenodd" d="M251.325 338.478C253.9 337.039 257.091 337.767 258.892 340.104C261.373 343.323 260.165 348.135 256.632 350.143C249.573 354.155 238.359 361.658 227.807 373.541C210.673 392.838 207.518 412.972 203.363 413.814C199.209 414.657 196.022 414.973 197.64 404.759C199.258 394.546 206.061 377.255 219.044 362.634C228.543 351.936 243.814 342.677 251.325 338.478Z" fill="white"/>
<rect y="627" width="606" height="400" fill="url(#paint1_linear)"/>
<path d="M374.176 661.076L386.968 664.029C413.88 670.242 366.954 683.643 360.395 712.051C353.837 740.458 390.306 773.112 363.227 766.861L350.436 763.908C323.523 757.694 311.475 730.678 318.034 702.271C324.592 673.863 347.264 654.863 374.176 661.076Z" fill="#F25F5C"/>
<path d="M314.305 665.364C348.757 673.405 364.59 682.135 364.59 682.135C383.081 690.341 380.817 701.28 377.442 715.899C374.068 730.518 371.37 741.444 351.089 740.611C351.089 740.611 332.866 741.478 298.376 733.603C245.382 721.369 221.91 689.265 224.006 680.563C226.001 671.924 261.209 653.193 314.305 665.364Z" fill="#F4F0D3"/>
<path d="M246.112 710.251C252.387 705.05 257.346 696.834 259.609 687.032C261.501 678.458 261.144 670.151 258.806 663.224C237.822 666.954 225.26 675.515 224.006 680.563C222.792 685.444 229.947 698.032 246.112 710.251Z" fill="#F25F5C"/>
<path d="M191.575 701.301L178.525 712.645C177.816 713.26 176.743 713.185 176.128 712.477L153.925 686.935C153.309 686.227 153.384 685.154 154.092 684.538L167.142 673.194C167.85 672.578 168.924 672.653 169.539 673.362L191.742 698.903C192.358 699.612 192.283 700.685 191.575 701.301Z" fill="#424A60"/>
<rect x="156.205" y="679.047" width="6.89655" height="2.75862" transform="rotate(-41 156.205 679.047)" fill="#D8A852"/>
<path d="M175.572 688.711L173.49 690.521L167.639 683.79C167.619 683.754 167.564 683.771 167.566 683.811L169.642 696.607L172.245 694.345L178.548 701.594C178.567 701.632 178.623 701.617 178.622 701.575L175.572 688.711Z" fill="#EFCE4A"/>
<path d="M167.142 673.194L154.092 684.538C153.384 685.154 153.309 686.227 153.925 686.935L156.882 690.337L172.497 676.764L169.539 673.362C168.924 672.653 167.85 672.578 167.142 673.194Z" fill="#EA6248"/>
<path fill-rule="evenodd" clip-rule="evenodd" d="M433.5 748.997C445.926 748.997 456 738.924 456 726.497C456 714.071 445.926 703.997 433.5 703.997C421.074 703.997 411 714.071 411 726.497C411 738.924 421.074 748.997 433.5 748.997Z" fill="#4A90E2" stroke="#4A4A4A" stroke-width="3"/>
<path fill-rule="evenodd" clip-rule="evenodd" d="M415.94 727.222C417.703 726.623 416.648 722.515 419.215 717.798C422.436 711.877 427.596 710.957 426.869 710.08C425.189 708.055 420.127 710.935 417.189 715.344C414.25 719.752 413.719 727.976 415.94 727.222Z" fill="white"/>
<g filter="url(#filter0_d)">
<path d="M395.248 636.291L394.758 636.692C393.95 637.5 393.35 638.432 392.899 639.411L365.721 639.409C365.271 638.429 364.67 637.498 363.863 636.69L363.373 636.289C359.694 633.077 354.125 633.186 350.621 636.69C349.601 637.71 348.895 638.915 348.445 640.19L357.242 640.19C357.705 640.19 358.138 640.305 358.533 640.488C359.603 640.981 360.36 642.051 360.362 643.311C360.362 644.172 360.014 644.953 359.449 645.518C359.188 645.778 358.873 645.979 358.533 646.134C358.133 646.313 357.705 646.432 357.239 646.43L348.445 646.432C348.895 647.707 349.601 648.912 350.621 649.932C354.125 653.437 359.694 653.545 363.373 650.334L363.863 649.932C364.67 649.124 365.271 648.193 365.723 647.215L392.897 647.217C393.352 648.193 393.952 649.124 394.76 649.932L395.252 650.331C398.929 653.549 404.497 653.437 408.002 649.932C409.021 648.912 409.734 647.71 410.178 646.432L401.381 646.432C400.922 646.432 400.485 646.317 400.088 646.14C399.017 645.648 398.258 644.576 398.26 643.311C398.256 642.455 398.609 641.669 399.174 641.104C399.434 640.844 399.745 640.643 400.092 640.486C400.489 640.305 400.92 640.184 401.381 640.191H410.178C409.727 638.911 409.021 637.71 408.002 636.69C404.495 633.188 398.927 633.08 395.248 636.291Z" fill="#8096B0"/>
</g>
<path fill-rule="evenodd" clip-rule="evenodd" d="M248.132 560.794C249.765 558.739 252.708 558.432 254.803 560.014L256.469 561.272C258.594 562.877 259.1 565.856 257.639 568.082C252.195 576.375 239.828 595.771 235.664 606.982C231.797 617.394 232.638 633.717 233.427 642.146C233.701 645.075 231.509 647.721 228.571 647.875L223.959 648.116C221.507 648.245 219.35 646.578 219.063 644.14C218.205 636.848 217.424 620.935 223.463 603.398C229.731 585.193 242.39 568.02 248.132 560.794Z" fill="#F8EDE0"/>
<path fill-rule="evenodd" clip-rule="evenodd" d="M359.74 560.654C358.143 558.57 355.206 558.212 353.084 559.757L351.396 560.986C349.243 562.553 348.686 565.523 350.108 567.774C355.406 576.161 367.432 595.77 371.4 607.052C375.085 617.53 373.96 633.836 373.024 642.25C372.698 645.174 374.844 647.857 377.779 648.062L382.386 648.384C384.835 648.556 387.021 646.927 387.35 644.494C388.335 637.218 389.394 621.322 383.662 603.681C377.713 585.37 365.356 567.979 359.74 560.654Z" fill="#F8EDE0"/>
<defs>
<filter id="filter0_d" x="344.445" y="631.967" width="69.7329" height="26.6889" filterUnits="userSpaceOnUse" color-interpolation-filters="sRGB">
<feFlood flood-opacity="0" result="BackgroundImageFix"/>
<feColorMatrix in="SourceAlpha" type="matrix" values="0 0 0 0 0 0 0 0 0 0 0 0 0 0 0 0 0 0 127 0"/>
<feOffset dy="2"/>
<feGaussianBlur stdDeviation="2"/>
<feColorMatrix type="matrix" values="0 0 0 0 0 0 0 0 0 0 0 0 0 0 0 0 0 0 0.5 0"/>
<feBlend mode="normal" in2="BackgroundImageFix" result="effect1_dropShadow"/>
<feBlend mode="normal" in="SourceGraphic" in2="effect1_dropShadow" result="shape"/>
</filter>
<linearGradient id="paint0_linear" x1="606" y1="1027" x2="606" y2="-1" gradientUnits="userSpaceOnUse">
<stop stop-color="#2B3780"/>
<stop offset="1" stop-color="#20244C"/>
</linearGradient>
<linearGradient id="paint1_linear" x1="782.308" y1="1259.75" x2="782.308" y2="627" gradientUnits="userSpaceOnUse">
<stop stop-color="#434A83"/>
<stop offset="1" stop-color="#20244C"/>
</linearGradient>
</defs>
</svg>
