
<svg width="500px" height="1000px" version="1.1" xmlns="http://www.w3.org/2000/svg" xmlns:xlink="http://www.w3.org/1999/xlink" >
    <!-- Generator: Sketch 51.1 (57501) - http://www.bohemiancoding.com/sketch -->
    <desc>Created with Sketch.</desc>
    <defs>
        <linearGradient x1="50%" y1="100%" x2="50%" y2="0%" id="linearGradient-1">
            <stop stop-color="#2B3780" offset="0%"></stop>
            <stop stop-color="#20244C" offset="100%"></stop>
        </linearGradient>
        <linearGradient x1="50%" y1="158.187394%" x2="50%" y2="0%" id="linearGradient-2">
            <stop stop-color="#434A83" offset="0%"></stop>
            <stop stop-color="#20244C" offset="100%"></stop>
        </linearGradient>
        <path d="M341.544002,651.615768 L340.913509,651.553345 C339.77121,651.553345 338.68815,651.787431 337.676959,652.161969 L318.460327,632.942257 C318.834865,631.931066 319.068951,630.848006 319.068951,629.705707 L319.006528,629.075214 C318.675727,624.20314 314.661969,620.342359 309.705707,620.342359 C308.263715,620.342359 306.912277,620.695029 305.691949,621.278704 L311.912277,627.499033 C312.239998,627.826754 312.464741,628.213715 312.614536,628.622647 C313.023366,629.727472 312.801805,631.01967 311.912277,631.912277 C311.303653,632.520902 310.50468,632.826754 309.705707,632.826754 C309.337431,632.826754 308.972236,632.745645 308.622647,632.614536 C308.213817,632.458479 307.826754,632.239998 307.499033,631.909197 L301.278807,625.691949 C300.695132,626.912277 300.342462,628.263715 300.342462,629.705707 C300.342462,634.661969 304.203242,638.675727 309.075316,639.006528 L309.705809,639.068951 C310.848109,639.068951 311.931169,638.834865 312.942359,638.463509 L332.155809,657.680142 C331.787534,658.691333 331.553448,659.774392 331.553448,660.916692 L331.618951,661.547185 C331.943592,666.422339 335.960429,670.280039 340.916692,670.280039 C342.358684,670.280039 343.713201,669.933633 344.93045,669.343694 L338.710121,663.123366 C338.385481,662.798725 338.157657,662.408684 338.0016,662.002934 C337.59277,660.898109 337.814331,659.602832 338.710121,658.710224 C339.312483,658.1016 340.117719,657.795748 340.916692,657.795748 C341.284967,657.795748 341.64698,657.873776 342.002832,658.007965 C342.411661,658.160943 342.801805,658.379423 343.123263,658.710224 L349.343592,664.930553 C349.930347,663.707041 350.279937,662.358787 350.279937,660.916795 C350.276856,655.960327 346.416076,651.946569 341.544002,651.615768 Z" id="path-3"></path>
        <filter x="-14.0%" y="-10.0%" width="128.0%" height="128.0%" filterUnits="objectBoundingBox" id="filter-4">
            <feOffset dx="0" dy="2" in="SourceAlpha" result="shadowOffsetOuter1"></feOffset>
            <feGaussianBlur stdDeviation="2" in="shadowOffsetOuter1" result="shadowBlurOuter1"></feGaussianBlur>
            <feColorMatrix values="0 0 0 0 0   0 0 0 0 0   0 0 0 0 0  0 0 0 0.5 0" type="matrix" in="shadowBlurOuter1"></feColorMatrix>
        </filter>
    </defs>
    <g id="Page-1" stroke="none" stroke-width="1" fill="none" fill-rule="evenodd">
        <g id="Регистрация">
            <g id="Group-7" transform="translate(0.000000, -2.000000)">
                <rect id="Rectangle-26" fill="url(#linearGradient-1)" x="0" y="0" width="500" height="1028"></rect>
                <g id="Group-5" transform="translate(7.000000, 29.000000)" fill="#FFFFFF">
                    <circle id="Oval-2" cx="39.5" cy="363.5" r="1.5"></circle>
                    <circle id="Oval-2-Copy" cx="26.5" cy="265.5" r="1.5"></circle>
                    <circle id="Oval-2-Copy-2" cx="87.5" cy="171.5" r="1.5"></circle>
                    <circle id="Oval-2-Copy-4" cx="221.5" cy="81.5" r="1.5"></circle>
                    <circle id="Oval-2-Copy-5" cx="71.5" cy="59.5" r="1.5"></circle>
                    <circle id="Oval-2-Copy-6" cx="2.5" cy="136.5" r="2.5"></circle>
                    <circle id="Oval-2-Copy-7" cx="356.5" cy="115.5" r="1.5"></circle>
                    <circle id="Oval-2-Copy-8" cx="466.5" cy="144.5" r="1.5"></circle>
                    <circle id="Oval-2-Copy-9" cx="485.5" cy="58.5" r="1.5"></circle>
                    <circle id="Oval-2-Copy-11" cx="353.5" cy="1.5" r="1.5"></circle>
                    <circle id="Oval-2-Copy-3" cx="271" cy="206" r="3"></circle>
                </g>
                <g id="man" transform="translate(127.000000, 314.000000)">
                    <path d="M116.46988,212.048193 L123.694779,212.048193 L130.919679,212.048193 C157.981631,212.048193 179.919679,233.98624 179.919679,261.048193 L179.919679,337.594378 C179.919679,343.66951 174.994811,348.594378 168.919679,348.594378 L78.4698795,348.594378 C72.3947473,348.594378 67.4698795,343.66951 67.4698795,337.594378 L67.4698795,261.048193 C67.4698795,233.98624 89.4079268,212.048193 116.46988,212.048193 Z" id="Path" fill="#DBBCE2"></path>
                    <path d="M68.4698795,310.040161 L178.919679,310.040161 C179.471963,310.040161 179.919679,310.487876 179.919679,311.040161 L179.919679,330.120482 C179.919679,341.210537 170.929413,350.200803 159.839357,350.200803 L87.5502008,350.200803 C76.4601456,350.200803 67.4698795,341.210537 67.4698795,330.120482 L67.4698795,311.040161 C67.4698795,310.487876 67.9175948,310.040161 68.4698795,310.040161 Z" id="Rectangle-2" fill="#F4B19D"></path>
                    <rect id="Rectangle-3" fill="#F4B19D" x="89.9598394" y="220.080321" width="14.4578313" height="89.9598394"></rect>
                    <rect id="Rectangle-3-Copy" fill="#F4B19D" x="142.971888" y="218.473896" width="14.4578313" height="94.7791165"></rect>
                    <path d="M122.088353,229.718876 C173.54621,229.718876 215.261044,174.793721 215.261044,107.040109 C215.261044,39.2864966 28.9156627,39.2864966 28.9156627,107.040109 C28.9156627,174.793721 70.6304972,229.718876 122.088353,229.718876 Z" id="Oval" fill="#F8EDE0"></path>
                    <g id="mouth" transform="translate(72.289157, 167.068273)">
                        <path d="M50.0281223,25.7628217 C57.0581819,25.7628217 62.7571712,22.3169212 62.7571712,18.0661875 C62.7571712,15.5388112 37.2990734,15.0550979 37.2990734,18.0661875 C37.2990734,22.3169212 42.9980627,25.7628217 50.0281223,25.7628217 Z" id="Oval-16" fill="#EE9393"></path>
                        <path d="M50.0281223,25.7449035 C52.8074482,25.7449035 55.060537,25.4833384 55.060537,24.5023998 C55.060537,23.5214613 52.8074482,22.1926108 50.0281223,22.1926108 C47.2487964,22.1926108 44.9957076,23.5214613 44.9957076,24.5023998 C44.9957076,25.4833384 47.2487964,25.7449035 50.0281223,25.7449035 Z" id="Oval-2" fill="#FDA981"></path>
                        <path d="M56.2350283,19.253061 C56.8889874,19.253061 57.6901652,16.8531577 57.4096359,16.5549644 C57.2096513,16.3423873 55.2547905,16.1098742 55.0414408,16.3961235 C54.820676,16.6923216 55.5810693,19.253061 56.2350283,19.253061 Z" id="Oval" fill="#FFFFFF"></path>
                        <ellipse id="Oval-19" fill-opacity="0.356091486" fill="#FBA5F6" cx="7.9926586" cy="6.51253663" rx="7.9926586" ry="6.51253663"></ellipse>
                        <ellipse id="Oval-19-Copy" fill-opacity="0.356091486" fill="#FBA5F6" cx="92.063586" cy="6.51253663" rx="7.9926586" ry="6.51253663"></ellipse>
                    </g>
                    <path d="M150.673246,156.091125 C154.593547,156.091125 156.215816,160.249804 159.373242,158.183315 C162.530667,156.116826 158.083159,151.004016 150.673246,151.004016 C143.263332,151.004016 139.558636,156.03059 142.232526,158.183315 C144.906417,160.33604 146.752945,156.091125 150.673246,156.091125 Z" id="Oval-4-Copy" fill="#000000"></path>
                    <path d="M92.8419203,156.091125 C96.7622212,156.091125 98.3844908,160.249804 101.541916,158.183315 C104.699342,156.116826 100.251834,151.004016 92.8419203,151.004016 C85.4320064,151.004016 81.7273104,156.03059 84.401201,158.183315 C87.0750916,160.33604 88.9216193,156.091125 92.8419203,156.091125 Z" id="Oval-4-Copy-2" fill="#000000"></path>
                    <path d="M53.9998889,54.6184739 L119.706392,54.6184739 L119.706392,126.759036 C119.706392,133.938738 113.886094,139.759036 106.706392,139.759036 L11.6604251,139.759036 L23.5919646,79.5887026 C26.4699579,65.0750839 39.203674,54.6184739 53.9998889,54.6184739 Z" id="Rectangle-11" fill="#F8F3BD"></path>
                    <path d="M161.409245,54.6184739 L228.527895,54.6184739 L228.527895,129.759036 C228.527895,135.281884 224.050742,139.759036 218.527895,139.759036 L120.481928,139.759036 L130.871699,80.2838443 C133.463758,65.4458673 146.346565,54.6184739 161.409245,54.6184739 Z" id="Rectangle-11-Copy" fill="#4A4A4A" transform="translate(174.504911, 97.188755) scale(-1, 1) translate(-174.504911, -97.188755) "></path>
                    <rect id="Rectangle-12" fill="#F8EDE0" x="89.9598394" y="342.168675" width="12.8514056" height="57.8313253" rx="4"></rect>
                    <rect id="Rectangle-12-Copy" fill="#F8EDE0" x="146.184739" y="342.168675" width="12.8514056" height="57.8313253" rx="4"></rect>
                    <g id="Group-15" transform="translate(0.415445, 0.772416)">
                        <circle id="Oval-27" fill-opacity="0.319639" fill="#808CB1" cx="122.088353" cy="120.481928" r="120.481928"></circle>
                        <path d="M42.7438344,14.6277515 L42.7438344,14.6277515 C45.6325889,14.84861 47.7953459,17.3694493 47.5744875,20.2582038 C47.5500032,20.5784505 47.4961595,20.8957719 47.4136348,21.2061703 C44.3844632,32.599851 43.6803983,45.527163 45.3014704,59.9881142 C48.1762674,85.633055 61.0272083,101.450217 58.8736385,105.101221 C56.7200687,108.752226 54.8224899,111.331908 48.314836,103.295625 C41.807182,95.2593414 33.5101387,78.633388 31.3319201,59.2023506 C30.067201,47.9202856 31.1312637,35.0670946 34.5241084,20.6427777 L34.5240918,20.6427738 C35.4076677,16.8863452 38.8961178,14.3335761 42.7438344,14.6277515 Z" id="Rectangle-10" fill="#FFFFFF" transform="translate(44.966211, 61.595321) rotate(48.000000) translate(-44.966211, -61.595321) "></path>
                    </g>
                </g>
                <rect id="Rectangle" fill="url(#linearGradient-2)" x="0" y="628" width="500" height="400"></rect>
                <g id="battery" transform="translate(240.928521, 673.881009) rotate(-41.000000) translate(-240.928521, -673.881009) translate(230.583693, 653.881009)" fill-rule="nonzero">
                    <path d="M18.9903448,40 L1.69931034,40 C0.760689655,40 0,39.2393103 0,38.3006897 L0,4.45793103 C0,3.51931034 0.760689655,2.75862069 1.69931034,2.75862069 L18.9903448,2.75862069 C19.9289655,2.75862069 20.6896552,3.51931034 20.6896552,4.45793103 L20.6896552,38.3006897 C20.6896552,39.2393103 19.9289655,40 18.9903448,40 Z" id="Shape" fill="#424A60"></path>
                    <rect id="Rectangle-path" fill="#D8A852" x="6.89655172" y="0" width="6.89655172" height="2.75862069"></rect>
                    <path d="M15.1724138,20 L12.4137931,20 L12.4137931,11.0813793 C12.422069,11.0413793 12.3696552,11.017931 12.3448276,11.0496552 L5.51724138,22.0689655 L8.96551724,22.0689655 L8.96689655,31.6751724 C8.95586207,31.7158621 9.00827586,31.742069 9.03448276,31.7096552 L15.1724138,20 Z" id="Shape" fill="#EFCE4A"></path>
                    <path d="M18.9903448,2.75862069 L1.69931034,2.75862069 C0.760689655,2.75862069 0,3.51931034 0,4.45793103 L0,8.96551724 L20.6896552,8.96551724 L20.6896552,4.45793103 C20.6896552,3.51931034 19.9289655,2.75862069 18.9903448,2.75862069 Z" id="Shape" fill="#EA6248"></path>
                </g>
                <g transform="translate(316.000000, 681.000000)">
                    <circle id="Oval-3" stroke="#4A4A4A" stroke-width="3" fill="#4A90E2" cx="22.5" cy="22.5" r="22.5"></circle>
                    <path d="M5.89265464,23.6645443 C7.58340216,22.8847988 6.10429834,18.9095609 8.16407229,13.9494092 C10.7489391,7.72477883 15.7850107,6.27002832 14.9701008,5.47430467 C13.0873568,3.63588797 8.35468109,7.02929513 5.89265464,11.7205676 C3.43062819,16.4118401 3.76247008,24.646951 5.89265464,23.6645443 Z" id="Oval-4" fill="#FFFFFF" transform="translate(9.613296, 14.355570) rotate(6.000000) translate(-9.613296, -14.355570) "></path>
                </g>
                <g id="rocket" transform="translate(240.651907, 786.677384) rotate(301.000000) translate(-240.651907, -786.677384) translate(138.151907, 649.177384)" fill-rule="nonzero">
                    <path d="M191.609241,260.287943 L182.326302,269.570882 C162.795887,289.101296 176.298483,242.20418 155.682926,221.588624 C135.067369,200.973067 88.049648,214.596268 107.700668,194.945248 L116.983607,185.662309 C136.514328,166.132201 165.809796,170.231252 186.425353,190.846503 C207.04091,211.462059 211.139655,240.757528 191.609241,260.287943 Z" id="Shape" fill="#F25F5C"></path>
                    <path d="M115.704045,141.273278 C90.6279274,166.228791 74.8347482,175.029615 74.8347482,175.029615 C58.0770323,186.362232 49.9998408,178.646245 39.3905491,168.037259 C28.7812574,157.428273 20.9452766,149.350776 32.3981936,132.59306 C32.3981936,132.59306 41.3196226,116.679275 66.2751353,91.6031574 C104.732938,53.145355 144.396794,50.2520509 150.665823,56.6413797 C156.934853,62.9104092 154.162154,102.694564 115.704045,141.273278 Z" id="Shape" fill="#F4F0D3" transform="translate(90.004724, 117.310603) rotate(-137.000000) translate(-90.004724, -117.310603) "></path>
                    <path d="M81,5.62703742 C82.0851421,13.704535 86.4250982,22.264148 93.538059,29.3771088 C99.8070886,35.525533 107.040655,39.6245845 114.153616,41.3124472 C122.110202,21.5405158 121.507481,6.35036343 117.890851,2.61282191 C114.39452,-1.00380816 99.9276939,-1.60652883 81,5.62703742 Z" id="Shape" fill="#F25F5C"></path>
                </g>
                <g id="Shape" fill-rule="nonzero" transform="translate(325.311199, 645.311199) rotate(-45.000000) translate(-325.311199, -645.311199) ">
                    <use fill="black" fill-opacity="1" filter="url(#filter-4)" xlink:href="#path-3"></use>
                    <use fill="#8096B0" xlink:href="#path-3"></use>
                </g>
                <path d="M185.992337,558.021917 L187.935773,558.655684 C190.45261,559.47643 191.893525,562.116685 191.222118,564.677409 C186.05694,584.377237 183.358915,599.032415 183.128042,608.642945 C182.905434,617.909394 186.013231,629.294621 192.451432,642.798626 L192.451424,642.79863 C193.639812,645.291252 192.582522,648.275301 190.089899,649.463689 C189.998253,649.507383 189.905297,649.548275 189.811161,649.586308 L185.582329,651.294871 C183.191249,652.26093 180.457672,651.249975 179.270548,648.960593 C173.373206,637.587506 170.424535,624.342723 170.424535,609.226242 C170.424535,593.697078 173.536403,577.628649 179.760138,561.020956 L179.760136,561.020955 C180.699616,558.514003 183.447049,557.191894 185.992337,558.021917 Z" id="Rectangle-13" fill="#F8EDE0" transform="translate(181.383233, 604.438575) rotate(19.000000) translate(-181.383233, -604.438575) "></path>
                <path d="M322.369412,558.097491 L324.312848,558.731257 C326.829685,559.552003 328.270599,562.192259 327.599193,564.752983 C322.434015,584.45281 319.735989,599.107989 319.505116,608.718519 C319.282509,617.984967 322.390306,629.370194 328.828507,642.874199 L328.828498,642.874203 C330.016887,645.366826 328.959596,648.350875 326.466974,649.539263 C326.375328,649.582956 326.282372,649.623848 326.188236,649.661882 L321.959403,651.370445 C319.568323,652.336504 316.834747,651.325549 315.647623,649.036167 C309.750281,637.66308 306.80161,624.418296 306.80161,609.301816 C306.80161,593.772652 309.913478,577.704223 316.137212,561.09653 L316.137211,561.096529 C317.076691,558.589577 319.824124,557.267467 322.369412,558.097491 Z" id="Rectangle-13-Copy" fill="#F8EDE0" transform="translate(317.760308, 604.514149) scale(-1, 1) rotate(18.000000) translate(-317.760308, -604.514149) "></path>
            </g>
        </g>
    </g>
</svg>