<svg width="24" height="24" viewBox="0 0 24 24" fill="none" xmlns="http://www.w3.org/2000/svg">
<path fill-rule="evenodd" clip-rule="evenodd" d="M18 16.0798C17.24 16.0798 16.56 16.3798 16.04 16.8498L8.91 12.6998C8.96 12.4698 9 12.2398 9 11.9998C9 11.7598 8.96 11.5298 8.91 11.2998L15.96 7.18976C16.5 7.68976 17.21 7.99976 18 7.99976C19.66 7.99976 21 6.65976 21 4.99976C21 3.33976 19.66 1.99976 18 1.99976C16.34 1.99976 15 3.33976 15 4.99976C15 5.23976 15.04 5.46976 15.09 5.69976L8.04 9.80976C7.5 9.30976 6.79 8.99976 6 8.99976C4.34 8.99976 3 10.3398 3 11.9998C3 13.6598 4.34 14.9998 6 14.9998C6.79 14.9998 7.5 14.6898 8.04 14.1898L15.16 18.3498C15.11 18.5598 15.08 18.7798 15.08 18.9998C15.08 20.6098 16.39 21.9198 18 21.9198C19.61 21.9198 20.92 20.6098 20.92 18.9998C20.92 17.3898 19.61 16.0798 18 16.0798Z" fill="#474D90"/>
</svg>
