<svg width="24" height="24" viewBox="0 0 24 24" fill="none" xmlns="http://www.w3.org/2000/svg">
<path fill-rule="evenodd" clip-rule="evenodd" d="M12 4.49976C7 4.49976 2.73 7.60976 1 11.9998C2.73 16.3898 7 19.4998 12 19.4998C17 19.4998 21.27 16.3898 23 11.9998C21.27 7.60976 17 4.49976 12 4.49976ZM12 16.9998C9.24 16.9998 7 14.7598 7 11.9998C7 9.23976 9.24 6.99976 12 6.99976C14.76 6.99976 17 9.23976 17 11.9998C17 14.7598 14.76 16.9998 12 16.9998ZM12 8.99976C10.34 8.99976 9 10.3398 9 11.9998C9 13.6598 10.34 14.9998 12 14.9998C13.66 14.9998 15 13.6598 15 11.9998C15 10.3398 13.66 8.99976 12 8.99976Z" fill="#474D90"/>
</svg>
