<svg width="606" height="1024" viewBox="0 0 606 1024" fill="none" xmlns="http://www.w3.org/2000/svg">
<rect width="606" height="1024" fill="url(#paint0_linear)"/>
<path fill-rule="evenodd" clip-rule="evenodd" d="M99.5 393.232C100.328 393.232 101 392.562 101 391.735C101 390.908 100.328 390.238 99.5 390.238C98.6716 390.238 98 390.908 98 391.735C98 392.562 98.6716 393.232 99.5 393.232Z" fill="white"/>
<path fill-rule="evenodd" clip-rule="evenodd" d="M86.5 295.423C87.3284 295.423 88 294.753 88 293.926C88 293.099 87.3284 292.429 86.5 292.429C85.6716 292.429 85 293.099 85 293.926C85 294.753 85.6716 295.423 86.5 295.423Z" fill="white"/>
<path fill-rule="evenodd" clip-rule="evenodd" d="M147.5 201.606C148.328 201.606 149 200.936 149 200.109C149 199.282 148.328 198.612 147.5 198.612C146.672 198.612 146 199.282 146 200.109C146 200.936 146.672 201.606 147.5 201.606Z" fill="white"/>
<path fill-rule="evenodd" clip-rule="evenodd" d="M281.5 111.782C282.328 111.782 283 111.111 283 110.284C283 109.458 282.328 108.787 281.5 108.787C280.672 108.787 280 109.458 280 110.284C280 111.111 280.672 111.782 281.5 111.782Z" fill="white"/>
<path fill-rule="evenodd" clip-rule="evenodd" d="M131.5 89.8245C132.328 89.8245 133 89.1542 133 88.3274C133 87.5006 132.328 86.8303 131.5 86.8303C130.672 86.8303 130 87.5006 130 88.3274C130 89.1542 130.672 89.8245 131.5 89.8245Z" fill="white"/>
<path fill-rule="evenodd" clip-rule="evenodd" d="M62.5 167.672C63.8807 167.672 65 166.555 65 165.177C65 163.799 63.8807 162.682 62.5 162.682C61.1193 162.682 60 163.799 60 165.177C60 166.555 61.1193 167.672 62.5 167.672Z" fill="white"/>
<path fill-rule="evenodd" clip-rule="evenodd" d="M416.5 145.715C417.328 145.715 418 145.045 418 144.218C418 143.391 417.328 142.721 416.5 142.721C415.672 142.721 415 143.391 415 144.218C415 145.045 415.672 145.715 416.5 145.715Z" fill="white"/>
<path fill-rule="evenodd" clip-rule="evenodd" d="M526.5 174.659C527.328 174.659 528 173.988 528 173.162C528 172.335 527.328 171.665 526.5 171.665C525.672 171.665 525 172.335 525 173.162C525 173.988 525.672 174.659 526.5 174.659Z" fill="white"/>
<path fill-rule="evenodd" clip-rule="evenodd" d="M545.5 88.8264C546.328 88.8264 547 88.1562 547 87.3293C547 86.5025 546.328 85.8323 545.5 85.8323C544.672 85.8323 544 86.5025 544 87.3293C544 88.1562 544.672 88.8264 545.5 88.8264Z" fill="white"/>
<path fill-rule="evenodd" clip-rule="evenodd" d="M413.5 31.9375C414.328 31.9375 415 31.2672 415 30.4404C415 29.6136 414.328 28.9434 413.5 28.9434C412.672 28.9434 412 29.6136 412 30.4404C412 31.2672 412.672 31.9375 413.5 31.9375Z" fill="white"/>
<path fill-rule="evenodd" clip-rule="evenodd" d="M331 237.536C332.657 237.536 334 236.195 334 234.542C334 232.888 332.657 231.548 331 231.548C329.343 231.548 328 232.888 328 234.542C328 236.195 329.343 237.536 331 237.536Z" fill="white"/>
<path fill-rule="evenodd" clip-rule="evenodd" d="M248.477 573.048C248.477 545.986 270.415 524.048 297.477 524.048H304.702H311.927C338.989 524.048 360.927 545.986 360.927 573.048V649.595C360.927 655.67 356.002 660.595 349.927 660.595H304.702H259.477C253.402 660.595 248.477 655.67 248.477 649.595V573.048Z" fill="#DBBCE2"/>
<path d="M248.477 623.04C248.477 622.488 248.925 622.04 249.477 622.04H359.927C360.479 622.04 360.927 622.488 360.927 623.04V637.701C360.927 651.232 349.958 662.201 336.427 662.201H272.977C259.446 662.201 248.477 651.232 248.477 637.701V623.04Z" fill="#F4B19D"/>
<rect x="270.967" y="532.08" width="14.4578" height="89.9598" fill="#F4B19D"/>
<rect x="323.979" y="530.474" width="14.4578" height="94.7791" fill="#F4B19D"/>
<path fill-rule="evenodd" clip-rule="evenodd" d="M303.095 541.719C354.553 541.719 396.268 486.794 396.268 419.04C396.268 351.286 209.923 351.286 209.923 419.04C209.923 486.794 251.637 541.719 303.095 541.719Z" fill="#F8EDE0"/>
<path fill-rule="evenodd" clip-rule="evenodd" d="M303.324 504.831C310.354 504.831 316.053 501.385 316.053 497.135C316.053 494.607 290.595 494.123 290.595 497.135C290.595 501.385 296.294 504.831 303.324 504.831Z" fill="#EE9393"/>
<path fill-rule="evenodd" clip-rule="evenodd" d="M303.324 504.813C306.103 504.813 308.357 504.552 308.357 503.571C308.357 502.59 306.103 501.261 303.324 501.261C300.545 501.261 298.292 502.59 298.292 503.571C298.292 504.552 300.545 504.813 303.324 504.813Z" fill="#FDA981"/>
<path fill-rule="evenodd" clip-rule="evenodd" d="M309.531 498.322C310.185 498.322 310.986 495.922 310.706 495.623C310.506 495.411 308.551 495.178 308.338 495.465C308.117 495.761 308.877 498.322 309.531 498.322Z" fill="white"/>
<path fill-rule="evenodd" clip-rule="evenodd" d="M261.289 492.093C265.703 492.093 269.281 489.178 269.281 485.581C269.281 481.984 265.703 479.068 261.289 479.068C256.875 479.068 253.296 481.984 253.296 485.581C253.296 489.178 256.875 492.093 261.289 492.093Z" fill="#FBA5F6" fill-opacity="0.356091"/>
<path fill-rule="evenodd" clip-rule="evenodd" d="M345.36 492.093C349.774 492.093 353.353 489.178 353.353 485.581C353.353 481.984 349.774 479.068 345.36 479.068C340.946 479.068 337.367 481.984 337.367 485.581C337.367 489.178 340.946 492.093 345.36 492.093Z" fill="#FBA5F6" fill-opacity="0.356091"/>
<path fill-rule="evenodd" clip-rule="evenodd" d="M331.68 468.091C335.601 468.091 337.223 472.25 340.38 470.183C343.538 468.117 339.09 463.004 331.68 463.004C324.27 463.004 320.566 468.031 323.24 470.183C325.914 472.336 327.76 468.091 331.68 468.091Z" fill="black"/>
<path fill-rule="evenodd" clip-rule="evenodd" d="M273.849 468.091C277.769 468.091 279.391 472.25 282.549 470.183C285.706 468.117 281.259 463.004 273.849 463.004C266.439 463.004 262.734 468.031 265.408 470.183C268.082 472.336 269.928 468.091 273.849 468.091Z" fill="black"/>
<path fill-rule="evenodd" clip-rule="evenodd" d="M204.599 391.589C207.477 377.075 220.211 366.618 235.007 366.618H300.713V438.759C300.713 445.939 294.893 451.759 287.713 451.759H192.667L204.599 391.589Z" fill="#F8F3BD"/>
<path fill-rule="evenodd" clip-rule="evenodd" d="M399.145 392.284C396.553 377.446 383.67 366.618 368.608 366.618H301.489V441.759C301.489 447.282 305.966 451.759 311.489 451.759H409.535L399.145 392.284Z" fill="#4A4A4A"/>
<rect x="270.967" y="654.169" width="12.8514" height="57.8313" rx="4" fill="#F8EDE0"/>
<rect x="327.192" y="654.169" width="12.8514" height="57.8313" rx="4" fill="#F8EDE0"/>
<path fill-rule="evenodd" clip-rule="evenodd" d="M303.511 553.736C370.051 553.736 423.993 499.795 423.993 433.254C423.993 366.714 370.051 312.772 303.511 312.772C236.97 312.772 183.029 366.714 183.029 433.254C183.029 499.795 236.97 553.736 303.511 553.736Z" fill="#808CB1" fill-opacity="0.319639"/>
<path fill-rule="evenodd" clip-rule="evenodd" d="M251.325 338.479C253.9 337.039 257.091 337.767 258.892 340.104C261.373 343.323 260.165 348.135 256.631 350.143C249.573 354.155 238.359 361.658 227.807 373.542C210.673 392.838 207.517 412.972 203.363 413.814C199.209 414.657 196.022 414.973 197.64 404.759C199.258 394.546 206.061 377.255 219.044 362.634C228.543 351.936 243.814 342.677 251.325 338.479Z" fill="white"/>
<rect y="627" width="606" height="397" fill="url(#paint1_linear)"/>
<path d="M442.226 699.508C442.193 699.276 441.979 699.115 441.747 699.148C441.515 699.18 441.354 699.394 441.387 699.625C442.33 706.322 448.556 711.004 455.265 710.063C455.381 710.047 455.48 709.985 455.545 709.899C455.61 709.813 455.642 709.701 455.626 709.586C455.593 709.354 455.38 709.193 455.148 709.226C448.9 710.102 443.104 705.742 442.226 699.508Z" fill="white"/>
<path d="M451.845 685.774C451.613 685.806 451.452 686.02 451.485 686.251C451.517 686.483 451.731 686.644 451.963 686.611C454.984 686.187 457.994 686.966 460.437 688.803C462.881 690.641 464.46 693.314 464.885 696.329C464.917 696.561 465.131 696.722 465.363 696.689C465.479 696.673 465.577 696.611 465.643 696.525C465.708 696.438 465.74 696.327 465.724 696.212C465.268 692.972 463.572 690.102 460.947 688.128C458.323 686.154 455.091 685.318 451.845 685.774Z" fill="white"/>
<path d="M444.744 699.154C444.711 698.922 444.497 698.761 444.265 698.794C444.033 698.826 443.872 699.04 443.904 699.271C444.652 704.583 449.59 708.297 454.912 707.55C455.027 707.534 455.126 707.472 455.191 707.386C455.257 707.299 455.289 707.188 455.272 707.072C455.24 706.841 455.026 706.68 454.794 706.712C449.935 707.394 445.427 704.003 444.744 699.154Z" fill="white"/>
<path d="M452.199 688.286C451.967 688.319 451.806 688.532 451.838 688.764C451.871 688.995 452.085 689.156 452.317 689.124C457.176 688.442 461.684 691.833 462.367 696.682C462.4 696.914 462.614 697.075 462.846 697.042C462.961 697.026 463.06 696.964 463.125 696.878C463.19 696.791 463.222 696.68 463.206 696.565C462.459 691.253 457.521 687.54 452.199 688.286Z" fill="white"/>
<path d="M446.783 698.441C446.551 698.474 446.389 698.687 446.422 698.919C446.689 700.818 447.684 702.501 449.222 703.658C450.761 704.815 452.655 705.304 454.558 705.038C454.674 705.022 454.772 704.96 454.837 704.874C454.903 704.787 454.935 704.676 454.919 704.56C454.886 704.329 454.672 704.168 454.44 704.2C450.969 704.687 447.749 702.265 447.261 698.801C447.229 698.57 447.014 698.409 446.783 698.441Z" fill="white"/>
<path d="M452.553 690.799C452.321 690.831 452.16 691.045 452.192 691.276C452.225 691.508 452.439 691.669 452.671 691.636C456.142 691.149 459.362 693.571 459.849 697.035C459.882 697.266 460.096 697.427 460.328 697.395C460.444 697.379 460.542 697.317 460.607 697.231C460.673 697.144 460.705 697.033 460.688 696.917C460.421 695.018 459.427 693.335 457.888 692.178C456.35 691.021 454.455 690.532 452.553 690.799Z" fill="white"/>
<path fill-rule="evenodd" clip-rule="evenodd" d="M451.838 700.334C450.532 699.352 450.27 697.491 451.255 696.188C452.239 694.884 454.103 694.623 455.408 695.605C456.599 696.501 456.918 698.125 456.22 699.393L466.399 707.049C466.586 707.189 466.624 707.454 466.483 707.641C466.342 707.828 466.076 707.865 465.889 707.724L455.71 700.069C454.682 701.088 453.029 701.229 451.838 700.334ZM452.348 699.658C453.281 700.36 454.612 700.173 455.315 699.242C456.018 698.311 455.831 696.983 454.898 696.281C453.965 695.579 452.634 695.766 451.931 696.697C451.228 697.628 451.415 698.957 452.348 699.658Z" fill="white"/>
<path d="M166.3 713.647L306.064 767.192L272.764 853.773L133 800.228L166.3 713.647Z" fill="#323F5B"/>
<path d="M212.812 686.847H187V707.456C187 710.302 189.31 712.608 192.162 712.608H207.649C210.501 712.608 212.812 710.302 212.812 707.456V686.847Z" fill="#E64C3C"/>
<path d="M269.692 679.29H243.88V699.899C243.88 702.745 246.19 705.051 249.042 705.051H264.53C267.382 705.051 269.692 702.745 269.692 699.899V679.29Z" fill="#E64C3C"/>
<path d="M306.064 699.821H280.253V720.431C280.253 723.277 282.563 725.583 285.415 725.583H300.902C303.754 725.583 306.064 723.277 306.064 720.431V699.821Z" fill="#E64C3C"/>
<path d="M341.965 679.29H316.153V699.899C316.153 702.745 318.463 705.051 321.315 705.051H336.802C339.654 705.051 341.965 702.745 341.965 699.899V679.29Z" fill="#E64C3C"/>
<path d="M200 668.985H349.708V679.29H200V668.985Z" fill="#323F5B"/>
<path d="M404.562 724.929C405.161 736.336 396.383 746.066 384.953 746.664C373.524 747.262 363.775 738.501 363.176 727.093C362.577 715.686 371.355 705.956 382.784 705.358C394.214 704.76 403.963 713.522 404.562 724.929Z" fill="#2669B9"/>
<path d="M380.867 717.283L376.859 732.213L393.822 728.748L380.867 717.283Z" fill="white"/>
<g filter="url(#filter0_d)">
<path d="M395.248 636.291L394.758 636.692C393.95 637.5 393.35 638.432 392.899 639.411L365.721 639.409C365.271 638.429 364.67 637.498 363.863 636.69L363.373 636.289C359.694 633.077 354.125 633.186 350.621 636.69C349.601 637.71 348.895 638.915 348.445 640.19L357.242 640.19C357.705 640.19 358.138 640.305 358.533 640.488C359.603 640.981 360.36 642.051 360.362 643.311C360.362 644.172 360.014 644.953 359.449 645.518C359.188 645.778 358.873 645.979 358.533 646.134C358.133 646.313 357.705 646.432 357.239 646.43L348.445 646.432C348.895 647.707 349.601 648.912 350.621 649.932C354.125 653.437 359.694 653.545 363.373 650.334L363.863 649.932C364.67 649.124 365.271 648.193 365.723 647.215L392.897 647.217C393.352 648.193 393.952 649.124 394.76 649.932L395.252 650.331C398.929 653.549 404.497 653.437 408.002 649.932C409.021 648.912 409.734 647.71 410.178 646.432L401.381 646.432C400.922 646.432 400.485 646.317 400.088 646.14C399.017 645.648 398.258 644.576 398.26 643.311C398.256 642.455 398.609 641.669 399.174 641.104C399.434 640.844 399.745 640.643 400.092 640.486C400.489 640.305 400.92 640.184 401.381 640.191H410.178C409.727 638.911 409.021 637.71 408.002 636.69C404.495 633.188 398.927 633.08 395.248 636.291Z" fill="#8096B0"/>
</g>
<path fill-rule="evenodd" clip-rule="evenodd" d="M248.132 560.794C249.765 558.739 252.708 558.432 254.803 560.014L256.469 561.272C258.594 562.877 259.1 565.856 257.639 568.082C252.195 576.375 239.828 595.771 235.664 606.982C231.797 617.394 232.638 633.717 233.427 642.146C233.701 645.075 231.509 647.721 228.571 647.875L223.959 648.116C221.507 648.245 219.35 646.578 219.063 644.14C218.205 636.848 217.424 620.935 223.463 603.398C229.731 585.193 242.39 568.02 248.132 560.794Z" fill="#F8EDE0"/>
<path fill-rule="evenodd" clip-rule="evenodd" d="M359.74 560.654C358.143 558.57 355.206 558.212 353.084 559.757L351.396 560.986C349.243 562.553 348.686 565.523 350.108 567.774C355.406 576.161 367.432 595.77 371.4 607.052C375.085 617.53 373.96 633.836 373.024 642.25C372.698 645.174 374.844 647.857 377.779 648.062L382.386 648.384C384.835 648.556 387.021 646.927 387.35 644.494C388.335 637.218 389.394 621.322 383.662 603.681C377.713 585.37 365.356 567.979 359.74 560.654Z" fill="#F8EDE0"/>
<defs>
<filter id="filter0_d" x="344.445" y="631.967" width="69.7329" height="26.6889" filterUnits="userSpaceOnUse" color-interpolation-filters="sRGB">
<feFlood flood-opacity="0" result="BackgroundImageFix"/>
<feColorMatrix in="SourceAlpha" type="matrix" values="0 0 0 0 0 0 0 0 0 0 0 0 0 0 0 0 0 0 127 0"/>
<feOffset dy="2"/>
<feGaussianBlur stdDeviation="2"/>
<feColorMatrix type="matrix" values="0 0 0 0 0 0 0 0 0 0 0 0 0 0 0 0 0 0 0.5 0"/>
<feBlend mode="normal" in2="BackgroundImageFix" result="effect1_dropShadow"/>
<feBlend mode="normal" in="SourceGraphic" in2="effect1_dropShadow" result="shape"/>
</filter>
<linearGradient id="paint0_linear" x1="606" y1="1024" x2="606" y2="0" gradientUnits="userSpaceOnUse">
<stop stop-color="#2B3780"/>
<stop offset="1" stop-color="#20244C"/>
</linearGradient>
<linearGradient id="paint1_linear" x1="782.308" y1="1255" x2="782.308" y2="627" gradientUnits="userSpaceOnUse">
<stop stop-color="#434A83"/>
<stop offset="1" stop-color="#20244C"/>
</linearGradient>
</defs>
</svg>
