<svg width="500" height="1024" viewBox="0 0 500 1024" fill="none" xmlns="http://www.w3.org/2000/svg">
<rect width="500" height="1024" fill="url(#paint0_linear)"/>
<path fill-rule="evenodd" clip-rule="evenodd" d="M46.5 393.232C47.3284 393.232 48 392.562 48 391.735C48 390.908 47.3284 390.238 46.5 390.238C45.6716 390.238 45 390.908 45 391.735C45 392.562 45.6716 393.232 46.5 393.232Z" fill="white"/>
<path fill-rule="evenodd" clip-rule="evenodd" d="M33.5 295.423C34.3284 295.423 35 294.753 35 293.926C35 293.099 34.3284 292.429 33.5 292.429C32.6716 292.429 32 293.099 32 293.926C32 294.753 32.6716 295.423 33.5 295.423Z" fill="white"/>
<path fill-rule="evenodd" clip-rule="evenodd" d="M94.5 201.606C95.3284 201.606 96 200.936 96 200.109C96 199.282 95.3284 198.612 94.5 198.612C93.6716 198.612 93 199.282 93 200.109C93 200.936 93.6716 201.606 94.5 201.606Z" fill="white"/>
<path fill-rule="evenodd" clip-rule="evenodd" d="M228.5 111.782C229.328 111.782 230 111.111 230 110.284C230 109.458 229.328 108.787 228.5 108.787C227.672 108.787 227 109.458 227 110.284C227 111.111 227.672 111.782 228.5 111.782Z" fill="white"/>
<path fill-rule="evenodd" clip-rule="evenodd" d="M78.5 89.8245C79.3284 89.8245 80 89.1542 80 88.3274C80 87.5006 79.3284 86.8303 78.5 86.8303C77.6716 86.8303 77 87.5006 77 88.3274C77 89.1542 77.6716 89.8245 78.5 89.8245Z" fill="white"/>
<path fill-rule="evenodd" clip-rule="evenodd" d="M9.5 167.672C10.8807 167.672 12 166.555 12 165.177C12 163.799 10.8807 162.682 9.5 162.682C8.11929 162.682 7 163.799 7 165.177C7 166.555 8.11929 167.672 9.5 167.672Z" fill="white"/>
<path fill-rule="evenodd" clip-rule="evenodd" d="M363.5 145.715C364.328 145.715 365 145.045 365 144.218C365 143.391 364.328 142.721 363.5 142.721C362.672 142.721 362 143.391 362 144.218C362 145.045 362.672 145.715 363.5 145.715Z" fill="white"/>
<path fill-rule="evenodd" clip-rule="evenodd" d="M473.5 174.659C474.328 174.659 475 173.988 475 173.162C475 172.335 474.328 171.665 473.5 171.665C472.672 171.665 472 172.335 472 173.162C472 173.988 472.672 174.659 473.5 174.659Z" fill="white"/>
<path fill-rule="evenodd" clip-rule="evenodd" d="M492.5 88.8264C493.328 88.8264 494 88.1562 494 87.3293C494 86.5025 493.328 85.8323 492.5 85.8323C491.672 85.8323 491 86.5025 491 87.3293C491 88.1562 491.672 88.8264 492.5 88.8264Z" fill="white"/>
<path fill-rule="evenodd" clip-rule="evenodd" d="M360.5 31.9375C361.328 31.9375 362 31.2672 362 30.4404C362 29.6136 361.328 28.9434 360.5 28.9434C359.672 28.9434 359 29.6136 359 30.4404C359 31.2672 359.672 31.9375 360.5 31.9375Z" fill="white"/>
<path fill-rule="evenodd" clip-rule="evenodd" d="M278 237.536C279.657 237.536 281 236.195 281 234.542C281 232.888 279.657 231.548 278 231.548C276.343 231.548 275 232.888 275 234.542C275 236.195 276.343 237.536 278 237.536Z" fill="white"/>
<path fill-rule="evenodd" clip-rule="evenodd" d="M194.47 574.023C194.47 546.961 216.408 525.023 243.47 525.023H250.695H257.92C284.982 525.023 306.92 546.961 306.92 574.023V650.303C306.92 656.378 301.995 661.303 295.92 661.303H250.695H205.47C199.395 661.303 194.47 656.378 194.47 650.303V574.023Z" fill="#DBBCE2"/>
<path d="M194.47 623.824C194.47 623.271 194.918 622.824 195.47 622.824H305.92C306.472 622.824 306.92 623.271 306.92 623.824V638.406C306.92 651.937 295.951 662.906 282.42 662.906H218.97C205.439 662.906 194.47 651.937 194.47 638.406V623.824Z" fill="#F4B19D"/>
<rect x="216.96" y="533.039" width="14.4578" height="89.7845" fill="#F4B19D"/>
<rect x="269.972" y="531.436" width="14.4578" height="94.5944" fill="#F4B19D"/>
<path fill-rule="evenodd" clip-rule="evenodd" d="M249.088 542.659C300.546 542.659 342.261 487.841 342.261 420.22C342.261 352.598 155.916 352.598 155.916 420.22C155.916 487.841 197.63 542.659 249.088 542.659Z" fill="#F8EDE0"/>
<path fill-rule="evenodd" clip-rule="evenodd" d="M249.317 505.843C256.347 505.843 262.046 502.404 262.046 498.162C262.046 495.639 236.588 495.156 236.588 498.162C236.588 502.404 242.287 505.843 249.317 505.843Z" fill="#EE9393"/>
<path fill-rule="evenodd" clip-rule="evenodd" d="M249.317 505.825C252.097 505.825 254.35 505.564 254.35 504.585C254.35 503.606 252.097 502.28 249.317 502.28C246.538 502.28 244.285 503.606 244.285 504.585C244.285 505.564 246.538 505.825 249.317 505.825Z" fill="#FDA981"/>
<path fill-rule="evenodd" clip-rule="evenodd" d="M255.524 499.346C256.178 499.346 256.979 496.951 256.699 496.653C256.499 496.441 254.544 496.209 254.331 496.495C254.11 496.79 254.87 499.346 255.524 499.346Z" fill="white"/>
<path fill-rule="evenodd" clip-rule="evenodd" d="M207.282 493.13C211.696 493.13 215.275 490.22 215.275 486.63C215.275 483.041 211.696 480.131 207.282 480.131C202.868 480.131 199.289 483.041 199.289 486.63C199.289 490.22 202.868 493.13 207.282 493.13Z" fill="#FBA5F6" fill-opacity="0.356091"/>
<path fill-rule="evenodd" clip-rule="evenodd" d="M291.353 493.13C295.767 493.13 299.345 490.22 299.345 486.63C299.345 483.041 295.767 480.131 291.353 480.131C286.939 480.131 283.36 483.041 283.36 486.63C283.36 490.22 286.939 493.13 291.353 493.13Z" fill="#FBA5F6" fill-opacity="0.356091"/>
<path fill-rule="evenodd" clip-rule="evenodd" d="M277.673 469.175C281.594 469.175 283.216 473.325 286.373 471.263C289.531 469.2 285.083 464.098 277.673 464.098C270.263 464.098 266.559 469.114 269.233 471.263C271.906 473.411 273.753 469.175 277.673 469.175Z" fill="black"/>
<path fill-rule="evenodd" clip-rule="evenodd" d="M219.842 469.175C223.762 469.175 225.385 473.325 228.542 471.263C231.699 469.2 227.252 464.098 219.842 464.098C212.432 464.098 208.727 469.114 211.401 471.263C214.075 473.411 215.922 469.175 219.842 469.175Z" fill="black"/>
<path fill-rule="evenodd" clip-rule="evenodd" d="M150.585 392.859C153.467 378.351 166.198 367.9 180.99 367.9H246.706V439.875C246.706 447.054 240.886 452.875 233.706 452.875H138.66L150.585 392.859Z" fill="#F8F3BD"/>
<path fill-rule="evenodd" clip-rule="evenodd" d="M345.145 393.555C342.549 378.722 329.668 367.9 314.609 367.9H247.482V442.875C247.482 448.397 251.959 452.875 257.482 452.875H355.528L345.145 393.555Z" fill="#4A4A4A"/>
<rect x="216.96" y="654.89" width="12.8514" height="57.7186" rx="4" fill="#F8EDE0"/>
<rect x="273.185" y="654.89" width="12.8514" height="57.7186" rx="4" fill="#F8EDE0"/>
<path fill-rule="evenodd" clip-rule="evenodd" d="M249.504 554.653C316.044 554.653 369.986 500.817 369.986 434.406C369.986 367.995 316.044 314.159 249.504 314.159C182.964 314.159 129.022 367.995 129.022 434.406C129.022 500.817 182.964 554.653 249.504 554.653Z" fill="#808CB1" fill-opacity="0.319639"/>
<path fill-rule="evenodd" clip-rule="evenodd" d="M197.319 339.815C199.893 338.378 203.084 339.105 204.885 341.437C207.366 344.65 206.159 349.452 202.626 351.456C195.568 355.459 184.353 362.948 173.8 374.81C156.666 394.068 153.511 414.163 149.356 415.004C145.202 415.845 142.015 416.16 143.633 405.966C145.251 395.773 152.054 378.516 165.037 363.924C174.536 353.246 189.808 344.005 197.319 339.815Z" fill="white"/>
<rect y="626.776" width="500" height="397.224" fill="url(#paint1_linear)"/>
<g filter="url(#filter0_d)">
<path d="M341.248 637.047L340.758 637.448C339.95 638.254 339.35 639.183 338.899 640.161L311.721 640.159C311.271 639.181 310.67 638.252 309.863 637.445L309.373 637.044C305.694 633.84 300.125 633.948 296.621 637.445C295.601 638.463 294.895 639.666 294.445 640.939L303.242 640.939C303.705 640.939 304.138 641.053 304.533 641.236C305.603 641.727 306.36 642.796 306.362 644.053C306.362 644.912 306.014 645.692 305.449 646.256C305.188 646.516 304.873 646.716 304.533 646.87C304.133 647.049 303.705 647.168 303.239 647.166L294.445 647.168C294.895 648.441 295.601 649.644 296.621 650.661C300.125 654.159 305.694 654.267 309.373 651.062L309.863 650.661C310.67 649.855 311.271 648.925 311.723 647.95L338.897 647.952C339.352 648.926 339.952 649.855 340.76 650.661L341.252 651.06C344.929 654.271 350.497 654.159 354.002 650.661C355.021 649.644 355.734 648.443 356.178 647.168L347.381 647.168C346.922 647.168 346.485 647.053 346.088 646.877C345.017 646.386 344.258 645.315 344.26 644.053C344.256 643.199 344.609 642.415 345.174 641.851C345.434 641.591 345.745 641.39 346.092 641.234C346.489 641.053 346.92 640.932 347.381 640.939H356.178C355.727 639.661 355.021 638.463 354.002 637.445C350.495 633.95 344.927 633.842 341.248 637.047Z" fill="#8096B0"/>
</g>
<path fill-rule="evenodd" clip-rule="evenodd" d="M194.13 561.699C195.765 559.647 198.707 559.338 200.801 560.916L202.465 562.171C204.592 563.774 205.097 566.754 203.633 568.98C198.185 577.262 185.827 596.61 181.664 607.795C177.799 618.181 178.637 634.46 179.425 642.877C179.7 645.807 177.504 648.455 174.562 648.608L169.956 648.849C167.505 648.978 165.35 647.314 165.063 644.88C164.205 637.601 163.424 621.721 169.463 604.218C175.73 586.05 188.387 568.913 194.13 561.699Z" fill="#F8EDE0"/>
<path fill-rule="evenodd" clip-rule="evenodd" d="M305.742 561.559C304.143 559.478 301.208 559.118 299.086 560.66L297.4 561.885C295.246 563.451 294.689 566.422 296.114 568.673C301.416 577.049 313.434 596.609 317.4 607.865C321.083 618.316 319.961 634.579 319.025 642.98C318.699 645.905 320.849 648.591 323.787 648.796L328.389 649.117C330.837 649.288 333.021 647.663 333.35 645.233C334.335 637.971 335.394 622.106 329.662 604.5C323.713 586.227 311.358 568.871 305.742 561.559Z" fill="#F8EDE0"/>
<path d="M387.226 699.508C387.193 699.276 386.979 699.115 386.747 699.148C386.515 699.18 386.354 699.394 386.387 699.625C387.33 706.322 393.556 711.004 400.265 710.063C400.381 710.047 400.48 709.985 400.545 709.899C400.61 709.813 400.642 709.701 400.626 709.586C400.593 709.354 400.38 709.193 400.148 709.226C393.9 710.102 388.104 705.742 387.226 699.508Z" fill="white"/>
<path d="M396.845 685.774C396.613 685.806 396.452 686.02 396.485 686.251C396.517 686.483 396.731 686.644 396.963 686.611C399.984 686.187 402.994 686.966 405.437 688.803C407.881 690.641 409.46 693.314 409.885 696.329C409.917 696.561 410.131 696.722 410.363 696.689C410.479 696.673 410.577 696.611 410.643 696.525C410.708 696.438 410.74 696.327 410.724 696.212C410.268 692.972 408.572 690.102 405.947 688.128C403.323 686.154 400.091 685.318 396.845 685.774Z" fill="white"/>
<path d="M389.744 699.154C389.711 698.922 389.497 698.761 389.265 698.794C389.033 698.826 388.872 699.04 388.904 699.271C389.652 704.583 394.59 708.297 399.912 707.55C400.027 707.534 400.126 707.472 400.191 707.386C400.257 707.299 400.289 707.188 400.272 707.072C400.24 706.841 400.026 706.68 399.794 706.712C394.935 707.394 390.427 704.003 389.744 699.154Z" fill="white"/>
<path d="M397.199 688.286C396.967 688.319 396.806 688.532 396.838 688.764C396.871 688.995 397.085 689.156 397.317 689.124C402.176 688.442 406.684 691.833 407.367 696.682C407.4 696.914 407.614 697.075 407.846 697.042C407.961 697.026 408.06 696.964 408.125 696.878C408.19 696.791 408.222 696.68 408.206 696.565C407.459 691.253 402.521 687.54 397.199 688.286Z" fill="white"/>
<path d="M391.783 698.441C391.551 698.474 391.389 698.687 391.422 698.919C391.689 700.818 392.684 702.501 394.222 703.658C395.761 704.815 397.655 705.304 399.558 705.038C399.674 705.022 399.772 704.96 399.837 704.874C399.903 704.787 399.935 704.676 399.919 704.56C399.886 704.329 399.672 704.168 399.44 704.2C395.969 704.687 392.749 702.265 392.261 698.801C392.229 698.57 392.014 698.409 391.783 698.441Z" fill="white"/>
<path d="M397.553 690.799C397.321 690.831 397.16 691.045 397.192 691.276C397.225 691.508 397.439 691.669 397.671 691.636C401.142 691.149 404.362 693.571 404.849 697.035C404.882 697.266 405.096 697.427 405.328 697.395C405.444 697.379 405.542 697.317 405.607 697.231C405.673 697.144 405.705 697.033 405.688 696.917C405.421 695.018 404.427 693.335 402.888 692.178C401.35 691.021 399.455 690.532 397.553 690.799Z" fill="white"/>
<path fill-rule="evenodd" clip-rule="evenodd" d="M396.838 700.334C395.532 699.352 395.27 697.491 396.254 696.188C397.239 694.884 399.102 694.623 400.408 695.605C401.599 696.501 401.918 698.125 401.22 699.393L411.399 707.049C411.586 707.189 411.624 707.454 411.483 707.641C411.342 707.828 411.076 707.865 410.889 707.724L400.71 700.069C399.681 701.088 398.029 701.229 396.838 700.334ZM397.348 699.658C398.281 700.36 399.612 700.173 400.315 699.242C401.018 698.311 400.831 696.983 399.898 696.281C398.965 695.579 397.634 695.766 396.931 696.697C396.228 697.628 396.415 698.957 397.348 699.658Z" fill="white"/>
<path d="M111.3 713.647L251.064 767.192L217.764 853.773L78 800.228L111.3 713.647Z" fill="#323F5B"/>
<path d="M157.812 686.847H132V707.456C132 710.302 134.31 712.608 137.162 712.608H152.649C155.501 712.608 157.812 710.302 157.812 707.456V686.847Z" fill="#E64C3C"/>
<path d="M214.692 679.29H188.88V699.899C188.88 702.745 191.19 705.051 194.042 705.051H209.53C212.382 705.051 214.692 702.745 214.692 699.899V679.29Z" fill="#E64C3C"/>
<path d="M251.064 699.821H225.253V720.431C225.253 723.277 227.563 725.583 230.415 725.583H245.902C248.754 725.583 251.064 723.277 251.064 720.431V699.821Z" fill="#E64C3C"/>
<path d="M286.965 679.29H261.153V699.899C261.153 702.745 263.463 705.051 266.315 705.051H281.802C284.654 705.051 286.965 702.745 286.965 699.899V679.29Z" fill="#E64C3C"/>
<path d="M145 668.985H294.708V679.29H145V668.985Z" fill="#323F5B"/>
<path d="M349.562 724.929C350.161 736.336 341.382 746.066 329.953 746.664C318.524 747.262 308.774 738.501 308.175 727.093C307.576 715.686 316.355 705.956 327.784 705.358C339.213 704.76 348.963 713.522 349.562 724.929Z" fill="#2669B9"/>
<path d="M325.867 717.283L321.859 732.213L338.822 728.748L325.867 717.283Z" fill="white"/>
<defs>
<filter id="filter0_d" x="290.445" y="632.728" width="69.7329" height="26.6524" filterUnits="userSpaceOnUse" color-interpolation-filters="sRGB">
<feFlood flood-opacity="0" result="BackgroundImageFix"/>
<feColorMatrix in="SourceAlpha" type="matrix" values="0 0 0 0 0 0 0 0 0 0 0 0 0 0 0 0 0 0 127 0"/>
<feOffset dy="2"/>
<feGaussianBlur stdDeviation="2"/>
<feColorMatrix type="matrix" values="0 0 0 0 0 0 0 0 0 0 0 0 0 0 0 0 0 0 0.5 0"/>
<feBlend mode="normal" in2="BackgroundImageFix" result="effect1_dropShadow"/>
<feBlend mode="normal" in="SourceGraphic" in2="effect1_dropShadow" result="shape"/>
</filter>
<linearGradient id="paint0_linear" x1="500" y1="1024" x2="500" y2="0" gradientUnits="userSpaceOnUse">
<stop stop-color="#2B3780"/>
<stop offset="1" stop-color="#20244C"/>
</linearGradient>
<linearGradient id="paint1_linear" x1="645.468" y1="1255.13" x2="645.468" y2="626.776" gradientUnits="userSpaceOnUse">
<stop stop-color="#434A83"/>
<stop offset="1" stop-color="#20244C"/>
</linearGradient>
</defs>
</svg>
