<svg width="606" height="1024" viewBox="0 0 606 1024" fill="none" xmlns="http://www.w3.org/2000/svg">
<rect width="606" height="1024" fill="url(#paint0_linear)"/>
<path fill-rule="evenodd" clip-rule="evenodd" d="M99.5 393.232C100.328 393.232 101 392.562 101 391.735C101 390.908 100.328 390.238 99.5 390.238C98.6716 390.238 98 390.908 98 391.735C98 392.562 98.6716 393.232 99.5 393.232Z" fill="white"/>
<path fill-rule="evenodd" clip-rule="evenodd" d="M86.5 295.423C87.3284 295.423 88 294.753 88 293.926C88 293.099 87.3284 292.429 86.5 292.429C85.6716 292.429 85 293.099 85 293.926C85 294.753 85.6716 295.423 86.5 295.423Z" fill="white"/>
<path fill-rule="evenodd" clip-rule="evenodd" d="M147.5 201.606C148.328 201.606 149 200.936 149 200.109C149 199.282 148.328 198.612 147.5 198.612C146.672 198.612 146 199.282 146 200.109C146 200.936 146.672 201.606 147.5 201.606Z" fill="white"/>
<path fill-rule="evenodd" clip-rule="evenodd" d="M281.5 111.782C282.328 111.782 283 111.111 283 110.285C283 109.458 282.328 108.788 281.5 108.788C280.672 108.788 280 109.458 280 110.285C280 111.111 280.672 111.782 281.5 111.782Z" fill="white"/>
<path fill-rule="evenodd" clip-rule="evenodd" d="M131.5 89.8246C132.328 89.8246 133 89.1543 133 88.3275C133 87.5007 132.328 86.8304 131.5 86.8304C130.672 86.8304 130 87.5007 130 88.3275C130 89.1543 130.672 89.8246 131.5 89.8246Z" fill="white"/>
<path fill-rule="evenodd" clip-rule="evenodd" d="M62.5 167.673C63.8807 167.673 65 166.555 65 165.177C65 163.799 63.8807 162.682 62.5 162.682C61.1193 162.682 60 163.799 60 165.177C60 166.555 61.1193 167.673 62.5 167.673Z" fill="white"/>
<path fill-rule="evenodd" clip-rule="evenodd" d="M416.5 145.715C417.328 145.715 418 145.045 418 144.218C418 143.392 417.328 142.721 416.5 142.721C415.672 142.721 415 143.392 415 144.218C415 145.045 415.672 145.715 416.5 145.715Z" fill="white"/>
<path fill-rule="evenodd" clip-rule="evenodd" d="M526.5 174.659C527.328 174.659 528 173.989 528 173.162C528 172.335 527.328 171.665 526.5 171.665C525.672 171.665 525 172.335 525 173.162C525 173.989 525.672 174.659 526.5 174.659Z" fill="white"/>
<path fill-rule="evenodd" clip-rule="evenodd" d="M545.5 88.8265C546.328 88.8265 547 88.1563 547 87.3295C547 86.5027 546.328 85.8324 545.5 85.8324C544.672 85.8324 544 86.5027 544 87.3295C544 88.1563 544.672 88.8265 545.5 88.8265Z" fill="white"/>
<path fill-rule="evenodd" clip-rule="evenodd" d="M413.5 31.9376C414.328 31.9376 415 31.2674 415 30.4406C415 29.6137 414.328 28.9435 413.5 28.9435C412.672 28.9435 412 29.6137 412 30.4406C412 31.2674 412.672 31.9376 413.5 31.9376Z" fill="white"/>
<path fill-rule="evenodd" clip-rule="evenodd" d="M331 237.536C332.657 237.536 334 236.196 334 234.542C334 232.888 332.657 231.548 331 231.548C329.343 231.548 328 232.888 328 234.542C328 236.196 329.343 237.536 331 237.536Z" fill="white"/>
<path fill-rule="evenodd" clip-rule="evenodd" d="M248.477 573.048C248.477 545.986 270.415 524.048 297.477 524.048H304.702H311.927C338.989 524.048 360.927 545.986 360.927 573.048V649.595C360.927 655.67 356.002 660.595 349.927 660.595H304.702H259.477C253.402 660.595 248.477 655.67 248.477 649.595V573.048Z" fill="#DBBCE2"/>
<path d="M248.477 623.04C248.477 622.488 248.925 622.04 249.477 622.04H359.927C360.479 622.04 360.927 622.488 360.927 623.04V637.701C360.927 651.232 349.958 662.201 336.427 662.201H272.977C259.446 662.201 248.477 651.232 248.477 637.701V623.04Z" fill="#F4B19D"/>
<rect x="270.967" y="532.08" width="14.4578" height="89.9598" fill="#F4B19D"/>
<rect x="323.979" y="530.474" width="14.4578" height="94.7791" fill="#F4B19D"/>
<path fill-rule="evenodd" clip-rule="evenodd" d="M303.095 541.719C354.553 541.719 396.268 486.794 396.268 419.04C396.268 351.287 209.923 351.287 209.923 419.04C209.923 486.794 251.637 541.719 303.095 541.719Z" fill="#F8EDE0"/>
<path fill-rule="evenodd" clip-rule="evenodd" d="M303.324 504.831C310.354 504.831 316.053 501.385 316.053 497.134C316.053 494.607 290.595 494.123 290.595 497.134C290.595 501.385 296.294 504.831 303.324 504.831Z" fill="#EE9393"/>
<path fill-rule="evenodd" clip-rule="evenodd" d="M303.324 504.813C306.103 504.813 308.357 504.552 308.357 503.571C308.357 502.59 306.103 501.261 303.324 501.261C300.545 501.261 298.292 502.59 298.292 503.571C298.292 504.552 300.545 504.813 303.324 504.813Z" fill="#FDA981"/>
<path fill-rule="evenodd" clip-rule="evenodd" d="M309.531 498.321C310.185 498.321 310.986 495.921 310.706 495.623C310.506 495.411 308.551 495.178 308.338 495.464C308.117 495.761 308.877 498.321 309.531 498.321Z" fill="white"/>
<path fill-rule="evenodd" clip-rule="evenodd" d="M261.289 492.093C265.703 492.093 269.281 489.178 269.281 485.581C269.281 481.984 265.703 479.068 261.289 479.068C256.875 479.068 253.296 481.984 253.296 485.581C253.296 489.178 256.875 492.093 261.289 492.093Z" fill="#FBA5F6" fill-opacity="0.356091"/>
<path fill-rule="evenodd" clip-rule="evenodd" d="M345.36 492.093C349.774 492.093 353.353 489.178 353.353 485.581C353.353 481.984 349.774 479.068 345.36 479.068C340.946 479.068 337.367 481.984 337.367 485.581C337.367 489.178 340.946 492.093 345.36 492.093Z" fill="#FBA5F6" fill-opacity="0.356091"/>
<path fill-rule="evenodd" clip-rule="evenodd" d="M331.68 468.091C335.6 468.091 337.223 472.25 340.38 470.183C343.538 468.117 339.09 463.004 331.68 463.004C324.27 463.004 320.565 468.031 323.239 470.183C325.913 472.336 327.76 468.091 331.68 468.091Z" fill="black"/>
<path fill-rule="evenodd" clip-rule="evenodd" d="M273.849 468.091C277.769 468.091 279.391 472.25 282.549 470.183C285.706 468.117 281.259 463.004 273.849 463.004C266.439 463.004 262.734 468.031 265.408 470.183C268.082 472.336 269.928 468.091 273.849 468.091Z" fill="black"/>
<path fill-rule="evenodd" clip-rule="evenodd" d="M204.599 391.589C207.477 377.075 220.211 366.618 235.007 366.618H300.713V438.759C300.713 445.939 294.893 451.759 287.713 451.759H192.667L204.599 391.589Z" fill="#F8F3BD"/>
<path fill-rule="evenodd" clip-rule="evenodd" d="M399.145 392.284C396.553 377.446 383.671 366.618 368.608 366.618H301.489V441.759C301.489 447.282 305.966 451.759 311.489 451.759H409.535L399.145 392.284Z" fill="#4A4A4A"/>
<rect x="270.967" y="654.169" width="12.8514" height="57.8313" rx="4" fill="#F8EDE0"/>
<rect x="327.192" y="654.169" width="12.8514" height="57.8313" rx="4" fill="#F8EDE0"/>
<path fill-rule="evenodd" clip-rule="evenodd" d="M303.511 553.736C370.051 553.736 423.993 499.795 423.993 433.254C423.993 366.714 370.051 312.772 303.511 312.772C236.97 312.772 183.029 366.714 183.029 433.254C183.029 499.795 236.97 553.736 303.511 553.736Z" fill="#808CB1" fill-opacity="0.319639"/>
<path fill-rule="evenodd" clip-rule="evenodd" d="M251.325 338.479C253.9 337.039 257.091 337.767 258.892 340.104C261.373 343.323 260.165 348.135 256.631 350.143C249.573 354.155 238.359 361.658 227.807 373.542C210.673 392.838 207.517 412.972 203.363 413.814C199.209 414.657 196.022 414.973 197.64 404.759C199.258 394.546 206.061 377.255 219.044 362.634C228.543 351.936 243.814 342.677 251.325 338.479Z" fill="white"/>
<rect y="627" width="606" height="397" fill="url(#paint1_linear)"/>
<path d="M396 750.31H210.363V865.309H396V750.31Z" fill="#323F5B"/>
<path d="M354.391 692.811H386.398V718.367C386.398 721.896 383.533 724.755 379.997 724.755H360.793C357.256 724.755 354.391 721.896 354.391 718.367V692.811Z" fill="#E64C3C"/>
<path d="M309.583 692.811H341.589V718.367C341.589 721.896 338.724 724.755 335.188 724.755H315.984C312.447 724.755 309.583 721.896 309.583 718.367V692.811Z" fill="#E64C3C"/>
<path d="M264.774 692.811H296.78V718.367C296.78 721.896 293.915 724.755 290.379 724.755H271.175C267.638 724.755 264.774 721.896 264.774 718.367V692.811Z" fill="#E64C3C"/>
<path d="M219.964 692.811H251.971V718.367C251.971 721.896 249.106 724.755 245.569 724.755H226.365C222.829 724.755 219.964 721.896 219.964 718.367V692.811Z" fill="#E64C3C"/>
<path d="M396 680.033H210.363V692.811H396V680.033Z" fill="#323F5B"/>
<path d="M387.591 860.596C387.425 860.761 387.425 861.028 387.591 861.194C387.756 861.359 388.024 861.359 388.19 861.194C392.981 856.412 392.981 848.632 388.19 843.85C388.107 843.767 387.998 843.726 387.89 843.726C387.782 843.726 387.673 843.767 387.591 843.85C387.425 844.015 387.425 844.282 387.591 844.448C392.051 848.9 392.051 856.144 387.591 860.596Z" fill="white"/>
<path d="M370.812 861.194C370.978 861.359 371.245 861.359 371.411 861.194C371.577 861.028 371.577 860.761 371.411 860.596C369.254 858.443 368.065 855.576 368.065 852.522C368.065 849.468 369.254 846.601 371.411 844.448C371.577 844.282 371.577 844.015 371.411 843.85C371.329 843.767 371.22 843.726 371.112 843.726C371.003 843.726 370.895 843.767 370.812 843.85C368.494 846.163 367.218 849.242 367.218 852.522C367.218 855.801 368.494 858.881 370.812 861.194Z" fill="white"/>
<path d="M385.793 858.802C385.627 858.967 385.627 859.235 385.793 859.4C385.958 859.565 386.226 859.565 386.392 859.4C390.192 855.607 390.192 849.436 386.392 845.644C386.309 845.562 386.201 845.52 386.092 845.52C385.984 845.52 385.875 845.562 385.793 845.644C385.627 845.809 385.627 846.077 385.793 846.242C389.262 849.705 389.262 855.339 385.793 858.802Z" fill="white"/>
<path d="M372.609 859.4C372.775 859.565 373.043 859.565 373.209 859.4C373.374 859.235 373.374 858.967 373.209 858.802C369.739 855.339 369.739 849.705 373.209 846.242C373.374 846.077 373.374 845.809 373.209 845.644C373.126 845.562 373.017 845.52 372.909 845.52C372.8 845.52 372.692 845.562 372.609 845.644C368.809 849.436 368.809 855.607 372.609 859.4Z" fill="white"/>
<path d="M383.995 857.605C384.161 857.771 384.428 857.771 384.594 857.605C385.953 856.25 386.701 854.444 386.701 852.522C386.701 850.599 385.953 848.794 384.594 847.438C384.512 847.356 384.403 847.314 384.295 847.314C384.186 847.314 384.078 847.356 383.995 847.438C383.829 847.603 383.829 847.871 383.995 848.036C386.473 850.51 386.473 854.533 383.995 857.007C383.83 857.172 383.83 857.44 383.995 857.605Z" fill="white"/>
<path d="M374.407 857.605C374.573 857.771 374.84 857.771 375.006 857.605C375.172 857.44 375.172 857.173 375.006 857.007C372.528 854.534 372.528 850.51 375.006 848.036C375.172 847.871 375.172 847.604 375.006 847.438C374.923 847.356 374.815 847.315 374.707 847.315C374.598 847.315 374.49 847.356 374.407 847.438C373.048 848.794 372.3 850.6 372.3 852.522C372.3 854.445 373.048 856.25 374.407 857.605Z" fill="white"/>
<path fill-rule="evenodd" clip-rule="evenodd" d="M382.467 852.437C382.467 854.069 381.136 855.397 379.501 855.397C377.865 855.397 376.535 854.069 376.535 852.437C376.535 850.949 377.642 849.717 379.077 849.51V836.789C379.077 836.555 379.267 836.366 379.501 836.366C379.735 836.366 379.925 836.555 379.925 836.789V849.51C381.359 849.717 382.467 850.949 382.467 852.437ZM381.62 852.437C381.62 851.271 380.669 850.322 379.501 850.322C378.333 850.322 377.382 851.271 377.382 852.437C377.382 853.603 378.333 854.551 379.501 854.551C380.669 854.551 381.62 853.603 381.62 852.437Z" fill="white"/>
<path d="M277.486 807.72C277.486 821.884 288.989 833.364 303.181 833.364C317.372 833.364 328.875 821.884 328.875 807.72C328.875 793.555 317.372 782.075 303.181 782.075C288.989 782.075 277.486 793.555 277.486 807.72Z" fill="#2669B9"/>
<path d="M309.583 798.227V817.393L290.378 807.81L309.583 798.227Z" fill="white"/>
<defs>
<linearGradient id="paint0_linear" x1="606" y1="1024" x2="606" y2="0" gradientUnits="userSpaceOnUse">
<stop stop-color="#2B3780"/>
<stop offset="1" stop-color="#20244C"/>
</linearGradient>
<linearGradient id="paint1_linear" x1="782.308" y1="1255" x2="782.308" y2="627" gradientUnits="userSpaceOnUse">
<stop stop-color="#434A83"/>
<stop offset="1" stop-color="#20244C"/>
</linearGradient>
</defs>
</svg>
