<?xml version="1.0" encoding="UTF-8"?>
<svg width="1000px" height="372px" viewBox="0 0 1000 372" version="1.1" xmlns="http://www.w3.org/2000/svg" xmlns:xlink="http://www.w3.org/1999/xlink">
    <defs>
        <linearGradient x1="97.7410163%" y1="97.688312%" x2="7.32148947%" y2="5.15920812%" id="linearGradient-1">
            <stop stop-color="#E2958C" offset="0%"></stop>
            <stop stop-color="#B998EA" offset="100%"></stop>
        </linearGradient>
        <path d="M431.291776,240.287905 C441.644876,233.415419 446.821425,225.740356 446.821425,217.262716 C446.821425,204.546255 439.868565,194.237527 431.291776,194.237527 C422.714987,194.237527 415.762126,204.546255 415.762126,217.262716 C415.762126,225.740356 420.938676,233.415419 431.291776,240.287905 Z" id="path-2"></path>
        <filter x="-70.8%" y="-43.4%" width="241.7%" height="195.5%" filterUnits="objectBoundingBox" id="filter-3">
            <feOffset dx="0" dy="2" in="SourceAlpha" result="shadowOffsetOuter1"></feOffset>
            <feGaussianBlur stdDeviation="7" in="shadowOffsetOuter1" result="shadowBlurOuter1"></feGaussianBlur>
            <feColorMatrix values="0 0 0 0 0   0 0 0 0 0   0 0 0 0 0  0 0 0 0.5 0" type="matrix" in="shadowBlurOuter1"></feColorMatrix>
        </filter>
        <ellipse id="path-4" cx="465.509434" cy="215.599496" rx="17.5552561" ry="25.1183879"></ellipse>
        <filter x="-62.7%" y="-39.8%" width="225.3%" height="187.6%" filterUnits="objectBoundingBox" id="filter-5">
            <feOffset dx="0" dy="2" in="SourceAlpha" result="shadowOffsetOuter1"></feOffset>
            <feGaussianBlur stdDeviation="7" in="shadowOffsetOuter1" result="shadowBlurOuter1"></feGaussianBlur>
            <feColorMatrix values="0 0 0 0 0   0 0 0 0 0   0 0 0 0 0  0 0 0 0.5 0" type="matrix" in="shadowBlurOuter1"></feColorMatrix>
        </filter>
        <ellipse id="path-6" cx="500.282345" cy="215.599496" rx="17.217655" ry="25.1183879"></ellipse>
        <filter x="-63.9%" y="-39.8%" width="227.8%" height="187.6%" filterUnits="objectBoundingBox" id="filter-7">
            <feOffset dx="0" dy="2" in="SourceAlpha" result="shadowOffsetOuter1"></feOffset>
            <feGaussianBlur stdDeviation="7" in="shadowOffsetOuter1" result="shadowBlurOuter1"></feGaussianBlur>
            <feColorMatrix values="0 0 0 0 0   0 0 0 0 0   0 0 0 0 0  0 0 0 0.5 0" type="matrix" in="shadowBlurOuter1"></feColorMatrix>
        </filter>
        <path d="M535.055256,240.717884 C544.750756,240.717884 552.610512,229.471999 552.610512,215.599496 C552.610512,201.726994 544.750756,190.481108 535.055256,190.481108 C525.359756,190.481108 517.923222,201.726994 517.923222,215.599496 C517.923222,229.471999 525.359756,240.717884 535.055256,240.717884 Z" id="path-8"></path>
        <filter x="-63.4%" y="-39.8%" width="226.8%" height="187.6%" filterUnits="objectBoundingBox" id="filter-9">
            <feOffset dx="0" dy="2" in="SourceAlpha" result="shadowOffsetOuter1"></feOffset>
            <feGaussianBlur stdDeviation="7" in="shadowOffsetOuter1" result="shadowBlurOuter1"></feGaussianBlur>
            <feColorMatrix values="0 0 0 0 0   0 0 0 0 0   0 0 0 0 0  0 0 0 0.5 0" type="matrix" in="shadowBlurOuter1"></feColorMatrix>
        </filter>
        <path d="M570.165768,240.717884 C579.861268,240.717884 587.721024,229.471999 587.721024,215.599496 C587.721024,201.726994 579.861268,190.481108 570.165768,190.481108 C560.470268,190.481108 552.656181,201.726994 552.656181,215.599496 C552.656181,229.471999 560.470268,240.717884 570.165768,240.717884 Z" id="path-10"></path>
        <filter x="-62.7%" y="-39.8%" width="225.5%" height="187.6%" filterUnits="objectBoundingBox" id="filter-11">
            <feOffset dx="0" dy="2" in="SourceAlpha" result="shadowOffsetOuter1"></feOffset>
            <feGaussianBlur stdDeviation="7" in="shadowOffsetOuter1" result="shadowBlurOuter1"></feGaussianBlur>
            <feColorMatrix values="0 0 0 0 0   0 0 0 0 0   0 0 0 0 0  0 0 0 0.5 0" type="matrix" in="shadowBlurOuter1"></feColorMatrix>
        </filter>
        <ellipse id="path-12" cx="465.509434" cy="60.7027708" rx="17.5552561" ry="25.1183879"></ellipse>
        <filter x="-62.7%" y="-39.8%" width="225.3%" height="187.6%" filterUnits="objectBoundingBox" id="filter-13">
            <feOffset dx="0" dy="2" in="SourceAlpha" result="shadowOffsetOuter1"></feOffset>
            <feGaussianBlur stdDeviation="7" in="shadowOffsetOuter1" result="shadowBlurOuter1"></feGaussianBlur>
            <feColorMatrix values="0 0 0 0 0   0 0 0 0 0   0 0 0 0 0  0 0 0 0.5 0" type="matrix" in="shadowBlurOuter1"></feColorMatrix>
        </filter>
        <ellipse id="path-14" cx="499.944744" cy="60.7027708" rx="17.5552561" ry="25.1183879"></ellipse>
        <filter x="-62.7%" y="-39.8%" width="225.3%" height="187.6%" filterUnits="objectBoundingBox" id="filter-15">
            <feOffset dx="0" dy="2" in="SourceAlpha" result="shadowOffsetOuter1"></feOffset>
            <feGaussianBlur stdDeviation="7" in="shadowOffsetOuter1" result="shadowBlurOuter1"></feGaussianBlur>
            <feColorMatrix values="0 0 0 0 0   0 0 0 0 0   0 0 0 0 0  0 0 0 0.5 0" type="matrix" in="shadowBlurOuter1"></feColorMatrix>
        </filter>
        <ellipse id="path-16" cx="535.055256" cy="60.7027708" rx="17.5552561" ry="25.1183879"></ellipse>
        <filter x="-62.7%" y="-39.8%" width="225.3%" height="187.6%" filterUnits="objectBoundingBox" id="filter-17">
            <feOffset dx="0" dy="2" in="SourceAlpha" result="shadowOffsetOuter1"></feOffset>
            <feGaussianBlur stdDeviation="7" in="shadowOffsetOuter1" result="shadowBlurOuter1"></feGaussianBlur>
            <feColorMatrix values="0 0 0 0 0   0 0 0 0 0   0 0 0 0 0  0 0 0 0.5 0" type="matrix" in="shadowBlurOuter1"></feColorMatrix>
        </filter>
        <ellipse id="path-18" cx="570.165768" cy="60.7027708" rx="17.5552561" ry="25.1183879"></ellipse>
        <filter x="-62.7%" y="-39.8%" width="225.3%" height="187.6%" filterUnits="objectBoundingBox" id="filter-19">
            <feOffset dx="0" dy="2" in="SourceAlpha" result="shadowOffsetOuter1"></feOffset>
            <feGaussianBlur stdDeviation="7" in="shadowOffsetOuter1" result="shadowBlurOuter1"></feGaussianBlur>
            <feColorMatrix values="0 0 0 0 0   0 0 0 0 0   0 0 0 0 0  0 0 0 0.5 0" type="matrix" in="shadowBlurOuter1"></feColorMatrix>
        </filter>
        <path d="M605.27628,81.6347607 C615.62938,74.7622752 620.80593,67.0872123 620.80593,58.6095718 C620.80593,45.8931111 613.853069,35.5843829 605.27628,35.5843829 C596.699492,35.5843829 589.746631,45.8931111 589.746631,58.6095718 C589.746631,67.0872123 594.923181,74.7622752 605.27628,81.6347607 Z" id="path-20"></path>
        <filter x="-70.8%" y="-43.4%" width="241.7%" height="195.5%" filterUnits="objectBoundingBox" id="filter-21">
            <feOffset dx="0" dy="2" in="SourceAlpha" result="shadowOffsetOuter1"></feOffset>
            <feGaussianBlur stdDeviation="7" in="shadowOffsetOuter1" result="shadowBlurOuter1"></feGaussianBlur>
            <feColorMatrix values="0 0 0 0 0   0 0 0 0 0   0 0 0 0 0  0 0 0 0.5 0" type="matrix" in="shadowBlurOuter1"></feColorMatrix>
        </filter>
        <path d="M604.22775,240.478331 C612.804539,240.478331 618.782683,230.283332 618.782683,217.566871 C618.782683,209.089231 613.931039,201.376258 604.22775,194.427953 C593.87465,201.300438 588.698101,208.975501 588.698101,217.453142 C588.698101,230.169602 595.650962,240.478331 604.22775,240.478331 Z" id="path-22"></path>
        <filter x="-73.1%" y="-43.4%" width="246.3%" height="195.5%" filterUnits="objectBoundingBox" id="filter-23">
            <feOffset dx="0" dy="2" in="SourceAlpha" result="shadowOffsetOuter1"></feOffset>
            <feGaussianBlur stdDeviation="7" in="shadowOffsetOuter1" result="shadowBlurOuter1"></feGaussianBlur>
            <feColorMatrix values="0 0 0 0 0   0 0 0 0 0   0 0 0 0 0  0 0 0 0.5 0" type="matrix" in="shadowBlurOuter1"></feColorMatrix>
        </filter>
        <path d="M431.291776,81.2879046 C439.868565,81.2879046 446.821425,70.9791764 446.821425,58.2627157 C446.821425,49.7850752 441.644876,42.1100122 431.291776,35.2375267 C420.938676,42.1100122 415.762126,49.7850752 415.762126,58.2627157 C415.762126,70.9791764 422.714987,81.2879046 431.291776,81.2879046 Z" id="path-24"></path>
        <filter x="-70.8%" y="-43.4%" width="241.7%" height="195.5%" filterUnits="objectBoundingBox" id="filter-25">
            <feOffset dx="0" dy="2" in="SourceAlpha" result="shadowOffsetOuter1"></feOffset>
            <feGaussianBlur stdDeviation="7" in="shadowOffsetOuter1" result="shadowBlurOuter1"></feGaussianBlur>
            <feColorMatrix values="0 0 0 0 0   0 0 0 0 0   0 0 0 0 0  0 0 0 0.5 0" type="matrix" in="shadowBlurOuter1"></feColorMatrix>
        </filter>
    </defs>
    <g id="Page-1" stroke="none" stroke-width="1" fill="none" fill-rule="evenodd">
        <g id="Home-Copy" transform="translate(-214.000000, -5696.000000)">
            <g id="Group-51" transform="translate(-5.000000, 5650.000000)">
                <g id="Group-3" transform="translate(219.000000, 46.000000)">
                    <path d="M439.734753,28.1638496 C471.681323,-9.38794986 549.03363,-9.38794986 581.405789,28.1638496 C602.987228,53.1983825 623.185298,95.143766 642,154 L385,154 C400.192123,95.143766 418.437041,53.1983825 439.734753,28.1638496 Z" id="Rectangle-8" fill="#B0C3FA"></path>
                    <g id="Group" transform="translate(0.000000, 95.000000)">
                        <rect id="Rectangle-15" stroke="#979797" fill="#3E3E3E" x="393.087601" y="48.6435768" width="242.747978" height="185.29471"></rect>
                        <ellipse id="Oval-3" fill="#FFDBDF" cx="515.474394" cy="198.853904" rx="109.382749" ry="32.0957179"></ellipse>
                        <path d="M385.636909,257.395123 C406.43285,257.395123 420.946092,204.219579 420.946092,137.577274 C420.946092,70.9349699 404.423542,28.1573379 389.449158,28.1573379 C386.515692,28.1573379 373.285272,20.1779795 374.579891,33.6811878 C376.520857,53.9259589 392.721809,102.368773 392.656792,137.577274 C392.590432,173.51345 374.105004,221.335484 371.157943,244.50695 C369.29174,259.180099 382.748977,257.395123 385.636909,257.395123 Z" id="Oval-2-Copy" fill="#9FB6F9" transform="translate(395.963612, 141.639798) scale(-1, 1) translate(-395.963612, -141.639798) "></path>
                        <path d="M617.805225,257.463476 C639.01218,257.463476 654.566038,204.448421 654.566038,137.807628 C654.566038,71.1668348 641.006139,28.3901728 625.7358,28.3901728 C622.315822,28.3901728 615.980949,17.7382561 617.805225,34.8740587 C619.968983,55.1986856 630.723573,105.964009 630.663606,137.807628 C630.579383,182.532243 615.929062,229.762003 614.780435,249.187628 C614.421743,255.253832 615.997704,257.463476 617.805225,257.463476 Z" id="Oval-2-Copy-2" fill="#9FB6F9"></path>
                        <path d="M386.274254,253.232276 C401.602356,253.232276 422.971698,204.303519 422.971698,137.648299 C422.971698,70.9930782 401.46625,30.0530586 390.429053,30.0530586 C388.266877,30.0530586 385.320026,20.0901159 386.274254,33.5959414 C387.704885,53.8446362 405.671407,102.432974 405.623485,137.648299 C405.574573,173.59144 385.770375,220.156819 383.598179,243.332776 C382.222653,258.008768 384.14564,253.232276 386.274254,253.232276 Z" id="Oval-2-Copy-3" fill="#6A7699" transform="translate(403.053235, 140.244332) scale(-1, 1) translate(-403.053235, -140.244332) "></path>
                        <path d="M609.175978,257.017227 C624.387467,257.017227 643.762803,207.600835 643.762803,141.050418 C643.762803,74.4999998 624.252396,34.1889169 613.299169,34.1889169 C611.153443,34.1889169 613.15207,36.6828548 613.299169,37.7262291 C616.310117,59.0829836 630.928614,104.168118 630.883272,137.690359 C630.834732,173.576986 615.454838,223.035917 613.299169,246.175434 C611.934108,260.828351 607.063559,257.017227 609.175978,257.017227 Z" id="Oval-2-Copy-4" fill="#6A7699"></path>
                        <g id="Group-48" transform="translate(16.000000, 14.993988)"></g>
                        <path d="M109.422931,3.64064798 L482.577069,75.6108383 C494.086301,77.8306224 505.913699,77.8306224 517.422931,75.6108383 L890.577069,3.64064798 C940.467801,-5.9817711 988.712743,26.6621466 998.335162,76.5528789 C999.442532,82.2944188 1000,88.1284559 1000,93.9758099 L1000,170.271846 C1000,221.082043 958.810197,262.271846 908,262.271846 C904.191535,262.271846 900.386746,262.035361 896.607593,261.563757 L511.392407,213.492378 C503.826809,212.54826 496.173191,212.54826 488.607593,213.492378 L103.392407,261.563757 C52.9732763,267.85561 6.99994118,232.083383 0.708088696,181.664253 C0.236484599,177.8851 -3.12172401e-13,174.08031 -3.12638804e-13,170.271846 L-3.41060513e-13,93.9758099 C-3.47282968e-13,43.1656129 41.189803,1.97580988 92,1.97580988 C97.847354,1.97580988 103.681391,2.53327792 109.422931,3.64064798 Z" id="Rectangle-16" fill="url(#linearGradient-1)"></path>
                        <g id="Oval-Copy-3" transform="translate(431.291776, 217.262716) scale(-1, -1) rotate(-23.000000) translate(-431.291776, -217.262716) ">
                            <use fill="black" fill-opacity="1" filter="url(#filter-3)" xlink:href="#path-2"></use>
                            <use fill="#FFFFFF" fill-rule="evenodd" xlink:href="#path-2"></use>
                        </g>
                        <g id="Oval-31">
                            <use fill="black" fill-opacity="1" filter="url(#filter-5)" xlink:href="#path-4"></use>
                            <use fill="#FFFFFF" fill-rule="evenodd" xlink:href="#path-4"></use>
                        </g>
                        <g id="Oval-31-Copy">
                            <use fill="black" fill-opacity="1" filter="url(#filter-7)" xlink:href="#path-6"></use>
                            <use fill="#FFFFFF" fill-rule="evenodd" xlink:href="#path-6"></use>
                        </g>
                        <g id="Oval-31-Copy-2">
                            <use fill="black" fill-opacity="1" filter="url(#filter-9)" xlink:href="#path-8"></use>
                            <use fill="#FFFFFF" fill-rule="evenodd" xlink:href="#path-8"></use>
                        </g>
                        <g id="Oval-31-Copy-3">
                            <use fill="black" fill-opacity="1" filter="url(#filter-11)" xlink:href="#path-10"></use>
                            <use fill="#FFFFFF" fill-rule="evenodd" xlink:href="#path-10"></use>
                        </g>
                        <g id="Oval-31-Copy-4">
                            <use fill="black" fill-opacity="1" filter="url(#filter-13)" xlink:href="#path-12"></use>
                            <use fill="#FFFFFF" fill-rule="evenodd" xlink:href="#path-12"></use>
                        </g>
                        <g id="Oval-31-Copy-5">
                            <use fill="black" fill-opacity="1" filter="url(#filter-15)" xlink:href="#path-14"></use>
                            <use fill="#FFFFFF" fill-rule="evenodd" xlink:href="#path-14"></use>
                        </g>
                        <g id="Oval-31-Copy-6">
                            <use fill="black" fill-opacity="1" filter="url(#filter-17)" xlink:href="#path-16"></use>
                            <use fill="#FFFFFF" fill-rule="evenodd" xlink:href="#path-16"></use>
                        </g>
                        <g id="Oval-31-Copy-7">
                            <use fill="black" fill-opacity="1" filter="url(#filter-19)" xlink:href="#path-18"></use>
                            <use fill="#FFFFFF" fill-rule="evenodd" xlink:href="#path-18"></use>
                        </g>
                        <g id="Oval" transform="translate(605.276280, 58.609572) rotate(-23.000000) translate(-605.276280, -58.609572) ">
                            <use fill="black" fill-opacity="1" filter="url(#filter-21)" xlink:href="#path-20"></use>
                            <use fill="#FFFFFF" fill-rule="evenodd" xlink:href="#path-20"></use>
                        </g>
                        <g id="Oval-Copy" transform="translate(603.740392, 217.453142) scale(-1, 1) rotate(-23.000000) translate(-603.740392, -217.453142) ">
                            <use fill="black" fill-opacity="1" filter="url(#filter-23)" xlink:href="#path-22"></use>
                            <use fill="#FFFFFF" fill-rule="evenodd" xlink:href="#path-22"></use>
                        </g>
                        <g id="Oval-Copy-2" transform="translate(431.291776, 58.262716) scale(1, -1) rotate(-23.000000) translate(-431.291776, -58.262716) ">
                            <use fill="black" fill-opacity="1" filter="url(#filter-25)" xlink:href="#path-24"></use>
                            <use fill="#FFFFFF" fill-rule="evenodd" xlink:href="#path-24"></use>
                        </g>
                        <path d="M512.826733,60.7027708 C572.164281,60.7027708 635.660377,59.9924503 635.660377,40.9215679 C635.660377,21.8506855 572.164281,0 512.826733,0 C453.489186,0 391.237197,22.9480866 391.237197,40.9215679 C391.237197,58.8950491 453.489186,60.7027708 512.826733,60.7027708 Z" id="Oval-32" fill="#9FB6F9"></path>
                        <ellipse id="Oval-32-Copy" fill="#9FB6F9" cx="510.747978" cy="246.648615" rx="118.160377" ry="30.3513854"></ellipse>
                        <ellipse id="Oval-34" fill="#6A7699" cx="462.133423" cy="30.3513854" rx="14.1792453" ry="12.2103275"></ellipse>
                        <ellipse id="Oval-34-Copy" fill="#6A7699" cx="560.712938" cy="30.3513854" rx="14.1792453" ry="12.2103275"></ellipse>
                    </g>
                    <g id="Group-2" transform="translate(507.500000, 56.000000) rotate(90.000000) translate(-507.500000, -56.000000) translate(478.000000, 21.000000)">
                        <ellipse id="Oval-33" fill="#FFFFFF" cx="29.5" cy="35" rx="29.5" ry="35"></ellipse>
                        <ellipse id="Oval-2" fill="#4A4A4A" cx="26.3392857" cy="35" rx="11.5892857" ry="13.125"></ellipse>
                    </g>
                </g>
            </g>
        </g>
    </g>
</svg>