
<svg width="500px" height="100%" version="1.1" xmlns="http://www.w3.org/2000/svg" xmlns:xlink="http://www.w3.org/1999/xlink">
    <!-- Generator: Sketch 51.1 (57501) - http://www.bohemiancoding.com/sketch -->
    <desc>Created with Sketch.</desc>
    <defs>
        <linearGradient x1="50%" y1="100%" x2="50%" y2="0%" id="linearGradient-1">
            <stop stop-color="#2B3780" offset="0%"></stop>
            <stop stop-color="#20244C" offset="100%"></stop>
        </linearGradient>
    </defs>
    <g id="Page-1" stroke="none" stroke-width="1" fill="none" fill-rule="evenodd">
        <g id="Регистрация-2-Copy-2">
            <g id="Group-7">
                <rect id="Rectangle-26" fill="url(#linearGradient-1)" x="0" y="0" width="500" height="1028"></rect>
                <g id="Group-5" opacity="0.600669643" transform="translate(10.000000, 88.000000)" fill="#FFFFFF">
                    <path d="M67.5658646,173 C68.3942918,173 69.0658646,172.328427 69.0658646,171.5 C69.0658646,170.671573 68.3942918,170 67.5658646,170 C66.7374375,170 0,170.671573 0,171.5 C0,172.328427 66.7374375,173 67.5658646,173 Z" id="Oval-2-Copy-2"></path>
                    <path d="M199.5,83 C200.328427,83 201,82.3284271 201,81.5 C201,80.6715729 200.328427,80 199.5,80 C198.671573,80 144.278927,82.1715729 144.278927,83 C144.278927,83.8284271 198.671573,83 199.5,83 Z" id="Oval-2-Copy-4"></path>
                    <path d="M334.5,119 C335.328427,119 336,118.328427 336,117.5 C336,116.671573 335.328427,116 334.5,116 C333.671573,116 256.775411,118.171573 256.775411,119 C256.775411,119.828427 333.671573,119 334.5,119 Z" id="Oval-2-Copy-7"></path>
                    <path d="M444.5,146 C445.328427,146 446,145.328427 446,144.5 C446,143.671573 445.328427,143 444.5,143 C443.671573,143 375.380755,145.171573 375.380755,146 C375.380755,146.828427 443.671573,146 444.5,146 Z" id="Oval-2-Copy-8"></path>
                    <path d="M463.5,60 C464.328427,60 465,59.3284271 465,58.5 C465,57.6715729 464.328427,57 463.5,57 C462.671573,57 380.513629,59.1715729 380.513629,60 C380.513629,60.8284271 462.671573,60 463.5,60 Z" id="Oval-2-Copy-9"></path>
                    <path d="M331.5,3 C332.328427,3 333,2.32842712 333,1.5 C333,0.671572875 332.328427,0 331.5,0 C330.671573,0 280.0121,0.671572875 280.0121,1.5 C280.0121,2.32842712 330.671573,3 331.5,3 Z" id="Oval-2-Copy-11"></path>
                    <path d="M249,209 C250.656854,209 252,207.656854 252,206 C252,204.343146 250.656854,203 249,203 C247.343146,203 111.396691,204.343146 111.396691,206 C111.396691,207.656854 247.343146,209 249,209 Z" id="Oval-2-Copy-3"></path>
                </g>
                <g id="Group-5-Copy" opacity="0.600669643" transform="translate(242.500000, 573.500000) scale(1, -1) translate(-242.500000, -573.500000) translate(33.000000, 391.000000)" fill="#FFFFFF">
                    <path d="M100.5,365 C101.328427,365 102,364.328427 102,363.5 C102,362.671573 101.328427,362 100.5,362 C99.6715729,362 20.5145626,362.671573 20.5145626,363.5 C20.5145626,364.328427 99.6715729,365 100.5,365 Z" id="Oval-2"></path>
                    <path d="M87.5,267 C88.3284271,267 89,266.328427 89,265.5 C89,264.671573 88.3284271,264 87.5,264 C86.6715729,264 0.871934462,264.671573 0.871934462,265.5 C0.871934462,266.328427 86.6715729,267 87.5,267 Z" id="Oval-2-Copy"></path>
                    <path d="M148.5,173 C149.328427,173 150,172.328427 150,171.5 C150,170.671573 149.328427,170 148.5,170 C147.671573,170 80.9341354,170.671573 80.9341354,171.5 C80.9341354,172.328427 147.671573,173 148.5,173 Z" id="Oval-2-Copy-2"></path>
                    <path d="M282.5,83 C283.328427,83 284,82.3284271 284,81.5 C284,80.6715729 283.328427,80 282.5,80 C281.671573,80 227.278927,82.1715729 227.278927,83 C227.278927,83.8284271 281.671573,83 282.5,83 Z" id="Oval-2-Copy-4"></path>
                    <path d="M132.5,61 C133.328427,61 134,60.3284271 134,59.5 C134,58.6715729 133.328427,58 132.5,58 C131.671573,58 45.5436239,60.1715729 45.5436239,61 C45.5436239,61.8284271 131.671573,61 132.5,61 Z" id="Oval-2-Copy-5"></path>
                    <path d="M63.5,139 C64.8807119,139 66,137.880712 66,136.5 C66,135.119288 64.8807119,134 63.5,134 C62.1192881,134 4.03528872,135.119288 4.03528872,136.5 C4.03528872,137.880712 62.1192881,139 63.5,139 Z" id="Oval-2-Copy-6"></path>
                    <path d="M417.5,117 C418.328427,117 419,116.328427 419,115.5 C419,114.671573 418.328427,114 417.5,114 C416.671573,114 339.775411,116.171573 339.775411,117 C339.775411,117.828427 416.671573,117 417.5,117 Z" id="Oval-2-Copy-7"></path>
                    <path d="M414.5,3 C415.328427,3 416,2.32842712 416,1.5 C416,0.671572875 415.328427,0 414.5,0 C413.671573,0 363.0121,0.671572875 363.0121,1.5 C363.0121,2.32842712 413.671573,3 414.5,3 Z" id="Oval-2-Copy-11"></path>
                    <path d="M332,209 C333.656854,209 335,207.656854 335,206 C335,204.343146 333.656854,203 332,203 C330.343146,203 235.098507,204.711336 235.098507,206.36819 C235.098507,208.025044 330.343146,209 332,209 Z" id="Oval-2-Copy-3"></path>
                </g>
            </g>
        </g>
    </g>
</svg>