
<svg width="35px" height="29px" viewBox="0 0 35 29" version="1.1" xmlns="http://www.w3.org/2000/svg" xmlns:xlink="http://www.w3.org/1999/xlink">
    <!-- Generator: Sketch 51.1 (57501) - http://www.bohemiancoding.com/sketch -->
    <desc>Created with Sketch.</desc>
    <defs></defs>
    <g id="Page-1" stroke="none" stroke-width="1" fill="none" fill-rule="evenodd">
        <g id="Artboard" transform="translate(-837.000000, -268.000000)" fill="#FFFFFF" fill-rule="nonzero">
            <g id="Group-14" transform="translate(774.000000, 260.000000)">
                <g id="twitter-logo-silhouette" transform="translate(63.000000, 8.000000)">
                    <path d="M35,3.38893791 C33.7118056,3.95974673 32.3295915,4.34686275 30.8773203,4.51968954 C32.3601879,3.63170752 33.4952859,2.22324346 34.033268,0.550106209 C32.6423039,1.37243464 31.1069363,1.96955065 29.4709722,2.29324346 C28.1609314,0.895702614 26.2975245,0.0252205882 24.2306944,0.0252205882 C20.2655147,0.0252205882 17.0504902,3.2402451 17.0504902,7.20325163 C17.0504902,7.76531046 17.1139134,8.31427288 17.2364134,8.83921569 C11.2700572,8.53954248 5.9795098,5.68103758 2.43861928,1.33743464 C1.81965686,2.39601307 1.46754085,3.62947712 1.46754085,4.94615196 C1.46754085,7.43727124 2.73606209,9.63529412 4.66071895,10.9212582 C3.48404412,10.8819118 2.37736928,10.558219 1.40852124,10.0201797 L1.40852124,10.1098529 C1.40852124,13.5873203 3.88431373,16.4895752 7.16710784,17.1501144 C6.56564542,17.3119608 5.9314134,17.401634 5.27527778,17.401634 C4.81164216,17.401634 4.36327614,17.3557108 3.92366013,17.2682108 C4.83783497,20.1223693 7.48862745,22.1978922 10.6293056,22.2547958 C8.17318627,24.1794526 5.07625817,25.3233007 1.71254085,25.3233007 C1.13298203,25.3233007 0.562116013,25.2883007 5.71895425e-05,25.2248775 C3.1779085,27.2654575 6.95064542,28.4552288 11.0054984,28.4552288 C24.2133088,28.4552288 31.4329167,17.515384 31.4329167,8.02781046 L31.4088399,7.09830882 C32.8194771,6.0921732 34.0398448,4.82805556 35,3.38893791 Z" id="Shape"></path>
                </g>
            </g>
        </g>
    </g>
</svg>