
<svg width="35px" height="20px" viewBox="0 0 35 20" version="1.1" xmlns="http://www.w3.org/2000/svg" xmlns:xlink="http://www.w3.org/1999/xlink">
    <!-- Generator: Sketch 51.1 (57501) - http://www.bohemiancoding.com/sketch -->
    <desc>Created with Sketch.</desc>
    <defs></defs>
    <g id="Page-1" stroke="none" stroke-width="1" fill="none" fill-rule="evenodd">
        <g id="Artboard" transform="translate(-656.000000, -273.000000)" fill="#FFFFFF" fill-rule="nonzero">
            <g id="vk-social-network-logo" transform="translate(656.000000, 273.000000)">
                <path d="M34.8143786,18.0621952 C34.7719976,17.9707175 34.7324888,17.8948376 34.6957884,17.8340442 C34.0885405,16.7386766 32.9281059,15.3941903 31.2151867,13.8002019 L31.1789969,13.7637003 L31.1608701,13.7458011 L31.1425518,13.7274544 L31.1241697,13.7274544 C30.3467596,12.9852125 29.8544637,12.4861442 29.6483032,12.230633 C29.271087,11.7439024 29.1865803,11.2512267 29.3927408,10.7520306 C29.5383935,10.3748687 30.0855166,9.57835388 31.0328336,8.36139947 C31.5311292,7.71645263 31.9257702,7.19954906 32.2172033,6.81011342 C34.3190828,4.0114443 35.2303377,2.22305766 34.9507764,1.44425031 L34.8422071,1.26225371 C34.7692531,1.15268498 34.5809641,1.05244941 34.2775954,0.961035599 C33.9735246,0.86981356 33.5848834,0.854727085 33.1109696,0.915520468 L27.8628768,0.951830291 C27.7778595,0.92165734 27.656461,0.924470072 27.4982983,0.961035599 C27.340327,0.997601125 27.2613094,1.01594781 27.2613094,1.01594781 L27.1699733,1.06165472 L27.0974661,1.11656694 C27.036703,1.15287676 26.9698764,1.21673858 26.8969224,1.30802454 C26.8243513,1.39899088 26.7636521,1.50574687 26.7151437,1.62739756 C26.1437664,3.0996714 25.4941375,4.46851338 24.7650442,5.73385958 C24.3155123,6.48837514 23.9026807,7.14227159 23.5256559,7.69593247 C23.1491418,8.24940157 22.8332631,8.6571839 22.5783389,8.91857627 C22.3230318,9.18022434 22.0926172,9.38983686 21.8856907,9.54818093 C21.6790835,9.70658893 21.5213675,9.77351918 21.4121599,9.74903562 C21.302697,9.72455206 21.1996167,9.70026028 21.1020256,9.6759685 C20.9320549,9.56639977 20.7953379,9.41738886 20.6922577,9.22880791 C20.5887307,9.04022696 20.5190318,8.80287067 20.4825867,8.51693081 C20.4463331,8.23079918 20.4248873,7.98468506 20.41876,7.77775742 C20.4130794,7.57108549 20.4156963,7.27875306 20.4280148,6.90159116 C20.4406525,6.52423749 20.4463331,6.26891806 20.4463331,6.13505755 C20.4463331,5.67261871 20.4553327,5.17073769 20.4733957,4.62928663 C20.4917778,4.08783557 20.5066494,3.65882989 20.5190957,3.34278101 C20.531478,3.0264125 20.5372225,2.69169729 20.5372225,2.33882718 C20.5372225,1.98595707 20.5157767,1.70922252 20.4733957,1.50836783 C20.4315253,1.30776884 20.3672518,1.11305102 20.2825536,0.924278295 C20.1973449,0.735697347 20.0726274,0.589818797 19.9089755,0.48625909 C19.7450045,0.382827235 19.5411418,0.300746578 19.2985362,0.239761417 C18.6545879,0.0938189411 17.8346053,0.014870646 16.8382055,0.00259690295 C14.5786738,-0.0216948802 13.1268062,0.124439373 12.4829216,0.440807885 C12.227806,0.574476618 11.9969446,0.757112472 11.7905288,0.988140114 C11.5717944,1.25592506 11.5412852,1.40205931 11.6991927,1.42609539 C12.4282221,1.53547234 12.9443254,1.79712042 13.248077,2.21078391 L13.3575399,2.42998529 C13.4426849,2.58813759 13.5277021,2.86813235 13.6127832,3.26958603 C13.6977367,3.67103971 13.7525639,4.11513186 13.7766904,4.60160678 C13.8373258,5.48998286 13.8373258,6.25044352 13.7766904,6.88305269 C13.7158635,7.51591757 13.6584194,8.00859329 13.6035922,8.3614634 C13.548765,8.71433351 13.4668114,9.00027337 13.3575399,9.21921905 C13.248077,9.43822865 13.1752507,9.57208916 13.1387418,9.62067273 C13.1022967,9.66925629 13.0719151,9.69987672 13.0477886,9.71189476 C12.8898812,9.77249637 12.7256549,9.80337251 12.5556842,9.80337251 C12.3854582,9.80337251 12.1790424,9.71809556 11.9361177,9.54766953 C11.6932568,9.37724349 11.4412048,9.14314741 11.1799618,8.84499774 C10.9187189,8.54678414 10.6240945,8.1300522 10.295961,7.59473801 C9.96808286,7.05942383 9.62788614,6.42675073 9.27556234,5.69671872 L8.98406546,5.1672857 C8.80184001,4.82668933 8.55291559,4.3307534 8.23703687,3.67992539 C7.92096668,3.02884167 7.64159688,2.39904523 7.398736,1.79066392 C7.30165548,1.53515271 7.15581129,1.34062667 6.96145876,1.20676616 L6.8702503,1.15185395 C6.80961486,1.10327038 6.71227903,1.05168231 6.57875342,0.996706164 C6.44503632,0.941793949 6.30551099,0.90241569 6.15960298,0.878187833 L1.16649815,0.914497656 C0.656266907,0.914497656 0.310070476,1.03026718 0.127781205,1.2614866 L0.0548272003,1.37086355 C0.0183821114,1.43178479 0,1.52907977 0,1.6630042 C0,1.79686472 0.0364450889,1.96115388 0.109399093,2.15567992 C0.838300871,3.87144692 1.6309656,5.52616483 2.48739327,7.12008936 C3.34382095,8.71401388 4.08804115,9.99796247 4.7196071,10.9707845 C5.35130069,11.9443096 5.99518521,12.8631144 6.65126063,13.7267512 C7.30733606,14.5907076 7.74161344,15.1443685 7.95409278,15.387606 C8.16682742,15.6312909 8.33392592,15.8134793 8.45538827,15.93513 L8.91104762,16.3730853 C9.20260834,16.665162 9.63075835,17.0149637 10.1956891,17.4224903 C10.7607476,17.8302726 11.3863138,18.2317263 12.072707,18.6274906 C12.7592278,19.0226156 13.5578922,19.3450571 14.4691471,19.5944314 C15.3802743,19.8440614 16.2670835,19.9442331 17.1297024,19.8959052 L19.2253907,19.8959052 C19.6504132,19.8591479 19.9724193,19.7252874 20.1912813,19.4942598 L20.2637885,19.402782 C20.3125522,19.3301624 20.3581884,19.2173334 20.400314,19.0655098 C20.4429503,18.9134304 20.4641408,18.7458811 20.4641408,18.5636288 C20.4516946,18.0405244 20.4914587,17.569072 20.582348,17.1493356 C20.6731735,16.729727 20.7767005,16.4133585 20.8924823,16.200294 C21.0082002,15.9874212 21.1387898,15.8077899 21.2841234,15.662167 C21.4297761,15.5162246 21.5335584,15.4278153 21.5944492,15.3973866 C21.654957,15.3667662 21.7032738,15.3459903 21.7397189,15.3335248 C22.0312796,15.2362298 22.3744124,15.3304563 22.7696278,15.6166519 C23.164524,15.9025918 23.5349108,16.2556537 23.8813625,16.6752622 C24.2276228,17.0952544 24.6436457,17.5664511 25.1294951,18.0895554 C25.6156637,18.6128516 26.04075,19.0018397 26.4050732,19.2577345 L26.7693965,19.4767441 C27.0127042,19.6228784 27.3285829,19.7567389 27.7174156,19.8783896 C28.1055462,19.9999763 28.4456153,20.030405 28.7376228,19.9696116 L33.4025303,19.8967362 C33.8639341,19.8967362 34.2229597,19.8202171 34.4776285,19.6683935 C34.732808,19.5163141 34.8843966,19.3487648 34.9332879,19.1665125 C34.9820515,18.9840684 34.9846684,18.7770768 34.9425428,18.5456656 C34.899332,18.3148298 34.8567596,18.1534173 34.8143786,18.0621952 Z" id="Shape"></path>
            </g>
        </g>
    </g>
</svg>